G04*
G04 #@! TF.GenerationSoftware,Altium Limited,Altium Designer,24.1.2 (44)*
G04*
G04 Layer_Color=65535*
%FSLAX44Y44*%
%MOMM*%
G71*
G04*
G04 #@! TF.SameCoordinates,3C3544C8-D313-44E9-BDBC-33778D0CC135*
G04*
G04*
G04 #@! TF.FilePolarity,Positive*
G04*
G01*
G75*
%ADD10C,0.2000*%
%ADD11C,0.2540*%
%ADD12C,0.3810*%
%ADD13C,0.3048*%
%ADD14C,0.5080*%
%ADD15C,0.2500*%
%ADD16C,0.6000*%
%ADD17C,0.1250*%
%ADD18C,0.1270*%
%ADD19C,0.1000*%
%ADD20C,0.1524*%
%ADD21C,0.3000*%
%ADD22C,0.1200*%
%ADD23R,2.5400X1.2700*%
G36*
X441905Y247378D02*
X438095D01*
Y244838D01*
X441905D01*
Y247378D01*
D02*
G37*
G36*
X392878Y301405D02*
X390338D01*
Y297595D01*
X392878D01*
Y301405D01*
D02*
G37*
G36*
Y351405D02*
X390338D01*
Y347595D01*
X392878D01*
Y351405D01*
D02*
G37*
G36*
X421905Y421622D02*
X418095D01*
Y424162D01*
X421905D01*
Y421622D01*
D02*
G37*
G36*
X471905D02*
X468095D01*
Y424162D01*
X471905D01*
Y421622D01*
D02*
G37*
G36*
X491905Y247378D02*
X488095D01*
Y244838D01*
X491905D01*
Y247378D01*
D02*
G37*
G36*
X541905D02*
X538095D01*
Y244838D01*
X541905D01*
Y247378D01*
D02*
G37*
G36*
X567122Y321405D02*
X569662D01*
Y317595D01*
X567122D01*
Y321405D01*
D02*
G37*
G36*
Y371405D02*
X569662D01*
Y367595D01*
X567122D01*
Y371405D01*
D02*
G37*
G36*
X521905Y421622D02*
X518095D01*
Y424162D01*
X521905D01*
Y421622D01*
D02*
G37*
D10*
X442175Y176278D02*
G03*
X442175Y176278I-1000J0D01*
G01*
X356453Y314021D02*
G03*
X356453Y314021I-1000J0D01*
G01*
X390084Y779318D02*
X406334D01*
X390084Y753318D02*
X406334D01*
X390084D02*
Y757818D01*
Y774818D02*
Y779318D01*
Y743758D02*
X406334D01*
X390084Y717758D02*
X406334D01*
X390084D02*
Y722258D01*
Y739258D02*
Y743758D01*
Y708198D02*
X406334D01*
X390084Y682198D02*
X406334D01*
X390084D02*
Y686698D01*
Y703698D02*
Y708198D01*
Y672638D02*
X406334D01*
X390084Y646638D02*
X406334D01*
X390084D02*
Y651138D01*
Y668138D02*
Y672638D01*
X725250Y98550D02*
X774750D01*
X725250Y281450D02*
X774750D01*
X725250Y98550D02*
Y281450D01*
X774750Y98550D02*
Y281450D01*
X584905Y108107D02*
Y153807D01*
X555605Y108107D02*
Y153807D01*
X457509Y114256D02*
Y159956D01*
X486809Y114256D02*
Y159956D01*
X46488Y712803D02*
X92188D01*
X46488Y742103D02*
X92188D01*
X665636Y159237D02*
Y167737D01*
Y146737D02*
Y149237D01*
X641636Y146737D02*
Y149237D01*
Y165237D02*
Y167737D01*
X42378Y625497D02*
X50878D01*
X60878D02*
X63378D01*
X60878Y601497D02*
X63378D01*
X42378D02*
X44878D01*
X201556Y438524D02*
Y457524D01*
X170556Y438524D02*
Y457524D01*
X201556D01*
X170556Y438524D02*
X201556D01*
Y332999D02*
Y351999D01*
X170556Y332999D02*
Y351999D01*
X201556D01*
X170556Y332999D02*
X201556D01*
X604620Y537065D02*
Y570565D01*
X553620Y537065D02*
Y570565D01*
X604620D01*
X553620Y537065D02*
X604620D01*
X613310Y537065D02*
Y570565D01*
X664310Y537065D02*
Y570565D01*
X613310Y537065D02*
X664310D01*
X613310Y570565D02*
X664310D01*
X204828Y162432D02*
X270828D01*
X204828Y131432D02*
X270828D01*
Y162432D01*
X204828Y131432D02*
Y162432D01*
X16496Y160528D02*
X20729Y156295D01*
X16496Y135128D02*
X20729Y139361D01*
X16496Y135128D02*
X20729Y130895D01*
X16496Y160528D02*
X20729Y164761D01*
X95659Y172805D02*
X99893Y168571D01*
X100316Y97028D02*
Y173228D01*
X74916D02*
X100316D01*
X74916Y97028D02*
X100316D01*
X74916D02*
Y173228D01*
X20729Y164761D02*
X74662D01*
X20729Y156295D02*
X74916D01*
X20729Y139361D02*
X74662D01*
X20729Y130895D02*
X74662D01*
X16496Y109728D02*
X20729Y105495D01*
X16496Y109728D02*
X20729Y113961D01*
X74662D01*
X20729Y105495D02*
X74916D01*
X16496Y290116D02*
X20729Y285883D01*
X16496Y264716D02*
X20729Y268949D01*
X16496Y264716D02*
X20729Y260483D01*
X16496Y290116D02*
X20729Y294349D01*
X95659Y302393D02*
X99893Y298159D01*
X100316Y175816D02*
Y302816D01*
X74916D02*
X100316D01*
X74916Y175816D02*
X100316D01*
X74916D02*
Y302816D01*
X20729Y294349D02*
X74662D01*
X20729Y285883D02*
X74916D01*
X20729Y268949D02*
X74662D01*
X20729Y260483D02*
X74662D01*
X16496Y239316D02*
X20729Y235083D01*
X16496Y213916D02*
X20729Y218149D01*
X16496Y213916D02*
X20729Y209683D01*
X16496Y239316D02*
X20729Y243549D01*
X74662D01*
X20729Y235083D02*
X74916D01*
X20729Y218149D02*
X74662D01*
X20729Y209683D02*
X74662D01*
X16496Y188516D02*
X20729Y184283D01*
X16496Y188516D02*
X20729Y192749D01*
X74662D01*
X20729Y184283D02*
X74916D01*
D11*
X781392Y112993D02*
G03*
X781392Y112993I-1270J0D01*
G01*
X172386Y304475D02*
G03*
X172386Y304475I-1055J0D01*
G01*
X111268Y522356D02*
G03*
X111268Y522356I-1256J0D01*
G01*
X227836D02*
G03*
X227836Y522356I-1256J0D01*
G01*
X344405D02*
G03*
X344405Y522356I-1256J0D01*
G01*
X460973D02*
G03*
X460973Y522356I-1256J0D01*
G01*
X641954Y121564D02*
X665067Y121613D01*
X527125Y121564D02*
X550239Y121613D01*
X363705Y120007D02*
X363754Y96894D01*
X501767Y180006D02*
X524881Y180055D01*
X64450Y654130D02*
X64499Y631016D01*
X64767Y769230D02*
X64816Y746116D01*
X276184Y180241D02*
X299298Y180290D01*
X176362Y180241D02*
X199476Y180290D01*
X625714Y159937D02*
Y159970D01*
X100919Y671749D02*
X100951D01*
X308910Y191536D02*
Y204703D01*
X387445D01*
Y191536D02*
Y204703D01*
X387216Y132903D02*
Y145816D01*
X308910Y132903D02*
X387216D01*
X308910D02*
Y145816D01*
X142494Y42418D02*
Y53848D01*
Y68072D02*
Y79502D01*
X101600Y54610D02*
Y67310D01*
Y54610D02*
X127000D01*
Y67310D01*
X101600D02*
X127000D01*
X86106Y79502D02*
X142494D01*
X86106Y42418D02*
X142494D01*
X86106D02*
Y53848D01*
Y68072D02*
Y79502D01*
D12*
X133298Y429510D02*
G03*
X133298Y429510I-1778J0D01*
G01*
X78028D02*
G03*
X78028Y429510I-1778J0D01*
G01*
X191778Y637500D02*
G03*
X191778Y637500I-1778J0D01*
G01*
X501778D02*
G03*
X501778Y637500I-1778J0D01*
G01*
X556824Y138653D02*
X583740Y138738D01*
X458674Y129326D02*
X485591Y129410D01*
X77034Y740884D02*
X77118Y713968D01*
D13*
X390084Y394190D02*
G03*
X390084Y394190I-1524J0D01*
G01*
D14*
X114808Y383540D02*
G03*
X114808Y383540I-1778J0D01*
G01*
D15*
X169806Y427524D02*
G03*
X169806Y427524I-1250J0D01*
G01*
Y321999D02*
G03*
X169806Y321999I-1250J0D01*
G01*
X551820Y525565D02*
G03*
X551820Y525565I-1250J0D01*
G01*
X668610Y582065D02*
G03*
X668610Y582065I-1250J0D01*
G01*
X273478Y177182D02*
G03*
X273478Y177182I-1250J0D01*
G01*
D16*
X566620Y547065D02*
G03*
X566620Y547065I-3000J0D01*
G01*
X657310Y560565D02*
G03*
X657310Y560565I-3000J0D01*
G01*
D17*
X591000Y370645D02*
X609000D01*
X591000Y384645D02*
X609000D01*
X598000Y382645D02*
X602000D01*
X598000Y372645D02*
X602000D01*
X591169Y111703D02*
Y115703D01*
X601169Y111703D02*
Y115703D01*
X603168Y104703D02*
Y122703D01*
X589169Y104703D02*
Y122703D01*
X626487Y111703D02*
Y115703D01*
X636487Y111703D02*
Y115703D01*
X638487Y104703D02*
Y122703D01*
X624487Y104703D02*
Y122703D01*
X470925Y183458D02*
X474925D01*
X470925Y193458D02*
X474925D01*
X463925Y195458D02*
X481925D01*
X463925Y181458D02*
X481925D01*
X509452Y136653D02*
Y140653D01*
X519452Y136653D02*
Y140653D01*
X521452Y129653D02*
Y147653D01*
X507452Y129653D02*
Y147653D01*
X319215Y127500D02*
X323215D01*
X319215Y117500D02*
X323215D01*
X312215Y115500D02*
X330215D01*
X312215Y129500D02*
X330215D01*
X509452Y108742D02*
Y112742D01*
X519452Y108742D02*
Y112742D01*
X521452Y101742D02*
Y119742D01*
X507452Y101742D02*
Y119742D01*
X318888Y99117D02*
X322888D01*
X318888Y109117D02*
X322888D01*
X311888Y111117D02*
X329888D01*
X311888Y97117D02*
X329888D01*
X51086Y706802D02*
X55086D01*
X51086Y696802D02*
X55086D01*
X44086Y694802D02*
X62086D01*
X44086Y708802D02*
X62086D01*
X50954Y670194D02*
X54954D01*
X50954Y660194D02*
X54954D01*
X43954Y658194D02*
X61954D01*
X43954Y672194D02*
X61954D01*
X282614Y139856D02*
Y143856D01*
X292614Y139856D02*
Y143856D01*
X294614Y132856D02*
Y150856D01*
X280614Y132856D02*
Y150856D01*
X182792Y139856D02*
Y143856D01*
X192792Y139856D02*
Y143856D01*
X194792Y132856D02*
Y150856D01*
X180792Y132856D02*
Y150856D01*
X282614Y108742D02*
Y112742D01*
X292614Y108742D02*
Y112742D01*
X294614Y101742D02*
Y119742D01*
X280614Y101742D02*
Y119742D01*
X182792Y108742D02*
Y112742D01*
X192792Y108742D02*
Y112742D01*
X194792Y101742D02*
Y119742D01*
X180792Y101742D02*
Y119742D01*
X50778Y553335D02*
Y557335D01*
X40778Y553335D02*
Y557335D01*
X38778Y546335D02*
Y564335D01*
X52778Y546335D02*
Y564335D01*
X151691Y553335D02*
Y557335D01*
X141691Y553335D02*
Y557335D01*
X139691Y546335D02*
Y564335D01*
X153691Y546335D02*
Y564335D01*
X66780Y553335D02*
Y557335D01*
X56780Y553335D02*
Y557335D01*
X54780Y546335D02*
Y564335D01*
X68780Y546335D02*
Y564335D01*
X135863Y553335D02*
Y557335D01*
X125863Y553335D02*
Y557335D01*
X123862Y546335D02*
Y564335D01*
X137863Y546335D02*
Y564335D01*
X167520Y553335D02*
Y557335D01*
X157520Y553335D02*
Y557335D01*
X155520Y546335D02*
Y564335D01*
X169520Y546335D02*
Y564335D01*
X268260Y553335D02*
Y557335D01*
X258260Y553335D02*
Y557335D01*
X256260Y546335D02*
Y564335D01*
X270260Y546335D02*
Y564335D01*
X183349Y553335D02*
Y557335D01*
X173349Y553335D02*
Y557335D01*
X171349Y546335D02*
Y564335D01*
X185349Y546335D02*
Y564335D01*
X252431Y553335D02*
Y557335D01*
X242431Y553335D02*
Y557335D01*
X240431Y546335D02*
Y564335D01*
X254431Y546335D02*
Y564335D01*
X67796Y585255D02*
X71796D01*
X67796Y575255D02*
X71796D01*
X60796Y573255D02*
X78796D01*
X60796Y587255D02*
X78796D01*
X158012Y632122D02*
X162012D01*
X158012Y622122D02*
X162012D01*
X151012Y620122D02*
X169012D01*
X151012Y634122D02*
X169012D01*
X184365Y585255D02*
X188365D01*
X184365Y575255D02*
X188365D01*
X177365Y573255D02*
X195365D01*
X177365Y587255D02*
X195365D01*
X222153Y632122D02*
X226153D01*
X222153Y622122D02*
X226153D01*
X215153Y620122D02*
X233153D01*
X215153Y634122D02*
X233153D01*
X237653Y606124D02*
X241653D01*
X237653Y616124D02*
X241653D01*
X230653Y618124D02*
X248653D01*
X230653Y604124D02*
X248653D01*
X173512Y606124D02*
X177512D01*
X173512Y616124D02*
X177512D01*
X166512Y618124D02*
X184512D01*
X166512Y604124D02*
X184512D01*
X56780Y519152D02*
Y523153D01*
X66780Y519152D02*
Y523153D01*
X68780Y512152D02*
Y530153D01*
X54780Y512152D02*
Y530153D01*
X173349Y519152D02*
Y523153D01*
X183349Y519152D02*
Y523153D01*
X185349Y512152D02*
Y530153D01*
X171349Y512152D02*
Y530153D01*
X50778Y519152D02*
Y523153D01*
X40778Y519152D02*
Y523153D01*
X38778Y512152D02*
Y530153D01*
X52778Y512152D02*
Y530153D01*
X167520Y519152D02*
Y523153D01*
X157520Y519152D02*
Y523153D01*
X155520Y512152D02*
Y530153D01*
X169520Y512152D02*
Y530153D01*
X141691Y519152D02*
Y523153D01*
X151691Y519152D02*
Y523153D01*
X153691Y512152D02*
Y530153D01*
X139691Y512152D02*
Y530153D01*
X258260Y519152D02*
Y523153D01*
X268260Y519152D02*
Y523153D01*
X270260Y512152D02*
Y530153D01*
X256260Y512152D02*
Y530153D01*
X189012Y622122D02*
X193012D01*
X189012Y632122D02*
X193012D01*
X182012Y634122D02*
X200012D01*
X182012Y620122D02*
X200012D01*
X253153Y622122D02*
X257153D01*
X253153Y632122D02*
X257153D01*
X246153Y634122D02*
X264153D01*
X246153Y620122D02*
X264153D01*
X125863Y519152D02*
Y523153D01*
X135863Y519152D02*
Y523153D01*
X137863Y512152D02*
Y530153D01*
X123862Y512152D02*
Y530153D01*
X242431Y519152D02*
Y523153D01*
X252431Y519152D02*
Y523153D01*
X254431Y512152D02*
Y530153D01*
X240431Y512152D02*
Y530153D01*
X284088Y553335D02*
Y557335D01*
X274088Y553335D02*
Y557335D01*
X272089Y546335D02*
Y564335D01*
X286089Y546335D02*
Y564335D01*
X384828Y553335D02*
Y557335D01*
X374828Y553335D02*
Y557335D01*
X372828Y546335D02*
Y564335D01*
X386828Y546335D02*
Y564335D01*
X299917Y553335D02*
Y557335D01*
X289917Y553335D02*
Y557335D01*
X287917Y546335D02*
Y564335D01*
X301917Y546335D02*
Y564335D01*
X368999Y553335D02*
Y557335D01*
X358999Y553335D02*
Y557335D01*
X357000Y546335D02*
Y564335D01*
X370999Y546335D02*
Y564335D01*
X400657Y553335D02*
Y557335D01*
X390657Y553335D02*
Y557335D01*
X388657Y546335D02*
Y564335D01*
X402657Y546335D02*
Y564335D01*
X501316Y553335D02*
Y557335D01*
X491316Y553335D02*
Y557335D01*
X489316Y546335D02*
Y564335D01*
X503316Y546335D02*
Y564335D01*
X416486Y553335D02*
Y557335D01*
X406486Y553335D02*
Y557335D01*
X404486Y546335D02*
Y564335D01*
X418486Y546335D02*
Y564335D01*
X485568Y553335D02*
Y557335D01*
X475568Y553335D02*
Y557335D01*
X473568Y546335D02*
Y564335D01*
X487568Y546335D02*
Y564335D01*
X300933Y585255D02*
X304933D01*
X300933Y575255D02*
X304933D01*
X293933Y573255D02*
X311933D01*
X293933Y587255D02*
X311933D01*
X281058Y622122D02*
X285058D01*
X281058Y632122D02*
X285058D01*
X274058Y634122D02*
X292058D01*
X274058Y620122D02*
X292058D01*
X417502Y585255D02*
X421502D01*
X417502Y575255D02*
X421502D01*
X410502Y573255D02*
X428502D01*
X410502Y587255D02*
X428502D01*
X354717Y632122D02*
X358717D01*
X354717Y622122D02*
X358717D01*
X347717Y620122D02*
X365717D01*
X347717Y634122D02*
X365717D01*
X299109Y606124D02*
X303109D01*
X299109Y616124D02*
X303109D01*
X292109Y618124D02*
X310109D01*
X292109Y604124D02*
X310109D01*
X370217Y606124D02*
X374217D01*
X370217Y616124D02*
X374217D01*
X363217Y618124D02*
X381217D01*
X363217Y604124D02*
X381217D01*
X289917Y519152D02*
Y523153D01*
X299917Y519152D02*
Y523153D01*
X301917Y512152D02*
Y530153D01*
X287917Y512152D02*
Y530153D01*
X406486Y519152D02*
Y523153D01*
X416486Y519152D02*
Y523153D01*
X418486Y512152D02*
Y530153D01*
X404486Y512152D02*
Y530153D01*
X284088Y519152D02*
Y523153D01*
X274088Y519152D02*
Y523153D01*
X272089Y512152D02*
Y530153D01*
X286089Y512152D02*
Y530153D01*
X400657Y519152D02*
Y523153D01*
X390657Y519152D02*
Y523153D01*
X388657Y512152D02*
Y530153D01*
X402657Y512152D02*
Y530153D01*
X491316Y519152D02*
Y523153D01*
X501316Y519152D02*
Y523153D01*
X503316Y512152D02*
Y530153D01*
X489316Y512152D02*
Y530153D01*
X374828Y519152D02*
Y523153D01*
X384828Y519152D02*
Y523153D01*
X386828Y512152D02*
Y530153D01*
X372828Y512152D02*
Y530153D01*
X314609Y622122D02*
X318609D01*
X314609Y632122D02*
X318609D01*
X307609Y634122D02*
X325609D01*
X307609Y620122D02*
X325609D01*
X385717Y622122D02*
X389717D01*
X385717Y632122D02*
X389717D01*
X378717Y634122D02*
X396717D01*
X378717Y620122D02*
X396717D01*
X358999Y519152D02*
Y523153D01*
X368999Y519152D02*
Y523153D01*
X370999Y512152D02*
Y530153D01*
X357000Y512152D02*
Y530153D01*
X475568Y519152D02*
Y523153D01*
X485568Y519152D02*
Y523153D01*
X487568Y512152D02*
Y530153D01*
X473568Y512152D02*
Y530153D01*
X540544Y583153D02*
Y587152D01*
X530544Y583153D02*
Y587152D01*
X528544Y576152D02*
Y594152D01*
X542544Y576152D02*
Y594152D01*
X530544Y551085D02*
Y555085D01*
X540544Y551085D02*
Y555085D01*
X542544Y544085D02*
Y562085D01*
X528544Y544085D02*
Y562085D01*
X540544Y615220D02*
Y619220D01*
X530544Y615220D02*
Y619220D01*
X528544Y608220D02*
Y626220D01*
X542544Y608220D02*
Y626220D01*
X530544Y519017D02*
Y523018D01*
X540544Y519017D02*
Y523018D01*
X542544Y512018D02*
Y530018D01*
X528544Y512018D02*
Y530018D01*
X585412Y486950D02*
Y490950D01*
X595412Y486950D02*
Y490950D01*
X597412Y479950D02*
Y497950D01*
X583412Y479950D02*
Y497950D01*
X577185Y615220D02*
Y619220D01*
X567185Y615220D02*
Y619220D01*
X565185Y608220D02*
Y626220D01*
X579185Y608220D02*
Y626220D01*
X686860Y551085D02*
Y555085D01*
X676860Y551085D02*
Y555085D01*
X674859Y544085D02*
Y562085D01*
X688859Y544085D02*
Y562085D01*
X676860Y519017D02*
Y523018D01*
X686860Y519017D02*
Y523018D01*
X688860Y512018D02*
Y530018D01*
X674859Y512018D02*
Y530018D01*
X686860Y583153D02*
Y587152D01*
X676860Y583153D02*
Y587152D01*
X674859Y576152D02*
Y594152D01*
X688859Y576152D02*
Y594152D01*
X676860Y486950D02*
Y490950D01*
X686860Y486950D02*
Y490950D01*
X688860Y479950D02*
Y497950D01*
X674859Y479950D02*
Y497950D01*
X603702Y486950D02*
Y490950D01*
X613702Y486950D02*
Y490950D01*
X615702Y479950D02*
Y497950D01*
X601702Y479950D02*
Y497950D01*
X668789Y615220D02*
Y619220D01*
X658789Y615220D02*
Y619220D01*
X656789Y608220D02*
Y626220D01*
X670789Y608220D02*
Y626220D01*
X146311Y453180D02*
Y457180D01*
X156311Y453180D02*
Y457180D01*
X158311Y446180D02*
Y464180D01*
X144311Y446180D02*
Y464180D01*
X146311Y386243D02*
Y390243D01*
X156311Y386243D02*
Y390243D01*
X158311Y379243D02*
Y397243D01*
X144311Y379243D02*
Y397243D01*
X146311Y425711D02*
Y429711D01*
X156311Y425711D02*
Y429711D01*
X158311Y418711D02*
Y436711D01*
X144311Y418711D02*
Y436711D01*
X146311Y358774D02*
Y362774D01*
X156311Y358774D02*
Y362774D01*
X158311Y351774D02*
Y369774D01*
X144311Y351774D02*
Y369774D01*
X598000Y410000D02*
X602000D01*
X598000Y420000D02*
X602000D01*
X591000Y422000D02*
X609000D01*
X591000Y408000D02*
X609000D01*
X399326Y428755D02*
X403326D01*
X399326Y438755D02*
X403326D01*
X392326Y440755D02*
X410326D01*
X392326Y426755D02*
X410326D01*
X598000Y401322D02*
X602000D01*
X598000Y391322D02*
X602000D01*
X591000Y389322D02*
X609000D01*
X591000Y403322D02*
X609000D01*
X598000Y252048D02*
X602000D01*
X598000Y262048D02*
X602000D01*
X591000Y264048D02*
X609000D01*
X591000Y250048D02*
X609000D01*
X410235Y217500D02*
X414235D01*
X410235Y207500D02*
X414235D01*
X403235Y205500D02*
X421235D01*
X403235Y219500D02*
X421235D01*
X146943Y319305D02*
Y323305D01*
X156943Y319305D02*
Y323305D01*
X158943Y312305D02*
Y330305D01*
X144943Y312305D02*
Y330305D01*
X598000Y245842D02*
X602000D01*
X598000Y235842D02*
X602000D01*
X591000Y233842D02*
X609000D01*
X591000Y247842D02*
X609000D01*
X380243Y217500D02*
X384243D01*
X380243Y207500D02*
X384243D01*
X373243Y205500D02*
X391243D01*
X373243Y219500D02*
X391243D01*
X146943Y291836D02*
Y295837D01*
X156943Y291836D02*
Y295837D01*
X158943Y284837D02*
Y302836D01*
X144943Y284837D02*
Y302836D01*
X147860Y107992D02*
X151860D01*
X147860Y97992D02*
X151860D01*
X140860Y95992D02*
X158860D01*
X140860Y109992D02*
X158860D01*
X326849Y345462D02*
X329677Y348291D01*
X319778Y352533D02*
X322606Y355362D01*
X313414Y348998D02*
X326142Y361726D01*
X323313Y339099D02*
X336041Y351826D01*
X330937Y321967D02*
X333765Y319138D01*
X323866Y314895D02*
X326694Y312067D01*
X317502Y318431D02*
X330230Y305703D01*
X327402Y328331D02*
X340129Y315603D01*
X348822Y292500D02*
Y296500D01*
X358822Y292500D02*
Y296500D01*
X360822Y285500D02*
Y303500D01*
X346822Y285500D02*
Y303500D01*
X367364Y292500D02*
Y296500D01*
X377364Y292500D02*
Y296500D01*
X379364Y285500D02*
Y303500D01*
X365364Y285500D02*
Y303500D01*
X319452Y263424D02*
Y267424D01*
X309452Y263424D02*
Y267424D01*
X307452Y256424D02*
Y274424D01*
X321452Y256424D02*
Y274424D01*
X348822Y263424D02*
Y267424D01*
X358822Y263424D02*
Y267424D01*
X360822Y256424D02*
Y274424D01*
X346822Y256424D02*
Y274424D01*
X367110Y263424D02*
Y267424D01*
X377110Y263424D02*
Y267424D01*
X379110Y256424D02*
Y274424D01*
X365110Y256424D02*
Y274424D01*
X319452Y291872D02*
Y295872D01*
X309452Y291872D02*
Y295872D01*
X307452Y284872D02*
Y302872D01*
X321452Y284872D02*
Y302872D01*
D18*
X395201Y116020D02*
Y155020D01*
X449303Y116020D02*
Y155020D01*
X773500Y750100D02*
X776000D01*
X773500Y511100D02*
X776000D01*
X703580Y539720D02*
X708580Y542720D01*
X703580Y545720D02*
X708580Y542720D01*
X703580Y539720D02*
Y545720D01*
X724000Y750100D02*
X737000D01*
X724000Y511100D02*
X737000D01*
X776000D02*
Y750100D01*
X724000Y511100D02*
Y535900D01*
Y725300D02*
Y750100D01*
X356244Y325152D02*
X360486Y329394D01*
X338566Y342829D02*
X342809Y347072D01*
X178000Y694000D02*
X342000D01*
X159500Y703000D02*
Y729500D01*
X360500Y703000D02*
Y729500D01*
X488000Y694000D02*
X652000D01*
X469500Y703000D02*
Y729500D01*
X670500Y703000D02*
Y729500D01*
X724000Y447200D02*
Y472000D01*
Y308000D02*
Y332800D01*
X776000Y308000D02*
Y472000D01*
X724000Y308000D02*
X737000D01*
X724000Y472000D02*
X737000D01*
X709330Y337220D02*
Y343220D01*
X714330Y340220D01*
X709330Y337220D02*
X714330Y340220D01*
X773500Y308000D02*
X776000D01*
X773500Y472000D02*
X776000D01*
X190736Y232587D02*
X204515D01*
D19*
X86412Y558425D02*
X120956D01*
X86412Y602329D02*
X120956D01*
Y558425D02*
Y602329D01*
X86412Y558425D02*
Y602329D01*
X202981Y558425D02*
X237525D01*
X202981Y602329D02*
X237525D01*
Y558425D02*
Y602329D01*
X202981Y558425D02*
Y602329D01*
X319550Y558425D02*
X354094D01*
X319550Y602329D02*
X354094D01*
Y558425D02*
Y602329D01*
X319550Y558425D02*
Y602329D01*
X436118Y558425D02*
X470662D01*
X436118Y602329D02*
X470662D01*
Y558425D02*
Y602329D01*
X436118Y558425D02*
Y602329D01*
X631762Y187341D02*
X637762D01*
X631762Y185341D02*
X637762D01*
X641762Y177341D02*
Y195341D01*
X627762Y177341D02*
Y195341D01*
X650636Y185341D02*
X656636D01*
X650636Y187341D02*
X656636D01*
X646636Y177341D02*
Y195341D01*
X660636Y177341D02*
Y195341D01*
X575141Y185341D02*
X581141D01*
X575141Y187341D02*
X581141D01*
X571141Y177341D02*
Y195341D01*
X585141Y177341D02*
Y195341D01*
X556267Y187341D02*
X562267D01*
X556267Y185341D02*
X562267D01*
X566267Y177341D02*
Y195341D01*
X552267Y177341D02*
Y195341D01*
X612888Y187341D02*
X618888D01*
X612888Y185341D02*
X618888D01*
X622888Y177341D02*
Y195341D01*
X608888Y177341D02*
Y195341D01*
X610953Y112703D02*
X616953D01*
X610953Y114703D02*
X616953D01*
X606953Y104703D02*
Y122703D01*
X620953Y104703D02*
Y122703D01*
X695000Y131342D02*
Y137343D01*
X693000Y131342D02*
Y137343D01*
X685000Y127343D02*
X703000D01*
X685000Y141342D02*
X703000D01*
X441580Y185458D02*
Y191458D01*
X443580Y185458D02*
Y191458D01*
X433580Y195458D02*
X451580D01*
X433580Y181458D02*
X451580D01*
X411235Y185458D02*
Y191458D01*
X413235Y185458D02*
Y191458D01*
X403235Y195458D02*
X421235D01*
X403235Y181458D02*
X421235D01*
X125476Y679041D02*
Y685041D01*
X127476Y679041D02*
Y685041D01*
X117476Y689041D02*
X135476D01*
X117476Y675041D02*
X135476D01*
X125476Y642433D02*
Y648433D01*
X127476Y642433D02*
Y648433D01*
X117476Y652433D02*
X135476D01*
X117476Y638433D02*
X135476D01*
X125476Y715649D02*
Y721649D01*
X127476Y715649D02*
Y721649D01*
X117476Y725649D02*
X135476D01*
X117476Y711649D02*
X135476D01*
X127476Y733953D02*
Y739953D01*
X125476Y733953D02*
Y739953D01*
X117476Y729953D02*
X135476D01*
X117476Y743953D02*
X135476D01*
X127476Y624129D02*
Y630130D01*
X125476Y624129D02*
Y630130D01*
X117476Y620130D02*
X135476D01*
X117476Y634129D02*
X135476D01*
X127476Y660737D02*
Y666737D01*
X125476Y660737D02*
Y666737D01*
X117476Y656737D02*
X135476D01*
X117476Y670737D02*
X135476D01*
X51954Y680373D02*
Y686373D01*
X53954Y680373D02*
Y686373D01*
X43954Y690373D02*
X61954D01*
X43954Y676373D02*
X61954D01*
X282030Y411875D02*
Y417875D01*
X284030Y411875D02*
Y417875D01*
X274030Y421875D02*
X292030D01*
X274030Y407875D02*
X292030D01*
X282030Y430755D02*
Y436755D01*
X284030Y430755D02*
Y436755D01*
X274030Y440755D02*
X292030D01*
X274030Y426755D02*
X292030D01*
X282030Y393265D02*
Y399265D01*
X284030Y393265D02*
Y399265D01*
X274030Y403265D02*
X292030D01*
X274030Y389265D02*
X292030D01*
X282030Y374520D02*
Y380520D01*
X284030Y374520D02*
Y380520D01*
X274030Y384520D02*
X292030D01*
X274030Y370520D02*
X292030D01*
X282030Y449500D02*
Y455500D01*
X284030Y449500D02*
Y455500D01*
X274030Y459500D02*
X292030D01*
X274030Y445500D02*
X292030D01*
X282030Y355775D02*
Y361775D01*
X284030Y355775D02*
Y361775D01*
X274030Y365775D02*
X292030D01*
X274030Y351775D02*
X292030D01*
X282030Y337030D02*
Y343030D01*
X284030Y337030D02*
Y343030D01*
X274030Y347030D02*
X292030D01*
X274030Y333030D02*
X292030D01*
X400500Y449500D02*
Y455500D01*
X402500Y449500D02*
Y455500D01*
X392500Y459500D02*
X410500D01*
X392500Y445500D02*
X410500D01*
X437674Y753564D02*
Y759564D01*
X439674Y753564D02*
Y759564D01*
X429674Y763564D02*
X447674D01*
X429674Y749564D02*
X447674D01*
X437674Y718004D02*
Y724004D01*
X439674Y718004D02*
Y724004D01*
X429674Y728004D02*
X447674D01*
X429674Y714004D02*
X447674D01*
X437674Y682444D02*
Y688444D01*
X439674Y682444D02*
Y688444D01*
X429674Y692444D02*
X447674D01*
X429674Y678444D02*
X447674D01*
X437674Y646884D02*
Y652884D01*
X439674Y646884D02*
Y652884D01*
X429674Y656884D02*
X447674D01*
X429674Y642884D02*
X447674D01*
X437674Y772564D02*
Y778564D01*
X439674Y772564D02*
Y778564D01*
X429674Y782564D02*
X447674D01*
X429674Y768564D02*
X447674D01*
X437674Y737004D02*
Y743004D01*
X439674Y737004D02*
Y743004D01*
X429674Y747004D02*
X447674D01*
X429674Y733004D02*
X447674D01*
X437674Y701444D02*
Y707444D01*
X439674Y701444D02*
Y707444D01*
X429674Y711444D02*
X447674D01*
X429674Y697444D02*
X447674D01*
X437674Y665884D02*
Y671884D01*
X439674Y665884D02*
Y671884D01*
X429674Y675884D02*
X447674D01*
X429674Y661884D02*
X447674D01*
X532419Y487950D02*
X538419D01*
X532419Y489950D02*
X538419D01*
X528419Y479950D02*
Y497950D01*
X542419Y479950D02*
Y497950D01*
X550740Y618220D02*
X556740D01*
X550740Y616220D02*
X556740D01*
X560740Y608220D02*
Y626220D01*
X546740Y608220D02*
Y626220D01*
X568998Y489950D02*
X574998D01*
X568998Y487950D02*
X574998D01*
X578998Y479950D02*
Y497950D01*
X564998Y479950D02*
Y497950D01*
X605702Y616220D02*
X611702D01*
X605702Y618220D02*
X611702D01*
X601702Y608220D02*
Y626220D01*
X615702Y608220D02*
Y626220D01*
X587381Y616220D02*
X593381D01*
X587381Y618220D02*
X593381D01*
X583381Y608220D02*
Y626220D01*
X597381Y608220D02*
Y626220D01*
X550708Y489950D02*
X556708D01*
X550708Y487950D02*
X556708D01*
X560708Y479950D02*
Y497950D01*
X546708Y479950D02*
Y497950D01*
X660445Y487950D02*
X666445D01*
X660445Y489950D02*
X666445D01*
X656445Y479950D02*
Y497950D01*
X670445Y479950D02*
Y497950D01*
X678985Y618220D02*
X684985D01*
X678985Y616220D02*
X684985D01*
X688985Y608220D02*
Y626220D01*
X674985Y608220D02*
Y626220D01*
X623866Y489950D02*
X629866D01*
X623866Y487950D02*
X629866D01*
X633866Y479950D02*
Y497950D01*
X619866Y479950D02*
Y497950D01*
X642343Y616220D02*
X648343D01*
X642343Y618220D02*
X648343D01*
X638343Y608220D02*
Y626220D01*
X652343Y608220D02*
Y626220D01*
X624022Y616220D02*
X630022D01*
X624022Y618220D02*
X630022D01*
X620022Y608220D02*
Y626220D01*
X634022Y608220D02*
Y626220D01*
X642156Y489950D02*
X648156D01*
X642156Y487950D02*
X648156D01*
X652156Y479950D02*
Y497950D01*
X638156Y479950D02*
Y497950D01*
X186420Y400860D02*
Y406860D01*
X184420Y400860D02*
Y406860D01*
X176420Y396860D02*
X194420D01*
X176420Y410860D02*
X194420D01*
X186420Y383493D02*
Y389493D01*
X184420Y383493D02*
Y389493D01*
X176420Y379493D02*
X194420D01*
X176420Y393493D02*
X194420D01*
X222881Y430672D02*
Y436671D01*
X224881Y430672D02*
Y436671D01*
X214881Y440672D02*
X232881D01*
X214881Y426671D02*
X232881D01*
X222881Y411926D02*
Y417926D01*
X224881Y411926D02*
Y417926D01*
X214881Y421926D02*
X232881D01*
X214881Y407926D02*
X232881D01*
X222881Y374436D02*
Y380436D01*
X224881Y374436D02*
Y380436D01*
X214881Y384436D02*
X232881D01*
X214881Y370436D02*
X232881D01*
X222881Y393181D02*
Y399181D01*
X224881Y393181D02*
Y399181D01*
X214881Y403181D02*
X232881D01*
X214881Y389181D02*
X232881D01*
X222881Y449417D02*
Y455417D01*
X224881Y449417D02*
Y455417D01*
X214881Y459417D02*
X232881D01*
X214881Y445417D02*
X232881D01*
X222881Y318201D02*
Y324201D01*
X224881Y318201D02*
Y324201D01*
X214881Y328201D02*
X232881D01*
X214881Y314201D02*
X232881D01*
X224881Y468162D02*
Y474162D01*
X222881Y468162D02*
Y474162D01*
X214881Y464162D02*
X232881D01*
X214881Y478162D02*
X232881D01*
X222881Y299456D02*
Y305456D01*
X224881Y299456D02*
Y305456D01*
X214881Y309456D02*
X232881D01*
X214881Y295456D02*
X232881D01*
X222881Y355691D02*
Y361691D01*
X224881Y355691D02*
Y361691D01*
X214881Y365691D02*
X232881D01*
X214881Y351691D02*
X232881D01*
X224881Y336946D02*
Y342946D01*
X222881Y336946D02*
Y342946D01*
X214881Y332946D02*
X232881D01*
X214881Y346946D02*
X232881D01*
X224881Y280711D02*
Y286711D01*
X222881Y280711D02*
Y286711D01*
X214881Y276711D02*
X232881D01*
X214881Y290711D02*
X232881D01*
X224881Y261966D02*
Y267966D01*
X222881Y261966D02*
Y267966D01*
X214881Y257966D02*
X232881D01*
X214881Y271966D02*
X232881D01*
X224881Y243221D02*
Y249221D01*
X222881Y243221D02*
Y249221D01*
X214881Y239221D02*
X232881D01*
X214881Y253221D02*
X232881D01*
X150860Y243221D02*
Y249221D01*
X148860Y243221D02*
Y249221D01*
X140860Y239221D02*
X158860D01*
X140860Y253221D02*
X158860D01*
X150860Y263700D02*
Y269700D01*
X148860Y263700D02*
Y269700D01*
X140860Y259700D02*
X158860D01*
X140860Y273700D02*
X158860D01*
X150860Y120346D02*
Y126346D01*
X148860Y120346D02*
Y126346D01*
X140860Y116346D02*
X158860D01*
X140860Y130346D02*
X158860D01*
X148860Y161304D02*
Y167304D01*
X150860Y161304D02*
Y167304D01*
X140860Y171304D02*
X158860D01*
X140860Y157304D02*
X158860D01*
X148860Y140825D02*
Y146825D01*
X150860Y140825D02*
Y146825D01*
X140860Y150825D02*
X158860D01*
X140860Y136825D02*
X158860D01*
X148860Y222742D02*
Y228742D01*
X150860Y222742D02*
Y228742D01*
X140860Y232742D02*
X158860D01*
X140860Y218742D02*
X158860D01*
X148860Y202263D02*
Y208263D01*
X150860Y202263D02*
Y208263D01*
X140860Y212263D02*
X158860D01*
X140860Y198263D02*
X158860D01*
X148860Y181784D02*
Y187784D01*
X150860Y181784D02*
Y187784D01*
X140860Y191784D02*
X158860D01*
X140860Y177784D02*
X158860D01*
X594015Y185341D02*
X600015D01*
X594015Y187341D02*
X600015D01*
X590015Y177341D02*
Y195341D01*
X604015Y177341D02*
Y195341D01*
X343178Y412010D02*
Y418010D01*
X341178Y412010D02*
Y418010D01*
X333178Y408010D02*
X351178D01*
X333178Y422010D02*
X351178D01*
X343178Y430755D02*
Y436755D01*
X341178Y430755D02*
Y436755D01*
X333178Y426755D02*
X351178D01*
X333178Y440755D02*
X351178D01*
X343178Y449500D02*
Y455500D01*
X341178Y449500D02*
Y455500D01*
X333178Y445500D02*
X351178D01*
X333178Y459500D02*
X351178D01*
X343178Y468245D02*
Y474245D01*
X341178Y468245D02*
Y474245D01*
X333178Y464245D02*
X351178D01*
X333178Y478245D02*
X351178D01*
X693000Y153185D02*
Y159185D01*
X695000Y153185D02*
Y159185D01*
X685000Y163185D02*
X703000D01*
X685000Y149185D02*
X703000D01*
X694595Y218713D02*
Y224713D01*
X692595Y218713D02*
Y224713D01*
X684595Y214713D02*
X702595D01*
X684595Y228713D02*
X702595D01*
X693000Y175028D02*
Y181028D01*
X695000Y175028D02*
Y181028D01*
X685000Y185028D02*
X703000D01*
X685000Y171028D02*
X703000D01*
X695000Y109500D02*
Y115500D01*
X693000Y109500D02*
Y115500D01*
X685000Y105500D02*
X703000D01*
X685000Y119500D02*
X703000D01*
X693000Y196870D02*
Y202870D01*
X695000Y196870D02*
Y202870D01*
X685000Y206870D02*
X703000D01*
X685000Y192870D02*
X703000D01*
X694595Y284240D02*
Y290240D01*
X692595Y284240D02*
Y290240D01*
X684595Y280240D02*
X702595D01*
X684595Y294240D02*
X702595D01*
X692595Y240555D02*
Y246555D01*
X694595Y240555D02*
Y246555D01*
X684595Y250555D02*
X702595D01*
X684595Y236555D02*
X702595D01*
X692595Y262397D02*
Y268398D01*
X694595Y262397D02*
Y268398D01*
X684595Y272397D02*
X702595D01*
X684595Y258398D02*
X702595D01*
X692595Y306082D02*
Y312083D01*
X694595Y306082D02*
Y312083D01*
X684595Y316082D02*
X702595D01*
X684595Y302083D02*
X702595D01*
X692595Y327925D02*
Y333925D01*
X694595Y327925D02*
Y333925D01*
X684595Y337925D02*
X702595D01*
X684595Y323925D02*
X702595D01*
X692595Y349767D02*
Y355768D01*
X694595Y349767D02*
Y355768D01*
X684595Y359767D02*
X702595D01*
X684595Y345768D02*
X702595D01*
X692595Y371610D02*
Y377610D01*
X694595Y371610D02*
Y377610D01*
X684595Y381610D02*
X702595D01*
X684595Y367610D02*
X702595D01*
X692595Y393452D02*
Y399453D01*
X694595Y393452D02*
Y399453D01*
X684595Y403452D02*
X702595D01*
X684595Y389453D02*
X702595D01*
X692595Y415295D02*
Y421295D01*
X694595Y415295D02*
Y421295D01*
X684595Y425295D02*
X702595D01*
X684595Y411295D02*
X702595D01*
X125476Y697345D02*
Y703345D01*
X127476Y697345D02*
Y703345D01*
X117476Y707345D02*
X135476D01*
X117476Y693345D02*
X135476D01*
X282030Y468245D02*
Y474245D01*
X284030Y468245D02*
Y474245D01*
X274030Y478245D02*
X292030D01*
X274030Y464245D02*
X292030D01*
X692595Y437137D02*
Y443138D01*
X694595Y437137D02*
Y443138D01*
X684595Y447137D02*
X702595D01*
X684595Y433138D02*
X702595D01*
X601784Y158589D02*
Y160848D01*
X604065D01*
X601813Y135055D02*
X604072D01*
X601813D02*
Y137336D01*
X624285Y135020D02*
X626566D01*
Y137279D01*
X99571Y695679D02*
X101830D01*
Y693398D02*
Y695679D01*
X76037Y693391D02*
Y695650D01*
X78318D01*
X76002Y670897D02*
Y673179D01*
Y670897D02*
X78260D01*
X326803Y267201D02*
X341168D01*
X329640Y278632D02*
Y283966D01*
X338328D01*
Y278632D02*
Y283966D01*
X329640Y278632D02*
X338328D01*
X326803Y267201D02*
Y295141D01*
X341168D01*
Y289253D02*
Y295141D01*
Y267201D02*
Y289253D01*
X527816Y200685D02*
X548644D01*
X527816Y171221D02*
X548644D01*
Y200685D01*
X527816Y171221D02*
Y200685D01*
X141661Y748393D02*
Y769221D01*
X112197Y748393D02*
Y769221D01*
Y748393D02*
X141661D01*
X112197Y769221D02*
X141661D01*
D20*
X641445Y95656D02*
X665829D01*
X641445Y142392D02*
X665829D01*
X641445Y95656D02*
Y142392D01*
X665829Y95656D02*
Y142392D01*
X526617Y95656D02*
X551001D01*
X526617Y142392D02*
X551001D01*
X526617Y95656D02*
Y142392D01*
X551001Y95656D02*
Y142392D01*
X389662Y96386D02*
Y120770D01*
X342926Y96386D02*
Y120770D01*
Y96386D02*
X389662D01*
X342926Y120770D02*
X389662D01*
X501005Y205963D02*
X525389D01*
X501005Y159227D02*
X525389D01*
Y205963D01*
X501005Y159227D02*
Y205963D01*
X38542Y630254D02*
Y654638D01*
X85278Y630254D02*
Y654638D01*
X38542D02*
X85278D01*
X38542Y630254D02*
X85278D01*
X38859Y745354D02*
Y769738D01*
X85595Y745354D02*
Y769738D01*
X38859D02*
X85595D01*
X38859Y745354D02*
X85595D01*
X275422Y206198D02*
X299806D01*
X275422Y159462D02*
X299806D01*
Y206198D01*
X275422Y159462D02*
Y206198D01*
X175600D02*
X199984D01*
X175600Y159462D02*
X199984D01*
Y206198D01*
X175600Y159462D02*
Y206198D01*
X124408Y477809D02*
Y487422D01*
X114534Y424938D02*
X124408D01*
X92912Y437984D02*
Y474376D01*
X114534Y487422D02*
X124408D01*
Y424938D02*
Y434551D01*
X69138Y477809D02*
Y487422D01*
X59264Y424938D02*
X69138D01*
X37642Y437984D02*
Y474376D01*
X59264Y487422D02*
X69138D01*
Y424938D02*
Y434551D01*
X176783Y269576D02*
X196849D01*
X176783Y302596D02*
X196849D01*
X407737Y406763D02*
X415276D01*
X407737Y262237D02*
X415276D01*
X552263D02*
Y269776D01*
X544724Y406763D02*
X552263D01*
X407737Y399224D02*
Y406763D01*
Y262237D02*
Y269776D01*
X544724Y262237D02*
X552263D01*
Y399224D02*
Y406763D01*
X103505Y325755D02*
Y349579D01*
X100146Y400685D02*
X103505D01*
X59055Y325755D02*
Y400685D01*
Y325755D02*
X62504D01*
X103505Y376861D02*
Y400685D01*
X100146Y325755D02*
X103505D01*
X59055Y400685D02*
X62504D01*
X79633Y522518D02*
X83919D01*
X79494Y554184D02*
X83780D01*
X106954Y554144D02*
X111240D01*
X196202Y522518D02*
X200488D01*
X196063Y554184D02*
X200348D01*
X223523Y554144D02*
X227808D01*
X312771Y522518D02*
X317056D01*
X312631Y554184D02*
X316917D01*
X340091Y554144D02*
X344377D01*
X429339Y522518D02*
X433625D01*
X429200Y554184D02*
X433485D01*
X456660Y554144D02*
X460945D01*
D21*
X375019Y811012D02*
X368354D01*
Y801015D01*
X375019D01*
X368354Y806013D02*
X371686D01*
X378351Y811012D02*
X385015Y801015D01*
Y811012D02*
X378351Y801015D01*
X388348D02*
Y811012D01*
X393346D01*
X395012Y809345D01*
Y806013D01*
X393346Y804347D01*
X388348D01*
X398344Y799349D02*
X405009D01*
X408341Y811012D02*
Y804347D01*
X411674Y801015D01*
X415006Y804347D01*
Y811012D01*
X418338Y801015D02*
Y802681D01*
X420004D01*
Y801015D01*
X418338D01*
X426669D02*
X430001D01*
X428335D01*
Y811012D01*
X426669Y809345D01*
X434999Y801015D02*
Y802681D01*
X436665D01*
Y801015D01*
X434999D01*
X449995D02*
X443330D01*
X449995Y807679D01*
Y809345D01*
X448328Y811012D01*
X444996D01*
X443330Y809345D01*
X453327Y801015D02*
Y802681D01*
X454993D01*
Y801015D01*
X453327D01*
X468322D02*
X461657D01*
X468322Y807679D01*
Y809345D01*
X466656Y811012D01*
X463324D01*
X461657Y809345D01*
D22*
X174621Y228060D02*
X171956D01*
Y226060D01*
X173288Y226727D01*
X173955D01*
X174621Y226060D01*
Y224727D01*
X173955Y224061D01*
X172622D01*
X171956Y224727D01*
X175954Y224061D02*
X177954D01*
X178620Y224727D01*
X177954Y225394D01*
X176621D01*
X175954Y226060D01*
X176621Y226727D01*
X178620D01*
X183952Y224061D02*
X186618Y226727D01*
X191949Y227393D02*
X192616Y228060D01*
X193948D01*
X194615Y227393D01*
Y226727D01*
X193948Y226060D01*
X193282D01*
X193948D01*
X194615Y225394D01*
Y224727D01*
X193948Y224061D01*
X192616D01*
X191949Y224727D01*
X195948Y227393D02*
X196614Y228060D01*
X197947D01*
X198614Y227393D01*
Y224727D01*
X197947Y224061D01*
X196614D01*
X195948Y224727D01*
Y227393D01*
X199946Y224061D02*
X201946D01*
X202612Y224727D01*
X201946Y225394D01*
X200613D01*
X199946Y226060D01*
X200613Y226727D01*
X202612D01*
X29917Y355977D02*
X25918D01*
Y353311D01*
X29917Y349312D02*
Y351978D01*
X25918D01*
Y349312D01*
X27918Y351978D02*
Y350645D01*
X29917Y347979D02*
X25918D01*
Y345980D01*
X26585Y345313D01*
X29251D01*
X29917Y345980D01*
Y347979D01*
X25252Y343980D02*
Y341315D01*
X25918Y339982D02*
X29917D01*
X25918Y337316D01*
X29917D01*
X29734Y382694D02*
X25735D01*
Y380028D01*
X29734Y376029D02*
Y378695D01*
X25735D01*
Y376029D01*
X27735Y378695D02*
Y377362D01*
X29734Y374696D02*
X25735D01*
Y372697D01*
X26402Y372030D01*
X29067D01*
X29734Y372697D01*
Y374696D01*
X25069Y370698D02*
Y368032D01*
X25735Y366699D02*
X29734D01*
Y364700D01*
X29067Y364033D01*
X27735D01*
X27068Y364700D01*
Y366699D01*
X34193Y175231D02*
Y179230D01*
X36859Y175231D01*
Y179230D01*
X38192Y175231D02*
Y179230D01*
X40191D01*
X40858Y178563D01*
Y177231D01*
X40191Y176564D01*
X38192D01*
X39525D02*
X40858Y175231D01*
X44857Y178563D02*
X44190Y179230D01*
X42857D01*
X42191Y178563D01*
Y177897D01*
X42857Y177231D01*
X44190D01*
X44857Y176564D01*
Y175898D01*
X44190Y175231D01*
X42857D01*
X42191Y175898D01*
X46189Y179230D02*
X48855D01*
X47522D01*
Y175231D01*
X35212Y203788D02*
X34545Y204455D01*
X33212D01*
X32546Y203788D01*
Y203122D01*
X33212Y202455D01*
X34545D01*
X35212Y201789D01*
Y201122D01*
X34545Y200456D01*
X33212D01*
X32546Y201122D01*
X36545Y204455D02*
Y200456D01*
X37878Y201789D01*
X39211Y200456D01*
Y204455D01*
X43209Y203788D02*
X42543Y204455D01*
X41210D01*
X40543Y203788D01*
Y201122D01*
X41210Y200456D01*
X42543D01*
X43209Y201122D01*
X44542Y204455D02*
Y200456D01*
X47208D01*
X48541Y204455D02*
Y200456D01*
Y201789D01*
X51207Y204455D01*
X49207Y202455D01*
X51207Y200456D01*
X34590Y229013D02*
X33924Y229679D01*
X32591D01*
X31924Y229013D01*
Y228346D01*
X32591Y227680D01*
X33924D01*
X34590Y227013D01*
Y226347D01*
X33924Y225681D01*
X32591D01*
X31924Y226347D01*
X35923Y229679D02*
Y225681D01*
X37256Y227013D01*
X38589Y225681D01*
Y229679D01*
X39922D02*
Y225681D01*
X41921D01*
X42587Y226347D01*
Y229013D01*
X41921Y229679D01*
X39922D01*
X43920D02*
X45253D01*
X44587D01*
Y225681D01*
X43920D01*
X45253D01*
X49252Y229679D02*
X47919D01*
X47252Y229013D01*
Y226347D01*
X47919Y225681D01*
X49252D01*
X49918Y226347D01*
Y229013D01*
X49252Y229679D01*
X37919Y254237D02*
X37253Y254904D01*
X35920D01*
X35254Y254237D01*
Y251572D01*
X35920Y250905D01*
X37253D01*
X37919Y251572D01*
Y252904D01*
X36586D01*
X39252Y250905D02*
Y254904D01*
X41918Y250905D01*
Y254904D01*
X43251D02*
Y250905D01*
X45250D01*
X45917Y251572D01*
Y254237D01*
X45250Y254904D01*
X43251D01*
X35770Y280128D02*
Y277463D01*
X37103Y276130D01*
X38436Y277463D01*
Y280128D01*
X42434Y279462D02*
X41768Y280128D01*
X40435D01*
X39769Y279462D01*
Y276796D01*
X40435Y276130D01*
X41768D01*
X42434Y276796D01*
X46433Y279462D02*
X45767Y280128D01*
X44434D01*
X43767Y279462D01*
Y276796D01*
X44434Y276130D01*
X45767D01*
X46433Y276796D01*
X28188Y485461D02*
X28855Y486128D01*
Y487460D01*
X28188Y488127D01*
X27522D01*
X26855Y487460D01*
Y486128D01*
X26189Y485461D01*
X25522D01*
X24856Y486128D01*
Y487460D01*
X25522Y488127D01*
X28188Y481462D02*
X28855Y482129D01*
Y483462D01*
X28188Y484128D01*
X25522D01*
X24856Y483462D01*
Y482129D01*
X25522Y481462D01*
X28855Y480130D02*
X24856D01*
Y477464D01*
X28188Y428806D02*
X28855Y429473D01*
Y430805D01*
X28188Y431472D01*
X25522D01*
X24856Y430805D01*
Y429473D01*
X25522Y428806D01*
X26855D01*
Y430139D01*
X24856Y427473D02*
X28855D01*
X24856Y424807D01*
X28855D01*
Y423475D02*
X24856D01*
Y421475D01*
X25522Y420809D01*
X28188D01*
X28855Y421475D01*
Y423475D01*
X28188Y466461D02*
X28855Y467128D01*
Y468461D01*
X28188Y469127D01*
X27522D01*
X26855Y468461D01*
Y467128D01*
X26189Y466461D01*
X25522D01*
X24856Y467128D01*
Y468461D01*
X25522Y469127D01*
X28855Y465128D02*
X24856D01*
Y463129D01*
X25522Y462462D01*
X28188D01*
X28855Y463129D01*
Y465128D01*
X24856Y461130D02*
X27522D01*
X28855Y459797D01*
X27522Y458464D01*
X24856D01*
X26855D01*
Y461130D01*
X28855Y450292D02*
X26189D01*
X24856Y448959D01*
X26189Y447626D01*
X28855D01*
X28188Y443627D02*
X28855Y444294D01*
Y445627D01*
X28188Y446293D01*
X25522D01*
X24856Y445627D01*
Y444294D01*
X25522Y443627D01*
X28188Y439629D02*
X28855Y440295D01*
Y441628D01*
X28188Y442294D01*
X25522D01*
X24856Y441628D01*
Y440295D01*
X25522Y439629D01*
X39370Y97133D02*
X38703Y97800D01*
X37370D01*
X36704Y97133D01*
Y94467D01*
X37370Y93801D01*
X38703D01*
X39370Y94467D01*
Y95800D01*
X38037D01*
X40703Y93801D02*
Y97800D01*
X43369Y93801D01*
Y97800D01*
X44701D02*
Y93801D01*
X46701D01*
X47367Y94467D01*
Y97133D01*
X46701Y97800D01*
X44701D01*
X38822Y124715D02*
X41488D01*
X40155D01*
Y120716D01*
X42821Y124715D02*
X45486Y120716D01*
Y124715D02*
X42821Y120716D01*
X39578Y145845D02*
Y149843D01*
X41577D01*
X42244Y149177D01*
Y147844D01*
X41577Y147178D01*
X39578D01*
X40911D02*
X42244Y145845D01*
X43576Y149843D02*
X46242Y145845D01*
Y149843D02*
X43576Y145845D01*
X449080Y175490D02*
Y172990D01*
X449580Y172491D01*
X450580D01*
X451080Y172990D01*
Y175490D01*
X454079Y172491D02*
X452080D01*
X454079Y174490D01*
Y174990D01*
X453579Y175490D01*
X452579D01*
X452080Y174990D01*
X663555Y438342D02*
Y442341D01*
X665555D01*
X666221Y441674D01*
Y440341D01*
X665555Y439675D01*
X663555D01*
X664888D02*
X666221Y438342D01*
X667554D02*
X668887D01*
X668220D01*
Y442341D01*
X667554Y441674D01*
X670886D02*
X671553Y442341D01*
X672886D01*
X673552Y441674D01*
Y441008D01*
X672886Y440341D01*
X672219D01*
X672886D01*
X673552Y439675D01*
Y439008D01*
X672886Y438342D01*
X671553D01*
X670886Y439008D01*
X676884Y438342D02*
Y442341D01*
X674885Y440341D01*
X677551D01*
X622987Y380037D02*
X622321Y380704D01*
X620988D01*
X620322Y380037D01*
Y377371D01*
X620988Y376705D01*
X622321D01*
X622987Y377371D01*
X624320Y380037D02*
X624987Y380704D01*
X626320D01*
X626986Y380037D01*
Y379371D01*
X626320Y378704D01*
X626986Y378038D01*
Y377371D01*
X626320Y376705D01*
X624987D01*
X624320Y377371D01*
Y378038D01*
X624987Y378704D01*
X624320Y379371D01*
Y380037D01*
X624987Y378704D02*
X626320D01*
X630985Y376705D02*
X628319D01*
X630985Y379371D01*
Y380037D01*
X630318Y380704D01*
X628985D01*
X628319Y380037D01*
X271332Y297277D02*
X271998Y297943D01*
Y299276D01*
X271332Y299943D01*
X268666D01*
X267999Y299276D01*
Y297943D01*
X268666Y297277D01*
X271332Y295944D02*
X271998Y295278D01*
Y293945D01*
X271332Y293278D01*
X270665D01*
X269999Y293945D01*
X269332Y293278D01*
X268666D01*
X267999Y293945D01*
Y295278D01*
X268666Y295944D01*
X269332D01*
X269999Y295278D01*
X270665Y295944D01*
X271332D01*
X269999Y295278D02*
Y293945D01*
X271332Y291945D02*
X271998Y291279D01*
Y289946D01*
X271332Y289279D01*
X268666D01*
X267999Y289946D01*
Y291279D01*
X268666Y291945D01*
X271332D01*
X298507Y268782D02*
X299174Y269448D01*
Y270781D01*
X298507Y271448D01*
X295842D01*
X295175Y270781D01*
Y269448D01*
X295842Y268782D01*
X299174Y267449D02*
Y264783D01*
X298507D01*
X295842Y267449D01*
X295175D01*
X295842Y263450D02*
X295175Y262784D01*
Y261451D01*
X295842Y260784D01*
X298507D01*
X299174Y261451D01*
Y262784D01*
X298507Y263450D01*
X297841D01*
X297174Y262784D01*
Y260784D01*
X287050Y268782D02*
X287717Y269448D01*
Y270781D01*
X287050Y271448D01*
X284385D01*
X283718Y270781D01*
Y269448D01*
X284385Y268782D01*
X287717Y267449D02*
Y264783D01*
X287050D01*
X284385Y267449D01*
X283718D01*
X287050Y263450D02*
X287717Y262784D01*
Y261451D01*
X287050Y260784D01*
X286384D01*
X285718Y261451D01*
X285051Y260784D01*
X284385D01*
X283718Y261451D01*
Y262784D01*
X284385Y263450D01*
X285051D01*
X285718Y262784D01*
X286384Y263450D01*
X287050D01*
X285718Y262784D02*
Y261451D01*
X270867Y268782D02*
X271533Y269448D01*
Y270781D01*
X270867Y271448D01*
X268201D01*
X267535Y270781D01*
Y269448D01*
X268201Y268782D01*
X271533Y267449D02*
Y264783D01*
X270867D01*
X268201Y267449D01*
X267535D01*
X271533Y263450D02*
Y260784D01*
X270867D01*
X268201Y263450D01*
X267535D01*
X298507Y297277D02*
X299174Y297943D01*
Y299276D01*
X298507Y299943D01*
X295842D01*
X295175Y299276D01*
Y297943D01*
X295842Y297277D01*
X299174Y295944D02*
Y293278D01*
X298507D01*
X295842Y295944D01*
X295175D01*
X299174Y289279D02*
X298507Y290612D01*
X297174Y291945D01*
X295842D01*
X295175Y291279D01*
Y289946D01*
X295842Y289279D01*
X296508D01*
X297174Y289946D01*
Y291945D01*
X287050Y297277D02*
X287717Y297943D01*
Y299276D01*
X287050Y299943D01*
X284385D01*
X283718Y299276D01*
Y297943D01*
X284385Y297277D01*
X287717Y295944D02*
Y293278D01*
X287050D01*
X284385Y295944D01*
X283718D01*
X287717Y289279D02*
Y291945D01*
X285718D01*
X286384Y290612D01*
Y289946D01*
X285718Y289279D01*
X284385D01*
X283718Y289946D01*
Y291279D01*
X284385Y291945D01*
X64475Y498631D02*
X63143D01*
X63809D01*
Y495299D01*
X63143Y494632D01*
X62476D01*
X61810Y495299D01*
X65808D02*
X66475Y494632D01*
X67808D01*
X68474Y495299D01*
Y497965D01*
X67808Y498631D01*
X66475D01*
X65808Y497965D01*
Y497298D01*
X66475Y496632D01*
X68474D01*
X120157Y499305D02*
X118824D01*
X119490D01*
Y495973D01*
X118824Y495307D01*
X118157D01*
X117491Y495973D01*
X121489Y498639D02*
X122156Y499305D01*
X123489D01*
X124155Y498639D01*
Y497972D01*
X123489Y497306D01*
X124155Y496639D01*
Y495973D01*
X123489Y495307D01*
X122156D01*
X121489Y495973D01*
Y496639D01*
X122156Y497306D01*
X121489Y497972D01*
Y498639D01*
X122156Y497306D02*
X123489D01*
X301353Y469901D02*
Y473900D01*
X303353D01*
X304019Y473233D01*
Y471900D01*
X303353Y471234D01*
X301353D01*
X302686D02*
X304019Y469901D01*
X305352Y473233D02*
X306018Y473900D01*
X307351D01*
X308018Y473233D01*
Y472567D01*
X307351Y471900D01*
X306685D01*
X307351D01*
X308018Y471234D01*
Y470567D01*
X307351Y469901D01*
X306018D01*
X305352Y470567D01*
X309351Y473233D02*
X310017Y473900D01*
X311350D01*
X312016Y473233D01*
Y470567D01*
X311350Y469901D01*
X310017D01*
X309351Y470567D01*
Y473233D01*
X747842Y762055D02*
X746509D01*
X747175D01*
Y758722D01*
X746509Y758056D01*
X745843D01*
X745176Y758722D01*
X749175Y761388D02*
X749841Y762055D01*
X751174D01*
X751841Y761388D01*
Y760722D01*
X751174Y760055D01*
X750508D01*
X751174D01*
X751841Y759389D01*
Y758722D01*
X751174Y758056D01*
X749841D01*
X749175Y758722D01*
X145321Y706768D02*
X149319D01*
Y704768D01*
X148653Y704102D01*
X147320D01*
X146653Y704768D01*
Y706768D01*
Y705435D02*
X145321Y704102D01*
Y702769D02*
Y701436D01*
Y702103D01*
X149319D01*
X148653Y702769D01*
X145321Y697437D02*
X149319D01*
X147320Y699437D01*
Y696771D01*
X145987Y695438D02*
X145321Y694772D01*
Y693439D01*
X145987Y692772D01*
X148653D01*
X149319Y693439D01*
Y694772D01*
X148653Y695438D01*
X147986D01*
X147320Y694772D01*
Y692772D01*
X663555Y416498D02*
Y420497D01*
X665555D01*
X666221Y419830D01*
Y418497D01*
X665555Y417831D01*
X663555D01*
X664888D02*
X666221Y416498D01*
X667554D02*
X668887D01*
X668220D01*
Y420497D01*
X667554Y419830D01*
X670886D02*
X671553Y420497D01*
X672886D01*
X673552Y419830D01*
Y419164D01*
X672886Y418497D01*
X672219D01*
X672886D01*
X673552Y417831D01*
Y417164D01*
X672886Y416498D01*
X671553D01*
X670886Y417164D01*
X674885Y419830D02*
X675551Y420497D01*
X676884D01*
X677551Y419830D01*
Y419164D01*
X676884Y418497D01*
X676218D01*
X676884D01*
X677551Y417831D01*
Y417164D01*
X676884Y416498D01*
X675551D01*
X674885Y417164D01*
X663555Y394654D02*
Y398653D01*
X665555D01*
X666221Y397986D01*
Y396653D01*
X665555Y395987D01*
X663555D01*
X664888D02*
X666221Y394654D01*
X667554D02*
X668887D01*
X668220D01*
Y398653D01*
X667554Y397986D01*
X670886D02*
X671553Y398653D01*
X672886D01*
X673552Y397986D01*
Y397320D01*
X672886Y396653D01*
X672219D01*
X672886D01*
X673552Y395987D01*
Y395320D01*
X672886Y394654D01*
X671553D01*
X670886Y395320D01*
X677551Y394654D02*
X674885D01*
X677551Y397320D01*
Y397986D01*
X676884Y398653D01*
X675551D01*
X674885Y397986D01*
X664222Y372651D02*
Y376650D01*
X666221D01*
X666887Y375984D01*
Y374651D01*
X666221Y373984D01*
X664222D01*
X665555D02*
X666887Y372651D01*
X668220D02*
X669553D01*
X668887D01*
Y376650D01*
X668220Y375984D01*
X671553D02*
X672219Y376650D01*
X673552D01*
X674218Y375984D01*
Y375317D01*
X673552Y374651D01*
X672886D01*
X673552D01*
X674218Y373984D01*
Y373318D01*
X673552Y372651D01*
X672219D01*
X671553Y373318D01*
X675551Y372651D02*
X676884D01*
X676218D01*
Y376650D01*
X675551Y375984D01*
X663555Y350966D02*
Y354965D01*
X665555D01*
X666221Y354298D01*
Y352965D01*
X665555Y352299D01*
X663555D01*
X664888D02*
X666221Y350966D01*
X667554D02*
X668887D01*
X668220D01*
Y354965D01*
X667554Y354298D01*
X670886D02*
X671553Y354965D01*
X672886D01*
X673552Y354298D01*
Y353632D01*
X672886Y352965D01*
X672219D01*
X672886D01*
X673552Y352299D01*
Y351632D01*
X672886Y350966D01*
X671553D01*
X670886Y351632D01*
X674885Y354298D02*
X675551Y354965D01*
X676884D01*
X677551Y354298D01*
Y351632D01*
X676884Y350966D01*
X675551D01*
X674885Y351632D01*
Y354298D01*
X664504Y329079D02*
Y333078D01*
X666503D01*
X667169Y332412D01*
Y331079D01*
X666503Y330412D01*
X664504D01*
X665836D02*
X667169Y329079D01*
X668502D02*
X669835D01*
X669169D01*
Y333078D01*
X668502Y332412D01*
X674500Y329079D02*
X671835D01*
X674500Y331745D01*
Y332412D01*
X673834Y333078D01*
X672501D01*
X671835Y332412D01*
X675833Y329746D02*
X676500Y329079D01*
X677833D01*
X678499Y329746D01*
Y332412D01*
X677833Y333078D01*
X676500D01*
X675833Y332412D01*
Y331745D01*
X676500Y331079D01*
X678499D01*
X663555Y307278D02*
Y311277D01*
X665555D01*
X666221Y310610D01*
Y309277D01*
X665555Y308611D01*
X663555D01*
X664888D02*
X666221Y307278D01*
X667554D02*
X668887D01*
X668220D01*
Y311277D01*
X667554Y310610D01*
X673552Y307278D02*
X670886D01*
X673552Y309944D01*
Y310610D01*
X672886Y311277D01*
X671553D01*
X670886Y310610D01*
X674885D02*
X675551Y311277D01*
X676884D01*
X677551Y310610D01*
Y309944D01*
X676884Y309277D01*
X677551Y308611D01*
Y307944D01*
X676884Y307278D01*
X675551D01*
X674885Y307944D01*
Y308611D01*
X675551Y309277D01*
X674885Y309944D01*
Y310610D01*
X675551Y309277D02*
X676884D01*
X663555Y263590D02*
Y267589D01*
X665555D01*
X666221Y266922D01*
Y265589D01*
X665555Y264923D01*
X663555D01*
X664888D02*
X666221Y263590D01*
X667554D02*
X668887D01*
X668220D01*
Y267589D01*
X667554Y266922D01*
X673552Y263590D02*
X670886D01*
X673552Y266256D01*
Y266922D01*
X672886Y267589D01*
X671553D01*
X670886Y266922D01*
X674885Y267589D02*
X677551D01*
Y266922D01*
X674885Y264256D01*
Y263590D01*
X663555Y241746D02*
Y245745D01*
X665555D01*
X666221Y245078D01*
Y243745D01*
X665555Y243079D01*
X663555D01*
X664888D02*
X666221Y241746D01*
X667554D02*
X668887D01*
X668220D01*
Y245745D01*
X667554Y245078D01*
X673552Y241746D02*
X670886D01*
X673552Y244412D01*
Y245078D01*
X672886Y245745D01*
X671553D01*
X670886Y245078D01*
X677551Y245745D02*
X676218Y245078D01*
X674885Y243745D01*
Y242412D01*
X675551Y241746D01*
X676884D01*
X677551Y242412D01*
Y243079D01*
X676884Y243745D01*
X674885D01*
X663490Y285409D02*
Y289407D01*
X665489D01*
X666156Y288741D01*
Y287408D01*
X665489Y286742D01*
X663490D01*
X664823D02*
X666156Y285409D01*
X667489D02*
X668821D01*
X668155D01*
Y289407D01*
X667489Y288741D01*
X673487Y285409D02*
X670821D01*
X673487Y288074D01*
Y288741D01*
X672820Y289407D01*
X671487D01*
X670821Y288741D01*
X677485Y289407D02*
X674819D01*
Y287408D01*
X676152Y288074D01*
X676819D01*
X677485Y287408D01*
Y286075D01*
X676819Y285409D01*
X675486D01*
X674819Y286075D01*
X673949Y205867D02*
X677948D01*
Y203868D01*
X677281Y203201D01*
X675948D01*
X675282Y203868D01*
Y205867D01*
Y204534D02*
X673949Y203201D01*
Y201868D02*
Y200535D01*
Y201202D01*
X677948D01*
X677281Y201868D01*
X673949Y195870D02*
Y198536D01*
X676615Y195870D01*
X677281D01*
X677948Y196537D01*
Y197870D01*
X677281Y198536D01*
X673949Y192538D02*
X677948D01*
X675948Y194537D01*
Y191871D01*
X673949Y118935D02*
X677948D01*
Y116936D01*
X677281Y116270D01*
X675948D01*
X675282Y116936D01*
Y118935D01*
Y117603D02*
X673949Y116270D01*
Y114937D02*
Y113604D01*
Y114270D01*
X677948D01*
X677281Y114937D01*
X673949Y108939D02*
Y111605D01*
X676615Y108939D01*
X677281D01*
X677948Y109605D01*
Y110938D01*
X677281Y111605D01*
Y107606D02*
X677948Y106939D01*
Y105606D01*
X677281Y104940D01*
X676615D01*
X675948Y105606D01*
Y106273D01*
Y105606D01*
X675282Y104940D01*
X674615D01*
X673949Y105606D01*
Y106939D01*
X674615Y107606D01*
X673949Y184023D02*
X677948D01*
Y182024D01*
X677281Y181357D01*
X675948D01*
X675282Y182024D01*
Y184023D01*
Y182690D02*
X673949Y181357D01*
Y180024D02*
Y178691D01*
Y179358D01*
X677948D01*
X677281Y180024D01*
X673949Y174026D02*
Y176692D01*
X676615Y174026D01*
X677281D01*
X677948Y174693D01*
Y176026D01*
X677281Y176692D01*
X673949Y170028D02*
Y172693D01*
X676615Y170028D01*
X677281D01*
X677948Y170694D01*
Y172027D01*
X677281Y172693D01*
X664156Y219781D02*
Y223780D01*
X666156D01*
X666822Y223113D01*
Y221780D01*
X666156Y221114D01*
X664156D01*
X665489D02*
X666822Y219781D01*
X668155D02*
X669488D01*
X668821D01*
Y223780D01*
X668155Y223113D01*
X674153Y219781D02*
X671487D01*
X674153Y222447D01*
Y223113D01*
X673487Y223780D01*
X672154D01*
X671487Y223113D01*
X675486Y219781D02*
X676819D01*
X676152D01*
Y223780D01*
X675486Y223113D01*
X673949Y162179D02*
X677948D01*
Y160180D01*
X677281Y159513D01*
X675948D01*
X675282Y160180D01*
Y162179D01*
Y160846D02*
X673949Y159513D01*
Y158180D02*
Y156847D01*
Y157514D01*
X677948D01*
X677281Y158180D01*
X673949Y152182D02*
Y154848D01*
X676615Y152182D01*
X677281D01*
X677948Y152849D01*
Y154182D01*
X677281Y154848D01*
Y150849D02*
X677948Y150183D01*
Y148850D01*
X677281Y148183D01*
X674615D01*
X673949Y148850D01*
Y150183D01*
X674615Y150849D01*
X677281D01*
X357957Y469879D02*
Y473878D01*
X359956D01*
X360623Y473211D01*
Y471879D01*
X359956Y471212D01*
X357957D01*
X359290D02*
X360623Y469879D01*
X361955D02*
X363288D01*
X362622D01*
Y473878D01*
X361955Y473211D01*
X367287Y469879D02*
Y473878D01*
X365288Y471879D01*
X367954D01*
X369286Y473211D02*
X369953Y473878D01*
X371286D01*
X371952Y473211D01*
Y472545D01*
X371286Y471879D01*
X371952Y471212D01*
Y470546D01*
X371286Y469879D01*
X369953D01*
X369286Y470546D01*
Y471212D01*
X369953Y471879D01*
X369286Y472545D01*
Y473211D01*
X369953Y471879D02*
X371286D01*
X357957Y451391D02*
Y455389D01*
X359956D01*
X360623Y454723D01*
Y453390D01*
X359956Y452724D01*
X357957D01*
X359290D02*
X360623Y451391D01*
X361955D02*
X363288D01*
X362622D01*
Y455389D01*
X361955Y454723D01*
X367287Y451391D02*
Y455389D01*
X365288Y453390D01*
X367954D01*
X369286Y455389D02*
X371952D01*
Y454723D01*
X369286Y452057D01*
Y451391D01*
X357957Y432341D02*
Y436339D01*
X359956D01*
X360623Y435673D01*
Y434340D01*
X359956Y433674D01*
X357957D01*
X359290D02*
X360623Y432341D01*
X361955D02*
X363288D01*
X362622D01*
Y436339D01*
X361955Y435673D01*
X367287Y432341D02*
Y436339D01*
X365288Y434340D01*
X367954D01*
X371952Y436339D02*
X370619Y435673D01*
X369286Y434340D01*
Y433007D01*
X369953Y432341D01*
X371286D01*
X371952Y433007D01*
Y433674D01*
X371286Y434340D01*
X369286D01*
X357957Y413291D02*
Y417289D01*
X359956D01*
X360623Y416623D01*
Y415290D01*
X359956Y414624D01*
X357957D01*
X359290D02*
X360623Y413291D01*
X361955D02*
X363288D01*
X362622D01*
Y417289D01*
X361955Y416623D01*
X367287Y413291D02*
Y417289D01*
X365288Y415290D01*
X367954D01*
X371952Y417289D02*
X369286D01*
Y415290D01*
X370619Y415956D01*
X371286D01*
X371952Y415290D01*
Y413957D01*
X371286Y413291D01*
X369953D01*
X369286Y413957D01*
X589621Y211564D02*
Y215563D01*
X591621D01*
X592287Y214896D01*
Y213563D01*
X591621Y212897D01*
X589621D01*
X590954D02*
X592287Y211564D01*
X593620D02*
X594953D01*
X594286D01*
Y215563D01*
X593620Y214896D01*
X596952D02*
X597619Y215563D01*
X598952D01*
X599618Y214896D01*
Y214230D01*
X598952Y213563D01*
X598285D01*
X598952D01*
X599618Y212897D01*
Y212230D01*
X598952Y211564D01*
X597619D01*
X596952Y212230D01*
X603617Y215563D02*
X600951D01*
Y213563D01*
X602284Y214230D01*
X602950D01*
X603617Y213563D01*
Y212230D01*
X602950Y211564D01*
X601617D01*
X600951Y212230D01*
X748237Y292829D02*
X746905D01*
X747571D01*
Y289497D01*
X746905Y288831D01*
X746238D01*
X745572Y289497D01*
X749570Y288831D02*
X750903D01*
X750237D01*
Y292829D01*
X749570Y292163D01*
X755568Y288831D02*
X752903D01*
X755568Y291497D01*
Y292163D01*
X754902Y292829D01*
X753569D01*
X752903Y292163D01*
X366762Y322312D02*
X369428Y318314D01*
Y322312D02*
X366762Y318314D01*
X370761D02*
X372094D01*
X371427D01*
Y322312D01*
X370761Y321646D01*
X173161Y265380D02*
X169828D01*
X169162Y264713D01*
Y263380D01*
X169828Y262714D01*
X173161D01*
X169162Y258715D02*
Y261381D01*
X171828Y258715D01*
X172494D01*
X173161Y259382D01*
Y260714D01*
X172494Y261381D01*
X169162Y257382D02*
Y256049D01*
Y256716D01*
X173161D01*
X172494Y257382D01*
X155154Y342545D02*
Y339212D01*
X155821Y338546D01*
X157154D01*
X157820Y339212D01*
Y342545D01*
X159153Y338546D02*
X160486D01*
X159820D01*
Y342545D01*
X159153Y341878D01*
X162486D02*
X163152Y342545D01*
X164485D01*
X165151Y341878D01*
Y341212D01*
X164485Y340545D01*
X165151Y339879D01*
Y339212D01*
X164485Y338546D01*
X163152D01*
X162486Y339212D01*
Y339879D01*
X163152Y340545D01*
X162486Y341212D01*
Y341878D01*
X163152Y340545D02*
X164485D01*
X182286Y488330D02*
Y484998D01*
X182952Y484331D01*
X184285D01*
X184952Y484998D01*
Y488330D01*
X186285Y484331D02*
X187617D01*
X186951D01*
Y488330D01*
X186285Y487664D01*
X189617Y488330D02*
X192283D01*
Y487664D01*
X189617Y484998D01*
Y484331D01*
X633157Y510628D02*
Y507296D01*
X633824Y506629D01*
X635157D01*
X635823Y507296D01*
Y510628D01*
X637156Y506629D02*
X638489D01*
X637822D01*
Y510628D01*
X637156Y509962D01*
X642487Y506629D02*
Y510628D01*
X640488Y508629D01*
X643154D01*
X571884Y509999D02*
Y506667D01*
X572550Y506001D01*
X573883D01*
X574550Y506667D01*
Y509999D01*
X575882Y506001D02*
X577215D01*
X576549D01*
Y509999D01*
X575882Y509333D01*
X579215D02*
X579881Y509999D01*
X581214D01*
X581881Y509333D01*
Y508666D01*
X581214Y508000D01*
X580548D01*
X581214D01*
X581881Y507334D01*
Y506667D01*
X581214Y506001D01*
X579881D01*
X579215Y506667D01*
X383082Y409512D02*
Y406180D01*
X383749Y405513D01*
X385082D01*
X385748Y406180D01*
Y409512D01*
X387081Y405513D02*
X388414D01*
X387747D01*
Y409512D01*
X387081Y408845D01*
X393079Y405513D02*
X390413D01*
X393079Y408179D01*
Y408845D01*
X392413Y409512D01*
X391080D01*
X390413Y408845D01*
X443035Y510436D02*
Y507103D01*
X443701Y506437D01*
X445034D01*
X445700Y507103D01*
Y510436D01*
X447033Y509769D02*
X447700Y510436D01*
X449033D01*
X449699Y509769D01*
Y509103D01*
X449033Y508436D01*
X449699Y507770D01*
Y507103D01*
X449033Y506437D01*
X447700D01*
X447033Y507103D01*
Y507770D01*
X447700Y508436D01*
X447033Y509103D01*
Y509769D01*
X447700Y508436D02*
X449033D01*
X325314Y510436D02*
Y507103D01*
X325980Y506437D01*
X327313D01*
X327980Y507103D01*
Y510436D01*
X329313D02*
X331978D01*
Y509769D01*
X329313Y507103D01*
Y506437D01*
X208728Y510436D02*
Y507103D01*
X209394Y506437D01*
X210727D01*
X211394Y507103D01*
Y510436D01*
X215392D02*
X214060Y509769D01*
X212727Y508436D01*
Y507103D01*
X213393Y506437D01*
X214726D01*
X215392Y507103D01*
Y507770D01*
X214726Y508436D01*
X212727D01*
X92142Y510436D02*
Y507103D01*
X92809Y506437D01*
X94141D01*
X94808Y507103D01*
Y510436D01*
X98806D02*
X96141D01*
Y508436D01*
X97474Y509103D01*
X98140D01*
X98806Y508436D01*
Y507103D01*
X98140Y506437D01*
X96807D01*
X96141Y507103D01*
X232888Y205199D02*
Y201867D01*
X233554Y201201D01*
X234887D01*
X235554Y201867D01*
Y205199D01*
X238886Y201201D02*
Y205199D01*
X236886Y203200D01*
X239552D01*
X94458Y664939D02*
Y661607D01*
X95124Y660941D01*
X96457D01*
X97124Y661607D01*
Y664939D01*
X98456Y664273D02*
X99123Y664939D01*
X100456D01*
X101122Y664273D01*
Y663606D01*
X100456Y662940D01*
X99789D01*
X100456D01*
X101122Y662274D01*
Y661607D01*
X100456Y660941D01*
X99123D01*
X98456Y661607D01*
X589272Y169498D02*
Y166166D01*
X589939Y165499D01*
X591272D01*
X591938Y166166D01*
Y169498D01*
X593271Y165499D02*
X594604D01*
X593937D01*
Y169498D01*
X593271Y168832D01*
X21532Y616834D02*
X24198D01*
X22865D01*
Y612836D01*
X25531Y616834D02*
Y614169D01*
X26864Y612836D01*
X28197Y614169D01*
Y616834D01*
X32196Y616168D02*
X31529Y616834D01*
X30196D01*
X29530Y616168D01*
Y615502D01*
X30196Y614835D01*
X31529D01*
X32196Y614169D01*
Y613502D01*
X31529Y612836D01*
X30196D01*
X29530Y613502D01*
X36194Y612836D02*
X33528D01*
X36194Y615502D01*
Y616168D01*
X35528Y616834D01*
X34195D01*
X33528Y616168D01*
X621587Y169382D02*
X624253D01*
X622920D01*
Y165383D01*
X625586Y169382D02*
Y166716D01*
X626918Y165383D01*
X628251Y166716D01*
Y169382D01*
X632250Y168715D02*
X631584Y169382D01*
X630251D01*
X629584Y168715D01*
Y168049D01*
X630251Y167382D01*
X631584D01*
X632250Y166716D01*
Y166049D01*
X631584Y165383D01*
X630251D01*
X629584Y166049D01*
X633583Y165383D02*
X634916D01*
X634249D01*
Y169382D01*
X633583Y168715D01*
X239593Y244835D02*
Y248834D01*
X241592D01*
X242259Y248167D01*
Y246835D01*
X241592Y246168D01*
X239593D01*
X240926D02*
X242259Y244835D01*
X243591D02*
X244924D01*
X244258D01*
Y248834D01*
X243591Y248167D01*
X246924D02*
X247590Y248834D01*
X248923D01*
X249590Y248167D01*
Y245502D01*
X248923Y244835D01*
X247590D01*
X246924Y245502D01*
Y248167D01*
X250923Y248834D02*
X253588D01*
Y248167D01*
X250923Y245502D01*
Y244835D01*
X239593Y263631D02*
Y267630D01*
X241592D01*
X242259Y266963D01*
Y265630D01*
X241592Y264964D01*
X239593D01*
X240926D02*
X242259Y263631D01*
X243591D02*
X244924D01*
X244258D01*
Y267630D01*
X243591Y266963D01*
X246924D02*
X247590Y267630D01*
X248923D01*
X249590Y266963D01*
Y264298D01*
X248923Y263631D01*
X247590D01*
X246924Y264298D01*
Y266963D01*
X253588Y267630D02*
X252255Y266963D01*
X250923Y265630D01*
Y264298D01*
X251589Y263631D01*
X252922D01*
X253588Y264298D01*
Y264964D01*
X252922Y265630D01*
X250923D01*
X239593Y282427D02*
Y286426D01*
X241592D01*
X242259Y285759D01*
Y284426D01*
X241592Y283760D01*
X239593D01*
X240926D02*
X242259Y282427D01*
X243591D02*
X244924D01*
X244258D01*
Y286426D01*
X243591Y285759D01*
X246924D02*
X247590Y286426D01*
X248923D01*
X249590Y285759D01*
Y283094D01*
X248923Y282427D01*
X247590D01*
X246924Y283094D01*
Y285759D01*
X253588Y286426D02*
X250923D01*
Y284426D01*
X252255Y285093D01*
X252922D01*
X253588Y284426D01*
Y283094D01*
X252922Y282427D01*
X251589D01*
X250923Y283094D01*
X240259Y338720D02*
Y342718D01*
X242259D01*
X242925Y342052D01*
Y340719D01*
X242259Y340052D01*
X240259D01*
X241592D02*
X242925Y338720D01*
X244258D02*
X245591D01*
X244924D01*
Y342718D01*
X244258Y342052D01*
X247590D02*
X248257Y342718D01*
X249590D01*
X250256Y342052D01*
Y339386D01*
X249590Y338720D01*
X248257D01*
X247590Y339386D01*
Y342052D01*
X251589Y338720D02*
X252922D01*
X252255D01*
Y342718D01*
X251589Y342052D01*
X239658Y357383D02*
Y361381D01*
X241658D01*
X242324Y360715D01*
Y359382D01*
X241658Y358716D01*
X239658D01*
X240991D02*
X242324Y357383D01*
X243657D02*
X244990D01*
X244323D01*
Y361381D01*
X243657Y360715D01*
X246989D02*
X247656Y361381D01*
X248988D01*
X249655Y360715D01*
Y358049D01*
X248988Y357383D01*
X247656D01*
X246989Y358049D01*
Y360715D01*
X250988D02*
X251654Y361381D01*
X252987D01*
X253654Y360715D01*
Y358049D01*
X252987Y357383D01*
X251654D01*
X250988Y358049D01*
Y360715D01*
X241324Y301106D02*
Y305105D01*
X243324D01*
X243990Y304439D01*
Y303106D01*
X243324Y302439D01*
X241324D01*
X242657D02*
X243990Y301106D01*
X245323Y301773D02*
X245989Y301106D01*
X247322D01*
X247989Y301773D01*
Y304439D01*
X247322Y305105D01*
X245989D01*
X245323Y304439D01*
Y303772D01*
X245989Y303106D01*
X247989D01*
X249322Y301773D02*
X249988Y301106D01*
X251321D01*
X251987Y301773D01*
Y304439D01*
X251321Y305105D01*
X249988D01*
X249322Y304439D01*
Y303772D01*
X249988Y303106D01*
X251987D01*
X241259Y469767D02*
Y473766D01*
X243258D01*
X243925Y473100D01*
Y471767D01*
X243258Y471100D01*
X241259D01*
X242592D02*
X243925Y469767D01*
X245258Y470434D02*
X245924Y469767D01*
X247257D01*
X247924Y470434D01*
Y473100D01*
X247257Y473766D01*
X245924D01*
X245258Y473100D01*
Y472433D01*
X245924Y471767D01*
X247924D01*
X249256Y473100D02*
X249923Y473766D01*
X251256D01*
X251922Y473100D01*
Y472433D01*
X251256Y471767D01*
X251922Y471100D01*
Y470434D01*
X251256Y469767D01*
X249923D01*
X249256Y470434D01*
Y471100D01*
X249923Y471767D01*
X249256Y472433D01*
Y473100D01*
X249923Y471767D02*
X251256D01*
X241324Y319902D02*
Y323901D01*
X243324D01*
X243990Y323235D01*
Y321902D01*
X243324Y321235D01*
X241324D01*
X242657D02*
X243990Y319902D01*
X245323Y320569D02*
X245989Y319902D01*
X247322D01*
X247989Y320569D01*
Y323235D01*
X247322Y323901D01*
X245989D01*
X245323Y323235D01*
Y322568D01*
X245989Y321902D01*
X247989D01*
X249322Y323901D02*
X251987D01*
Y323235D01*
X249322Y320569D01*
Y319902D01*
X241324Y451221D02*
Y455219D01*
X243324D01*
X243990Y454553D01*
Y453220D01*
X243324Y452553D01*
X241324D01*
X242657D02*
X243990Y451221D01*
X245323Y451887D02*
X245989Y451221D01*
X247322D01*
X247989Y451887D01*
Y454553D01*
X247322Y455219D01*
X245989D01*
X245323Y454553D01*
Y453886D01*
X245989Y453220D01*
X247989D01*
X251987Y455219D02*
X250655Y454553D01*
X249322Y453220D01*
Y451887D01*
X249988Y451221D01*
X251321D01*
X251987Y451887D01*
Y452553D01*
X251321Y453220D01*
X249322D01*
X241324Y394832D02*
Y398831D01*
X243324D01*
X243990Y398165D01*
Y396832D01*
X243324Y396165D01*
X241324D01*
X242657D02*
X243990Y394832D01*
X245323Y395499D02*
X245989Y394832D01*
X247322D01*
X247989Y395499D01*
Y398165D01*
X247322Y398831D01*
X245989D01*
X245323Y398165D01*
Y397498D01*
X245989Y396832D01*
X247989D01*
X251987Y398831D02*
X249322D01*
Y396832D01*
X250655Y397498D01*
X251321D01*
X251987Y396832D01*
Y395499D01*
X251321Y394832D01*
X249988D01*
X249322Y395499D01*
X242205Y376165D02*
Y380164D01*
X244204D01*
X244871Y379497D01*
Y378164D01*
X244204Y377498D01*
X242205D01*
X243538D02*
X244871Y376165D01*
X246204Y376832D02*
X246870Y376165D01*
X248203D01*
X248869Y376832D01*
Y379497D01*
X248203Y380164D01*
X246870D01*
X246204Y379497D01*
Y378831D01*
X246870Y378164D01*
X248869D01*
X252202Y376165D02*
Y380164D01*
X250202Y378164D01*
X252868D01*
X241324Y413629D02*
Y417627D01*
X243324D01*
X243990Y416961D01*
Y415628D01*
X243324Y414961D01*
X241324D01*
X242657D02*
X243990Y413629D01*
X245323Y414295D02*
X245989Y413629D01*
X247322D01*
X247989Y414295D01*
Y416961D01*
X247322Y417627D01*
X245989D01*
X245323Y416961D01*
Y416294D01*
X245989Y415628D01*
X247989D01*
X249322Y416961D02*
X249988Y417627D01*
X251321D01*
X251987Y416961D01*
Y416294D01*
X251321Y415628D01*
X250655D01*
X251321D01*
X251987Y414961D01*
Y414295D01*
X251321Y413629D01*
X249988D01*
X249322Y414295D01*
X241324Y432425D02*
Y436423D01*
X243324D01*
X243990Y435757D01*
Y434424D01*
X243324Y433757D01*
X241324D01*
X242657D02*
X243990Y432425D01*
X245323Y433091D02*
X245989Y432425D01*
X247322D01*
X247989Y433091D01*
Y435757D01*
X247322Y436423D01*
X245989D01*
X245323Y435757D01*
Y435090D01*
X245989Y434424D01*
X247989D01*
X251987Y432425D02*
X249322D01*
X251987Y435090D01*
Y435757D01*
X251321Y436423D01*
X249988D01*
X249322Y435757D01*
X455427Y674587D02*
X459426D01*
Y672588D01*
X458760Y671921D01*
X457427D01*
X456760Y672588D01*
Y674587D01*
Y673254D02*
X455427Y671921D01*
X459426Y667923D02*
X458760Y669256D01*
X457427Y670589D01*
X456094D01*
X455427Y669922D01*
Y668589D01*
X456094Y667923D01*
X456760D01*
X457427Y668589D01*
Y670589D01*
X459426Y663924D02*
Y666590D01*
X457427D01*
X458093Y665257D01*
Y664590D01*
X457427Y663924D01*
X456094D01*
X455427Y664590D01*
Y665923D01*
X456094Y666590D01*
X455427Y710147D02*
X459426D01*
Y708148D01*
X458760Y707481D01*
X457427D01*
X456760Y708148D01*
Y710147D01*
Y708814D02*
X455427Y707481D01*
X459426Y703483D02*
X458760Y704816D01*
X457427Y706149D01*
X456094D01*
X455427Y705482D01*
Y704149D01*
X456094Y703483D01*
X456760D01*
X457427Y704149D01*
Y706149D01*
X455427Y700150D02*
X459426D01*
X457427Y702150D01*
Y699484D01*
X455427Y745707D02*
X459426D01*
Y743708D01*
X458760Y743041D01*
X457427D01*
X456760Y743708D01*
Y745707D01*
Y744374D02*
X455427Y743041D01*
X459426Y739043D02*
X458760Y740376D01*
X457427Y741709D01*
X456094D01*
X455427Y741042D01*
Y739709D01*
X456094Y739043D01*
X456760D01*
X457427Y739709D01*
Y741709D01*
X458760Y737710D02*
X459426Y737043D01*
Y735710D01*
X458760Y735044D01*
X458093D01*
X457427Y735710D01*
Y736377D01*
Y735710D01*
X456760Y735044D01*
X456094D01*
X455427Y735710D01*
Y737043D01*
X456094Y737710D01*
X455427Y781267D02*
X459426D01*
Y779268D01*
X458760Y778601D01*
X457427D01*
X456760Y779268D01*
Y781267D01*
Y779934D02*
X455427Y778601D01*
X459426Y774603D02*
X458760Y775936D01*
X457427Y777269D01*
X456094D01*
X455427Y776602D01*
Y775269D01*
X456094Y774603D01*
X456760D01*
X457427Y775269D01*
Y777269D01*
X455427Y770604D02*
Y773270D01*
X458093Y770604D01*
X458760D01*
X459426Y771270D01*
Y772603D01*
X458760Y773270D01*
X455427Y654966D02*
X459426D01*
Y652967D01*
X458760Y652300D01*
X457427D01*
X456760Y652967D01*
Y654966D01*
Y653633D02*
X455427Y652300D01*
X459426Y648302D02*
X458760Y649635D01*
X457427Y650968D01*
X456094D01*
X455427Y650301D01*
Y648968D01*
X456094Y648302D01*
X456760D01*
X457427Y648968D01*
Y650968D01*
X455427Y646969D02*
Y645636D01*
Y646302D01*
X459426D01*
X458760Y646969D01*
X455427Y691097D02*
X459426D01*
Y689098D01*
X458760Y688431D01*
X457427D01*
X456760Y689098D01*
Y691097D01*
Y689764D02*
X455427Y688431D01*
X459426Y684433D02*
X458760Y685766D01*
X457427Y687098D01*
X456094D01*
X455427Y686432D01*
Y685099D01*
X456094Y684433D01*
X456760D01*
X457427Y685099D01*
Y687098D01*
X458760Y683100D02*
X459426Y682433D01*
Y681100D01*
X458760Y680434D01*
X456094D01*
X455427Y681100D01*
Y682433D01*
X456094Y683100D01*
X458760D01*
X455427Y726657D02*
X459426D01*
Y724658D01*
X458760Y723991D01*
X457427D01*
X456760Y724658D01*
Y726657D01*
Y725324D02*
X455427Y723991D01*
X459426Y719993D02*
Y722658D01*
X457427D01*
X458093Y721326D01*
Y720659D01*
X457427Y719993D01*
X456094D01*
X455427Y720659D01*
Y721992D01*
X456094Y722658D01*
Y718660D02*
X455427Y717993D01*
Y716660D01*
X456094Y715994D01*
X458760D01*
X459426Y716660D01*
Y717993D01*
X458760Y718660D01*
X458093D01*
X457427Y717993D01*
Y715994D01*
X455427Y762217D02*
X459426D01*
Y760218D01*
X458760Y759551D01*
X457427D01*
X456760Y760218D01*
Y762217D01*
Y760884D02*
X455427Y759551D01*
X459426Y755553D02*
Y758219D01*
X457427D01*
X458093Y756886D01*
Y756219D01*
X457427Y755553D01*
X456094D01*
X455427Y756219D01*
Y757552D01*
X456094Y758219D01*
X458760Y754220D02*
X459426Y753553D01*
Y752220D01*
X458760Y751554D01*
X458093D01*
X457427Y752220D01*
X456760Y751554D01*
X456094D01*
X455427Y752220D01*
Y753553D01*
X456094Y754220D01*
X456760D01*
X457427Y753553D01*
X458093Y754220D01*
X458760D01*
X457427Y753553D02*
Y752220D01*
X422601Y451425D02*
Y455423D01*
X424600D01*
X425267Y454757D01*
Y453424D01*
X424600Y452758D01*
X422601D01*
X423934D02*
X425267Y451425D01*
X428599D02*
Y455423D01*
X426600Y453424D01*
X429265D01*
X433264Y455423D02*
X431931Y454757D01*
X430598Y453424D01*
Y452091D01*
X431265Y451425D01*
X432598D01*
X433264Y452091D01*
Y452758D01*
X432598Y453424D01*
X430598D01*
X300252Y338699D02*
Y342697D01*
X302252D01*
X302918Y342031D01*
Y340698D01*
X302252Y340031D01*
X300252D01*
X301585D02*
X302918Y338699D01*
X304251Y342031D02*
X304917Y342697D01*
X306250D01*
X306917Y342031D01*
Y341364D01*
X306250Y340698D01*
X305584D01*
X306250D01*
X306917Y340031D01*
Y339365D01*
X306250Y338699D01*
X304917D01*
X304251Y339365D01*
X310916Y338699D02*
X308250D01*
X310916Y341364D01*
Y342031D01*
X310249Y342697D01*
X308916D01*
X308250Y342031D01*
X300919Y357590D02*
Y361589D01*
X302918D01*
X303584Y360922D01*
Y359589D01*
X302918Y358923D01*
X300919D01*
X302252D02*
X303584Y357590D01*
X304917Y360922D02*
X305584Y361589D01*
X306917D01*
X307583Y360922D01*
Y360256D01*
X306917Y359589D01*
X306250D01*
X306917D01*
X307583Y358923D01*
Y358256D01*
X306917Y357590D01*
X305584D01*
X304917Y358256D01*
X308916Y357590D02*
X310249D01*
X309583D01*
Y361589D01*
X308916Y360922D01*
X301353Y451156D02*
Y455154D01*
X303353D01*
X304019Y454488D01*
Y453155D01*
X303353Y452489D01*
X301353D01*
X302686D02*
X304019Y451156D01*
X308018D02*
X305352D01*
X308018Y453822D01*
Y454488D01*
X307351Y455154D01*
X306018D01*
X305352Y454488D01*
X309351Y451822D02*
X310017Y451156D01*
X311350D01*
X312016Y451822D01*
Y454488D01*
X311350Y455154D01*
X310017D01*
X309351Y454488D01*
Y453822D01*
X310017Y453155D01*
X312016D01*
X300252Y376291D02*
Y380289D01*
X302252D01*
X302918Y379623D01*
Y378290D01*
X302252Y377623D01*
X300252D01*
X301585D02*
X302918Y376291D01*
X306917D02*
X304251D01*
X306917Y378956D01*
Y379623D01*
X306250Y380289D01*
X304917D01*
X304251Y379623D01*
X310249Y376291D02*
Y380289D01*
X308250Y378290D01*
X310916D01*
X300252Y395087D02*
Y399085D01*
X302252D01*
X302918Y398419D01*
Y397086D01*
X302252Y396419D01*
X300252D01*
X301585D02*
X302918Y395087D01*
X306917D02*
X304251D01*
X306917Y397752D01*
Y398419D01*
X306250Y399085D01*
X304917D01*
X304251Y398419D01*
X308250D02*
X308916Y399085D01*
X310249D01*
X310916Y398419D01*
Y397752D01*
X310249Y397086D01*
X309583D01*
X310249D01*
X310916Y396419D01*
Y395753D01*
X310249Y395087D01*
X308916D01*
X308250Y395753D01*
X300252Y432425D02*
Y436423D01*
X302252D01*
X302918Y435757D01*
Y434424D01*
X302252Y433757D01*
X300252D01*
X301585D02*
X302918Y432425D01*
X306917D02*
X304251D01*
X306917Y435090D01*
Y435757D01*
X306250Y436423D01*
X304917D01*
X304251Y435757D01*
X310916Y432425D02*
X308250D01*
X310916Y435090D01*
Y435757D01*
X310249Y436423D01*
X308916D01*
X308250Y435757D01*
X300919Y413724D02*
Y417723D01*
X302918D01*
X303584Y417056D01*
Y415723D01*
X302918Y415057D01*
X300919D01*
X302252D02*
X303584Y413724D01*
X307583D02*
X304917D01*
X307583Y416390D01*
Y417056D01*
X306917Y417723D01*
X305584D01*
X304917Y417056D01*
X308916Y413724D02*
X310249D01*
X309583D01*
Y417723D01*
X308916Y417056D01*
X21532Y682569D02*
Y686568D01*
X23532D01*
X24198Y685901D01*
Y684568D01*
X23532Y683902D01*
X21532D01*
X22865D02*
X24198Y682569D01*
X25531D02*
X26864D01*
X26198D01*
Y686568D01*
X25531Y685901D01*
X28863Y683235D02*
X29530Y682569D01*
X30863D01*
X31529Y683235D01*
Y685901D01*
X30863Y686568D01*
X29530D01*
X28863Y685901D01*
Y685235D01*
X29530Y684568D01*
X31529D01*
X145321Y667938D02*
X149319D01*
Y665939D01*
X148653Y665273D01*
X147320D01*
X146654Y665939D01*
Y667938D01*
Y666606D02*
X145321Y665273D01*
Y663940D02*
Y662607D01*
Y663273D01*
X149319D01*
X148653Y663940D01*
Y660607D02*
X149319Y659941D01*
Y658608D01*
X148653Y657942D01*
X147986D01*
X147320Y658608D01*
X146654Y657942D01*
X145987D01*
X145321Y658608D01*
Y659941D01*
X145987Y660607D01*
X146654D01*
X147320Y659941D01*
X147986Y660607D01*
X148653D01*
X147320Y659941D02*
Y658608D01*
X95953Y623498D02*
Y627496D01*
X97952D01*
X98619Y626830D01*
Y625497D01*
X97952Y624831D01*
X95953D01*
X97286D02*
X98619Y623498D01*
X99952D02*
X101285D01*
X100618D01*
Y627496D01*
X99952Y626830D01*
X103284Y627496D02*
X105950D01*
Y626830D01*
X103284Y624164D01*
Y623498D01*
X145528Y741245D02*
X149527D01*
Y739246D01*
X148860Y738579D01*
X147528D01*
X146861Y739246D01*
Y741245D01*
Y739912D02*
X145528Y738579D01*
Y737246D02*
Y735913D01*
Y736580D01*
X149527D01*
X148860Y737246D01*
X149527Y731248D02*
Y733914D01*
X147528D01*
X148194Y732581D01*
Y731915D01*
X147528Y731248D01*
X146195D01*
X145528Y731915D01*
Y733248D01*
X146195Y733914D01*
X145321Y723818D02*
X149319D01*
Y721819D01*
X148653Y721153D01*
X147320D01*
X146654Y721819D01*
Y723818D01*
Y722486D02*
X145321Y721153D01*
Y719820D02*
Y718487D01*
Y719153D01*
X149319D01*
X148653Y719820D01*
X145321Y714488D02*
X149319D01*
X147320Y716487D01*
Y713822D01*
X145321Y650158D02*
X149319D01*
Y648159D01*
X148653Y647493D01*
X147320D01*
X146654Y648159D01*
Y650158D01*
Y648826D02*
X145321Y647493D01*
Y646160D02*
Y644827D01*
Y645493D01*
X149319D01*
X148653Y646160D01*
Y642827D02*
X149319Y642161D01*
Y640828D01*
X148653Y640162D01*
X147986D01*
X147320Y640828D01*
Y641495D01*
Y640828D01*
X146654Y640162D01*
X145987D01*
X145321Y640828D01*
Y642161D01*
X145987Y642827D01*
X145321Y685718D02*
X149319D01*
Y683719D01*
X148653Y683053D01*
X147320D01*
X146654Y683719D01*
Y685718D01*
Y684386D02*
X145321Y683053D01*
Y681720D02*
Y680387D01*
Y681053D01*
X149319D01*
X148653Y681720D01*
X145321Y675722D02*
Y678387D01*
X147986Y675722D01*
X148653D01*
X149319Y676388D01*
Y677721D01*
X148653Y678387D01*
X438842Y201918D02*
Y205917D01*
X440842D01*
X441508Y205250D01*
Y203917D01*
X440842Y203251D01*
X438842D01*
X440175D02*
X441508Y201918D01*
X442841Y202584D02*
X443507Y201918D01*
X444840D01*
X445507Y202584D01*
Y205250D01*
X444840Y205917D01*
X443507D01*
X442841Y205250D01*
Y204584D01*
X443507Y203917D01*
X445507D01*
X673949Y137164D02*
X677948D01*
Y135165D01*
X677281Y134498D01*
X675948D01*
X675282Y135165D01*
Y137164D01*
Y135831D02*
X673949Y134498D01*
X677281Y133165D02*
X677948Y132499D01*
Y131166D01*
X677281Y130499D01*
X676615D01*
X675948Y131166D01*
X675282Y130499D01*
X674615D01*
X673949Y131166D01*
Y132499D01*
X674615Y133165D01*
X675282D01*
X675948Y132499D01*
X676615Y133165D01*
X677281D01*
X675948Y132499D02*
Y131166D01*
X609802Y94224D02*
Y98223D01*
X611801D01*
X612468Y97557D01*
Y96224D01*
X611801Y95557D01*
X609802D01*
X611135D02*
X612468Y94224D01*
X613801Y98223D02*
X616466D01*
Y97557D01*
X613801Y94891D01*
Y94224D01*
X612253Y211499D02*
Y215497D01*
X614252D01*
X614919Y214831D01*
Y213498D01*
X614252Y212832D01*
X612253D01*
X613586D02*
X614919Y211499D01*
X618917Y215497D02*
X617584Y214831D01*
X616251Y213498D01*
Y212165D01*
X616918Y211499D01*
X618251D01*
X618917Y212165D01*
Y212832D01*
X618251Y213498D01*
X616251D01*
X555611Y211499D02*
Y215497D01*
X557610D01*
X558276Y214831D01*
Y213498D01*
X557610Y212832D01*
X555611D01*
X556944D02*
X558276Y211499D01*
X561609D02*
Y215497D01*
X559609Y213498D01*
X562275D01*
X574346Y211564D02*
Y215563D01*
X576346D01*
X577012Y214896D01*
Y213563D01*
X576346Y212897D01*
X574346D01*
X575679D02*
X577012Y211564D01*
X578345Y214896D02*
X579011Y215563D01*
X580344D01*
X581011Y214896D01*
Y214230D01*
X580344Y213563D01*
X579678D01*
X580344D01*
X581011Y212897D01*
Y212230D01*
X580344Y211564D01*
X579011D01*
X578345Y212230D01*
X650038Y211564D02*
Y215563D01*
X652038D01*
X652704Y214896D01*
Y213563D01*
X652038Y212897D01*
X650038D01*
X651371D02*
X652704Y211564D01*
X656703D02*
X654037D01*
X656703Y214230D01*
Y214896D01*
X656036Y215563D01*
X654703D01*
X654037Y214896D01*
X631811Y211499D02*
Y215497D01*
X633810D01*
X634477Y214831D01*
Y213498D01*
X633810Y212832D01*
X631811D01*
X633144D02*
X634477Y211499D01*
X635809D02*
X637142D01*
X636476D01*
Y215497D01*
X635809Y214831D01*
X376296Y659161D02*
Y661827D01*
X375630Y662494D01*
X374297D01*
X373631Y661827D01*
Y659161D01*
X374297Y658495D01*
X375630D01*
X374963Y659828D02*
X376296Y658495D01*
X375630D02*
X376296Y659161D01*
X379629Y658495D02*
Y662494D01*
X377629Y660494D01*
X380295D01*
X376296Y694721D02*
Y697387D01*
X375630Y698054D01*
X374297D01*
X373631Y697387D01*
Y694721D01*
X374297Y694055D01*
X375630D01*
X374963Y695388D02*
X376296Y694055D01*
X375630D02*
X376296Y694721D01*
X377629Y697387D02*
X378296Y698054D01*
X379629D01*
X380295Y697387D01*
Y696721D01*
X379629Y696054D01*
X378962D01*
X379629D01*
X380295Y695388D01*
Y694721D01*
X379629Y694055D01*
X378296D01*
X377629Y694721D01*
X376296Y730281D02*
Y732947D01*
X375630Y733614D01*
X374297D01*
X373631Y732947D01*
Y730281D01*
X374297Y729615D01*
X375630D01*
X374963Y730948D02*
X376296Y729615D01*
X375630D02*
X376296Y730281D01*
X380295Y729615D02*
X377629D01*
X380295Y732281D01*
Y732947D01*
X379629Y733614D01*
X378296D01*
X377629Y732947D01*
X376963Y765937D02*
Y768603D01*
X376297Y769269D01*
X374963D01*
X374297Y768603D01*
Y765937D01*
X374963Y765270D01*
X376297D01*
X375630Y766603D02*
X376963Y765270D01*
X376297D02*
X376963Y765937D01*
X378296Y765270D02*
X379629D01*
X378962D01*
Y769269D01*
X378296Y768603D01*
X279969Y283953D02*
X275970D01*
Y281287D01*
X279969Y279954D02*
Y277288D01*
X279303D01*
X276637Y279954D01*
X275970D01*
X480574Y582100D02*
Y578101D01*
X483240D01*
X487239Y582100D02*
X484573D01*
Y580101D01*
X485906Y580767D01*
X486572D01*
X487239Y580101D01*
Y578768D01*
X486572Y578101D01*
X485239D01*
X484573Y578768D01*
X363988Y582100D02*
Y578101D01*
X366654D01*
X369986D02*
Y582100D01*
X367987Y580101D01*
X370653D01*
X247402Y582100D02*
Y578101D01*
X250068D01*
X251401Y581434D02*
X252068Y582100D01*
X253400D01*
X254067Y581434D01*
Y580767D01*
X253400Y580101D01*
X252734D01*
X253400D01*
X254067Y579434D01*
Y578768D01*
X253400Y578101D01*
X252068D01*
X251401Y578768D01*
X130816Y582100D02*
Y578101D01*
X133482D01*
X137481D02*
X134815D01*
X137481Y580767D01*
Y581434D01*
X136814Y582100D01*
X135482D01*
X134815Y581434D01*
X342167Y219499D02*
Y215501D01*
X344832D01*
X346165D02*
X347498D01*
X346832D01*
Y219499D01*
X346165Y218833D01*
X86045Y90803D02*
X84712D01*
X85378D01*
Y87470D01*
X84712Y86804D01*
X84045D01*
X83379Y87470D01*
X87378Y86804D02*
X88710D01*
X88044D01*
Y90803D01*
X87378Y90136D01*
X90710Y86804D02*
X92043D01*
X91376D01*
Y90803D01*
X90710Y90136D01*
X112426Y407048D02*
X111093D01*
X111759D01*
Y403716D01*
X111093Y403049D01*
X110426D01*
X109760Y403716D01*
X113759Y403049D02*
X115091D01*
X114425D01*
Y407048D01*
X113759Y406382D01*
X117091D02*
X117757Y407048D01*
X119090D01*
X119757Y406382D01*
Y403716D01*
X119090Y403049D01*
X117757D01*
X117091Y403716D01*
Y406382D01*
X681040Y719383D02*
X679707D01*
X680373D01*
Y716050D01*
X679707Y715384D01*
X679041D01*
X678374Y716050D01*
X682373Y719383D02*
X685039D01*
Y718716D01*
X682373Y716050D01*
Y715384D01*
X85694Y311879D02*
X84361D01*
X85027D01*
Y308547D01*
X84361Y307881D01*
X83694D01*
X83028Y308547D01*
X89692Y311879D02*
X88359Y311213D01*
X87026Y309880D01*
Y308547D01*
X87693Y307881D01*
X89026D01*
X89692Y308547D01*
Y309214D01*
X89026Y309880D01*
X87026D01*
X170334Y650963D02*
X169002D01*
X169668D01*
Y647631D01*
X169002Y646965D01*
X168335D01*
X167669Y647631D01*
X174333Y650963D02*
X171667D01*
Y648964D01*
X173000Y649630D01*
X173667D01*
X174333Y648964D01*
Y647631D01*
X173667Y646965D01*
X172334D01*
X171667Y647631D01*
X751174Y487139D02*
X749841D01*
X750507D01*
Y483807D01*
X749841Y483141D01*
X749174D01*
X748508Y483807D01*
X754506Y483141D02*
Y487139D01*
X752506Y485140D01*
X755172D01*
X21532Y730622D02*
Y726623D01*
X23532D01*
X24198Y727289D01*
Y729955D01*
X23532Y730622D01*
X21532D01*
X25531Y729955D02*
X26198Y730622D01*
X27531D01*
X28197Y729955D01*
Y729289D01*
X27531Y728622D01*
X26864D01*
X27531D01*
X28197Y727956D01*
Y727289D01*
X27531Y726623D01*
X26198D01*
X25531Y727289D01*
X470378Y102329D02*
Y98331D01*
X472377D01*
X473044Y98997D01*
Y101663D01*
X472377Y102329D01*
X470378D01*
X477042Y98331D02*
X474376D01*
X477042Y100997D01*
Y101663D01*
X476376Y102329D01*
X475043D01*
X474376Y101663D01*
X566856Y169639D02*
Y165641D01*
X568855D01*
X569522Y166307D01*
Y168973D01*
X568855Y169639D01*
X566856D01*
X570855Y165641D02*
X572188D01*
X571521D01*
Y169639D01*
X570855Y168973D01*
X302603Y317281D02*
X301936Y317947D01*
X300603D01*
X299937Y317281D01*
Y314615D01*
X300603Y313948D01*
X301936D01*
X302603Y314615D01*
X303936Y313948D02*
X305268D01*
X304602D01*
Y317947D01*
X303936Y317281D01*
X309933Y317947D02*
X307268D01*
Y315948D01*
X308601Y316614D01*
X309267D01*
X309933Y315948D01*
Y314615D01*
X309267Y313948D01*
X307934D01*
X307268Y314615D01*
X311266Y313948D02*
X312599D01*
X311933D01*
Y317947D01*
X311266Y317281D01*
X336972Y369007D02*
X336305Y369674D01*
X334972D01*
X334306Y369007D01*
Y366341D01*
X334972Y365675D01*
X336305D01*
X336972Y366341D01*
X338305Y365675D02*
X339638D01*
X338971D01*
Y369674D01*
X338305Y369007D01*
X344303Y369674D02*
X341637D01*
Y367674D01*
X342970Y368341D01*
X343636D01*
X344303Y367674D01*
Y366341D01*
X343636Y365675D01*
X342303D01*
X341637Y366341D01*
X345636Y369007D02*
X346302Y369674D01*
X347635D01*
X348302Y369007D01*
Y366341D01*
X347635Y365675D01*
X346302D01*
X345636Y366341D01*
Y369007D01*
X135953Y297702D02*
X136619Y298368D01*
Y299701D01*
X135953Y300368D01*
X133287D01*
X132621Y299701D01*
Y298368D01*
X133287Y297702D01*
X132621Y296369D02*
Y295036D01*
Y295703D01*
X136619D01*
X135953Y296369D01*
X132621Y291037D02*
X136619D01*
X134620Y293037D01*
Y290371D01*
X135953Y289038D02*
X136619Y288372D01*
Y287039D01*
X135953Y286372D01*
X135287D01*
X134620Y287039D01*
X133954Y286372D01*
X133287D01*
X132621Y287039D01*
Y288372D01*
X133287Y289038D01*
X133954D01*
X134620Y288372D01*
X135287Y289038D01*
X135953D01*
X134620Y288372D02*
Y287039D01*
X377976Y229531D02*
X377310Y230197D01*
X375977D01*
X375310Y229531D01*
Y226865D01*
X375977Y226199D01*
X377310D01*
X377976Y226865D01*
X379309Y226199D02*
X380642D01*
X379975D01*
Y230197D01*
X379309Y229531D01*
X384641Y226199D02*
Y230197D01*
X382641Y228198D01*
X385307D01*
X389306Y230197D02*
X387973Y229531D01*
X386640Y228198D01*
Y226865D01*
X387306Y226199D01*
X388639D01*
X389306Y226865D01*
Y227532D01*
X388639Y228198D01*
X386640D01*
X620254Y241871D02*
X619588Y242537D01*
X618255D01*
X617588Y241871D01*
Y239205D01*
X618255Y238539D01*
X619588D01*
X620254Y239205D01*
X621587Y238539D02*
X622920D01*
X622253D01*
Y242537D01*
X621587Y241871D01*
X626919Y238539D02*
Y242537D01*
X624919Y240538D01*
X627585D01*
X630917Y238539D02*
Y242537D01*
X628918Y240538D01*
X631584D01*
X131876Y326331D02*
X132543Y326997D01*
Y328330D01*
X131876Y328997D01*
X129211D01*
X128544Y328330D01*
Y326997D01*
X129211Y326331D01*
X128544Y324998D02*
Y323665D01*
Y324331D01*
X132543D01*
X131876Y324998D01*
X128544Y319666D02*
X132543D01*
X130543Y321666D01*
Y319000D01*
X131876Y317667D02*
X132543Y317001D01*
Y315667D01*
X131876Y315001D01*
X131210D01*
X130543Y315667D01*
Y316334D01*
Y315667D01*
X129877Y315001D01*
X129211D01*
X128544Y315667D01*
Y317001D01*
X129211Y317667D01*
X407552Y229180D02*
X406885Y229846D01*
X405552D01*
X404886Y229180D01*
Y226514D01*
X405552Y225847D01*
X406885D01*
X407552Y226514D01*
X408885Y225847D02*
X410217D01*
X409551D01*
Y229846D01*
X408885Y229180D01*
X412217D02*
X412883Y229846D01*
X414216D01*
X414883Y229180D01*
Y228513D01*
X414216Y227847D01*
X413550D01*
X414216D01*
X414883Y227180D01*
Y226514D01*
X414216Y225847D01*
X412883D01*
X412217Y226514D01*
X416216Y229180D02*
X416882Y229846D01*
X418215D01*
X418881Y229180D01*
Y228513D01*
X418215Y227847D01*
X418881Y227180D01*
Y226514D01*
X418215Y225847D01*
X416882D01*
X416216Y226514D01*
Y227180D01*
X416882Y227847D01*
X416216Y228513D01*
Y229180D01*
X416882Y227847D02*
X418215D01*
X620254Y257619D02*
X619588Y258285D01*
X618255D01*
X617588Y257619D01*
Y254953D01*
X618255Y254287D01*
X619588D01*
X620254Y254953D01*
X621587Y254287D02*
X622920D01*
X622253D01*
Y258285D01*
X621587Y257619D01*
X624919D02*
X625586Y258285D01*
X626919D01*
X627585Y257619D01*
Y256952D01*
X626919Y256286D01*
X626252D01*
X626919D01*
X627585Y255620D01*
Y254953D01*
X626919Y254287D01*
X625586D01*
X624919Y254953D01*
X631584Y258285D02*
X630251Y257619D01*
X628918Y256286D01*
Y254953D01*
X629584Y254287D01*
X630917D01*
X631584Y254953D01*
Y255620D01*
X630917Y256286D01*
X628918D01*
X621428Y398803D02*
X620762Y399469D01*
X619429D01*
X618762Y398803D01*
Y396137D01*
X619429Y395471D01*
X620762D01*
X621428Y396137D01*
X622761Y395471D02*
X624094D01*
X623428D01*
Y399469D01*
X622761Y398803D01*
X628759Y395471D02*
X626093D01*
X628759Y398136D01*
Y398803D01*
X628093Y399469D01*
X626760D01*
X626093Y398803D01*
X630092Y396137D02*
X630759Y395471D01*
X632091D01*
X632758Y396137D01*
Y398803D01*
X632091Y399469D01*
X630759D01*
X630092Y398803D01*
Y398136D01*
X630759Y397470D01*
X632758D01*
X423347Y436103D02*
X422680Y436770D01*
X421347D01*
X420681Y436103D01*
Y433437D01*
X421347Y432771D01*
X422680D01*
X423347Y433437D01*
X424679Y432771D02*
X426012D01*
X425346D01*
Y436770D01*
X424679Y436103D01*
X430677Y432771D02*
X428012D01*
X430677Y435437D01*
Y436103D01*
X430011Y436770D01*
X428678D01*
X428012Y436103D01*
X432010D02*
X432677Y436770D01*
X434010D01*
X434676Y436103D01*
Y435437D01*
X434010Y434770D01*
X434676Y434104D01*
Y433437D01*
X434010Y432771D01*
X432677D01*
X432010Y433437D01*
Y434104D01*
X432677Y434770D01*
X432010Y435437D01*
Y436103D01*
X432677Y434770D02*
X434010D01*
X620840Y417766D02*
X620174Y418432D01*
X618841D01*
X618175Y417766D01*
Y415100D01*
X618841Y414433D01*
X620174D01*
X620840Y415100D01*
X622173Y414433D02*
X623506D01*
X622840D01*
Y418432D01*
X622173Y417766D01*
X628171Y414433D02*
X625506D01*
X628171Y417099D01*
Y417766D01*
X627505Y418432D01*
X626172D01*
X625506Y417766D01*
X632170Y418432D02*
X630837Y417766D01*
X629504Y416433D01*
Y415100D01*
X630171Y414433D01*
X631504D01*
X632170Y415100D01*
Y415766D01*
X631504Y416433D01*
X629504D01*
X131876Y362472D02*
X132543Y363138D01*
Y364471D01*
X131876Y365138D01*
X129211D01*
X128544Y364471D01*
Y363138D01*
X129211Y362472D01*
X128544Y361139D02*
Y359806D01*
Y360473D01*
X132543D01*
X131876Y361139D01*
X128544Y355141D02*
Y357807D01*
X131210Y355141D01*
X131876D01*
X132543Y355807D01*
Y357140D01*
X131876Y357807D01*
Y353808D02*
X132543Y353142D01*
Y351809D01*
X131876Y351142D01*
X129211D01*
X128544Y351809D01*
Y353142D01*
X129211Y353808D01*
X131876D01*
Y391368D02*
X132543Y392035D01*
Y393368D01*
X131876Y394034D01*
X129211D01*
X128544Y393368D01*
Y392035D01*
X129211Y391368D01*
X128544Y390036D02*
Y388703D01*
Y389369D01*
X132543D01*
X131876Y390036D01*
X128544Y386703D02*
Y385370D01*
Y386037D01*
X132543D01*
X131876Y386703D01*
Y383371D02*
X132543Y382705D01*
Y381372D01*
X131876Y380705D01*
X131210D01*
X130543Y381372D01*
X129877Y380705D01*
X129211D01*
X128544Y381372D01*
Y382705D01*
X129211Y383371D01*
X129877D01*
X130543Y382705D01*
X131210Y383371D01*
X131876D01*
X130543Y382705D02*
Y381372D01*
X416328Y596474D02*
X415661Y597140D01*
X414328D01*
X413662Y596474D01*
Y593808D01*
X414328Y593142D01*
X415661D01*
X416328Y593808D01*
X420326Y597140D02*
X417660D01*
Y595141D01*
X418993Y595807D01*
X419660D01*
X420326Y595141D01*
Y593808D01*
X419660Y593142D01*
X418327D01*
X417660Y593808D01*
X424325Y597140D02*
X422992Y596474D01*
X421659Y595141D01*
Y593808D01*
X422326Y593142D01*
X423658D01*
X424325Y593808D01*
Y594474D01*
X423658Y595141D01*
X421659D01*
X299741Y596474D02*
X299075Y597140D01*
X297742D01*
X297076Y596474D01*
Y593808D01*
X297742Y593142D01*
X299075D01*
X299741Y593808D01*
X303740Y597140D02*
X301074D01*
Y595141D01*
X302407Y595807D01*
X303074D01*
X303740Y595141D01*
Y593808D01*
X303074Y593142D01*
X301741D01*
X301074Y593808D01*
X307073Y593142D02*
Y597140D01*
X305073Y595141D01*
X307739D01*
X183155Y596474D02*
X182489Y597140D01*
X181156D01*
X180490Y596474D01*
Y593808D01*
X181156Y593142D01*
X182489D01*
X183155Y593808D01*
X184488Y596474D02*
X185155Y597140D01*
X186488D01*
X187154Y596474D01*
Y595807D01*
X186488Y595141D01*
X185821D01*
X186488D01*
X187154Y594474D01*
Y593808D01*
X186488Y593142D01*
X185155D01*
X184488Y593808D01*
X191153Y593142D02*
X188487D01*
X191153Y595807D01*
Y596474D01*
X190487Y597140D01*
X189154D01*
X188487Y596474D01*
X66662Y596605D02*
X65996Y597272D01*
X64663D01*
X63996Y596605D01*
Y593940D01*
X64663Y593273D01*
X65996D01*
X66662Y593940D01*
X67995Y596605D02*
X68661Y597272D01*
X69994D01*
X70661Y596605D01*
Y595939D01*
X69994Y595272D01*
X69328D01*
X69994D01*
X70661Y594606D01*
Y593940D01*
X69994Y593273D01*
X68661D01*
X67995Y593940D01*
X71994Y596605D02*
X72660Y597272D01*
X73993D01*
X74660Y596605D01*
Y593940D01*
X73993Y593273D01*
X72660D01*
X71994Y593940D01*
Y596605D01*
X207081Y112666D02*
X207747Y113332D01*
Y114665D01*
X207081Y115332D01*
X204415D01*
X203749Y114665D01*
Y113332D01*
X204415Y112666D01*
X203749Y108667D02*
Y111333D01*
X206415Y108667D01*
X207081D01*
X207747Y109334D01*
Y110667D01*
X207081Y111333D01*
X203749Y107334D02*
Y106001D01*
Y106668D01*
X207747D01*
X207081Y107334D01*
X272344Y112708D02*
X273011Y113375D01*
Y114707D01*
X272344Y115374D01*
X269678D01*
X269012Y114707D01*
Y113375D01*
X269678Y112708D01*
X269012Y108709D02*
Y111375D01*
X271678Y108709D01*
X272344D01*
X273011Y109376D01*
Y110709D01*
X272344Y111375D01*
Y107377D02*
X273011Y106710D01*
Y105377D01*
X272344Y104711D01*
X269678D01*
X269012Y105377D01*
Y106710D01*
X269678Y107377D01*
X272344D01*
X210883Y202993D02*
X211549Y203659D01*
Y204992D01*
X210883Y205658D01*
X208217D01*
X207551Y204992D01*
Y203659D01*
X208217Y202993D01*
X207551Y201660D02*
Y200327D01*
Y200993D01*
X211549D01*
X210883Y201660D01*
Y198327D02*
X211549Y197661D01*
Y196328D01*
X210883Y195662D01*
X210217D01*
X209550Y196328D01*
X208884Y195662D01*
X208217D01*
X207551Y196328D01*
Y197661D01*
X208217Y198327D01*
X208884D01*
X209550Y197661D01*
X210217Y198327D01*
X210883D01*
X209550Y197661D02*
Y196328D01*
X265809Y203190D02*
X266475Y203856D01*
Y205189D01*
X265809Y205855D01*
X263143D01*
X262476Y205189D01*
Y203856D01*
X263143Y203190D01*
X262476Y201857D02*
Y200524D01*
Y201190D01*
X266475D01*
X265809Y201857D01*
X266475Y198524D02*
Y195859D01*
X265809D01*
X263143Y198524D01*
X262476D01*
X24198Y668083D02*
X23532Y668749D01*
X22199D01*
X21532Y668083D01*
Y665417D01*
X22199Y664751D01*
X23532D01*
X24198Y665417D01*
X25531Y664751D02*
X26864D01*
X26198D01*
Y668749D01*
X25531Y668083D01*
X31529Y668749D02*
X28863D01*
Y666750D01*
X30196Y667417D01*
X30863D01*
X31529Y666750D01*
Y665417D01*
X30863Y664751D01*
X29530D01*
X28863Y665417D01*
X24198Y704352D02*
X23532Y705019D01*
X22199D01*
X21532Y704352D01*
Y701687D01*
X22199Y701020D01*
X23532D01*
X24198Y701687D01*
X25531Y701020D02*
X26864D01*
X26198D01*
Y705019D01*
X25531Y704352D01*
X30863Y701020D02*
Y705019D01*
X28863Y703020D01*
X31529D01*
X24198Y760118D02*
X23532Y760785D01*
X22199D01*
X21532Y760118D01*
Y757452D01*
X22199Y756786D01*
X23532D01*
X24198Y757452D01*
X25531Y756786D02*
X26864D01*
X26198D01*
Y760785D01*
X25531Y760118D01*
X28863D02*
X29530Y760785D01*
X30863D01*
X31529Y760118D01*
Y759452D01*
X30863Y758785D01*
X30196D01*
X30863D01*
X31529Y758119D01*
Y757452D01*
X30863Y756786D01*
X29530D01*
X28863Y757452D01*
X24198Y645056D02*
X23532Y645723D01*
X22199D01*
X21532Y645056D01*
Y642390D01*
X22199Y641724D01*
X23532D01*
X24198Y642390D01*
X25531Y641724D02*
X26864D01*
X26198D01*
Y645723D01*
X25531Y645056D01*
X31529Y641724D02*
X28863D01*
X31529Y644390D01*
Y645056D01*
X30863Y645723D01*
X29530D01*
X28863Y645056D01*
X499285Y113164D02*
X499952Y113830D01*
Y115163D01*
X499285Y115830D01*
X496619D01*
X495953Y115163D01*
Y113830D01*
X496619Y113164D01*
X495953Y111831D02*
Y110498D01*
Y111165D01*
X499952D01*
X499285Y111831D01*
Y108499D02*
X499952Y107832D01*
Y106499D01*
X499285Y105833D01*
X496619D01*
X495953Y106499D01*
Y107832D01*
X496619Y108499D01*
X499285D01*
X512414Y215963D02*
X511747Y216629D01*
X510414D01*
X509748Y215963D01*
Y213297D01*
X510414Y212631D01*
X511747D01*
X512414Y213297D01*
X513746D02*
X514413Y212631D01*
X515746D01*
X516412Y213297D01*
Y215963D01*
X515746Y216629D01*
X514413D01*
X513746Y215963D01*
Y215296D01*
X514413Y214630D01*
X516412D01*
X499397Y139438D02*
X500064Y140104D01*
Y141437D01*
X499397Y142104D01*
X496731D01*
X496065Y141437D01*
Y140104D01*
X496731Y139438D01*
X500064Y135439D02*
X499397Y136772D01*
X498064Y138105D01*
X496731D01*
X496065Y137438D01*
Y136105D01*
X496731Y135439D01*
X497398D01*
X498064Y136105D01*
Y138105D01*
X470025Y205613D02*
X469359Y206280D01*
X468026D01*
X467360Y205613D01*
Y202947D01*
X468026Y202281D01*
X469359D01*
X470025Y202947D01*
X474024Y206280D02*
X471358D01*
Y204280D01*
X472691Y204947D01*
X473358D01*
X474024Y204280D01*
Y202947D01*
X473358Y202281D01*
X472025D01*
X471358Y202947D01*
X630054Y97491D02*
X629388Y98158D01*
X628055D01*
X627388Y97491D01*
Y94825D01*
X628055Y94159D01*
X629388D01*
X630054Y94825D01*
X633386Y94159D02*
Y98158D01*
X631387Y96159D01*
X634053D01*
X594680Y97518D02*
X594013Y98185D01*
X592680D01*
X592014Y97518D01*
Y94852D01*
X592680Y94186D01*
X594013D01*
X594680Y94852D01*
X596012Y97518D02*
X596679Y98185D01*
X598012D01*
X598678Y97518D01*
Y96852D01*
X598012Y96185D01*
X597345D01*
X598012D01*
X598678Y95519D01*
Y94852D01*
X598012Y94186D01*
X596679D01*
X596012Y94852D01*
X537814Y153733D02*
X537147Y154399D01*
X535814D01*
X535148Y153733D01*
Y151067D01*
X535814Y150401D01*
X537147D01*
X537814Y151067D01*
X541812Y150401D02*
X539146D01*
X541812Y153067D01*
Y153733D01*
X541146Y154399D01*
X539813D01*
X539146Y153733D01*
X675640Y96989D02*
X674974Y97655D01*
X673641D01*
X672974Y96989D01*
Y94323D01*
X673641Y93657D01*
X674974D01*
X675640Y94323D01*
X676973Y93657D02*
X678306D01*
X677639D01*
Y97655D01*
X676973Y96989D01*
D23*
X114300Y60960D02*
D03*
M02*
