G04*
G04 #@! TF.GenerationSoftware,Altium Limited,Altium Designer,24.1.2 (44)*
G04*
G04 Layer_Color=2752767*
%FSLAX44Y44*%
%MOMM*%
G71*
G04*
G04 #@! TF.SameCoordinates,178800DE-C825-426D-9C7D-1BE6540C9A12*
G04*
G04*
G04 #@! TF.FilePolarity,Positive*
G04*
G01*
G75*
%ADD18C,0.1270*%
%ADD183C,0.1693*%
D18*
X423545Y142078D02*
X428625Y147158D01*
X433705Y142078D01*
X428625Y136998D01*
X423545Y142078D01*
Y129078D02*
X428625Y134158D01*
X433705Y129078D01*
X428625Y123998D01*
X423545Y129078D01*
X436545Y142078D02*
X441625Y147158D01*
X446705Y142078D01*
X441625Y136998D01*
X436545Y142078D01*
X410545D02*
X415625Y147158D01*
X420705Y142078D01*
X415625Y136998D01*
X410545Y142078D01*
Y129078D02*
X415625Y134158D01*
X420705Y129078D01*
X415625Y123998D01*
X410545Y129078D01*
X397545Y142078D02*
X402625Y147158D01*
X407705Y142078D01*
X402625Y136998D01*
X397545Y142078D01*
Y129078D02*
X402625Y134158D01*
X407705Y129078D01*
X402625Y123998D01*
X397545Y129078D01*
X436545D02*
X441625Y134158D01*
X446705Y129078D01*
X441625Y123998D01*
X436545Y129078D01*
X757620Y108720D02*
X760160D01*
X762700Y111260D01*
X765240Y108720D01*
X767780D01*
Y111260D01*
X765240Y113800D01*
X767780Y116340D01*
Y118880D01*
X765240D01*
X762700Y116340D01*
X760160Y118880D01*
X757620D01*
Y116340D01*
X760160Y113800D01*
X757620Y111260D01*
Y108720D01*
X732220D02*
X734760D01*
X737300Y111260D01*
X739840Y108720D01*
X742380D01*
Y111260D01*
X739840Y113800D01*
X742380Y116340D01*
Y118880D01*
X739840D01*
X737300Y116340D01*
X734760Y118880D01*
X732220D01*
Y116340D01*
X734760Y113800D01*
X732220Y111260D01*
Y108720D01*
X757620Y134120D02*
X760160D01*
X762700Y136660D01*
X765240Y134120D01*
X767780D01*
Y136660D01*
X765240Y139200D01*
X767780Y141740D01*
Y144280D01*
X765240D01*
X762700Y141740D01*
X760160Y144280D01*
X757620D01*
Y141740D01*
X760160Y139200D01*
X757620Y136660D01*
Y134120D01*
X732220D02*
X734760D01*
X737300Y136660D01*
X739840Y134120D01*
X742380D01*
Y136660D01*
X739840Y139200D01*
X742380Y141740D01*
Y144280D01*
X739840D01*
X737300Y141740D01*
X734760Y144280D01*
X732220D01*
Y141740D01*
X734760Y139200D01*
X732220Y136660D01*
Y134120D01*
X757620Y159520D02*
X760160D01*
X762700Y162060D01*
X765240Y159520D01*
X767780D01*
Y162060D01*
X765240Y164600D01*
X767780Y167140D01*
Y169680D01*
X765240D01*
X762700Y167140D01*
X760160Y169680D01*
X757620D01*
Y167140D01*
X760160Y164600D01*
X757620Y162060D01*
Y159520D01*
X732220D02*
X734760D01*
X737300Y162060D01*
X739840Y159520D01*
X742380D01*
Y162060D01*
X739840Y164600D01*
X742380Y167140D01*
Y169680D01*
X739840D01*
X737300Y167140D01*
X734760Y169680D01*
X732220D01*
Y167140D01*
X734760Y164600D01*
X732220Y162060D01*
Y159520D01*
Y184920D02*
X734760D01*
X737300Y187460D01*
X739840Y184920D01*
X742380D01*
Y187460D01*
X739840Y190000D01*
X742380Y192540D01*
Y195080D01*
X739840D01*
X737300Y192540D01*
X734760Y195080D01*
X732220D01*
Y192540D01*
X734760Y190000D01*
X732220Y187460D01*
Y184920D01*
Y210320D02*
X734760D01*
X737300Y212860D01*
X739840Y210320D01*
X742380D01*
Y212860D01*
X739840Y215400D01*
X742380Y217940D01*
Y220480D01*
X739840D01*
X737300Y217940D01*
X734760Y220480D01*
X732220D01*
Y217940D01*
X734760Y215400D01*
X732220Y212860D01*
Y210320D01*
X757620Y235720D02*
X760160D01*
X762700Y238260D01*
X765240Y235720D01*
X767780D01*
Y238260D01*
X765240Y240800D01*
X767780Y243340D01*
Y245880D01*
X765240D01*
X762700Y243340D01*
X760160Y245880D01*
X757620D01*
Y243340D01*
X760160Y240800D01*
X757620Y238260D01*
Y235720D01*
X732220D02*
X734760D01*
X737300Y238260D01*
X739840Y235720D01*
X742380D01*
Y238260D01*
X739840Y240800D01*
X742380Y243340D01*
Y245880D01*
X739840D01*
X737300Y243340D01*
X734760Y245880D01*
X732220D01*
Y243340D01*
X734760Y240800D01*
X732220Y238260D01*
Y235720D01*
X757620Y261120D02*
X760160D01*
X762700Y263660D01*
X765240Y261120D01*
X767780D01*
Y263660D01*
X765240Y266200D01*
X767780Y268740D01*
Y271280D01*
X765240D01*
X762700Y268740D01*
X760160Y271280D01*
X757620D01*
Y268740D01*
X760160Y266200D01*
X757620Y263660D01*
Y261120D01*
X732220D02*
X734760D01*
X737300Y263660D01*
X739840Y261120D01*
X742380D01*
Y263660D01*
X739840Y266200D01*
X742380Y268740D01*
Y271280D01*
X739840D01*
X737300Y268740D01*
X734760Y271280D01*
X732220D01*
Y268740D01*
X734760Y266200D01*
X732220Y263660D01*
Y261120D01*
X757620Y184920D02*
X760160D01*
X762700Y187460D01*
X765240Y184920D01*
X767780D01*
Y187460D01*
X765240Y190000D01*
X767780Y192540D01*
Y195080D01*
X765240D01*
X762700Y192540D01*
X760160Y195080D01*
X757620D01*
Y192540D01*
X760160Y190000D01*
X757620Y187460D01*
Y184920D01*
Y210320D02*
X760160D01*
X762700Y212860D01*
X765240Y210320D01*
X767780D01*
Y212860D01*
X765240Y215400D01*
X767780Y217940D01*
Y220480D01*
X765240D01*
X762700Y217940D01*
X760160Y220480D01*
X757620D01*
Y217940D01*
X760160Y215400D01*
X757620Y212860D01*
Y210320D01*
X622460Y47460D02*
Y44920D01*
X627540D01*
Y47460D01*
X630080D01*
Y52540D01*
X627540D01*
Y55080D01*
X622460D01*
Y52540D01*
X619920D01*
Y47460D01*
X622460D01*
Y67460D02*
Y64920D01*
X627540D01*
Y67460D01*
X630080D01*
Y72540D01*
X627540D01*
Y75080D01*
X622460D01*
Y72540D01*
X619920D01*
Y67460D01*
X622460D01*
X602460Y47460D02*
Y44920D01*
X607540D01*
Y47460D01*
X610080D01*
Y52540D01*
X607540D01*
Y55080D01*
X602460D01*
Y52540D01*
X599920D01*
Y47460D01*
X602460D01*
Y67460D02*
Y64920D01*
X607540D01*
Y67460D01*
X610080D01*
Y72540D01*
X607540D01*
Y75080D01*
X602460D01*
Y72540D01*
X599920D01*
Y67460D01*
X602460D01*
X582460Y47460D02*
Y44920D01*
X587540D01*
Y47460D01*
X590080D01*
Y52540D01*
X587540D01*
Y55080D01*
X582460D01*
Y52540D01*
X579920D01*
Y47460D01*
X582460D01*
Y67460D02*
Y64920D01*
X587540D01*
Y67460D01*
X590080D01*
Y72540D01*
X587540D01*
Y75080D01*
X582460D01*
Y72540D01*
X579920D01*
Y67460D01*
X582460D01*
X562460Y47460D02*
Y44920D01*
X567540D01*
Y47460D01*
X570080D01*
Y52540D01*
X567540D01*
Y55080D01*
X562460D01*
Y52540D01*
X559920D01*
Y47460D01*
X562460D01*
Y67460D02*
Y64920D01*
X567540D01*
Y67460D01*
X570080D01*
Y72540D01*
X567540D01*
Y75080D01*
X562460D01*
Y72540D01*
X559920D01*
Y67460D01*
X562460D01*
X542460Y47460D02*
Y44920D01*
X547540D01*
Y47460D01*
X550080D01*
Y52540D01*
X547540D01*
Y55080D01*
X542460D01*
Y52540D01*
X539920D01*
Y47460D01*
X542460D01*
Y67460D02*
Y64920D01*
X547540D01*
Y67460D01*
X550080D01*
Y72540D01*
X547540D01*
Y75080D01*
X542460D01*
Y72540D01*
X539920D01*
Y67460D01*
X542460D01*
X522460Y47460D02*
Y44920D01*
X527540D01*
Y47460D01*
X530080D01*
Y52540D01*
X527540D01*
Y55080D01*
X522460D01*
Y52540D01*
X519920D01*
Y47460D01*
X522460D01*
Y67460D02*
Y64920D01*
X527540D01*
Y67460D01*
X530080D01*
Y72540D01*
X527540D01*
Y75080D01*
X522460D01*
Y72540D01*
X519920D01*
Y67460D01*
X522460D01*
X502460Y47460D02*
Y44920D01*
X507540D01*
Y47460D01*
X510080D01*
Y52540D01*
X507540D01*
Y55080D01*
X502460D01*
Y52540D01*
X499920D01*
Y47460D01*
X502460D01*
Y67460D02*
Y64920D01*
X507540D01*
Y67460D01*
X510080D01*
Y72540D01*
X507540D01*
Y75080D01*
X502460D01*
Y72540D01*
X499920D01*
Y67460D01*
X502460D01*
X482460Y47460D02*
Y44920D01*
X487540D01*
Y47460D01*
X490080D01*
Y52540D01*
X487540D01*
Y55080D01*
X482460D01*
Y52540D01*
X479920D01*
Y47460D01*
X482460D01*
Y67460D02*
Y64920D01*
X487540D01*
Y67460D01*
X490080D01*
Y72540D01*
X487540D01*
Y75080D01*
X482460D01*
Y72540D01*
X479920D01*
Y67460D01*
X482460D01*
X462460Y47460D02*
Y44920D01*
X467540D01*
Y47460D01*
X470080D01*
Y52540D01*
X467540D01*
Y55080D01*
X462460D01*
Y52540D01*
X459920D01*
Y47460D01*
X462460D01*
Y67460D02*
Y64920D01*
X467540D01*
Y67460D01*
X470080D01*
Y72540D01*
X467540D01*
Y75080D01*
X462460D01*
Y72540D01*
X459920D01*
Y67460D01*
X462460D01*
X442460Y47460D02*
Y44920D01*
X447540D01*
Y47460D01*
X450080D01*
Y52540D01*
X447540D01*
Y55080D01*
X442460D01*
Y52540D01*
X439920D01*
Y47460D01*
X442460D01*
Y67460D02*
Y64920D01*
X447540D01*
Y67460D01*
X450080D01*
Y72540D01*
X447540D01*
Y75080D01*
X442460D01*
Y72540D01*
X439920D01*
Y67460D01*
X442460D01*
X422460Y47460D02*
Y44920D01*
X427540D01*
Y47460D01*
X430080D01*
Y52540D01*
X427540D01*
Y55080D01*
X422460D01*
Y52540D01*
X419920D01*
Y47460D01*
X422460D01*
Y67460D02*
Y64920D01*
X427540D01*
Y67460D01*
X430080D01*
Y72540D01*
X427540D01*
Y75080D01*
X422460D01*
Y72540D01*
X419920D01*
Y67460D01*
X422460D01*
X402460Y47460D02*
Y44920D01*
X407540D01*
Y47460D01*
X410080D01*
Y52540D01*
X407540D01*
Y55080D01*
X402460D01*
Y52540D01*
X399920D01*
Y47460D01*
X402460D01*
Y67460D02*
Y64920D01*
X407540D01*
Y67460D01*
X410080D01*
Y72540D01*
X407540D01*
Y75080D01*
X402460D01*
Y72540D01*
X399920D01*
Y67460D01*
X402460D01*
X382460Y47460D02*
Y44920D01*
X387540D01*
Y47460D01*
X390080D01*
Y52540D01*
X387540D01*
Y55080D01*
X382460D01*
Y52540D01*
X379920D01*
Y47460D01*
X382460D01*
Y67460D02*
Y64920D01*
X387540D01*
Y67460D01*
X390080D01*
Y72540D01*
X387540D01*
Y75080D01*
X382460D01*
Y72540D01*
X379920D01*
Y67460D01*
X382460D01*
X362460Y47460D02*
Y44920D01*
X367540D01*
Y47460D01*
X370080D01*
Y52540D01*
X367540D01*
Y55080D01*
X362460D01*
Y52540D01*
X359920D01*
Y47460D01*
X362460D01*
Y67460D02*
Y64920D01*
X367540D01*
Y67460D01*
X370080D01*
Y72540D01*
X367540D01*
Y75080D01*
X362460D01*
Y72540D01*
X359920D01*
Y67460D01*
X362460D01*
X342460Y47460D02*
Y44920D01*
X347540D01*
Y47460D01*
X350080D01*
Y52540D01*
X347540D01*
Y55080D01*
X342460D01*
Y52540D01*
X339920D01*
Y47460D01*
X342460D01*
Y67460D02*
Y64920D01*
X347540D01*
Y67460D01*
X350080D01*
Y72540D01*
X347540D01*
Y75080D01*
X342460D01*
Y72540D01*
X339920D01*
Y67460D01*
X342460D01*
X322460Y47460D02*
Y44920D01*
X327540D01*
Y47460D01*
X330080D01*
Y52540D01*
X327540D01*
Y55080D01*
X322460D01*
Y52540D01*
X319920D01*
Y47460D01*
X322460D01*
Y67460D02*
Y64920D01*
X327540D01*
Y67460D01*
X330080D01*
Y72540D01*
X327540D01*
Y75080D01*
X322460D01*
Y72540D01*
X319920D01*
Y67460D01*
X322460D01*
X302460Y47460D02*
Y44920D01*
X307540D01*
Y47460D01*
X310080D01*
Y52540D01*
X307540D01*
Y55080D01*
X302460D01*
Y52540D01*
X299920D01*
Y47460D01*
X302460D01*
Y67460D02*
Y64920D01*
X307540D01*
Y67460D01*
X310080D01*
Y72540D01*
X307540D01*
Y75080D01*
X302460D01*
Y72540D01*
X299920D01*
Y67460D01*
X302460D01*
X282460Y47460D02*
Y44920D01*
X287540D01*
Y47460D01*
X290080D01*
Y52540D01*
X287540D01*
Y55080D01*
X282460D01*
Y52540D01*
X279920D01*
Y47460D01*
X282460D01*
Y67460D02*
Y64920D01*
X287540D01*
Y67460D01*
X290080D01*
Y72540D01*
X287540D01*
Y75080D01*
X282460D01*
Y72540D01*
X279920D01*
Y67460D01*
X282460D01*
X262460Y47460D02*
Y44920D01*
X267540D01*
Y47460D01*
X270080D01*
Y52540D01*
X267540D01*
Y55080D01*
X262460D01*
Y52540D01*
X259920D01*
Y47460D01*
X262460D01*
Y67460D02*
Y64920D01*
X267540D01*
Y67460D01*
X270080D01*
Y72540D01*
X267540D01*
Y75080D01*
X262460D01*
Y72540D01*
X259920D01*
Y67460D01*
X262460D01*
X242460Y47460D02*
Y44920D01*
X247540D01*
Y47460D01*
X250080D01*
Y52540D01*
X247540D01*
Y55080D01*
X242460D01*
Y52540D01*
X239920D01*
Y47460D01*
X242460D01*
Y67460D02*
Y64920D01*
X247540D01*
Y67460D01*
X250080D01*
Y72540D01*
X247540D01*
Y75080D01*
X242460D01*
Y72540D01*
X239920D01*
Y67460D01*
X242460D01*
X222460Y47460D02*
Y44920D01*
X227540D01*
Y47460D01*
X230080D01*
Y52540D01*
X227540D01*
Y55080D01*
X222460D01*
Y52540D01*
X219920D01*
Y47460D01*
X222460D01*
Y67460D02*
Y64920D01*
X227540D01*
Y67460D01*
X230080D01*
Y72540D01*
X227540D01*
Y75080D01*
X222460D01*
Y72540D01*
X219920D01*
Y67460D01*
X222460D01*
X184920Y54920D02*
X187460Y60000D01*
X184920Y65080D01*
X190000Y62540D01*
X195080Y65080D01*
X192540Y60000D01*
X195080Y54920D01*
X190000Y57460D01*
X184920Y54920D01*
X654920D02*
X657460Y60000D01*
X654920Y65080D01*
X660000Y62540D01*
X665080Y65080D01*
X662540Y60000D01*
X665080Y54920D01*
X660000Y57460D01*
X654920Y54920D01*
X19560Y47360D02*
X22100Y49900D01*
X24640D01*
X22100Y52440D01*
X24640Y54980D01*
X22100D01*
X19560Y57520D01*
X17020Y54980D01*
X14480D01*
X17020Y52440D01*
X14480Y49900D01*
X17020D01*
X19560Y47360D01*
X52440Y14480D02*
X54980Y17020D01*
X57520D01*
X54980Y19560D01*
X57520Y22100D01*
X54980D01*
X52440Y24640D01*
X49900Y22100D01*
X47360D01*
X49900Y19560D01*
X47360Y17020D01*
X49900D01*
X52440Y14480D01*
X19560D02*
X22100Y17020D01*
X24640D01*
X22100Y19560D01*
X24640Y22100D01*
X22100D01*
X19560Y24640D01*
X17020Y22100D01*
X14480D01*
X17020Y19560D01*
X14480Y17020D01*
X17020D01*
X19560Y14480D01*
X52440Y47360D02*
X54980Y49900D01*
X57520D01*
X54980Y52440D01*
X57520Y54980D01*
X54980D01*
X52440Y57520D01*
X49900Y54980D01*
X47360D01*
X49900Y52440D01*
X47360Y49900D01*
X49900D01*
X52440Y47360D01*
X59250Y30920D02*
X61790Y33460D01*
X64330D01*
X61790Y36000D01*
X64330Y38540D01*
X61790D01*
X59250Y41080D01*
X56710Y38540D01*
X54170D01*
X56710Y36000D01*
X54170Y33460D01*
X56710D01*
X59250Y30920D01*
X36000Y8060D02*
X38540Y10600D01*
X41080D01*
X38540Y13140D01*
X41080Y15680D01*
X38540D01*
X36000Y18220D01*
X33460Y15680D01*
X30920D01*
X33460Y13140D01*
X30920Y10600D01*
X33460D01*
X36000Y8060D01*
X12750Y30920D02*
X15290Y33460D01*
X17830D01*
X15290Y36000D01*
X17830Y38540D01*
X15290D01*
X12750Y41080D01*
X10210Y38540D01*
X7670D01*
X10210Y36000D01*
X7670Y33460D01*
X10210D01*
X12750Y30920D01*
X36000Y54170D02*
X38540Y56710D01*
X41080D01*
X38540Y59250D01*
X41080Y61790D01*
X38540D01*
X36000Y64330D01*
X33460Y61790D01*
X30920D01*
X33460Y59250D01*
X30920Y56710D01*
X33460D01*
X36000Y54170D01*
Y30920D02*
X30920Y41080D01*
X41080D01*
X36000Y30920D01*
X19560Y825360D02*
X22100Y827900D01*
X24640D01*
X22100Y830440D01*
X24640Y832980D01*
X22100D01*
X19560Y835520D01*
X17020Y832980D01*
X14480D01*
X17020Y830440D01*
X14480Y827900D01*
X17020D01*
X19560Y825360D01*
X52440Y792480D02*
X54980Y795020D01*
X57520D01*
X54980Y797560D01*
X57520Y800100D01*
X54980D01*
X52440Y802640D01*
X49900Y800100D01*
X47360D01*
X49900Y797560D01*
X47360Y795020D01*
X49900D01*
X52440Y792480D01*
X19560D02*
X22100Y795020D01*
X24640D01*
X22100Y797560D01*
X24640Y800100D01*
X22100D01*
X19560Y802640D01*
X17020Y800100D01*
X14480D01*
X17020Y797560D01*
X14480Y795020D01*
X17020D01*
X19560Y792480D01*
X52440Y825360D02*
X54980Y827900D01*
X57520D01*
X54980Y830440D01*
X57520Y832980D01*
X54980D01*
X52440Y835520D01*
X49900Y832980D01*
X47360D01*
X49900Y830440D01*
X47360Y827900D01*
X49900D01*
X52440Y825360D01*
X59250Y808920D02*
X61790Y811460D01*
X64330D01*
X61790Y814000D01*
X64330Y816540D01*
X61790D01*
X59250Y819080D01*
X56710Y816540D01*
X54170D01*
X56710Y814000D01*
X54170Y811460D01*
X56710D01*
X59250Y808920D01*
X36000Y786060D02*
X38540Y788600D01*
X41080D01*
X38540Y791140D01*
X41080Y793680D01*
X38540D01*
X36000Y796220D01*
X33460Y793680D01*
X30920D01*
X33460Y791140D01*
X30920Y788600D01*
X33460D01*
X36000Y786060D01*
X12750Y808920D02*
X15290Y811460D01*
X17830D01*
X15290Y814000D01*
X17830Y816540D01*
X15290D01*
X12750Y819080D01*
X10210Y816540D01*
X7670D01*
X10210Y814000D01*
X7670Y811460D01*
X10210D01*
X12750Y808920D01*
X36000Y832170D02*
X38540Y834710D01*
X41080D01*
X38540Y837250D01*
X41080Y839790D01*
X38540D01*
X36000Y842330D01*
X33460Y839790D01*
X30920D01*
X33460Y837250D01*
X30920Y834710D01*
X33460D01*
X36000Y832170D01*
Y808920D02*
X30920Y819080D01*
X41080D01*
X36000Y808920D01*
X797560Y825360D02*
X800100Y827900D01*
X802640D01*
X800100Y830440D01*
X802640Y832980D01*
X800100D01*
X797560Y835520D01*
X795020Y832980D01*
X792480D01*
X795020Y830440D01*
X792480Y827900D01*
X795020D01*
X797560Y825360D01*
X830440Y792480D02*
X832980Y795020D01*
X835520D01*
X832980Y797560D01*
X835520Y800100D01*
X832980D01*
X830440Y802640D01*
X827900Y800100D01*
X825360D01*
X827900Y797560D01*
X825360Y795020D01*
X827900D01*
X830440Y792480D01*
X797560D02*
X800100Y795020D01*
X802640D01*
X800100Y797560D01*
X802640Y800100D01*
X800100D01*
X797560Y802640D01*
X795020Y800100D01*
X792480D01*
X795020Y797560D01*
X792480Y795020D01*
X795020D01*
X797560Y792480D01*
X830440Y825360D02*
X832980Y827900D01*
X835520D01*
X832980Y830440D01*
X835520Y832980D01*
X832980D01*
X830440Y835520D01*
X827900Y832980D01*
X825360D01*
X827900Y830440D01*
X825360Y827900D01*
X827900D01*
X830440Y825360D01*
X837250Y808920D02*
X839790Y811460D01*
X842330D01*
X839790Y814000D01*
X842330Y816540D01*
X839790D01*
X837250Y819080D01*
X834710Y816540D01*
X832170D01*
X834710Y814000D01*
X832170Y811460D01*
X834710D01*
X837250Y808920D01*
X814000Y786060D02*
X816540Y788600D01*
X819080D01*
X816540Y791140D01*
X819080Y793680D01*
X816540D01*
X814000Y796220D01*
X811460Y793680D01*
X808920D01*
X811460Y791140D01*
X808920Y788600D01*
X811460D01*
X814000Y786060D01*
X790750Y808920D02*
X793290Y811460D01*
X795830D01*
X793290Y814000D01*
X795830Y816540D01*
X793290D01*
X790750Y819080D01*
X788210Y816540D01*
X785670D01*
X788210Y814000D01*
X785670Y811460D01*
X788210D01*
X790750Y808920D01*
X814000Y832170D02*
X816540Y834710D01*
X819080D01*
X816540Y837250D01*
X819080Y839790D01*
X816540D01*
X814000Y842330D01*
X811460Y839790D01*
X808920D01*
X811460Y837250D01*
X808920Y834710D01*
X811460D01*
X814000Y832170D01*
Y808920D02*
X808920Y819080D01*
X819080D01*
X814000Y808920D01*
X797560Y47360D02*
X800100Y49900D01*
X802640D01*
X800100Y52440D01*
X802640Y54980D01*
X800100D01*
X797560Y57520D01*
X795020Y54980D01*
X792480D01*
X795020Y52440D01*
X792480Y49900D01*
X795020D01*
X797560Y47360D01*
X830440Y14480D02*
X832980Y17020D01*
X835520D01*
X832980Y19560D01*
X835520Y22100D01*
X832980D01*
X830440Y24640D01*
X827900Y22100D01*
X825360D01*
X827900Y19560D01*
X825360Y17020D01*
X827900D01*
X830440Y14480D01*
X797560D02*
X800100Y17020D01*
X802640D01*
X800100Y19560D01*
X802640Y22100D01*
X800100D01*
X797560Y24640D01*
X795020Y22100D01*
X792480D01*
X795020Y19560D01*
X792480Y17020D01*
X795020D01*
X797560Y14480D01*
X830440Y47360D02*
X832980Y49900D01*
X835520D01*
X832980Y52440D01*
X835520Y54980D01*
X832980D01*
X830440Y57520D01*
X827900Y54980D01*
X825360D01*
X827900Y52440D01*
X825360Y49900D01*
X827900D01*
X830440Y47360D01*
X837250Y30920D02*
X839790Y33460D01*
X842330D01*
X839790Y36000D01*
X842330Y38540D01*
X839790D01*
X837250Y41080D01*
X834710Y38540D01*
X832170D01*
X834710Y36000D01*
X832170Y33460D01*
X834710D01*
X837250Y30920D01*
X814000Y8060D02*
X816540Y10600D01*
X819080D01*
X816540Y13140D01*
X819080Y15680D01*
X816540D01*
X814000Y18220D01*
X811460Y15680D01*
X808920D01*
X811460Y13140D01*
X808920Y10600D01*
X811460D01*
X814000Y8060D01*
X790750Y30920D02*
X793290Y33460D01*
X795830D01*
X793290Y36000D01*
X795830Y38540D01*
X793290D01*
X790750Y41080D01*
X788210Y38540D01*
X785670D01*
X788210Y36000D01*
X785670Y33460D01*
X788210D01*
X790750Y30920D01*
X814000Y54170D02*
X816540Y56710D01*
X819080D01*
X816540Y59250D01*
X819080Y61790D01*
X816540D01*
X814000Y64330D01*
X811460Y61790D01*
X808920D01*
X811460Y59250D01*
X808920Y56710D01*
X811460D01*
X814000Y54170D01*
Y30920D02*
X808920Y41080D01*
X819080D01*
X814000Y30920D01*
X110236Y104648D02*
Y114808D01*
X120396D01*
Y104648D01*
X110236D01*
Y130048D02*
Y140208D01*
X120396D01*
Y130048D01*
X110236D01*
Y155448D02*
Y165608D01*
X120396D01*
Y155448D01*
X110236D01*
Y183436D02*
Y193596D01*
X120396D01*
Y183436D01*
X110236D01*
Y208836D02*
Y218996D01*
X120396D01*
Y208836D01*
X110236D01*
Y234236D02*
Y244396D01*
X120396D01*
Y234236D01*
X110236D01*
Y259636D02*
Y269796D01*
X120396D01*
Y259636D01*
X110236D01*
Y285036D02*
Y295196D01*
X120396D01*
Y285036D01*
X110236D01*
X680720Y417484D02*
X685800Y422564D01*
X690880Y417484D01*
X685800Y412404D01*
X680720Y417484D01*
X615327Y349602D02*
X620407Y354682D01*
X625487Y349602D01*
X620407Y344522D01*
X615327Y349602D01*
X611375Y299628D02*
X616455Y304708D01*
X621535Y299628D01*
X616455Y294548D01*
X611375Y299628D01*
X591961Y197657D02*
X597041Y202737D01*
X602121Y197657D01*
X597041Y192577D01*
X591961Y197657D01*
X602409Y203289D02*
X607489Y208369D01*
X612569Y203289D01*
X607489Y198209D01*
X602409Y203289D01*
X579935D02*
X585014Y208369D01*
X590094Y203289D01*
X585014Y198209D01*
X579935Y203289D01*
X820106Y775582D02*
X825186Y780662D01*
X830266Y775582D01*
X825186Y770502D01*
X820106Y775582D01*
X794706D02*
X799786Y780662D01*
X804866Y775582D01*
X799786Y770502D01*
X794706Y775582D01*
X756606Y800982D02*
X761686Y806062D01*
X766766Y800982D01*
X761686Y795902D01*
X756606Y800982D01*
X769306Y775582D02*
X774386Y780662D01*
X779466Y775582D01*
X774386Y770502D01*
X769306Y775582D01*
X756606Y496182D02*
X761686Y501262D01*
X766766Y496182D01*
X761686Y491102D01*
X756606Y496182D01*
Y445382D02*
X761686Y450462D01*
X766766Y445382D01*
X761686Y440302D01*
X756606Y445382D01*
X769306Y419982D02*
X774386Y425062D01*
X779466Y419982D01*
X774386Y414902D01*
X769306Y419982D01*
X756606Y394582D02*
X761686Y399662D01*
X766766Y394582D01*
X761686Y389502D01*
X756606Y394582D01*
X769306Y369182D02*
X774386Y374262D01*
X779466Y369182D01*
X774386Y364102D01*
X769306Y369182D01*
X756606Y343782D02*
X761686Y348862D01*
X766766Y343782D01*
X761686Y338702D01*
X756606Y343782D01*
Y292982D02*
X761686Y298062D01*
X766766Y292982D01*
X761686Y287902D01*
X756606Y292982D01*
X769306Y267582D02*
X774386Y272662D01*
X779466Y267582D01*
X774386Y262502D01*
X769306Y267582D01*
Y216782D02*
X774386Y221862D01*
X779466Y216782D01*
X774386Y211702D01*
X769306Y216782D01*
Y115182D02*
X774386Y120262D01*
X779466Y115182D01*
X774386Y110102D01*
X769306Y115182D01*
X731206Y800982D02*
X736286Y806062D01*
X741366Y800982D01*
X736286Y795902D01*
X731206Y800982D01*
X743906Y775582D02*
X748986Y780662D01*
X754066Y775582D01*
X748986Y770502D01*
X743906Y775582D01*
X731206Y496182D02*
X736286Y501262D01*
X741366Y496182D01*
X736286Y491102D01*
X731206Y496182D01*
X743906Y419982D02*
X748986Y425062D01*
X754066Y419982D01*
X748986Y414902D01*
X743906Y419982D01*
Y369182D02*
X748986Y374262D01*
X754066Y369182D01*
X748986Y364102D01*
X743906Y369182D01*
X731206Y292982D02*
X736286Y298062D01*
X741366Y292982D01*
X736286Y287902D01*
X731206Y292982D01*
X743906Y165982D02*
X748986Y171062D01*
X754066Y165982D01*
X748986Y160902D01*
X743906Y165982D01*
X705806Y800982D02*
X710886Y806062D01*
X715966Y800982D01*
X710886Y795902D01*
X705806Y800982D01*
X718506Y775582D02*
X723586Y780662D01*
X728666Y775582D01*
X723586Y770502D01*
X718506Y775582D01*
X705806Y496182D02*
X710886Y501262D01*
X715966Y496182D01*
X710886Y491102D01*
X705806Y496182D01*
X718506Y470782D02*
X723586Y475862D01*
X728666Y470782D01*
X723586Y465702D01*
X718506Y470782D01*
X705806Y445382D02*
X710886Y450462D01*
X715966Y445382D01*
X710886Y440302D01*
X705806Y445382D01*
X680406Y800982D02*
X685486Y806062D01*
X690566Y800982D01*
X685486Y795902D01*
X680406Y800982D01*
X693106Y775582D02*
X698186Y780662D01*
X703266Y775582D01*
X698186Y770502D01*
X693106Y775582D01*
X680406Y750182D02*
X685486Y755262D01*
X690566Y750182D01*
X685486Y745102D01*
X680406Y750182D01*
X693106Y724782D02*
X698186Y729862D01*
X703266Y724782D01*
X698186Y719702D01*
X693106Y724782D01*
X680406Y699382D02*
X685486Y704462D01*
X690566Y699382D01*
X685486Y694302D01*
X680406Y699382D01*
X693106Y673982D02*
X698186Y679062D01*
X703266Y673982D01*
X698186Y668902D01*
X693106Y673982D01*
Y470782D02*
X698186Y475862D01*
X703266Y470782D01*
X698186Y465702D01*
X693106Y470782D01*
X655006Y800982D02*
X660086Y806062D01*
X665166Y800982D01*
X660086Y795902D01*
X655006Y800982D01*
X667706Y775582D02*
X672786Y780662D01*
X677866Y775582D01*
X672786Y770502D01*
X667706Y775582D01*
Y724782D02*
X672786Y729862D01*
X677866Y724782D01*
X672786Y719702D01*
X667706Y724782D01*
X655006Y648582D02*
X660086Y653662D01*
X665166Y648582D01*
X660086Y643502D01*
X655006Y648582D01*
X667706Y115182D02*
X672786Y120262D01*
X677866Y115182D01*
X672786Y110102D01*
X667706Y115182D01*
X629606Y800982D02*
X634686Y806062D01*
X639766Y800982D01*
X634686Y795902D01*
X629606Y800982D01*
X642306Y775582D02*
X647386Y780662D01*
X652466Y775582D01*
X647386Y770502D01*
X642306Y775582D01*
X629606Y750182D02*
X634686Y755262D01*
X639766Y750182D01*
X634686Y745102D01*
X629606Y750182D01*
X642306Y724782D02*
X647386Y729862D01*
X652466Y724782D01*
X647386Y719702D01*
X642306Y724782D01*
X629606Y699382D02*
X634686Y704462D01*
X639766Y699382D01*
X634686Y694302D01*
X629606Y699382D01*
X604206Y800982D02*
X609286Y806062D01*
X614366Y800982D01*
X609286Y795902D01*
X604206Y800982D01*
X616906Y775582D02*
X621986Y780662D01*
X627066Y775582D01*
X621986Y770502D01*
X616906Y775582D01*
X604206Y750182D02*
X609286Y755262D01*
X614366Y750182D01*
X609286Y745102D01*
X604206Y750182D01*
X616906Y724782D02*
X621986Y729862D01*
X627066Y724782D01*
X621986Y719702D01*
X616906Y724782D01*
X604206Y699382D02*
X609286Y704462D01*
X614366Y699382D01*
X609286Y694302D01*
X604206Y699382D01*
Y648582D02*
X609286Y653662D01*
X614366Y648582D01*
X609286Y643502D01*
X604206Y648582D01*
Y546982D02*
X609286Y552062D01*
X614366Y546982D01*
X609286Y541902D01*
X604206Y546982D01*
X616906Y115182D02*
X621986Y120262D01*
X627066Y115182D01*
X621986Y110102D01*
X616906Y115182D01*
X578806Y800982D02*
X583886Y806062D01*
X588966Y800982D01*
X583886Y795902D01*
X578806Y800982D01*
X591506Y775582D02*
X596586Y780662D01*
X601666Y775582D01*
X596586Y770502D01*
X591506Y775582D01*
X578806Y750182D02*
X583886Y755262D01*
X588966Y750182D01*
X583886Y745102D01*
X578806Y750182D01*
X591506Y724782D02*
X596586Y729862D01*
X601666Y724782D01*
X596586Y719702D01*
X591506Y724782D01*
X578806Y699382D02*
X583886Y704462D01*
X588966Y699382D01*
X583886Y694302D01*
X578806Y699382D01*
Y546982D02*
X583886Y552062D01*
X588966Y546982D01*
X583886Y541902D01*
X578806Y546982D01*
X553406Y800982D02*
X558486Y806062D01*
X563566Y800982D01*
X558486Y795902D01*
X553406Y800982D01*
X566106Y775582D02*
X571186Y780662D01*
X576266Y775582D01*
X571186Y770502D01*
X566106Y775582D01*
X553406Y750182D02*
X558486Y755262D01*
X563566Y750182D01*
X558486Y745102D01*
X553406Y750182D01*
X566106Y724782D02*
X571186Y729862D01*
X576266Y724782D01*
X571186Y719702D01*
X566106Y724782D01*
X553406Y699382D02*
X558486Y704462D01*
X563566Y699382D01*
X558486Y694302D01*
X553406Y699382D01*
X528006Y800982D02*
X533086Y806062D01*
X538166Y800982D01*
X533086Y795902D01*
X528006Y800982D01*
X540706Y775582D02*
X545786Y780662D01*
X550866Y775582D01*
X545786Y770502D01*
X540706Y775582D01*
X528006Y750182D02*
X533086Y755262D01*
X538166Y750182D01*
X533086Y745102D01*
X528006Y750182D01*
X540706Y724782D02*
X545786Y729862D01*
X550866Y724782D01*
X545786Y719702D01*
X540706Y724782D01*
X528006Y699382D02*
X533086Y704462D01*
X538166Y699382D01*
X533086Y694302D01*
X528006Y699382D01*
X540706Y521582D02*
X545786Y526662D01*
X550866Y521582D01*
X545786Y516502D01*
X540706Y521582D01*
X502606Y800982D02*
X507686Y806062D01*
X512766Y800982D01*
X507686Y795902D01*
X502606Y800982D01*
X515306Y775582D02*
X520386Y780662D01*
X525466Y775582D01*
X520386Y770502D01*
X515306Y775582D01*
X502606Y750182D02*
X507686Y755262D01*
X512766Y750182D01*
X507686Y745102D01*
X502606Y750182D01*
X515306Y724782D02*
X520386Y729862D01*
X525466Y724782D01*
X520386Y719702D01*
X515306Y724782D01*
X502606Y699382D02*
X507686Y704462D01*
X512766Y699382D01*
X507686Y694302D01*
X502606Y699382D01*
X477206Y800982D02*
X482286Y806062D01*
X487366Y800982D01*
X482286Y795902D01*
X477206Y800982D01*
X489906Y775582D02*
X494986Y780662D01*
X500066Y775582D01*
X494986Y770502D01*
X489906Y775582D01*
X477206Y750182D02*
X482286Y755262D01*
X487366Y750182D01*
X482286Y745102D01*
X477206Y750182D01*
X489906Y724782D02*
X494986Y729862D01*
X500066Y724782D01*
X494986Y719702D01*
X489906Y724782D01*
X477206Y597782D02*
X482286Y602862D01*
X487366Y597782D01*
X482286Y592702D01*
X477206Y597782D01*
X451806Y800982D02*
X456886Y806062D01*
X461966Y800982D01*
X456886Y795902D01*
X451806Y800982D01*
X464506Y775582D02*
X469586Y780662D01*
X474666Y775582D01*
X469586Y770502D01*
X464506Y775582D01*
Y724782D02*
X469586Y729862D01*
X474666Y724782D01*
X469586Y719702D01*
X464506Y724782D01*
X426406Y800982D02*
X431486Y806062D01*
X436566Y800982D01*
X431486Y795902D01*
X426406Y800982D01*
X401006D02*
X406086Y806062D01*
X411166Y800982D01*
X406086Y795902D01*
X401006Y800982D01*
Y750182D02*
X406086Y755262D01*
X411166Y750182D01*
X406086Y745102D01*
X401006Y750182D01*
Y648582D02*
X406086Y653662D01*
X411166Y648582D01*
X406086Y643502D01*
X401006Y648582D01*
X375606Y800982D02*
X380686Y806062D01*
X385766Y800982D01*
X380686Y795902D01*
X375606Y800982D01*
X388306Y775582D02*
X393386Y780662D01*
X398466Y775582D01*
X393386Y770502D01*
X388306Y775582D01*
Y673982D02*
X393386Y679062D01*
X398466Y673982D01*
X393386Y668902D01*
X388306Y673982D01*
X375606Y140582D02*
X380686Y145662D01*
X385766Y140582D01*
X380686Y135502D01*
X375606Y140582D01*
X350206Y800982D02*
X355286Y806062D01*
X360366Y800982D01*
X355286Y795902D01*
X350206Y800982D01*
X362906Y775582D02*
X367986Y780662D01*
X373066Y775582D01*
X367986Y770502D01*
X362906Y775582D01*
Y673982D02*
X367986Y679062D01*
X373066Y673982D01*
X367986Y668902D01*
X362906Y673982D01*
X350206Y597782D02*
X355286Y602862D01*
X360366Y597782D01*
X355286Y592702D01*
X350206Y597782D01*
Y191382D02*
X355286Y196462D01*
X360366Y191382D01*
X355286Y186302D01*
X350206Y191382D01*
Y140582D02*
X355286Y145662D01*
X360366Y140582D01*
X355286Y135502D01*
X350206Y140582D01*
X324806Y800982D02*
X329886Y806062D01*
X334966Y800982D01*
X329886Y795902D01*
X324806Y800982D01*
X337506Y775582D02*
X342586Y780662D01*
X347666Y775582D01*
X342586Y770502D01*
X337506Y775582D01*
X324806Y750182D02*
X329886Y755262D01*
X334966Y750182D01*
X329886Y745102D01*
X324806Y750182D01*
X337506Y673982D02*
X342586Y679062D01*
X347666Y673982D01*
X342586Y668902D01*
X337506Y673982D01*
X299406Y800982D02*
X304486Y806062D01*
X309566Y800982D01*
X304486Y795902D01*
X299406Y800982D01*
X312106Y775582D02*
X317186Y780662D01*
X322266Y775582D01*
X317186Y770502D01*
X312106Y775582D01*
X299406Y750182D02*
X304486Y755262D01*
X309566Y750182D01*
X304486Y745102D01*
X299406Y750182D01*
Y699382D02*
X304486Y704462D01*
X309566Y699382D01*
X304486Y694302D01*
X299406Y699382D01*
Y292982D02*
X304486Y298062D01*
X309566Y292982D01*
X304486Y287902D01*
X299406Y292982D01*
Y191382D02*
X304486Y196462D01*
X309566Y191382D01*
X304486Y186302D01*
X299406Y191382D01*
X274006Y800982D02*
X279086Y806062D01*
X284166Y800982D01*
X279086Y795902D01*
X274006Y800982D01*
X286706Y775582D02*
X291786Y780662D01*
X296866Y775582D01*
X291786Y770502D01*
X286706Y775582D01*
X274006Y750182D02*
X279086Y755262D01*
X284166Y750182D01*
X279086Y745102D01*
X274006Y750182D01*
Y699382D02*
X279086Y704462D01*
X284166Y699382D01*
X279086Y694302D01*
X274006Y699382D01*
Y648582D02*
X279086Y653662D01*
X284166Y648582D01*
X279086Y643502D01*
X274006Y648582D01*
Y597782D02*
X279086Y602862D01*
X284166Y597782D01*
X279086Y592702D01*
X274006Y597782D01*
X248606Y800982D02*
X253686Y806062D01*
X258766Y800982D01*
X253686Y795902D01*
X248606Y800982D01*
X261306Y775582D02*
X266386Y780662D01*
X271466Y775582D01*
X266386Y770502D01*
X261306Y775582D01*
X248606Y750182D02*
X253686Y755262D01*
X258766Y750182D01*
X253686Y745102D01*
X248606Y750182D01*
X261306Y369182D02*
X266386Y374262D01*
X271466Y369182D01*
X266386Y364102D01*
X261306Y369182D01*
Y267582D02*
X266386Y272662D01*
X271466Y267582D01*
X266386Y262502D01*
X261306Y267582D01*
X223206Y800982D02*
X228286Y806062D01*
X233366Y800982D01*
X228286Y795902D01*
X223206Y800982D01*
X235906Y775582D02*
X240986Y780662D01*
X246066Y775582D01*
X240986Y770502D01*
X235906Y775582D01*
X223206Y750182D02*
X228286Y755262D01*
X233366Y750182D01*
X228286Y745102D01*
X223206Y750182D01*
X235906Y267582D02*
X240986Y272662D01*
X246066Y267582D01*
X240986Y262502D01*
X235906Y267582D01*
X197806Y800982D02*
X202886Y806062D01*
X207966Y800982D01*
X202886Y795902D01*
X197806Y800982D01*
X210506Y775582D02*
X215586Y780662D01*
X220666Y775582D01*
X215586Y770502D01*
X210506Y775582D01*
X197806Y750182D02*
X202886Y755262D01*
X207966Y750182D01*
X202886Y745102D01*
X197806Y750182D01*
Y699382D02*
X202886Y704462D01*
X207966Y699382D01*
X202886Y694302D01*
X197806Y699382D01*
Y242182D02*
X202886Y247262D01*
X207966Y242182D01*
X202886Y237102D01*
X197806Y242182D01*
Y191382D02*
X202886Y196462D01*
X207966Y191382D01*
X202886Y186302D01*
X197806Y191382D01*
X172406Y800982D02*
X177486Y806062D01*
X182566Y800982D01*
X177486Y795902D01*
X172406Y800982D01*
X185106Y775582D02*
X190186Y780662D01*
X195266Y775582D01*
X190186Y770502D01*
X185106Y775582D01*
Y724782D02*
X190186Y729862D01*
X195266Y724782D01*
X190186Y719702D01*
X185106Y724782D01*
X147006Y800982D02*
X152086Y806062D01*
X157166Y800982D01*
X152086Y795902D01*
X147006Y800982D01*
X159706Y318382D02*
X164786Y323462D01*
X169866Y318382D01*
X164786Y313302D01*
X159706Y318382D01*
X147006Y89782D02*
X152086Y94862D01*
X157166Y89782D01*
X152086Y84702D01*
X147006Y89782D01*
X121606Y800982D02*
X126686Y806062D01*
X131766Y800982D01*
X126686Y795902D01*
X121606Y800982D01*
X134306Y470782D02*
X139386Y475862D01*
X144466Y470782D01*
X139386Y465702D01*
X134306Y470782D01*
Y216782D02*
X139386Y221862D01*
X144466Y216782D01*
X139386Y211702D01*
X134306Y216782D01*
X121606Y89782D02*
X126686Y94862D01*
X131766Y89782D01*
X126686Y84702D01*
X121606Y89782D01*
X134306Y64382D02*
X139386Y69462D01*
X144466Y64382D01*
X139386Y59302D01*
X134306Y64382D01*
X96206Y800982D02*
X101286Y806062D01*
X106366Y800982D01*
X101286Y795902D01*
X96206Y800982D01*
Y496182D02*
X101286Y501262D01*
X106366Y496182D01*
X101286Y491102D01*
X96206Y496182D01*
Y89782D02*
X101286Y94862D01*
X106366Y89782D01*
X101286Y84702D01*
X96206Y89782D01*
Y38982D02*
X101286Y44062D01*
X106366Y38982D01*
X101286Y33902D01*
X96206Y38982D01*
X70806Y800982D02*
X75886Y806062D01*
X80966Y800982D01*
X75886Y795902D01*
X70806Y800982D01*
Y496182D02*
X75886Y501262D01*
X80966Y496182D01*
X75886Y491102D01*
X70806Y496182D01*
Y292982D02*
X75886Y298062D01*
X80966Y292982D01*
X75886Y287902D01*
X70806Y292982D01*
X83506Y267582D02*
X88586Y272662D01*
X93666Y267582D01*
X88586Y262502D01*
X83506Y267582D01*
X70806Y242182D02*
X75886Y247262D01*
X80966Y242182D01*
X75886Y237102D01*
X70806Y242182D01*
X83506Y216782D02*
X88586Y221862D01*
X93666Y216782D01*
X88586Y211702D01*
X83506Y216782D01*
X70806Y38982D02*
X75886Y44062D01*
X80966Y38982D01*
X75886Y33902D01*
X70806Y38982D01*
X58106Y775582D02*
X63186Y780662D01*
X68266Y775582D01*
X63186Y770502D01*
X58106Y775582D01*
Y724782D02*
X63186Y729862D01*
X68266Y724782D01*
X63186Y719702D01*
X58106Y724782D01*
Y369182D02*
X63186Y374262D01*
X68266Y369182D01*
X63186Y364102D01*
X58106Y369182D01*
X45406Y292982D02*
X50486Y298062D01*
X55566Y292982D01*
X50486Y287902D01*
X45406Y292982D01*
X58106Y267582D02*
X63186Y272662D01*
X68266Y267582D01*
X63186Y262502D01*
X58106Y267582D01*
X45406Y242182D02*
X50486Y247262D01*
X55566Y242182D01*
X50486Y237102D01*
X45406Y242182D01*
X58106Y216782D02*
X63186Y221862D01*
X68266Y216782D01*
X63186Y211702D01*
X58106Y216782D01*
Y64382D02*
X63186Y69462D01*
X68266Y64382D01*
X63186Y59302D01*
X58106Y64382D01*
X32706Y775582D02*
X37786Y780662D01*
X42866Y775582D01*
X37786Y770502D01*
X32706Y775582D01*
X20006Y750182D02*
X25086Y755262D01*
X30166Y750182D01*
X25086Y745102D01*
X20006Y750182D01*
Y699382D02*
X25086Y704462D01*
X30166Y699382D01*
X25086Y694302D01*
X20006Y699382D01*
X32706Y673982D02*
X37786Y679062D01*
X42866Y673982D01*
X37786Y668902D01*
X32706Y673982D01*
X20006Y89782D02*
X25086Y94862D01*
X30166Y89782D01*
X25086Y84702D01*
X20006Y89782D01*
X502757Y276623D02*
X507837Y281702D01*
X512917Y276623D01*
X507837Y271542D01*
X502757Y276623D01*
X488514Y271200D02*
X493594Y276280D01*
X498674Y271200D01*
X493594Y266120D01*
X488514Y271200D01*
X657893Y237795D02*
X662973Y242875D01*
X668053Y237795D01*
X662973Y232715D01*
X657893Y237795D01*
X518980Y236832D02*
X524060Y241912D01*
X529140Y236832D01*
X524060Y231752D01*
X518980Y236832D01*
X509970Y239403D02*
X515050Y244483D01*
X520130Y239403D01*
X515050Y234323D01*
X509970Y239403D01*
X480010Y229307D02*
X485090Y234387D01*
X490170Y229307D01*
X485090Y224227D01*
X480010Y229307D01*
X464766Y239342D02*
X469846Y244422D01*
X474926Y239342D01*
X469846Y234262D01*
X464766Y239342D01*
X482461Y209774D02*
X487541Y214854D01*
X492621Y209774D01*
X487541Y204694D01*
X482461Y209774D01*
X472426Y212532D02*
X477506Y217612D01*
X482586Y212532D01*
X477506Y207452D01*
X472426Y212532D01*
X680544Y287258D02*
X685624Y292338D01*
X690704Y287258D01*
X685624Y282178D01*
X680544Y287258D01*
X645284Y286946D02*
X650364Y292026D01*
X655444Y286946D01*
X650364Y281866D01*
X645284Y286946D01*
X628559Y217956D02*
X633639Y223036D01*
X638719Y217956D01*
X633639Y212876D01*
X628559Y217956D01*
X638556Y292354D02*
X643636Y297434D01*
X648716Y292354D01*
X643636Y287274D01*
X638556Y292354D01*
X650146Y278636D02*
X655226Y283716D01*
X660306Y278636D01*
X655226Y273556D01*
X650146Y278636D01*
X667004Y383032D02*
X672084Y388112D01*
X677164Y383032D01*
X672084Y377952D01*
X667004Y383032D01*
X111538Y508723D02*
X116618Y513803D01*
X121698Y508723D01*
X116618Y503643D01*
X111538Y508723D01*
X141611Y513630D02*
X146691Y518710D01*
X151771Y513630D01*
X146691Y508550D01*
X141611Y513630D01*
X561740Y243723D02*
X566820Y248803D01*
X571900Y243723D01*
X566820Y238643D01*
X561740Y243723D01*
X571500Y256286D02*
X576580Y261366D01*
X581660Y256286D01*
X576580Y251206D01*
X571500Y256286D01*
X509825Y281584D02*
X514905Y286664D01*
X519985Y281584D01*
X514905Y276504D01*
X509825Y281584D01*
X680573Y275089D02*
X685653Y280169D01*
X690733Y275089D01*
X685653Y270009D01*
X680573Y275089D01*
X602670Y274450D02*
X607750Y279530D01*
X612830Y274450D01*
X607750Y269370D01*
X602670Y274450D01*
X639286Y270292D02*
X644366Y275372D01*
X649446Y270292D01*
X644366Y265212D01*
X639286Y270292D01*
X661883Y243509D02*
X666964Y248589D01*
X672044Y243509D01*
X666964Y238429D01*
X661883Y243509D01*
X644961Y258504D02*
X650041Y263584D01*
X655121Y258504D01*
X650041Y253424D01*
X644961Y258504D01*
X649613Y231531D02*
X654693Y236611D01*
X659773Y231531D01*
X654693Y226451D01*
X649613Y231531D01*
X643410Y225328D02*
X648490Y230408D01*
X653570Y225328D01*
X648490Y220248D01*
X643410Y225328D01*
X638314Y218903D02*
X643394Y223983D01*
X648474Y218903D01*
X643394Y213823D01*
X638314Y218903D01*
X631190Y266700D02*
X636270Y271780D01*
X641350Y266700D01*
X636270Y261620D01*
X631190Y266700D01*
X624484Y261970D02*
X629565Y267050D01*
X634645Y261970D01*
X629565Y256890D01*
X624484Y261970D01*
X475588Y276812D02*
X480668Y281892D01*
X485748Y276812D01*
X480668Y271732D01*
X475588Y276812D01*
X384048Y369570D02*
X389128Y374650D01*
X394208Y369570D01*
X389128Y364490D01*
X384048Y369570D01*
X417196Y389971D02*
X422276Y395051D01*
X427356Y389971D01*
X422276Y384891D01*
X417196Y389971D01*
X410621Y374569D02*
X415701Y379649D01*
X420781Y374569D01*
X415701Y369489D01*
X410621Y374569D01*
X570212Y374628D02*
X575292Y379708D01*
X580372Y374628D01*
X575292Y369548D01*
X570212Y374628D01*
X524282Y392453D02*
X529362Y397533D01*
X534442Y392453D01*
X529362Y387373D01*
X524282Y392453D01*
X374702Y513994D02*
X379782Y519075D01*
X384862Y513994D01*
X379782Y508914D01*
X374702Y513994D01*
X317274Y433718D02*
X322354Y438798D01*
X327434Y433718D01*
X322354Y428638D01*
X317274Y433718D01*
X43913Y397807D02*
X48993Y402887D01*
X54073Y397807D01*
X48993Y392727D01*
X43913Y397807D01*
X536805Y119940D02*
X541885Y125020D01*
X546965Y119940D01*
X541885Y114860D01*
X536805Y119940D01*
X550024D02*
X555104Y125020D01*
X560185Y119940D01*
X555104Y114860D01*
X550024Y119940D01*
X519246Y113097D02*
X524326Y118177D01*
X529406Y113097D01*
X524326Y108018D01*
X519246Y113097D01*
X554834Y113515D02*
X559914Y118595D01*
X564994Y113515D01*
X559914Y108435D01*
X554834Y113515D01*
X533728Y106258D02*
X538808Y111338D01*
X543888Y106258D01*
X538808Y101178D01*
X533728Y106258D01*
X445250Y188458D02*
X450330Y193538D01*
X455410Y188458D01*
X450330Y183378D01*
X445250Y188458D01*
X496716Y297386D02*
X501796Y302467D01*
X506875Y297386D01*
X501796Y292306D01*
X496716Y297386D01*
X506662Y306137D02*
X511742Y311217D01*
X516822Y306137D01*
X511742Y301057D01*
X506662Y306137D01*
X532891Y294500D02*
X537971Y299580D01*
X543051Y294500D01*
X537971Y289420D01*
X532891Y294500D01*
Y307383D02*
X537971Y312463D01*
X543051Y307383D01*
X537971Y302303D01*
X532891Y307383D01*
X405266Y419030D02*
X410346Y424109D01*
X415426Y419030D01*
X410346Y413950D01*
X405266Y419030D01*
X562864Y403704D02*
X567944Y408784D01*
X573024Y403704D01*
X567944Y398624D01*
X562864Y403704D01*
X550068Y403050D02*
X555148Y408130D01*
X560228Y403050D01*
X555148Y397970D01*
X550068Y403050D01*
X574773Y416306D02*
X579853Y421386D01*
X584933Y416306D01*
X579853Y411226D01*
X574773Y416306D01*
X562864Y416715D02*
X567944Y421795D01*
X573024Y416715D01*
X567944Y411635D01*
X562864Y416715D01*
X550068Y416891D02*
X555148Y421971D01*
X560228Y416891D01*
X555148Y411811D01*
X550068Y416891D01*
X544469Y409617D02*
X549549Y414697D01*
X554629Y409617D01*
X549549Y404537D01*
X544469Y409617D01*
X568720Y410217D02*
X573800Y415297D01*
X578880Y410217D01*
X573800Y405137D01*
X568720Y410217D01*
X556260Y409617D02*
X561340Y414697D01*
X566420Y409617D01*
X561340Y404537D01*
X556260Y409617D01*
X577835Y386790D02*
X582915Y391870D01*
X587995Y386790D01*
X582915Y381710D01*
X577835Y386790D01*
X612577Y377889D02*
X617657Y382969D01*
X622737Y377889D01*
X617657Y372809D01*
X612577Y377889D01*
X603622Y564793D02*
X608702Y569873D01*
X613782Y564793D01*
X608702Y559713D01*
X603622Y564793D01*
X603607Y593660D02*
X608687Y598740D01*
X613767Y593660D01*
X608687Y588580D01*
X603607Y593660D01*
X599473Y508633D02*
X604553Y513713D01*
X609633Y508633D01*
X604553Y503553D01*
X599473Y508633D01*
X649858Y488950D02*
X654938Y494030D01*
X660018Y488950D01*
X654938Y483870D01*
X649858Y488950D01*
X575516Y474218D02*
X580596Y479298D01*
X585676Y474218D01*
X580596Y469138D01*
X575516Y474218D01*
X603622Y481200D02*
X608702Y486280D01*
X613782Y481200D01*
X608702Y476120D01*
X603622Y481200D01*
X359407Y518193D02*
X364487Y523273D01*
X369567Y518193D01*
X364487Y513113D01*
X359407Y518193D01*
X382646Y521196D02*
X387726Y526276D01*
X392806Y521196D01*
X387726Y516116D01*
X382646Y521196D01*
X349052Y523099D02*
X354132Y528179D01*
X359212Y523099D01*
X354132Y518019D01*
X349052Y523099D01*
X465082Y508462D02*
X470162Y513542D01*
X475242Y508462D01*
X470162Y503382D01*
X465082Y508462D01*
X494030Y503589D02*
X499110Y508669D01*
X504190Y503589D01*
X499110Y498509D01*
X494030Y503589D01*
X459920Y517458D02*
X465000Y522538D01*
X470080Y517458D01*
X465000Y512378D01*
X459920Y517458D01*
X508254Y155448D02*
X513334Y160528D01*
X518414Y155448D01*
X513334Y150368D01*
X508254Y155448D01*
X559054Y164846D02*
X564134Y169926D01*
X569214Y164846D01*
X564134Y159766D01*
X559054Y164846D01*
X522028Y85084D02*
X527108Y90164D01*
X532188Y85084D01*
X527108Y80004D01*
X522028Y85084D01*
X514350Y85344D02*
X519430Y90424D01*
X524510Y85344D01*
X519430Y80264D01*
X514350Y85344D01*
X390045Y160891D02*
X395125Y165971D01*
X400205Y160891D01*
X395125Y155811D01*
X390045Y160891D01*
X344170Y152400D02*
X349250Y157480D01*
X354330Y152400D01*
X349250Y147320D01*
X344170Y152400D01*
X530659Y237273D02*
X535739Y242353D01*
X540819Y237273D01*
X535739Y232193D01*
X530659Y237273D01*
X691445Y275782D02*
X696525Y280862D01*
X701605Y275782D01*
X696525Y270702D01*
X691445Y275782D01*
X618581Y367778D02*
X623661Y372858D01*
X628741Y367778D01*
X623661Y362698D01*
X618581Y367778D01*
X601418Y367979D02*
X606498Y373059D01*
X611578Y367979D01*
X606498Y362899D01*
X601418Y367979D01*
X531102Y351779D02*
X536182Y356859D01*
X541262Y351779D01*
X536182Y346699D01*
X531102Y351779D01*
X401574Y775716D02*
X406654Y780796D01*
X411734Y775716D01*
X406654Y770636D01*
X401574Y775716D01*
X401640Y740222D02*
X406720Y745302D01*
X411800Y740222D01*
X406720Y735142D01*
X401640Y740222D01*
Y704662D02*
X406720Y709742D01*
X411800Y704662D01*
X406720Y699582D01*
X401640Y704662D01*
X417502Y430111D02*
X422582Y435191D01*
X427662Y430111D01*
X422582Y425031D01*
X417502Y430111D01*
X405266Y433755D02*
X410346Y438835D01*
X415426Y433755D01*
X410346Y428675D01*
X405266Y433755D01*
X384577Y419030D02*
X389657Y424109D01*
X394737Y419030D01*
X389657Y413950D01*
X384577Y419030D01*
X484026Y382316D02*
X489106Y387396D01*
X494186Y382316D01*
X489106Y377236D01*
X484026Y382316D01*
X467028Y377220D02*
X472108Y382300D01*
X477188Y377220D01*
X472108Y372140D01*
X467028Y377220D01*
X43913Y408202D02*
X48993Y413282D01*
X54073Y408202D01*
X48993Y403122D01*
X43913Y408202D01*
X412993Y285226D02*
X418073Y290306D01*
X423153Y285226D01*
X418073Y280146D01*
X412993Y285226D01*
X385439Y281982D02*
X390519Y287062D01*
X395599Y281982D01*
X390519Y276902D01*
X385439Y281982D01*
X332431Y256845D02*
X337511Y261925D01*
X342592Y256845D01*
X337511Y251765D01*
X332431Y256845D01*
X272149Y255782D02*
X277229Y260862D01*
X282309Y255782D01*
X277229Y250702D01*
X272149Y255782D01*
X47776Y414782D02*
X52856Y419863D01*
X57936Y414782D01*
X52856Y409702D01*
X47776Y414782D01*
X372080Y244888D02*
X377160Y249968D01*
X382240Y244888D01*
X377160Y239808D01*
X372080Y244888D01*
X127621Y441139D02*
X132702Y446219D01*
X137781Y441139D01*
X132702Y436059D01*
X127621Y441139D01*
X162560Y444500D02*
X167640Y449580D01*
X172720Y444500D01*
X167640Y439420D01*
X162560Y444500D01*
X146072Y471180D02*
X151152Y476260D01*
X156232Y471180D01*
X151152Y466100D01*
X146072Y471180D01*
X420989Y281870D02*
X426069Y286950D01*
X431149Y281870D01*
X426069Y276790D01*
X420989Y281870D01*
X348742Y257674D02*
X353822Y262754D01*
X358902Y257674D01*
X353822Y252594D01*
X348742Y257674D01*
X367030D02*
X372110Y262754D01*
X377190Y257674D01*
X372110Y252594D01*
X367030Y257674D01*
X380336Y304412D02*
X385416Y309492D01*
X390496Y304412D01*
X385416Y299332D01*
X380336Y304412D01*
X528883Y379193D02*
X533963Y384273D01*
X539043Y379193D01*
X533963Y374113D01*
X528883Y379193D01*
X522458Y365949D02*
X527538Y371029D01*
X532618Y365949D01*
X527538Y360869D01*
X522458Y365949D01*
X592110Y344500D02*
X597190Y349580D01*
X602270Y344500D01*
X597190Y339420D01*
X592110Y344500D01*
X597887Y349307D02*
X602967Y354387D01*
X608047Y349307D01*
X602967Y344227D01*
X597887Y349307D01*
X177704Y155190D02*
X182784Y160270D01*
X187864Y155190D01*
X182784Y150110D01*
X177704Y155190D01*
X92008Y147618D02*
X97088Y152698D01*
X102168Y147618D01*
X97088Y142538D01*
X92008Y147618D01*
X270262Y302600D02*
X275342Y307680D01*
X280422Y302600D01*
X275342Y297520D01*
X270262Y302600D01*
X358999Y281982D02*
X364079Y287062D01*
X369159Y281982D01*
X364079Y276902D01*
X358999Y281982D01*
X473848Y388644D02*
X478928Y393724D01*
X484008Y388644D01*
X478928Y383564D01*
X473848Y388644D01*
X410981Y384977D02*
X416061Y390057D01*
X421141Y384977D01*
X416061Y379897D01*
X410981Y384977D01*
X417096Y379941D02*
X422176Y385021D01*
X427256Y379941D01*
X422176Y374861D01*
X417096Y379941D01*
X300842Y284480D02*
X305922Y289560D01*
X311002Y284480D01*
X305922Y279400D01*
X300842Y284480D01*
X318770Y413357D02*
X323850Y418437D01*
X328930Y413357D01*
X323850Y408277D01*
X318770Y413357D01*
X44432Y479461D02*
X49512Y484541D01*
X54592Y479461D01*
X49512Y474381D01*
X44432Y479461D01*
X484817Y290696D02*
X489897Y295776D01*
X494977Y290696D01*
X489897Y285616D01*
X484817Y290696D01*
Y309443D02*
X489897Y314523D01*
X494977Y309443D01*
X489897Y304363D01*
X484817Y309443D01*
X651466Y155327D02*
X656546Y160407D01*
X661626Y155327D01*
X656546Y150247D01*
X651466Y155327D01*
X644061Y159242D02*
X649141Y164321D01*
X654221Y159242D01*
X649141Y154162D01*
X644061Y159242D01*
X244837Y649001D02*
X249918Y654081D01*
X254998Y649001D01*
X249918Y643921D01*
X244837Y649001D01*
X284907Y649315D02*
X289987Y654395D01*
X295067Y649315D01*
X289987Y644235D01*
X284907Y649315D01*
X405574Y546703D02*
X410653Y551783D01*
X415733Y546703D01*
X410653Y541623D01*
X405574Y546703D01*
X391434D02*
X396514Y551783D01*
X401594Y546703D01*
X396514Y541623D01*
X391434Y546703D01*
X288731Y547034D02*
X293811Y552114D01*
X298891Y547034D01*
X293811Y541954D01*
X288731Y547034D01*
X275437Y546888D02*
X280517Y551968D01*
X285597Y546888D01*
X280517Y541808D01*
X275437Y546888D01*
X161337Y546842D02*
X166417Y551922D01*
X171497Y546842D01*
X166417Y541762D01*
X161337Y546842D01*
X148267Y547156D02*
X153347Y552236D01*
X158427Y547156D01*
X153347Y542076D01*
X148267Y547156D01*
X38873Y547449D02*
X43953Y552529D01*
X49033Y547449D01*
X43953Y542369D01*
X38873Y547449D01*
X52572Y547562D02*
X57652Y552642D01*
X62732Y547562D01*
X57652Y542482D01*
X52572Y547562D01*
X277854Y447180D02*
X282934Y452260D01*
X288014Y447180D01*
X282934Y442100D01*
X277854Y447180D01*
X470279Y360563D02*
X475359Y365643D01*
X480438Y360563D01*
X475359Y355483D01*
X470279Y360563D01*
X479431Y342463D02*
X484511Y347543D01*
X489591Y342463D01*
X484511Y337383D01*
X479431Y342463D01*
X482895Y325303D02*
X487975Y330383D01*
X493055Y325303D01*
X487975Y320223D01*
X482895Y325303D01*
X442515Y342505D02*
X447595Y347585D01*
X452676Y342505D01*
X447595Y337425D01*
X442515Y342505D01*
X832206Y785782D02*
X837287Y790863D01*
X842366Y785782D01*
X837287Y780703D01*
X832206Y785782D01*
X57206Y835782D02*
X62286Y840863D01*
X67366Y835782D01*
X62286Y830703D01*
X57206Y835782D01*
X74220Y60960D02*
X79300Y66040D01*
X84380Y60960D01*
X79300Y55880D01*
X74220Y60960D01*
X42196Y430788D02*
X47276Y435868D01*
X52356Y430788D01*
X47276Y425709D01*
X42196Y430788D01*
X92733Y485262D02*
X97814Y490342D01*
X102893Y485262D01*
X97814Y480182D01*
X92733Y485262D01*
X35785Y485125D02*
X40865Y490205D01*
X45945Y485125D01*
X40865Y480045D01*
X35785Y485125D01*
X53506Y393685D02*
X58587Y398764D01*
X63667Y393685D01*
X58587Y388605D01*
X53506Y393685D01*
X63232Y388681D02*
X68312Y393761D01*
X73392Y388681D01*
X68312Y383601D01*
X63232Y388681D01*
X290996Y215884D02*
X296077Y220965D01*
X301157Y215884D01*
X296077Y210805D01*
X290996Y215884D01*
X257976D02*
X263057Y220965D01*
X268137Y215884D01*
X263057Y210805D01*
X257976Y215884D01*
X274433D02*
X279513Y220965D01*
X284592Y215884D01*
X279513Y210805D01*
X274433Y215884D01*
X277622Y199390D02*
X282702Y204470D01*
X287782Y199390D01*
X282702Y194310D01*
X277622Y199390D01*
X287348Y194387D02*
X292428Y199467D01*
X297508Y194387D01*
X292428Y189307D01*
X287348Y194387D01*
X218440Y204963D02*
X223520Y210043D01*
X228600Y204963D01*
X223520Y199883D01*
X218440Y204963D01*
X201930Y204470D02*
X207010Y209550D01*
X212090Y204470D01*
X207010Y199390D01*
X201930Y204470D01*
X187526Y194387D02*
X192606Y199467D01*
X197686Y194387D01*
X192606Y189307D01*
X187526Y194387D01*
X177800Y199390D02*
X182880Y204470D01*
X187960Y199390D01*
X182880Y194310D01*
X177800Y199390D01*
X246380Y160020D02*
X251460Y165100D01*
X256540Y160020D01*
X251460Y154940D01*
X246380Y160020D01*
X266700D02*
X271780Y165100D01*
X276860Y160020D01*
X271780Y154940D01*
X266700Y160020D01*
X256540Y166370D02*
X261620Y171450D01*
X266700Y166370D01*
X261620Y161290D01*
X256540Y166370D01*
Y148590D02*
X261620Y153670D01*
X266700Y148590D01*
X261620Y143510D01*
X256540Y148590D01*
Y182880D02*
X261620Y187960D01*
X266700Y182880D01*
X261620Y177800D01*
X256540Y182880D01*
X741030Y747410D02*
X746110Y752490D01*
X751190Y747410D01*
X746110Y742330D01*
X741030Y747410D01*
X758810Y738520D02*
X763890Y743600D01*
X768970Y738520D01*
X763890Y733440D01*
X758810Y738520D01*
X741030Y521410D02*
X746110Y526490D01*
X751190Y521410D01*
X746110Y516330D01*
X741030Y521410D01*
X758810Y512520D02*
X763890Y517600D01*
X768970Y512520D01*
X763890Y507440D01*
X758810Y512520D01*
X741030Y318310D02*
X746110Y323390D01*
X751190Y318310D01*
X746110Y313230D01*
X741030Y318310D01*
X758810Y309420D02*
X763890Y314500D01*
X768970Y309420D01*
X763890Y304340D01*
X758810Y309420D01*
X759460Y459740D02*
X764540Y464820D01*
X769620Y459740D01*
X764540Y454660D01*
X759460Y459740D01*
X741680Y468630D02*
X746760Y473710D01*
X751840Y468630D01*
X746760Y463550D01*
X741680Y468630D01*
X241995Y111760D02*
X247075Y116840D01*
X252155Y111760D01*
X247075Y106680D01*
X241995Y111760D01*
Y123190D02*
X247075Y128270D01*
X252155Y123190D01*
X247075Y118110D01*
X241995Y123190D01*
X223497Y111760D02*
X228577Y116840D01*
X233657Y111760D01*
X228577Y106680D01*
X223497Y111760D01*
Y123190D02*
X228577Y128270D01*
X233657Y123190D01*
X228577Y118110D01*
X223497Y123190D01*
X450136Y237395D02*
X455216Y242475D01*
X460296Y237395D01*
X455216Y232315D01*
X450136Y237395D01*
X647010Y87630D02*
X652089Y92710D01*
X657169Y87630D01*
X652089Y82550D01*
X647010Y87630D01*
X583762Y87793D02*
X588842Y92873D01*
X593922Y87793D01*
X588842Y82713D01*
X583762Y87793D01*
X432988Y220555D02*
X438068Y225635D01*
X443148Y220555D01*
X438068Y215475D01*
X432988Y220555D01*
X437075Y224642D02*
X442155Y229722D01*
X447235Y224642D01*
X442155Y219562D01*
X437075Y224642D01*
X441162Y228729D02*
X446242Y233809D01*
X451323Y228729D01*
X446242Y223649D01*
X441162Y228729D01*
X445250Y232817D02*
X450330Y237896D01*
X455410Y232817D01*
X450330Y227736D01*
X445250Y232817D01*
X24526Y575530D02*
X29606Y580610D01*
X34686Y575530D01*
X29606Y570450D01*
X24526Y575530D01*
X35588D02*
X40668Y580610D01*
X45748Y575530D01*
X40668Y570450D01*
X35588Y575530D01*
X30057Y583984D02*
X35137Y589064D01*
X40217Y583984D01*
X35137Y578904D01*
X30057Y583984D01*
X41118D02*
X46198Y589064D01*
X51278Y583984D01*
X46198Y578904D01*
X41118Y583984D01*
X46649Y575530D02*
X51729Y580610D01*
X56809Y575530D01*
X51729Y570450D01*
X46649Y575530D01*
X392430Y188358D02*
X397510Y193438D01*
X402590Y188358D01*
X397510Y183278D01*
X392430Y188358D01*
X82795Y629800D02*
X87875Y634880D01*
X92955Y629800D01*
X87875Y624720D01*
X82795Y629800D01*
X76075Y619894D02*
X81155Y624975D01*
X86235Y619894D01*
X81155Y614814D01*
X76075Y619894D01*
X65812Y628531D02*
X70892Y633610D01*
X75972Y628531D01*
X70892Y623451D01*
X65812Y628531D01*
X59092Y618624D02*
X64172Y623704D01*
X69252Y618624D01*
X64172Y613545D01*
X59092Y618624D01*
X81593Y647630D02*
X86673Y652710D01*
X91753Y647630D01*
X86673Y642550D01*
X81593Y647630D01*
X74873Y637724D02*
X79953Y642804D01*
X85033Y637724D01*
X79953Y632644D01*
X74873Y637724D01*
X65021Y646399D02*
X70101Y651479D01*
X75181Y646399D01*
X70101Y641319D01*
X65021Y646399D01*
X58301Y636493D02*
X63381Y641573D01*
X68461Y636493D01*
X63381Y631413D01*
X58301Y636493D01*
X129595Y736953D02*
X134675Y742033D01*
X139755Y736953D01*
X134675Y731873D01*
X129595Y736953D01*
X40640Y752602D02*
X45720Y757682D01*
X50800Y752602D01*
X45720Y747522D01*
X40640Y752602D01*
X47360Y762508D02*
X52440Y767588D01*
X57520Y762508D01*
X52440Y757428D01*
X47360Y762508D01*
X66640Y752602D02*
X71720Y757682D01*
X76800Y752602D01*
X71720Y747522D01*
X66640Y752602D01*
X73360Y762508D02*
X78440Y767588D01*
X83520Y762508D01*
X78440Y757428D01*
X73360Y762508D01*
X103309Y761880D02*
X108389Y766961D01*
X113469Y761880D01*
X108389Y756801D01*
X103309Y761880D01*
X96589Y751974D02*
X101669Y757055D01*
X106749Y751974D01*
X101669Y746895D01*
X96589Y751974D01*
X93326Y762262D02*
X98406Y767342D01*
X103486Y762262D01*
X98406Y757181D01*
X93326Y762262D01*
X86606Y752355D02*
X91686Y757436D01*
X96766Y752355D01*
X91686Y747275D01*
X86606Y752355D01*
X83343Y761880D02*
X88423Y766961D01*
X93503Y761880D01*
X88423Y756801D01*
X83343Y761880D01*
X76623Y751974D02*
X81703Y757055D01*
X86783Y751974D01*
X81703Y746895D01*
X76623Y751974D01*
X413978Y359430D02*
X419058Y364510D01*
X424138Y359430D01*
X419058Y354350D01*
X413978Y359430D01*
X174113Y336661D02*
X179193Y341741D01*
X184273Y336661D01*
X179193Y331581D01*
X174113Y336661D01*
X185807Y336400D02*
X190887Y341480D01*
X195967Y336400D01*
X190887Y331320D01*
X185807Y336400D01*
X171450Y386530D02*
X176530Y391610D01*
X181610Y386530D01*
X176530Y381450D01*
X171450Y386530D01*
X129429Y329568D02*
X134509Y334648D01*
X139589Y329568D01*
X134509Y324488D01*
X129429Y329568D01*
X587170Y414750D02*
X592250Y419830D01*
X597330Y414750D01*
X592250Y409670D01*
X587170Y414750D01*
X480805Y448707D02*
X485885Y453787D01*
X490965Y448707D01*
X485885Y443627D01*
X480805Y448707D01*
X475322Y455896D02*
X480401Y460976D01*
X485481Y455896D01*
X480401Y450816D01*
X475322Y455896D01*
X218440Y186690D02*
X223520Y191770D01*
X228600Y186690D01*
X223520Y181610D01*
X218440Y186690D01*
X359410Y212500D02*
X364490Y217580D01*
X369570Y212500D01*
X364490Y207420D01*
X359410Y212500D01*
X423395D02*
X428475Y217580D01*
X433555Y212500D01*
X428475Y207420D01*
X423395Y212500D01*
X234950Y302456D02*
X240030Y307536D01*
X245110Y302456D01*
X240030Y297376D01*
X234950Y302456D01*
X298450Y257810D02*
X303530Y262890D01*
X308610Y257810D01*
X303530Y252730D01*
X298450Y257810D01*
X226551Y441262D02*
X231631Y446342D01*
X236711Y441262D01*
X231631Y436182D01*
X226551Y441262D01*
X226689Y365715D02*
X231769Y370795D01*
X236849Y365715D01*
X231769Y360635D01*
X226689Y365715D01*
X127364Y451180D02*
X132444Y456260D01*
X137524Y451180D01*
X132444Y446100D01*
X127364Y451180D01*
X64770Y451843D02*
X69850Y456923D01*
X74930Y451843D01*
X69850Y446763D01*
X64770Y451843D01*
X46007Y537935D02*
X51087Y543015D01*
X56167Y537935D01*
X51087Y532855D01*
X46007Y537935D01*
X154812Y537071D02*
X159892Y542151D01*
X164972Y537071D01*
X159892Y531991D01*
X154812Y537071D01*
X315087Y424182D02*
X320167Y429262D01*
X325247Y424182D01*
X320167Y419102D01*
X315087Y424182D01*
X381000Y433755D02*
X386080Y438835D01*
X391160Y433755D01*
X386080Y428675D01*
X381000Y433755D01*
X318822Y467713D02*
X323902Y472793D01*
X328982Y467713D01*
X323902Y462632D01*
X318822Y467713D01*
X325120Y176530D02*
X330200Y181610D01*
X335280Y176530D01*
X330200Y171450D01*
X325120Y176530D01*
X246380Y187960D02*
X251460Y193040D01*
X256540Y187960D01*
X251460Y182880D01*
X246380Y187960D01*
X396880Y259283D02*
X401959Y264363D01*
X407039Y259283D01*
X401959Y254203D01*
X396880Y259283D01*
X392293Y247029D02*
X397373Y252109D01*
X402453Y247029D01*
X397373Y241949D01*
X392293Y247029D01*
X124533Y423077D02*
X129613Y428157D01*
X134693Y423077D01*
X129613Y417997D01*
X124533Y423077D01*
X196271Y408981D02*
X201351Y414061D01*
X206431Y408981D01*
X201351Y403901D01*
X196271Y408981D01*
X195811Y391542D02*
X200891Y396622D01*
X205971Y391542D01*
X200891Y386462D01*
X195811Y391542D01*
X211219Y396181D02*
X216299Y401261D01*
X221379Y396181D01*
X216299Y391101D01*
X211219Y396181D01*
X203879Y378333D02*
X208959Y383413D01*
X214039Y378333D01*
X208959Y373253D01*
X203879Y378333D01*
X38683Y441193D02*
X43763Y446273D01*
X48843Y441193D01*
X43763Y436113D01*
X38683Y441193D01*
X92456Y82804D02*
X97536Y87884D01*
X102616Y82804D01*
X97536Y77724D01*
X92456Y82804D01*
X542328Y455451D02*
X547408Y460531D01*
X552488Y455451D01*
X547408Y450371D01*
X542328Y455451D01*
X658365Y633196D02*
X663445Y638276D01*
X668525Y633196D01*
X663445Y628116D01*
X658365Y633196D01*
X645456Y452830D02*
X650536Y457910D01*
X655616Y452830D01*
X650536Y447750D01*
X645456Y452830D01*
X555508Y462149D02*
X560588Y467229D01*
X565668Y462149D01*
X560588Y457069D01*
X555508Y462149D01*
X493884Y336757D02*
X498964Y341837D01*
X504044Y336757D01*
X498964Y331676D01*
X493884Y336757D01*
X494030Y472440D02*
X499110Y477520D01*
X504190Y472440D01*
X499110Y467360D01*
X494030Y472440D01*
X530148Y462057D02*
X535228Y467137D01*
X540308Y462057D01*
X535228Y456977D01*
X530148Y462057D01*
X275975Y465320D02*
X281055Y470400D01*
X286135Y465320D01*
X281055Y460239D01*
X275975Y465320D01*
X400539Y498433D02*
X405619Y503513D01*
X410699Y498433D01*
X405619Y493353D01*
X400539Y498433D01*
X426351Y503694D02*
X431431Y508774D01*
X436511Y503694D01*
X431431Y498614D01*
X426351Y503694D01*
X315387Y508638D02*
X320467Y513718D01*
X325547Y508638D01*
X320467Y503558D01*
X315387Y508638D01*
X305396Y497181D02*
X310476Y502261D01*
X315556Y497181D01*
X310476Y492101D01*
X305396Y497181D01*
X236229Y485937D02*
X241309Y491017D01*
X246389Y485937D01*
X241309Y480857D01*
X236229Y485937D01*
X227872Y481996D02*
X232952Y487076D01*
X238032Y481996D01*
X232952Y476916D01*
X227872Y481996D01*
X318770Y450848D02*
X323850Y455928D01*
X328930Y450848D01*
X323850Y445768D01*
X318770Y450848D01*
X709493Y543089D02*
X714573Y548169D01*
X719653Y543089D01*
X714573Y538009D01*
X709493Y543089D01*
X725170Y543114D02*
X730250Y548194D01*
X735330Y543114D01*
X730250Y538034D01*
X725170Y543114D01*
X709493Y705589D02*
X714573Y710669D01*
X719653Y705589D01*
X714573Y700509D01*
X709493Y705589D01*
X725170Y705614D02*
X730250Y710694D01*
X735330Y705614D01*
X730250Y700534D01*
X725170Y705614D01*
X725152Y718118D02*
X730232Y723198D01*
X735312Y718118D01*
X730232Y713038D01*
X725152Y718118D01*
X709475Y718093D02*
X714555Y723173D01*
X719635Y718093D01*
X714555Y713013D01*
X709475Y718093D01*
X716028Y340042D02*
X721108Y345122D01*
X726188Y340042D01*
X721108Y334962D01*
X716028Y340042D01*
X726422Y340018D02*
X731502Y345098D01*
X736582Y340018D01*
X731502Y334938D01*
X726422Y340018D01*
X533132Y200703D02*
X538212Y205783D01*
X543292Y200703D01*
X538212Y195623D01*
X533132Y200703D01*
X539732Y191177D02*
X544812Y196257D01*
X549892Y191177D01*
X544812Y186097D01*
X539732Y191177D01*
X527032D02*
X532112Y196257D01*
X537192Y191177D01*
X532112Y186097D01*
X527032Y191177D01*
X648538Y194109D02*
X653618Y199189D01*
X658698Y194109D01*
X653618Y189029D01*
X648538Y194109D01*
X647293Y145476D02*
X652373Y150556D01*
X657453Y145476D01*
X652373Y140396D01*
X647293Y145476D01*
X639936Y137004D02*
X645016Y142084D01*
X650096Y137004D01*
X645016Y131924D01*
X639936Y137004D01*
X655020Y136986D02*
X660099Y142065D01*
X665180Y136986D01*
X660099Y131905D01*
X655020Y136986D01*
X655038Y124361D02*
X660118Y129441D01*
X665198Y124361D01*
X660118Y119281D01*
X655038Y124361D01*
X639954Y124342D02*
X645034Y129423D01*
X650114Y124342D01*
X645034Y119263D01*
X639954Y124342D01*
X628470Y453362D02*
X633550Y458442D01*
X638630Y453362D01*
X633550Y448282D01*
X628470Y453362D01*
X665811Y473261D02*
X670891Y478341D01*
X675971Y473261D01*
X670891Y468181D01*
X665811Y473261D01*
X426516Y308273D02*
X431596Y313353D01*
X436676Y308273D01*
X431596Y303193D01*
X426516Y308273D01*
X469851Y307890D02*
X474931Y312970D01*
X480011Y307890D01*
X474931Y302810D01*
X469851Y307890D01*
X469918Y290696D02*
X474998Y295776D01*
X480078Y290696D01*
X474998Y285616D01*
X469918Y290696D01*
X469844Y342323D02*
X474924Y347403D01*
X480004Y342323D01*
X474924Y337243D01*
X469844Y342323D01*
X469886Y325163D02*
X474966Y330243D01*
X480046Y325163D01*
X474966Y320083D01*
X469886Y325163D01*
X426476Y360490D02*
X431556Y365570D01*
X436636Y360490D01*
X431556Y355410D01*
X426476Y360490D01*
X427053Y291211D02*
X432133Y296291D01*
X437213Y291211D01*
X432133Y286131D01*
X427053Y291211D01*
X427126Y325000D02*
X432206Y330080D01*
X437286Y325000D01*
X432206Y319920D01*
X427126Y325000D01*
Y342500D02*
X432206Y347580D01*
X437286Y342500D01*
X432206Y337420D01*
X427126Y342500D01*
X226539Y283649D02*
X231619Y288729D01*
X236699Y283649D01*
X231619Y278569D01*
X226539Y283649D01*
X179970Y222588D02*
X185049Y227668D01*
X190130Y222588D01*
X185049Y217508D01*
X179970Y222588D01*
X525435Y244712D02*
X530515Y249792D01*
X535595Y244712D01*
X530515Y239632D01*
X525435Y244712D01*
X455144Y499809D02*
X460224Y504889D01*
X465303Y499809D01*
X460224Y494729D01*
X455144Y499809D01*
X522895Y475662D02*
X527975Y480742D01*
X533055Y475662D01*
X527975Y470582D01*
X522895Y475662D01*
X411874Y444665D02*
X416954Y449745D01*
X422034Y444665D01*
X416954Y439585D01*
X411874Y444665D01*
X444920Y452500D02*
X450000Y457580D01*
X455080Y452500D01*
X450000Y447420D01*
X444920Y452500D01*
X464970Y432500D02*
X470050Y437580D01*
X475130Y432500D01*
X470050Y427420D01*
X464970Y432500D01*
X262462Y339988D02*
X267542Y345068D01*
X272622Y339988D01*
X267542Y334908D01*
X262462Y339988D01*
Y358733D02*
X267542Y363813D01*
X272622Y358733D01*
X267542Y353653D01*
X262462Y358733D01*
Y377478D02*
X267542Y382558D01*
X272622Y377478D01*
X267542Y372398D01*
X262462Y377478D01*
Y396223D02*
X267542Y401303D01*
X272622Y396223D01*
X267542Y391143D01*
X262462Y396223D01*
Y414968D02*
X267542Y420048D01*
X272622Y414968D01*
X267542Y409888D01*
X262462Y414968D01*
Y433713D02*
X267542Y438793D01*
X272622Y433713D01*
X267542Y428633D01*
X262462Y433713D01*
Y452458D02*
X267542Y457538D01*
X272622Y452458D01*
X267542Y447378D01*
X262462Y452458D01*
X444920Y432500D02*
X450000Y437580D01*
X455080Y432500D01*
X450000Y427420D01*
X444920Y432500D01*
X111021Y356075D02*
X116101Y361155D01*
X121181Y356075D01*
X116101Y350995D01*
X111021Y356075D01*
X100679Y355801D02*
X105759Y360881D01*
X110839Y355801D01*
X105759Y350721D01*
X100679Y355801D01*
X100047Y370919D02*
X105127Y375999D01*
X110207Y370919D01*
X105127Y365840D01*
X100047Y370919D01*
X111423Y371196D02*
X116503Y376276D01*
X121583Y371196D01*
X116503Y366116D01*
X111423Y371196D01*
X82278Y455000D02*
X87358Y460080D01*
X92438Y455000D01*
X87358Y449920D01*
X82278Y455000D01*
X737738Y564596D02*
X742818Y569676D01*
X747898Y564596D01*
X742818Y559516D01*
X737738Y564596D01*
Y558816D02*
X742818Y563896D01*
X747898Y558816D01*
X742818Y553736D01*
X737738Y558816D01*
X737953Y614540D02*
X743033Y619620D01*
X748113Y614540D01*
X743033Y609460D01*
X737953Y614540D01*
Y608760D02*
X743033Y613840D01*
X748113Y608760D01*
X743033Y603680D01*
X737953Y608760D01*
Y589814D02*
X743033Y594894D01*
X748113Y589814D01*
X743033Y584734D01*
X737953Y589814D01*
Y584034D02*
X743033Y589114D01*
X748113Y584034D01*
X743033Y578954D01*
X737953Y584034D01*
X92400Y428180D02*
X97480Y433260D01*
X102560Y428180D01*
X97480Y423100D01*
X92400Y428180D01*
X398580Y536592D02*
X403660Y541672D01*
X408740Y536592D01*
X403660Y531512D01*
X398580Y536592D01*
X390577Y528903D02*
X395657Y533983D01*
X400737Y528903D01*
X395657Y523823D01*
X390577Y528903D01*
X282284Y536264D02*
X287364Y541344D01*
X292444Y536264D01*
X287364Y531184D01*
X282284Y536264D01*
X274009Y528903D02*
X279088Y533983D01*
X284168Y528903D01*
X279088Y523823D01*
X274009Y528903D01*
X286047Y627286D02*
X291126Y632366D01*
X296206Y627286D01*
X291126Y622206D01*
X286047Y627286D01*
X420087Y552127D02*
X425167Y557207D01*
X430247Y552127D01*
X425167Y547047D01*
X420087Y552127D01*
X303519D02*
X308598Y557207D01*
X313678Y552127D01*
X308598Y547047D01*
X303519Y552127D01*
X187150Y555005D02*
X192230Y560085D01*
X197311Y555005D01*
X192230Y549925D01*
X187150Y555005D01*
X109022Y518835D02*
X114102Y523915D01*
X119182Y518835D01*
X114102Y513755D01*
X109022Y518835D01*
X70381Y554321D02*
X75462Y559401D01*
X80541Y554321D01*
X75462Y549241D01*
X70381Y554321D01*
X257823Y627122D02*
X262903Y632202D01*
X267983Y627122D01*
X262903Y622042D01*
X257823Y627122D01*
Y615442D02*
X262903Y620522D01*
X267983Y615442D01*
X262903Y610362D01*
X257823Y615442D01*
X187758Y508677D02*
X192838Y513757D01*
X197918Y508677D01*
X192838Y503597D01*
X187758Y508677D01*
X325346Y698754D02*
X330426Y703834D01*
X335506Y698754D01*
X330426Y693674D01*
X325346Y698754D01*
X284892D02*
X289972Y703834D01*
X295052Y698754D01*
X289972Y693674D01*
X284892Y698754D01*
X244892D02*
X249972Y703834D01*
X255052Y698754D01*
X249972Y693674D01*
X244892Y698754D01*
X204892D02*
X209972Y703834D01*
X215052Y698754D01*
X209972Y693674D01*
X204892Y698754D01*
X490304Y575009D02*
X495384Y580089D01*
X500464Y575009D01*
X495384Y569929D01*
X490304Y575009D01*
X484773Y583463D02*
X489853Y588543D01*
X494933Y583463D01*
X489853Y578383D01*
X484773Y583463D01*
X473712D02*
X478792Y588543D01*
X483872Y583463D01*
X478792Y578383D01*
X473712Y583463D01*
X479243Y575009D02*
X484323Y580089D01*
X489403Y575009D01*
X484323Y569929D01*
X479243Y575009D01*
X468181D02*
X473261Y580089D01*
X478341Y575009D01*
X473261Y569929D01*
X468181Y575009D01*
X413686Y626424D02*
X418766Y631504D01*
X423846Y626424D01*
X418766Y621344D01*
X413686Y626424D01*
X446870D02*
X451950Y631504D01*
X457030Y626424D01*
X451950Y621344D01*
X446870Y626424D01*
X441339Y634878D02*
X446419Y639958D01*
X451499Y634878D01*
X446419Y629798D01*
X441339Y634878D01*
X430278D02*
X435358Y639958D01*
X440438Y634878D01*
X435358Y629798D01*
X430278Y634878D01*
X435808Y626424D02*
X440888Y631504D01*
X445969Y626424D01*
X440888Y621344D01*
X435808Y626424D01*
X419217Y634878D02*
X424297Y639958D01*
X429377Y634878D01*
X424297Y629798D01*
X419217Y634878D01*
X424747Y626424D02*
X429827Y631504D01*
X434907Y626424D01*
X429827Y621344D01*
X424747Y626424D01*
X123243Y571528D02*
X128323Y576608D01*
X133403Y571528D01*
X128323Y566448D01*
X123243Y571528D01*
X156427D02*
X161507Y576608D01*
X166587Y571528D01*
X161507Y566448D01*
X156427Y571528D01*
X150896Y579981D02*
X155976Y585061D01*
X161056Y579981D01*
X155976Y574901D01*
X150896Y579981D01*
X139835D02*
X144915Y585061D01*
X149995Y579981D01*
X144915Y574901D01*
X139835Y579981D01*
X145366Y571528D02*
X150446Y576608D01*
X155526Y571528D01*
X150446Y566448D01*
X145366Y571528D01*
X128774Y579981D02*
X133854Y585061D01*
X138934Y579981D01*
X133854Y574901D01*
X128774Y579981D01*
X134305Y571528D02*
X139384Y576608D01*
X144465Y571528D01*
X139384Y566448D01*
X134305Y571528D01*
X239812D02*
X244892Y576608D01*
X249972Y571528D01*
X244892Y566448D01*
X239812Y571528D01*
X272995D02*
X278075Y576608D01*
X283155Y571528D01*
X278075Y566448D01*
X272995Y571528D01*
X267465Y579981D02*
X272545Y585061D01*
X277625Y579981D01*
X272545Y574901D01*
X267465Y579981D01*
X256404D02*
X261484Y585061D01*
X266564Y579981D01*
X261484Y574901D01*
X256404Y579981D01*
X261934Y571528D02*
X267014Y576608D01*
X272094Y571528D01*
X267014Y566448D01*
X261934Y571528D01*
X245342Y579981D02*
X250422Y585061D01*
X255502Y579981D01*
X250422Y574901D01*
X245342Y579981D01*
X250873Y571528D02*
X255953Y576608D01*
X261033Y571528D01*
X255953Y566448D01*
X250873Y571528D01*
X367441D02*
X372522Y576608D01*
X377602Y571528D01*
X372522Y566448D01*
X367441Y571528D01*
X361911Y579981D02*
X366991Y585061D01*
X372071Y579981D01*
X366991Y574901D01*
X361911Y579981D01*
X378503Y571528D02*
X383583Y576608D01*
X388663Y571528D01*
X383583Y566448D01*
X378503Y571528D01*
X372972Y579981D02*
X378052Y585061D01*
X383132Y579981D01*
X378052Y574901D01*
X372972Y579981D01*
X384033D02*
X389113Y585061D01*
X394193Y579981D01*
X389113Y574901D01*
X384033Y579981D01*
X389564Y571528D02*
X394644Y576608D01*
X399724Y571528D01*
X394644Y566448D01*
X389564Y571528D01*
X356380D02*
X361460Y576608D01*
X366540Y571528D01*
X361460Y566448D01*
X356380Y571528D01*
X345948Y624078D02*
X351028Y629158D01*
X356108Y624078D01*
X351028Y618998D01*
X345948Y624078D01*
X318098Y624321D02*
X323178Y629401D01*
X328258Y624321D01*
X323178Y619241D01*
X318098Y624321D01*
X331726D02*
X336805Y629401D01*
X341885Y624321D01*
X336805Y619241D01*
X331726Y624321D01*
X211838Y620360D02*
X216918Y625440D01*
X221998Y620360D01*
X216918Y615280D01*
X211838Y620360D01*
X201413D02*
X206493Y625440D01*
X211573Y620360D01*
X206493Y615280D01*
X201413Y620360D01*
X190987D02*
X196067Y625440D01*
X201147Y620360D01*
X196067Y615280D01*
X190987Y620360D01*
X142048Y621407D02*
X147128Y626487D01*
X152208Y621407D01*
X147128Y616327D01*
X142048Y621407D01*
X134637Y632884D02*
X139717Y637964D01*
X144797Y632884D01*
X139717Y627804D01*
X134637Y632884D01*
X135655Y663737D02*
X140735Y668817D01*
X145815Y663737D01*
X140735Y658657D01*
X135655Y663737D01*
X441344Y668884D02*
X446424Y673964D01*
X451504Y668884D01*
X446424Y663804D01*
X441344Y668884D01*
Y704444D02*
X446424Y709524D01*
X451504Y704444D01*
X446424Y699364D01*
X441344Y704444D01*
X449708Y740040D02*
X454788Y745120D01*
X459868Y740040D01*
X454788Y734960D01*
X449708Y740040D01*
Y775600D02*
X454788Y780680D01*
X459868Y775600D01*
X454788Y770520D01*
X449708Y775600D01*
X401640Y669102D02*
X406720Y674182D01*
X411800Y669102D01*
X406720Y664022D01*
X401640Y669102D01*
X83932Y233442D02*
X89012Y238522D01*
X94092Y233442D01*
X89012Y228362D01*
X83932Y233442D01*
X89520Y339692D02*
X94600Y344772D01*
X99680Y339692D01*
X94600Y334612D01*
X89520Y339692D01*
X47752Y608584D02*
X52832Y613664D01*
X57912Y608584D01*
X52832Y603504D01*
X47752Y608584D01*
Y618490D02*
X52832Y623570D01*
X57912Y618490D01*
X52832Y613410D01*
X47752Y618490D01*
X47228Y647528D02*
X52308Y652608D01*
X57388Y647528D01*
X52308Y642448D01*
X47228Y647528D01*
X40508Y637622D02*
X45588Y642702D01*
X50668Y637622D01*
X45588Y632542D01*
X40508Y637622D01*
X47426Y732533D02*
X52506Y737613D01*
X57586Y732533D01*
X52506Y727453D01*
X47426Y732533D01*
X40706Y722627D02*
X45786Y727707D01*
X50866Y722627D01*
X45786Y717547D01*
X40706Y722627D01*
X666496Y518922D02*
X671576Y524002D01*
X676656Y518922D01*
X671576Y513842D01*
X666496Y518922D01*
X676779Y633196D02*
X681860Y638276D01*
X686939Y633196D01*
X681860Y628116D01*
X676779Y633196D01*
X640201D02*
X645281Y638276D01*
X650360Y633196D01*
X645281Y628116D01*
X640201Y633196D01*
X567105Y633515D02*
X572185Y638595D01*
X577265Y633515D01*
X572185Y628435D01*
X567105Y633515D01*
X585301Y609470D02*
X590381Y614550D01*
X595461Y609470D01*
X590381Y604390D01*
X585301Y609470D01*
X621942Y609098D02*
X627022Y614178D01*
X632102Y609098D01*
X627022Y604018D01*
X621942Y609098D01*
X666010Y586705D02*
X671090Y591785D01*
X676170Y586705D01*
X671090Y581625D01*
X666010Y586705D01*
X557190Y496759D02*
X562270Y501839D01*
X567350Y496759D01*
X562270Y491679D01*
X557190Y496759D01*
X493573Y546862D02*
X498653Y551942D01*
X503733Y546862D01*
X498653Y541782D01*
X493573Y546862D01*
X483404D02*
X488484Y551942D01*
X493564Y546862D01*
X488484Y541782D01*
X483404Y546862D01*
X473236D02*
X478316Y551942D01*
X483396Y546862D01*
X478316Y541782D01*
X473236Y546862D01*
X350998D02*
X356078Y551942D01*
X361158Y546862D01*
X356078Y541782D01*
X350998Y546862D01*
X361548D02*
X366628Y551942D01*
X371708Y546862D01*
X366628Y541782D01*
X361548Y546862D01*
X372097D02*
X377177Y551942D01*
X382257Y546862D01*
X377177Y541782D01*
X372097Y546862D01*
X382646D02*
X387726Y551942D01*
X392806Y546862D01*
X387726Y541782D01*
X382646Y546862D01*
X234430D02*
X239510Y551942D01*
X244590Y546862D01*
X239510Y541782D01*
X234430Y546862D01*
X244979D02*
X250059Y551942D01*
X255139Y546862D01*
X250059Y541782D01*
X244979Y546862D01*
X255529D02*
X260609Y551942D01*
X265689Y546862D01*
X260609Y541782D01*
X255529Y546862D01*
X266078D02*
X271158Y551942D01*
X276238Y546862D01*
X271158Y541782D01*
X266078Y546862D01*
X117861D02*
X122942Y551942D01*
X128021Y546862D01*
X122942Y541782D01*
X117861Y546862D01*
X128411D02*
X133491Y551942D01*
X138571Y546862D01*
X133491Y541782D01*
X128411Y546862D01*
X138960D02*
X144040Y551942D01*
X149120Y546862D01*
X144040Y541782D01*
X138960Y546862D01*
X170608D02*
X175688Y551942D01*
X180768Y546862D01*
X175688Y541782D01*
X170608Y546862D01*
X204892Y648624D02*
X209972Y653705D01*
X215052Y648624D01*
X209972Y643544D01*
X204892Y648624D01*
X434619Y538718D02*
X439699Y543798D01*
X444779Y538718D01*
X439699Y533638D01*
X434619Y538718D01*
X317796Y538973D02*
X322876Y544053D01*
X327956Y538973D01*
X322876Y533893D01*
X317796Y538973D01*
X85929Y538718D02*
X91009Y543798D01*
X96089Y538718D01*
X91009Y533638D01*
X85929Y538718D01*
X95171D02*
X100252Y543798D01*
X105331Y538718D01*
X100252Y533638D01*
X95171Y538718D01*
X211740D02*
X216820Y543798D01*
X221900Y538718D01*
X216820Y533638D01*
X211740Y538718D01*
X202498D02*
X207578Y543798D01*
X212658Y538718D01*
X207578Y533638D01*
X202498Y538718D01*
X233934Y518617D02*
X239014Y523697D01*
X244094Y518617D01*
X239014Y513537D01*
X233934Y518617D01*
X120585Y692253D02*
X125665Y697333D01*
X130745Y692253D01*
X125665Y687172D01*
X120585Y692253D01*
X40698Y528903D02*
X45778Y533983D01*
X50858Y528903D01*
X45778Y523823D01*
X40698Y528903D01*
X542233Y546315D02*
X547313Y551395D01*
X552393Y546315D01*
X547313Y541235D01*
X542233Y546315D01*
X665264Y545689D02*
X670344Y550769D01*
X675424Y545689D01*
X670344Y540609D01*
X665264Y545689D01*
X614920Y651500D02*
X620000Y656580D01*
X625080Y651500D01*
X620000Y646420D01*
X614920Y651500D01*
X534920Y673595D02*
X540000Y678675D01*
X545080Y673595D01*
X540000Y668515D01*
X534920Y673595D01*
Y651500D02*
X540000Y656580D01*
X545080Y651500D01*
X540000Y646420D01*
X534920Y651500D01*
X51308Y134366D02*
X56388Y139446D01*
X61468Y134366D01*
X56388Y129286D01*
X51308Y134366D01*
X92456Y103497D02*
X97536Y108576D01*
X102616Y103497D01*
X97536Y98417D01*
X92456Y103497D01*
X350418Y513937D02*
X355498Y519017D01*
X360578Y513937D01*
X355498Y508857D01*
X350418Y513937D01*
X548740Y633555D02*
X553820Y638635D01*
X558900Y633555D01*
X553820Y628475D01*
X548740Y633555D01*
X483711Y520917D02*
X488791Y525997D01*
X493871Y520917D01*
X488791Y515837D01*
X483711Y520917D01*
X138430Y645471D02*
X143510Y650551D01*
X148590Y645471D01*
X143510Y640391D01*
X138430Y645471D01*
X324920Y676500D02*
X330000Y681580D01*
X335080Y676500D01*
X330000Y671420D01*
X324920Y676500D01*
X284920D02*
X290000Y681580D01*
X295080Y676500D01*
X290000Y671420D01*
X284920Y676500D01*
X244920D02*
X250000Y681580D01*
X255080Y676500D01*
X250000Y671420D01*
X244920Y676500D01*
X204920D02*
X210000Y681580D01*
X215080Y676500D01*
X210000Y671420D01*
X204920Y676500D01*
X139567Y722630D02*
X144647Y727710D01*
X149727Y722630D01*
X144647Y717550D01*
X139567Y722630D01*
Y736953D02*
X144647Y742033D01*
X149727Y736953D01*
X144647Y731873D01*
X139567Y736953D01*
Y750570D02*
X144647Y755650D01*
X149727Y750570D01*
X144647Y745490D01*
X139567Y750570D01*
X129363Y757301D02*
X134443Y762381D01*
X139523Y757301D01*
X134443Y752221D01*
X129363Y757301D01*
X139567Y762000D02*
X144647Y767080D01*
X149727Y762000D01*
X144647Y756920D01*
X139567Y762000D01*
X129146Y682041D02*
X134226Y687121D01*
X139306Y682041D01*
X134226Y676961D01*
X129146Y682041D01*
X515279Y678786D02*
X520359Y683866D01*
X525439Y678786D01*
X520359Y673706D01*
X515279Y678786D01*
X554856Y673595D02*
X559936Y678675D01*
X565016Y673595D01*
X559936Y668515D01*
X554856Y673595D01*
X594880Y673453D02*
X599961Y678533D01*
X605041Y673453D01*
X599961Y668373D01*
X594880Y673453D01*
X634828Y679047D02*
X639908Y684127D01*
X644988Y679047D01*
X639908Y673967D01*
X634828Y679047D01*
X114300Y433252D02*
X119380Y438332D01*
X124460Y433252D01*
X119380Y428172D01*
X114300Y433252D01*
X92400Y457200D02*
X97480Y462280D01*
X102560Y457200D01*
X97480Y452120D01*
X92400Y457200D01*
X77301Y509548D02*
X82381Y514627D01*
X87461Y509548D01*
X82381Y504468D01*
X77301Y509548D01*
X254040Y517453D02*
X259120Y522533D01*
X264200Y517453D01*
X259120Y512373D01*
X254040Y517453D01*
X225427Y511637D02*
X230507Y516717D01*
X235587Y511637D01*
X230507Y506557D01*
X225427Y511637D01*
X64187Y538260D02*
X69267Y543340D01*
X74347Y538260D01*
X69267Y533180D01*
X64187Y538260D01*
X446278Y558292D02*
X451358Y563372D01*
X456438Y558292D01*
X451358Y553212D01*
X446278Y558292D01*
X329692Y558800D02*
X334772Y563880D01*
X339852Y558800D01*
X334772Y553720D01*
X329692Y558800D01*
X212598Y559054D02*
X217678Y564134D01*
X222758Y559054D01*
X217678Y553974D01*
X212598Y559054D01*
X95763Y559705D02*
X100843Y564785D01*
X105923Y559705D01*
X100843Y554625D01*
X95763Y559705D01*
X413395Y538249D02*
X418475Y543329D01*
X423555Y538249D01*
X418475Y533169D01*
X413395Y538249D01*
X418688Y533337D02*
X423768Y538417D01*
X428848Y533337D01*
X423768Y528257D01*
X418688Y533337D01*
X298066Y538163D02*
X303146Y543243D01*
X308226Y538163D01*
X303146Y533083D01*
X298066Y538163D01*
X302120Y533337D02*
X307199Y538417D01*
X312279Y533337D01*
X307199Y528257D01*
X302120Y533337D01*
X435377Y531834D02*
X440457Y536914D01*
X445537Y531834D01*
X440457Y526754D01*
X435377Y531834D01*
X444877D02*
X449957Y536914D01*
X455037Y531834D01*
X449957Y526754D01*
X444877Y531834D01*
X318809D02*
X323889Y536914D01*
X328969Y531834D01*
X323889Y526754D01*
X318809Y531834D01*
X328308D02*
X333388Y536914D01*
X338469Y531834D01*
X333388Y526754D01*
X328308Y531834D01*
X202240D02*
X207320Y536914D01*
X212400Y531834D01*
X207320Y526754D01*
X202240Y531834D01*
X211740D02*
X216820Y536914D01*
X221900Y531834D01*
X216820Y526754D01*
X211740Y531834D01*
X190319Y533411D02*
X195399Y538491D01*
X200479Y533411D01*
X195399Y528331D01*
X190319Y533411D01*
X65420Y690302D02*
X70500Y695381D01*
X75580Y690302D01*
X70500Y685221D01*
X65420Y690302D01*
X68983Y533337D02*
X74062Y538417D01*
X79142Y533337D01*
X74062Y528257D01*
X68983Y533337D01*
X95171Y531834D02*
X100252Y536914D01*
X105331Y531834D01*
X100252Y526754D01*
X95171Y531834D01*
X85672D02*
X90752Y536914D01*
X95832Y531834D01*
X90752Y526754D01*
X85672Y531834D01*
X182250Y538295D02*
X187330Y543375D01*
X192411Y538295D01*
X187330Y533215D01*
X182250Y538295D01*
X325374Y650250D02*
X330454Y655330D01*
X335534Y650250D01*
X330454Y645170D01*
X325374Y650250D01*
X87908Y515981D02*
X92988Y521061D01*
X98068Y515981D01*
X92988Y510901D01*
X87908Y515981D01*
X97819Y513739D02*
X102899Y518819D01*
X107979Y513739D01*
X102899Y508659D01*
X97819Y513739D01*
X204477Y515981D02*
X209557Y521061D01*
X214637Y515981D01*
X209557Y510901D01*
X204477Y515981D01*
X214388Y513739D02*
X219468Y518819D01*
X224548Y513739D01*
X219468Y508659D01*
X214388Y513739D01*
X321045Y515981D02*
X326125Y521061D01*
X331205Y515981D01*
X326125Y510901D01*
X321045Y515981D01*
X343465Y509267D02*
X348545Y514347D01*
X353625Y509267D01*
X348545Y504187D01*
X343465Y509267D01*
X330956Y513739D02*
X336036Y518819D01*
X341116Y513739D01*
X336036Y508659D01*
X330956Y513739D01*
X437443Y499936D02*
X442523Y505016D01*
X447603Y499936D01*
X442523Y494856D01*
X437443Y499936D01*
X448000Y514849D02*
X453080Y519929D01*
X458160Y514849D01*
X453080Y509769D01*
X448000Y514849D01*
X442635Y507438D02*
X447715Y512518D01*
X452795Y507438D01*
X447715Y502358D01*
X442635Y507438D01*
X837045Y8881D02*
X842125Y13961D01*
X847205Y8881D01*
X842125Y3801D01*
X837045Y8881D01*
X828802Y6347D02*
X833882Y11427D01*
X838962Y6347D01*
X833882Y1267D01*
X828802Y6347D01*
X817118Y6858D02*
X822198Y11938D01*
X827278Y6858D01*
X822198Y1778D01*
X817118Y6858D01*
X941Y795118D02*
X6021Y800198D01*
X11101Y795118D01*
X6021Y790038D01*
X941Y795118D01*
X790140Y844373D02*
X795220Y849453D01*
X800300Y844373D01*
X795220Y839293D01*
X790140Y844373D01*
X801203Y844220D02*
X806283Y849300D01*
X811363Y844220D01*
X806283Y839140D01*
X801203Y844220D01*
X839739Y795831D02*
X844819Y800911D01*
X849899Y795831D01*
X844819Y790751D01*
X839739Y795831D01*
X839724Y806704D02*
X844804Y811784D01*
X849884Y806704D01*
X844804Y801624D01*
X839724Y806704D01*
X838540Y496780D02*
X843620Y501860D01*
X848700Y496780D01*
X843620Y491699D01*
X838540Y496780D01*
Y486780D02*
X843620Y491860D01*
X848700Y486780D01*
X843620Y481699D01*
X838540Y486780D01*
X715777Y6379D02*
X720856Y11459D01*
X725937Y6379D01*
X720856Y1299D01*
X715777Y6379D01*
X705777D02*
X710856Y11459D01*
X715937Y6379D01*
X710856Y1299D01*
X705777Y6379D01*
X125778D02*
X130858Y11459D01*
X135938Y6379D01*
X130858Y1299D01*
X125778Y6379D01*
X1306Y195503D02*
X6386Y200583D01*
X11466Y195503D01*
X6386Y190423D01*
X1306Y195503D01*
Y205503D02*
X6386Y210583D01*
X11466Y205503D01*
X6386Y200423D01*
X1306Y205503D01*
Y675502D02*
X6386Y680582D01*
X11466Y675502D01*
X6386Y670422D01*
X1306Y675502D01*
Y415503D02*
X6386Y420583D01*
X11466Y415503D01*
X6386Y410423D01*
X1306Y415503D01*
Y235503D02*
X6386Y240583D01*
X11466Y235503D01*
X6386Y230423D01*
X1306Y235503D01*
Y245503D02*
X6386Y250583D01*
X11466Y245503D01*
X6386Y240423D01*
X1306Y245503D01*
X591242Y843614D02*
X596322Y848694D01*
X601402Y843614D01*
X596322Y838534D01*
X591242Y843614D01*
X838540Y236780D02*
X843620Y241860D01*
X848700Y236780D01*
X843620Y231700D01*
X838540Y236780D01*
X1306Y475503D02*
X6386Y480583D01*
X11466Y475503D01*
X6386Y470423D01*
X1306Y475503D01*
Y215503D02*
X6386Y220583D01*
X11466Y215503D01*
X6386Y210423D01*
X1306Y215503D01*
Y375503D02*
X6386Y380583D01*
X11466Y375503D01*
X6386Y370423D01*
X1306Y375503D01*
Y115503D02*
X6386Y120583D01*
X11466Y115503D01*
X6386Y110423D01*
X1306Y115503D01*
Y655502D02*
X6386Y660582D01*
X11466Y655502D01*
X6386Y650422D01*
X1306Y655502D01*
X135778Y6379D02*
X140858Y11459D01*
X145938Y6379D01*
X140858Y1299D01*
X135778Y6379D01*
X511242Y843614D02*
X516322Y848694D01*
X521402Y843614D01*
X516322Y838534D01*
X511242Y843614D01*
X838540Y386780D02*
X843620Y391860D01*
X848700Y386780D01*
X843620Y381700D01*
X838540Y386780D01*
X215777Y6379D02*
X220858Y11459D01*
X225938Y6379D01*
X220858Y1299D01*
X215777Y6379D01*
X1306Y25503D02*
X6386Y30584D01*
X11466Y25503D01*
X6386Y20424D01*
X1306Y25503D01*
X85778Y6379D02*
X90858Y11459D01*
X95938Y6379D01*
X90858Y1299D01*
X85778Y6379D01*
X1306Y325503D02*
X6386Y330583D01*
X11466Y325503D01*
X6386Y320423D01*
X1306Y325503D01*
X751241Y843614D02*
X756321Y848694D01*
X761401Y843614D01*
X756321Y838534D01*
X751241Y843614D01*
X111243D02*
X116323Y848694D01*
X121403Y843614D01*
X116323Y838534D01*
X111243Y843614D01*
X115778Y6379D02*
X120858Y11459D01*
X125938Y6379D01*
X120858Y1299D01*
X115778Y6379D01*
X838540Y636779D02*
X843620Y641859D01*
X848700Y636779D01*
X843620Y631699D01*
X838540Y636779D01*
X805776Y6379D02*
X810856Y11459D01*
X815936Y6379D01*
X810856Y1299D01*
X805776Y6379D01*
X471242Y843614D02*
X476322Y848694D01*
X481402Y843614D01*
X476322Y838534D01*
X471242Y843614D01*
X838540Y766779D02*
X843620Y771859D01*
X848700Y766779D01*
X843620Y761699D01*
X838540Y766779D01*
Y96780D02*
X843620Y101860D01*
X848700Y96780D01*
X843620Y91700D01*
X838540Y96780D01*
X305777Y6379D02*
X310857Y11459D01*
X315937Y6379D01*
X310857Y1299D01*
X305777Y6379D01*
X221243Y843614D02*
X226322Y848694D01*
X231402Y843614D01*
X226322Y838534D01*
X221243Y843614D01*
X1306Y685502D02*
X6386Y690582D01*
X11466Y685502D01*
X6386Y680422D01*
X1306Y685502D01*
X141243Y843614D02*
X146323Y848694D01*
X151403Y843614D01*
X146323Y838534D01*
X141243Y843614D01*
X1306Y285503D02*
X6386Y290583D01*
X11466Y285503D01*
X6386Y280423D01*
X1306Y285503D01*
X838540Y136780D02*
X843620Y141860D01*
X848700Y136780D01*
X843620Y131700D01*
X838540Y136780D01*
X31243Y843614D02*
X36323Y848694D01*
X41403Y843614D01*
X36323Y838534D01*
X31243Y843614D01*
X838540Y836779D02*
X843620Y841859D01*
X848700Y836779D01*
X843620Y831699D01*
X838540Y836779D01*
Y76780D02*
X843620Y81860D01*
X848700Y76780D01*
X843620Y71700D01*
X838540Y76780D01*
X821241Y843614D02*
X826321Y848694D01*
X831401Y843614D01*
X826321Y838534D01*
X821241Y843614D01*
X838540Y676779D02*
X843620Y681859D01*
X848700Y676779D01*
X843620Y671699D01*
X838540Y676779D01*
X575777Y6379D02*
X580857Y11459D01*
X585937Y6379D01*
X580857Y1299D01*
X575777Y6379D01*
X1306Y555503D02*
X6386Y560583D01*
X11466Y555503D01*
X6386Y550423D01*
X1306Y555503D01*
X675777Y6379D02*
X680857Y11459D01*
X685937Y6379D01*
X680857Y1299D01*
X675777Y6379D01*
X838540Y716779D02*
X843620Y721859D01*
X848700Y716779D01*
X843620Y711699D01*
X838540Y716779D01*
Y656779D02*
X843620Y661859D01*
X848700Y656779D01*
X843620Y651699D01*
X838540Y656779D01*
X5780Y6560D02*
X10860Y11640D01*
X15940Y6560D01*
X10860Y1480D01*
X5780Y6560D01*
X201243Y843614D02*
X206322Y848694D01*
X211402Y843614D01*
X206322Y838534D01*
X201243Y843614D01*
X405777Y6379D02*
X410857Y11459D01*
X415937Y6379D01*
X410857Y1299D01*
X405777Y6379D01*
X838540Y696779D02*
X843620Y701859D01*
X848700Y696779D01*
X843620Y691699D01*
X838540Y696779D01*
X441242Y843614D02*
X446322Y848694D01*
X451402Y843614D01*
X446322Y838534D01*
X441242Y843614D01*
X35778Y6379D02*
X40858Y11459D01*
X45938Y6379D01*
X40858Y1299D01*
X35778Y6379D01*
X701242Y843614D02*
X706321Y848694D01*
X711402Y843614D01*
X706321Y838534D01*
X701242Y843614D01*
X795776Y6379D02*
X800856Y11459D01*
X805936Y6379D01*
X800856Y1299D01*
X795776Y6379D01*
X1306Y315503D02*
X6386Y320583D01*
X11466Y315503D01*
X6386Y310423D01*
X1306Y315503D01*
X838540Y826779D02*
X843620Y831859D01*
X848700Y826779D01*
X843620Y821699D01*
X838540Y826779D01*
X745777Y6379D02*
X750856Y11459D01*
X755937Y6379D01*
X750856Y1299D01*
X745777Y6379D01*
X515777D02*
X520857Y11459D01*
X525937Y6379D01*
X520857Y1299D01*
X515777Y6379D01*
X838540Y606779D02*
X843620Y611859D01*
X848700Y606779D01*
X843620Y601699D01*
X838540Y606779D01*
Y546779D02*
X843620Y551859D01*
X848700Y546779D01*
X843620Y541699D01*
X838540Y546779D01*
Y56780D02*
X843620Y61860D01*
X848700Y56780D01*
X843620Y51700D01*
X838540Y56780D01*
X685777Y6379D02*
X690857Y11459D01*
X695937Y6379D01*
X690857Y1299D01*
X685777Y6379D01*
X1306Y55504D02*
X6386Y60584D01*
X11466Y55504D01*
X6386Y50423D01*
X1306Y55504D01*
X295777Y6379D02*
X300857Y11459D01*
X305937Y6379D01*
X300857Y1299D01*
X295777Y6379D01*
X621242Y843614D02*
X626322Y848694D01*
X631402Y843614D01*
X626322Y838534D01*
X621242Y843614D01*
X838540Y446780D02*
X843620Y451860D01*
X848700Y446780D01*
X843620Y441700D01*
X838540Y446780D01*
Y376780D02*
X843620Y381860D01*
X848700Y376780D01*
X843620Y371700D01*
X838540Y376780D01*
Y326780D02*
X843620Y331860D01*
X848700Y326780D01*
X843620Y321700D01*
X838540Y326780D01*
Y286780D02*
X843620Y291860D01*
X848700Y286780D01*
X843620Y281700D01*
X838540Y286780D01*
X1306Y495503D02*
X6386Y500583D01*
X11466Y495503D01*
X6386Y490423D01*
X1306Y495503D01*
X838540Y256780D02*
X843620Y261860D01*
X848700Y256780D01*
X843620Y251700D01*
X838540Y256780D01*
X71243Y843614D02*
X76323Y848694D01*
X81403Y843614D01*
X76323Y838534D01*
X71243Y843614D01*
X191243D02*
X196322Y848694D01*
X201402Y843614D01*
X196322Y838534D01*
X191243Y843614D01*
X265777Y6379D02*
X270857Y11459D01*
X275937Y6379D01*
X270857Y1299D01*
X265777Y6379D01*
X1306Y65504D02*
X6386Y70584D01*
X11466Y65504D01*
X6386Y60423D01*
X1306Y65504D01*
X525777Y6379D02*
X530857Y11459D01*
X535937Y6379D01*
X530857Y1299D01*
X525777Y6379D01*
X1306Y505503D02*
X6386Y510583D01*
X11466Y505503D01*
X6386Y500423D01*
X1306Y505503D01*
X51243Y843614D02*
X56323Y848694D01*
X61403Y843614D01*
X56323Y838534D01*
X51243Y843614D01*
X761241D02*
X766321Y848694D01*
X771401Y843614D01*
X766321Y838534D01*
X761241Y843614D01*
X565777Y6379D02*
X570857Y11459D01*
X575937Y6379D01*
X570857Y1299D01*
X565777Y6379D01*
X838540Y666779D02*
X843620Y671859D01*
X848700Y666779D01*
X843620Y661699D01*
X838540Y666779D01*
X55778Y6379D02*
X60858Y11459D01*
X65938Y6379D01*
X60858Y1299D01*
X55778Y6379D01*
X838540Y536779D02*
X843620Y541859D01*
X848700Y536779D01*
X843620Y531699D01*
X838540Y536779D01*
X1306Y345503D02*
X6386Y350583D01*
X11466Y345503D01*
X6386Y340423D01*
X1306Y345503D01*
X838540Y396780D02*
X843620Y401860D01*
X848700Y396780D01*
X843620Y391700D01*
X838540Y396780D01*
X1306Y295503D02*
X6386Y300583D01*
X11466Y295503D01*
X6386Y290423D01*
X1306Y295503D01*
X661242Y843614D02*
X666322Y848694D01*
X671402Y843614D01*
X666322Y838534D01*
X661242Y843614D01*
X185778Y6379D02*
X190858Y11459D01*
X195938Y6379D01*
X190858Y1299D01*
X185778Y6379D01*
X1306Y365503D02*
X6386Y370583D01*
X11466Y365503D01*
X6386Y360423D01*
X1306Y365503D01*
X251242Y843614D02*
X256322Y848694D01*
X261402Y843614D01*
X256322Y838534D01*
X251242Y843614D01*
X401242D02*
X406322Y848694D01*
X411402Y843614D01*
X406322Y838534D01*
X401242Y843614D01*
X838540Y106780D02*
X843620Y111860D01*
X848700Y106780D01*
X843620Y101700D01*
X838540Y106780D01*
X1306Y445503D02*
X6386Y450583D01*
X11466Y445503D01*
X6386Y440423D01*
X1306Y445503D01*
X355777Y6379D02*
X360857Y11459D01*
X365937Y6379D01*
X360857Y1299D01*
X355777Y6379D01*
X838540Y26781D02*
X843620Y31860D01*
X848700Y26781D01*
X843620Y21700D01*
X838540Y26781D01*
X635777Y6379D02*
X640857Y11459D01*
X645937Y6379D01*
X640857Y1299D01*
X635777Y6379D01*
X1306Y145503D02*
X6386Y150583D01*
X11466Y145503D01*
X6386Y140423D01*
X1306Y145503D01*
Y135503D02*
X6386Y140583D01*
X11466Y135503D01*
X6386Y130423D01*
X1306Y135503D01*
X641242Y843614D02*
X646322Y848694D01*
X651402Y843614D01*
X646322Y838534D01*
X641242Y843614D01*
X1306Y75503D02*
X6386Y80583D01*
X11466Y75503D01*
X6386Y70423D01*
X1306Y75503D01*
Y805502D02*
X6386Y810582D01*
X11466Y805502D01*
X6386Y800422D01*
X1306Y805502D01*
Y515503D02*
X6386Y520583D01*
X11466Y515503D01*
X6386Y510423D01*
X1306Y515503D01*
Y725502D02*
X6386Y730582D01*
X11466Y725502D01*
X6386Y720422D01*
X1306Y725502D01*
Y395503D02*
X6386Y400583D01*
X11466Y395503D01*
X6386Y390423D01*
X1306Y395503D01*
X231242Y843614D02*
X236322Y848694D01*
X241402Y843614D01*
X236322Y838534D01*
X231242Y843614D01*
X838540Y36780D02*
X843620Y41860D01*
X848700Y36780D01*
X843620Y31700D01*
X838540Y36780D01*
X1306Y105503D02*
X6386Y110583D01*
X11466Y105503D01*
X6386Y100423D01*
X1306Y105503D01*
Y155503D02*
X6386Y160583D01*
X11466Y155503D01*
X6386Y150423D01*
X1306Y155503D01*
X175778Y6379D02*
X180858Y11459D01*
X185938Y6379D01*
X180858Y1299D01*
X175778Y6379D01*
X1306Y605502D02*
X6386Y610582D01*
X11466Y605502D01*
X6386Y600422D01*
X1306Y605502D01*
X161243Y843614D02*
X166323Y848694D01*
X171403Y843614D01*
X166323Y838534D01*
X161243Y843614D01*
X561242D02*
X566322Y848694D01*
X571402Y843614D01*
X566322Y838534D01*
X561242Y843614D01*
X838540Y516780D02*
X843620Y521860D01*
X848700Y516780D01*
X843620Y511699D01*
X838540Y516780D01*
X1306Y15504D02*
X6386Y20584D01*
X11466Y15504D01*
X6386Y10424D01*
X1306Y15504D01*
Y265503D02*
X6386Y270583D01*
X11466Y265503D01*
X6386Y260423D01*
X1306Y265503D01*
X485777Y6379D02*
X490857Y11459D01*
X495937Y6379D01*
X490857Y1299D01*
X485777Y6379D01*
X838540Y46780D02*
X843620Y51860D01*
X848700Y46780D01*
X843620Y41700D01*
X838540Y46780D01*
X461242Y843614D02*
X466322Y848694D01*
X471402Y843614D01*
X466322Y838534D01*
X461242Y843614D01*
X1306Y45504D02*
X6386Y50584D01*
X11466Y45504D01*
X6386Y40423D01*
X1306Y45504D01*
X631242Y843614D02*
X636322Y848694D01*
X641402Y843614D01*
X636322Y838534D01*
X631242Y843614D01*
X781241D02*
X786321Y848694D01*
X791401Y843614D01*
X786321Y838534D01*
X781241Y843614D01*
X838540Y596779D02*
X843620Y601859D01*
X848700Y596779D01*
X843620Y591699D01*
X838540Y596779D01*
Y816779D02*
X843620Y821859D01*
X848700Y816779D01*
X843620Y811699D01*
X838540Y816779D01*
X451242Y843614D02*
X456322Y848694D01*
X461402Y843614D01*
X456322Y838534D01*
X451242Y843614D01*
X721242D02*
X726321Y848694D01*
X731402Y843614D01*
X726321Y838534D01*
X721242Y843614D01*
X838540Y506780D02*
X843620Y511860D01*
X848700Y506780D01*
X843620Y501699D01*
X838540Y506780D01*
Y116780D02*
X843620Y121860D01*
X848700Y116780D01*
X843620Y111700D01*
X838540Y116780D01*
Y296780D02*
X843620Y301860D01*
X848700Y296780D01*
X843620Y291700D01*
X838540Y296780D01*
X615777Y6379D02*
X620857Y11459D01*
X625937Y6379D01*
X620857Y1299D01*
X615777Y6379D01*
X45778D02*
X50858Y11459D01*
X55938Y6379D01*
X50858Y1299D01*
X45778Y6379D01*
X1306Y585502D02*
X6386Y590582D01*
X11466Y585502D01*
X6386Y580422D01*
X1306Y585502D01*
X495777Y6379D02*
X500857Y11459D01*
X505937Y6379D01*
X500857Y1299D01*
X495777Y6379D01*
X195778D02*
X200858Y11459D01*
X205938Y6379D01*
X200858Y1299D01*
X195778Y6379D01*
X1306Y705502D02*
X6386Y710582D01*
X11466Y705502D01*
X6386Y700422D01*
X1306Y705502D01*
X481242Y843614D02*
X486322Y848694D01*
X491402Y843614D01*
X486322Y838534D01*
X481242Y843614D01*
X1306Y755502D02*
X6386Y760582D01*
X11466Y755502D01*
X6386Y750422D01*
X1306Y755502D01*
Y695502D02*
X6386Y700582D01*
X11466Y695502D01*
X6386Y690422D01*
X1306Y695502D01*
X331242Y843614D02*
X336322Y848694D01*
X341402Y843614D01*
X336322Y838534D01*
X331242Y843614D01*
X1306Y85503D02*
X6386Y90583D01*
X11466Y85503D01*
X6386Y80423D01*
X1306Y85503D01*
X838540Y166780D02*
X843620Y171860D01*
X848700Y166780D01*
X843620Y161700D01*
X838540Y166780D01*
X1306Y485503D02*
X6386Y490583D01*
X11466Y485503D01*
X6386Y480423D01*
X1306Y485503D01*
X838540Y336780D02*
X843620Y341860D01*
X848700Y336780D01*
X843620Y331700D01*
X838540Y336780D01*
X415777Y6379D02*
X420857Y11459D01*
X425937Y6379D01*
X420857Y1299D01*
X415777Y6379D01*
X771241Y843614D02*
X776321Y848694D01*
X781401Y843614D01*
X776321Y838534D01*
X771241Y843614D01*
X838540Y466780D02*
X843620Y471860D01*
X848700Y466780D01*
X843620Y461700D01*
X838540Y466780D01*
X345777Y6379D02*
X350857Y11459D01*
X355937Y6379D01*
X350857Y1299D01*
X345777Y6379D01*
X1306Y175503D02*
X6386Y180583D01*
X11466Y175503D01*
X6386Y170423D01*
X1306Y175503D01*
X41243Y843614D02*
X46323Y848694D01*
X51403Y843614D01*
X46323Y838534D01*
X41243Y843614D01*
X691242D02*
X696321Y848694D01*
X701402Y843614D01*
X696321Y838534D01*
X691242Y843614D01*
X75778Y6379D02*
X80858Y11459D01*
X85938Y6379D01*
X80858Y1299D01*
X75778Y6379D01*
X838540Y756779D02*
X843620Y761859D01*
X848700Y756779D01*
X843620Y751699D01*
X838540Y756779D01*
Y626779D02*
X843620Y631859D01*
X848700Y626779D01*
X843620Y621699D01*
X838540Y626779D01*
X505777Y6379D02*
X510857Y11459D01*
X515937Y6379D01*
X510857Y1299D01*
X505777Y6379D01*
X755776D02*
X760856Y11459D01*
X765936Y6379D01*
X760856Y1299D01*
X755776Y6379D01*
X291242Y843614D02*
X296322Y848694D01*
X301402Y843614D01*
X296322Y838534D01*
X291242Y843614D01*
X838540Y456780D02*
X843620Y461860D01*
X848700Y456780D01*
X843620Y451700D01*
X838540Y456780D01*
X475777Y6379D02*
X480857Y11459D01*
X485937Y6379D01*
X480857Y1299D01*
X475777Y6379D01*
X651242Y843614D02*
X656322Y848694D01*
X661402Y843614D01*
X656322Y838534D01*
X651242Y843614D01*
X838540Y436780D02*
X843620Y441860D01*
X848700Y436780D01*
X843620Y431700D01*
X838540Y436780D01*
X1306Y95503D02*
X6386Y100583D01*
X11466Y95503D01*
X6386Y90423D01*
X1306Y95503D01*
X105778Y6379D02*
X110858Y11459D01*
X115938Y6379D01*
X110858Y1299D01*
X105778Y6379D01*
X838540Y736779D02*
X843620Y741859D01*
X848700Y736779D01*
X843620Y731699D01*
X838540Y736779D01*
Y246780D02*
X843620Y251860D01*
X848700Y246780D01*
X843620Y241700D01*
X838540Y246780D01*
X335777Y6379D02*
X340857Y11459D01*
X345937Y6379D01*
X340857Y1299D01*
X335777Y6379D01*
X261242Y843614D02*
X266322Y848694D01*
X271402Y843614D01*
X266322Y838534D01*
X261242Y843614D01*
X1306Y615502D02*
X6386Y620582D01*
X11466Y615502D01*
X6386Y610422D01*
X1306Y615502D01*
X65778Y6379D02*
X70858Y11459D01*
X75938Y6379D01*
X70858Y1299D01*
X65778Y6379D01*
X171243Y843614D02*
X176323Y848694D01*
X181403Y843614D01*
X176323Y838534D01*
X171243Y843614D01*
X341242D02*
X346322Y848694D01*
X351402Y843614D01*
X346322Y838534D01*
X341242Y843614D01*
X371242D02*
X376322Y848694D01*
X381402Y843614D01*
X376322Y838534D01*
X371242Y843614D01*
X611242D02*
X616322Y848694D01*
X621402Y843614D01*
X616322Y838534D01*
X611242Y843614D01*
X838540Y746779D02*
X843620Y751859D01*
X848700Y746779D01*
X843620Y741699D01*
X838540Y746779D01*
Y346780D02*
X843620Y351860D01*
X848700Y346780D01*
X843620Y341700D01*
X838540Y346780D01*
Y226780D02*
X843620Y231860D01*
X848700Y226780D01*
X843620Y221700D01*
X838540Y226780D01*
X325777Y6379D02*
X330857Y11459D01*
X335937Y6379D01*
X330857Y1299D01*
X325777Y6379D01*
X838540Y776779D02*
X843620Y781859D01*
X848700Y776779D01*
X843620Y771699D01*
X838540Y776779D01*
Y646779D02*
X843620Y651859D01*
X848700Y646779D01*
X843620Y641699D01*
X838540Y646779D01*
X1306Y575502D02*
X6386Y580582D01*
X11466Y575502D01*
X6386Y570422D01*
X1306Y575502D01*
X101243Y843614D02*
X106323Y848694D01*
X111403Y843614D01*
X106323Y838534D01*
X101243Y843614D01*
X181243D02*
X186322Y848694D01*
X191402Y843614D01*
X186322Y838534D01*
X181243Y843614D01*
X271242D02*
X276322Y848694D01*
X281402Y843614D01*
X276322Y838534D01*
X271242Y843614D01*
X301242D02*
X306322Y848694D01*
X311402Y843614D01*
X306322Y838534D01*
X301242Y843614D01*
X671242D02*
X676322Y848694D01*
X681402Y843614D01*
X676322Y838534D01*
X671242Y843614D01*
X1306Y745502D02*
X6386Y750582D01*
X11466Y745502D01*
X6386Y740422D01*
X1306Y745502D01*
Y785502D02*
X6386Y790582D01*
X11466Y785502D01*
X6386Y780422D01*
X1306Y785502D01*
X421242Y843614D02*
X426322Y848694D01*
X431402Y843614D01*
X426322Y838534D01*
X421242Y843614D01*
X365777Y6379D02*
X370857Y11459D01*
X375937Y6379D01*
X370857Y1299D01*
X365777Y6379D01*
X838540Y196780D02*
X843620Y201860D01*
X848700Y196780D01*
X843620Y191700D01*
X838540Y196780D01*
X541242Y843614D02*
X546322Y848694D01*
X551402Y843614D01*
X546322Y838534D01*
X541242Y843614D01*
X741241D02*
X746321Y848694D01*
X751401Y843614D01*
X746321Y838534D01*
X741241Y843614D01*
X838540Y576779D02*
X843620Y581859D01*
X848700Y576779D01*
X843620Y571699D01*
X838540Y576779D01*
X545777Y6379D02*
X550857Y11459D01*
X555937Y6379D01*
X550857Y1299D01*
X545777Y6379D01*
X838540Y356780D02*
X843620Y361860D01*
X848700Y356780D01*
X843620Y351700D01*
X838540Y356780D01*
X281242Y843614D02*
X286322Y848694D01*
X291402Y843614D01*
X286322Y838534D01*
X281242Y843614D01*
X571242D02*
X576322Y848694D01*
X581402Y843614D01*
X576322Y838534D01*
X571242Y843614D01*
X431242D02*
X436322Y848694D01*
X441402Y843614D01*
X436322Y838534D01*
X431242Y843614D01*
X1306Y275503D02*
X6386Y280583D01*
X11466Y275503D01*
X6386Y270423D01*
X1306Y275503D01*
Y185503D02*
X6386Y190583D01*
X11466Y185503D01*
X6386Y180423D01*
X1306Y185503D01*
X285777Y6379D02*
X290857Y11459D01*
X295937Y6379D01*
X290857Y1299D01*
X285777Y6379D01*
X1306Y765502D02*
X6386Y770582D01*
X11466Y765502D01*
X6386Y760422D01*
X1306Y765502D01*
X81243Y843614D02*
X86323Y848694D01*
X91403Y843614D01*
X86323Y838534D01*
X81243Y843614D01*
X785776Y6379D02*
X790856Y11459D01*
X795936Y6379D01*
X790856Y1299D01*
X785776Y6379D01*
X131243Y843614D02*
X136323Y848694D01*
X141403Y843614D01*
X136323Y838534D01*
X131243Y843614D01*
X151243D02*
X156323Y848694D01*
X161403Y843614D01*
X156323Y838534D01*
X151243Y843614D01*
X1306Y565503D02*
X6386Y570583D01*
X11466Y565503D01*
X6386Y560423D01*
X1306Y565503D01*
Y825502D02*
X6386Y830582D01*
X11466Y825502D01*
X6386Y820422D01*
X1306Y825502D01*
X838540Y206780D02*
X843620Y211860D01*
X848700Y206780D01*
X843620Y201700D01*
X838540Y206780D01*
Y126780D02*
X843620Y131860D01*
X848700Y126780D01*
X843620Y121700D01*
X838540Y126780D01*
Y146780D02*
X843620Y151860D01*
X848700Y146780D01*
X843620Y141700D01*
X838540Y146780D01*
X1306Y125503D02*
X6386Y130583D01*
X11466Y125503D01*
X6386Y120423D01*
X1306Y125503D01*
X235777Y6379D02*
X240858Y11459D01*
X245938Y6379D01*
X240858Y1299D01*
X235777Y6379D01*
X1306Y225503D02*
X6386Y230583D01*
X11466Y225503D01*
X6386Y220423D01*
X1306Y225503D01*
X838540Y706779D02*
X843620Y711859D01*
X848700Y706779D01*
X843620Y701699D01*
X838540Y706779D01*
X165778Y6379D02*
X170858Y11459D01*
X175938Y6379D01*
X170858Y1299D01*
X165778Y6379D01*
X531242Y843614D02*
X536322Y848694D01*
X541402Y843614D01*
X536322Y838534D01*
X531242Y843614D01*
X535777Y6379D02*
X540857Y11459D01*
X545937Y6379D01*
X540857Y1299D01*
X535777Y6379D01*
X838540Y266780D02*
X843620Y271860D01*
X848700Y266780D01*
X843620Y261700D01*
X838540Y266780D01*
Y726779D02*
X843620Y731859D01*
X848700Y726779D01*
X843620Y721699D01*
X838540Y726779D01*
X315777Y6379D02*
X320857Y11459D01*
X325937Y6379D01*
X320857Y1299D01*
X315777Y6379D01*
X765776D02*
X770856Y11459D01*
X775936Y6379D01*
X770856Y1299D01*
X765776Y6379D01*
X1306Y435503D02*
X6386Y440583D01*
X11466Y435503D01*
X6386Y430423D01*
X1306Y435503D01*
X381242Y843614D02*
X386322Y848694D01*
X391402Y843614D01*
X386322Y838534D01*
X381242Y843614D01*
X838540Y316780D02*
X843620Y321860D01*
X848700Y316780D01*
X843620Y311700D01*
X838540Y316780D01*
X1306Y165503D02*
X6386Y170583D01*
X11466Y165503D01*
X6386Y160423D01*
X1306Y165503D01*
X501242Y843614D02*
X506322Y848694D01*
X511402Y843614D01*
X506322Y838534D01*
X501242Y843614D01*
X838540Y686779D02*
X843620Y691859D01*
X848700Y686779D01*
X843620Y681699D01*
X838540Y686779D01*
Y416780D02*
X843620Y421860D01*
X848700Y416780D01*
X843620Y411700D01*
X838540Y416780D01*
X7153Y843614D02*
X12233Y848694D01*
X17313Y843614D01*
X12233Y838534D01*
X7153Y843614D01*
X585777Y6379D02*
X590857Y11459D01*
X595937Y6379D01*
X590857Y1299D01*
X585777Y6379D01*
X375777D02*
X380857Y11459D01*
X385937Y6379D01*
X380857Y1299D01*
X375777Y6379D01*
X1306Y625502D02*
X6386Y630582D01*
X11466Y625502D01*
X6386Y620422D01*
X1306Y625502D01*
X838540Y426780D02*
X843620Y431860D01*
X848700Y426780D01*
X843620Y421700D01*
X838540Y426780D01*
X1306Y535503D02*
X6386Y540583D01*
X11466Y535503D01*
X6386Y530423D01*
X1306Y535503D01*
X838540Y16781D02*
X843620Y21860D01*
X848700Y16781D01*
X843620Y11701D01*
X838540Y16781D01*
X255777Y6379D02*
X260857Y11459D01*
X265937Y6379D01*
X260857Y1299D01*
X255777Y6379D01*
X1306Y465503D02*
X6386Y470583D01*
X11466Y465503D01*
X6386Y460423D01*
X1306Y465503D01*
X811241Y843614D02*
X816321Y848694D01*
X821401Y843614D01*
X816321Y838534D01*
X811241Y843614D01*
X211243D02*
X216322Y848694D01*
X221402Y843614D01*
X216322Y838534D01*
X211243Y843614D01*
X838540Y476780D02*
X843620Y481860D01*
X848700Y476780D01*
X843620Y471700D01*
X838540Y476780D01*
X145778Y6379D02*
X150858Y11459D01*
X155938Y6379D01*
X150858Y1299D01*
X145778Y6379D01*
X445777D02*
X450857Y11459D01*
X455937Y6379D01*
X450857Y1299D01*
X445777Y6379D01*
X205777D02*
X210858Y11459D01*
X215938Y6379D01*
X210858Y1299D01*
X205777Y6379D01*
X521242Y843614D02*
X526322Y848694D01*
X531402Y843614D01*
X526322Y838534D01*
X521242Y843614D01*
X775776Y6379D02*
X780856Y11459D01*
X785936Y6379D01*
X780856Y1299D01*
X775776Y6379D01*
X601242Y843614D02*
X606322Y848694D01*
X611402Y843614D01*
X606322Y838534D01*
X601242Y843614D01*
X838540Y566779D02*
X843620Y571859D01*
X848700Y566779D01*
X843620Y561699D01*
X838540Y566779D01*
X645777Y6379D02*
X650857Y11459D01*
X655937Y6379D01*
X650857Y1299D01*
X645777Y6379D01*
X1306Y595502D02*
X6386Y600582D01*
X11466Y595502D01*
X6386Y590422D01*
X1306Y595502D01*
X225777Y6379D02*
X230858Y11459D01*
X235938Y6379D01*
X230858Y1299D01*
X225777Y6379D01*
X15778D02*
X20858Y11459D01*
X25938Y6379D01*
X20858Y1299D01*
X15778Y6379D01*
X681242Y843614D02*
X686321Y848694D01*
X691402Y843614D01*
X686321Y838534D01*
X681242Y843614D01*
X838540Y66780D02*
X843620Y71860D01*
X848700Y66780D01*
X843620Y61700D01*
X838540Y66780D01*
Y276780D02*
X843620Y281860D01*
X848700Y276780D01*
X843620Y271700D01*
X838540Y276780D01*
X1306Y815502D02*
X6386Y820582D01*
X11466Y815502D01*
X6386Y810422D01*
X1306Y815502D01*
X665777Y6379D02*
X670857Y11459D01*
X675937Y6379D01*
X670857Y1299D01*
X665777Y6379D01*
X1306Y525503D02*
X6386Y530583D01*
X11466Y525503D01*
X6386Y520423D01*
X1306Y525503D01*
X838540Y86780D02*
X843620Y91860D01*
X848700Y86780D01*
X843620Y81700D01*
X838540Y86780D01*
X351242Y843614D02*
X356322Y848694D01*
X361402Y843614D01*
X356322Y838534D01*
X351242Y843614D01*
X605777Y6379D02*
X610857Y11459D01*
X615937Y6379D01*
X610857Y1299D01*
X605777Y6379D01*
X551242Y843614D02*
X556322Y848694D01*
X561402Y843614D01*
X556322Y838534D01*
X551242Y843614D01*
X838540Y556779D02*
X843620Y561859D01*
X848700Y556779D01*
X843620Y551699D01*
X838540Y556779D01*
Y366780D02*
X843620Y371860D01*
X848700Y366780D01*
X843620Y361700D01*
X838540Y366780D01*
X581242Y843614D02*
X586322Y848694D01*
X591402Y843614D01*
X586322Y838534D01*
X581242Y843614D01*
X711242D02*
X716321Y848694D01*
X721402Y843614D01*
X716321Y838534D01*
X711242Y843614D01*
X595777Y6379D02*
X600857Y11459D01*
X605937Y6379D01*
X600857Y1299D01*
X595777Y6379D01*
X695777D02*
X700857Y11459D01*
X705937Y6379D01*
X700857Y1299D01*
X695777Y6379D01*
X838540Y786779D02*
X843620Y791859D01*
X848700Y786779D01*
X843620Y781699D01*
X838540Y786779D01*
X1306Y355503D02*
X6386Y360583D01*
X11466Y355503D01*
X6386Y350423D01*
X1306Y355503D01*
X838540Y176780D02*
X843620Y181860D01*
X848700Y176780D01*
X843620Y171700D01*
X838540Y176780D01*
X91243Y843614D02*
X96323Y848694D01*
X101403Y843614D01*
X96323Y838534D01*
X91243Y843614D01*
X1306Y455503D02*
X6386Y460583D01*
X11466Y455503D01*
X6386Y450423D01*
X1306Y455503D01*
X121243Y843614D02*
X126323Y848694D01*
X131403Y843614D01*
X126323Y838534D01*
X121243Y843614D01*
X1306Y635502D02*
X6386Y640582D01*
X11466Y635502D01*
X6386Y630422D01*
X1306Y635502D01*
X838540Y616779D02*
X843620Y621859D01*
X848700Y616779D01*
X843620Y611699D01*
X838540Y616779D01*
X555777Y6379D02*
X560857Y11459D01*
X565937Y6379D01*
X560857Y1299D01*
X555777Y6379D01*
X465777D02*
X470857Y11459D01*
X475937Y6379D01*
X470857Y1299D01*
X465777Y6379D01*
X1306Y665502D02*
X6386Y670582D01*
X11466Y665502D01*
X6386Y660422D01*
X1306Y665502D01*
Y735502D02*
X6386Y740582D01*
X11466Y735502D01*
X6386Y730422D01*
X1306Y735502D01*
Y775502D02*
X6386Y780582D01*
X11466Y775502D01*
X6386Y770422D01*
X1306Y775502D01*
X385777Y6379D02*
X390857Y11459D01*
X395937Y6379D01*
X390857Y1299D01*
X385777Y6379D01*
X25778D02*
X30858Y11459D01*
X35938Y6379D01*
X30858Y1299D01*
X25778Y6379D01*
X1306Y305503D02*
X6386Y310583D01*
X11466Y305503D01*
X6386Y300423D01*
X1306Y305503D01*
X321242Y843614D02*
X326322Y848694D01*
X331402Y843614D01*
X326322Y838534D01*
X321242Y843614D01*
X361242D02*
X366322Y848694D01*
X371402Y843614D01*
X366322Y838534D01*
X361242Y843614D01*
X625777Y6379D02*
X630857Y11459D01*
X635937Y6379D01*
X630857Y1299D01*
X625777Y6379D01*
X391242Y843614D02*
X396322Y848694D01*
X401402Y843614D01*
X396322Y838534D01*
X391242Y843614D01*
X838540Y216780D02*
X843620Y221860D01*
X848700Y216780D01*
X843620Y211700D01*
X838540Y216780D01*
X275777Y6379D02*
X280857Y11459D01*
X285937Y6379D01*
X280857Y1299D01*
X275777Y6379D01*
X435777D02*
X440857Y11459D01*
X445937Y6379D01*
X440857Y1299D01*
X435777Y6379D01*
X1306Y545503D02*
X6386Y550583D01*
X11466Y545503D01*
X6386Y540423D01*
X1306Y545503D01*
X155778Y6379D02*
X160858Y11459D01*
X165938Y6379D01*
X160858Y1299D01*
X155778Y6379D01*
X61243Y843614D02*
X66323Y848694D01*
X71403Y843614D01*
X66323Y838534D01*
X61243Y843614D01*
X838540Y186780D02*
X843620Y191860D01*
X848700Y186780D01*
X843620Y181700D01*
X838540Y186780D01*
X731241Y843614D02*
X736321Y848694D01*
X741401Y843614D01*
X736321Y838534D01*
X731241Y843614D01*
X95778Y6379D02*
X100858Y11459D01*
X105938Y6379D01*
X100858Y1299D01*
X95778Y6379D01*
X425777D02*
X430857Y11459D01*
X435937Y6379D01*
X430857Y1299D01*
X425777Y6379D01*
X838540Y156780D02*
X843620Y161860D01*
X848700Y156780D01*
X843620Y151700D01*
X838540Y156780D01*
X1306Y835502D02*
X6386Y840582D01*
X11466Y835502D01*
X6386Y830422D01*
X1306Y835502D01*
Y255503D02*
X6386Y260583D01*
X11466Y255503D01*
X6386Y250423D01*
X1306Y255503D01*
Y385503D02*
X6386Y390583D01*
X11466Y385503D01*
X6386Y380423D01*
X1306Y385503D01*
Y715502D02*
X6386Y720582D01*
X11466Y715502D01*
X6386Y710422D01*
X1306Y715502D01*
X491242Y843614D02*
X496322Y848694D01*
X501402Y843614D01*
X496322Y838534D01*
X491242Y843614D01*
X241242D02*
X246322Y848694D01*
X251402Y843614D01*
X246322Y838534D01*
X241242Y843614D01*
X838540Y306780D02*
X843620Y311860D01*
X848700Y306780D01*
X843620Y301700D01*
X838540Y306780D01*
X395777Y6379D02*
X400857Y11459D01*
X405937Y6379D01*
X400857Y1299D01*
X395777Y6379D01*
X1306Y335503D02*
X6386Y340583D01*
X11466Y335503D01*
X6386Y330423D01*
X1306Y335503D01*
X411242Y843614D02*
X416322Y848694D01*
X421402Y843614D01*
X416322Y838534D01*
X411242Y843614D01*
X725777Y6379D02*
X730856Y11459D01*
X735937Y6379D01*
X730856Y1299D01*
X725777Y6379D01*
X21243Y843614D02*
X26323Y848694D01*
X31403Y843614D01*
X26323Y838534D01*
X21243Y843614D01*
X311242D02*
X316322Y848694D01*
X321402Y843614D01*
X316322Y838534D01*
X311242Y843614D01*
X838540Y406780D02*
X843620Y411860D01*
X848700Y406780D01*
X843620Y401700D01*
X838540Y406780D01*
X655777Y6379D02*
X660857Y11459D01*
X665937Y6379D01*
X660857Y1299D01*
X655777Y6379D01*
X455777D02*
X460857Y11459D01*
X465937Y6379D01*
X460857Y1299D01*
X455777Y6379D01*
X245777D02*
X250858Y11459D01*
X255938Y6379D01*
X250858Y1299D01*
X245777Y6379D01*
X735777D02*
X740856Y11459D01*
X745937Y6379D01*
X740856Y1299D01*
X735777Y6379D01*
X1306Y405503D02*
X6386Y410583D01*
X11466Y405503D01*
X6386Y400423D01*
X1306Y405503D01*
Y425503D02*
X6386Y430583D01*
X11466Y425503D01*
X6386Y420423D01*
X1306Y425503D01*
Y645502D02*
X6386Y650582D01*
X11466Y645502D01*
X6386Y640422D01*
X1306Y645502D01*
X838540Y586779D02*
X843620Y591859D01*
X848700Y586779D01*
X843620Y581699D01*
X838540Y586779D01*
X1306Y35503D02*
X6386Y40584D01*
X11466Y35503D01*
X6386Y30424D01*
X1306Y35503D01*
X838540Y526780D02*
X843620Y531860D01*
X848700Y526780D01*
X843620Y521699D01*
X838540Y526780D01*
X831241Y843614D02*
X836321Y848694D01*
X841401Y843614D01*
X836321Y838534D01*
X831241Y843614D01*
D183*
X357580Y692500D02*
G03*
X357580Y692500I-5080J0D01*
G01*
X172580D02*
G03*
X172580Y692500I-5080J0D01*
G01*
X357580Y740000D02*
G03*
X357580Y740000I-5080J0D01*
G01*
X172580D02*
G03*
X172580Y740000I-5080J0D01*
G01*
X667580Y692500D02*
G03*
X667580Y692500I-5080J0D01*
G01*
X482580D02*
G03*
X482580Y692500I-5080J0D01*
G01*
X667580Y740000D02*
G03*
X667580Y740000I-5080J0D01*
G01*
X482580D02*
G03*
X482580Y740000I-5080J0D01*
G01*
M02*
