G04*
G04 #@! TF.GenerationSoftware,Altium Limited,Altium Designer,24.1.2 (44)*
G04*
G04 Layer_Physical_Order=2*
G04 Layer_Color=15724527*
%FSLAX44Y44*%
%MOMM*%
G71*
G04*
G04 #@! TF.SameCoordinates,3C3544C8-D313-44E9-BDBC-33778D0CC135*
G04*
G04*
G04 #@! TF.FilePolarity,Positive*
G04*
G01*
G75*
%ADD24C,1.2300*%
%ADD136C,0.3000*%
%ADD137R,1.3700X1.3700*%
%ADD138C,1.3700*%
%ADD139C,1.4580*%
%ADD140C,1.2580*%
%ADD142C,2.3000*%
%ADD143C,1.0000*%
%ADD144C,6.0000*%
%ADD145C,1.6000*%
%ADD146R,1.6000X1.6000*%
%ADD147C,0.4000*%
%ADD148C,0.6350*%
%ADD149R,2.0320X2.3114*%
G36*
X11970Y852743D02*
X11970Y852735D01*
X11992Y852739D01*
X12019Y852734D01*
X837987Y852734D01*
X838014Y852739D01*
X838036Y852735D01*
X838036Y852743D01*
X838123Y852761D01*
X841828Y852273D01*
X845393Y850796D01*
X848454Y848448D01*
X850803Y845387D01*
X852279Y841822D01*
X852767Y838117D01*
X852749Y838029D01*
X852741Y838029D01*
X852745Y838008D01*
X852740Y837981D01*
Y11997D01*
X852766Y11867D01*
X852279Y8172D01*
X850803Y4607D01*
X848454Y1546D01*
X845393Y-803D01*
X841828Y-2279D01*
X838133Y-2766D01*
X838003Y-2740D01*
X12003D01*
X11873Y-2766D01*
X8178Y-2279D01*
X4613Y-803D01*
X1552Y1546D01*
X-797Y4607D01*
X-2273Y8172D01*
X-2760Y11867D01*
X-2734Y11997D01*
X-2734Y837997D01*
X-2760Y838127D01*
X-2273Y841822D01*
X-796Y845387D01*
X1552Y848448D01*
X4613Y850796D01*
X8178Y852273D01*
X11883Y852761D01*
X11970Y852743D01*
D02*
G37*
%LPC*%
G36*
X12003Y851694D02*
X8458Y851227D01*
X5155Y849859D01*
X2318Y847682D01*
X141Y844845D01*
X-1227Y841542D01*
X-1690Y838027D01*
X-1643Y838027D01*
X-1645Y838009D01*
X-1644Y838003D01*
X-1645Y837997D01*
Y705502D01*
X-1645Y695502D01*
Y695502D01*
D01*
Y425503D01*
X-1645Y415503D01*
Y415503D01*
D01*
Y155503D01*
X-1645Y145503D01*
Y145503D01*
D01*
Y12022D01*
X-1644Y12009D01*
X-1645Y11997D01*
X-1694D01*
X-1227Y8452D01*
X141Y5148D01*
X2318Y2312D01*
X5155Y135D01*
X8458Y-1233D01*
X11973Y-1696D01*
X11973Y-1649D01*
X11991Y-1651D01*
X11997Y-1650D01*
X12003Y-1651D01*
X140858D01*
X150858Y-1651D01*
X150858D01*
D01*
X420857D01*
X430857Y-1651D01*
X430857D01*
D01*
X690857D01*
X700856Y-1651D01*
X700857D01*
D01*
X837978D01*
X837990Y-1650D01*
X838003Y-1651D01*
Y-1700D01*
X841548Y-1233D01*
X844852Y135D01*
X847688Y2312D01*
X849865Y5148D01*
X851233Y8452D01*
X851696Y11967D01*
X851649Y11967D01*
X851651Y11984D01*
X851650Y11991D01*
X851651Y11997D01*
Y146780D01*
X851651Y156780D01*
D01*
Y156780D01*
Y416780D01*
X851651Y426780D01*
D01*
Y426780D01*
Y696779D01*
X851651Y706779D01*
D01*
Y706779D01*
Y837971D01*
X851650Y837984D01*
X851651Y837997D01*
X851700D01*
X851233Y841542D01*
X849865Y844845D01*
X847688Y847682D01*
X844852Y849859D01*
X841548Y851227D01*
X838045Y851688D01*
X838045Y851642D01*
X838020Y851645D01*
X838012Y851644D01*
X838003Y851645D01*
X706321D01*
X696321Y851645D01*
D01*
X696321D01*
X426322D01*
X416322Y851645D01*
D01*
X416322D01*
X156323D01*
X146323Y851645D01*
D01*
X146323D01*
X12021D01*
X12012Y851644D01*
X12003Y851645D01*
Y851694D01*
D02*
G37*
%LPD*%
G36*
X72652Y837497D02*
X60031Y831958D01*
X36000Y840539D01*
X16444Y833556D01*
X9461Y814000D01*
X18041Y789969D01*
X12503Y777348D01*
X203Y791409D01*
X5264Y814000D01*
X203Y836591D01*
X11965Y837935D01*
Y837959D01*
X12003Y837997D01*
X12077Y837997D01*
X13409Y849797D01*
X36000Y844736D01*
X58591Y849797D01*
X72652Y837497D01*
D02*
G37*
G36*
X837941Y838035D02*
X837959D01*
X837997Y837997D01*
X837997Y837914D01*
X849803Y836551D01*
X849736Y835727D01*
X849535Y834425D01*
X847394Y824422D01*
X844868Y814000D01*
X847394Y803578D01*
X849535Y793575D01*
X849736Y792273D01*
X849803Y791449D01*
X837503Y777355D01*
X831991Y789993D01*
X840533Y814000D01*
X833577Y833548D01*
X814000Y840539D01*
X789968Y831958D01*
X777347Y837496D01*
X791408Y849797D01*
X814000Y844736D01*
X836592Y849797D01*
X837941Y838035D01*
D02*
G37*
G36*
X156323Y835648D02*
D01*
X156323D01*
X416322D01*
X426322Y835648D01*
D01*
X426322D01*
X696321D01*
X706321Y835648D01*
D01*
X706321D01*
X777043D01*
X787206Y831188D01*
X786819Y830656D01*
X784548Y826199D01*
X783002Y821442D01*
X782220Y816501D01*
Y811499D01*
X783002Y806558D01*
X784548Y801801D01*
X786819Y797344D01*
X789760Y793297D01*
X793297Y789760D01*
X797344Y786819D01*
X801801Y784548D01*
X806558Y783002D01*
X811499Y782220D01*
X816501D01*
X821442Y783002D01*
X826199Y784548D01*
X830656Y786819D01*
X831217Y787227D01*
X835654Y777054D01*
Y756195D01*
X702818Y756195D01*
X702123Y756057D01*
X701535Y755663D01*
X701141Y755074D01*
X701003Y754380D01*
Y504190D01*
X701141Y503495D01*
X701535Y502907D01*
X702123Y502513D01*
X702818Y502375D01*
X767598Y502375D01*
X785585Y484388D01*
Y116576D01*
X710702Y41693D01*
X628114D01*
X628408Y41772D01*
X630422Y42934D01*
X632066Y44578D01*
X633228Y46592D01*
X633801Y48730D01*
X616199D01*
X616772Y46592D01*
X617934Y44578D01*
X619578Y42934D01*
X621592Y41772D01*
X621886Y41693D01*
X608114D01*
X608408Y41772D01*
X610422Y42934D01*
X612066Y44578D01*
X613228Y46592D01*
X613801Y48730D01*
X596199D01*
X596772Y46592D01*
X597934Y44578D01*
X599578Y42934D01*
X601592Y41772D01*
X601886Y41693D01*
X588114D01*
X588408Y41772D01*
X590422Y42934D01*
X592066Y44578D01*
X593228Y46592D01*
X593801Y48730D01*
X576199D01*
X576772Y46592D01*
X577934Y44578D01*
X579578Y42934D01*
X581592Y41772D01*
X581886Y41693D01*
X468114D01*
X468408Y41772D01*
X470422Y42934D01*
X472066Y44578D01*
X473228Y46592D01*
X473801Y48730D01*
X465000D01*
Y50000D01*
X463730D01*
Y58801D01*
X461592Y58228D01*
X459578Y57066D01*
X458116Y55604D01*
Y65782D01*
X458542Y65045D01*
X460045Y63542D01*
X461885Y62480D01*
X463938Y61930D01*
X466062D01*
X468115Y62480D01*
X469955Y63542D01*
X471458Y65045D01*
X472520Y66885D01*
X473070Y68938D01*
Y71062D01*
X472520Y73115D01*
X471458Y74955D01*
X469955Y76458D01*
X468115Y77520D01*
X466062Y78070D01*
X463938D01*
X461885Y77520D01*
X460045Y76458D01*
X458542Y74955D01*
X458116Y74218D01*
Y81280D01*
X457978Y81974D01*
X457585Y82563D01*
X456996Y82957D01*
X456302Y83095D01*
X160858D01*
X160163Y82957D01*
X159574Y82563D01*
X159181Y81974D01*
X159043Y81280D01*
Y14346D01*
X150858D01*
X140858Y14346D01*
X140858D01*
D01*
X72946D01*
X62773Y18782D01*
X63181Y19344D01*
X65452Y23801D01*
X66997Y28558D01*
X67780Y33499D01*
Y38501D01*
X66997Y43442D01*
X65452Y48199D01*
X63181Y52656D01*
X60240Y56703D01*
X56703Y60240D01*
X52656Y63181D01*
X48199Y65452D01*
X43442Y66997D01*
X38501Y67780D01*
X33499D01*
X28558Y66997D01*
X23801Y65452D01*
X19344Y63181D01*
X18811Y62793D01*
X14352Y72956D01*
Y145503D01*
X14352Y155503D01*
Y155503D01*
D01*
Y415503D01*
X14352Y425503D01*
Y425503D01*
D01*
Y695502D01*
X14352Y705502D01*
Y705502D01*
D01*
Y777044D01*
X18811Y787206D01*
X19344Y786819D01*
X23801Y784548D01*
X28558Y783002D01*
X33499Y782220D01*
X38501D01*
X43442Y783002D01*
X48199Y784548D01*
X52656Y786819D01*
X56703Y789760D01*
X60240Y793297D01*
X63181Y797344D01*
X65452Y801801D01*
X66997Y806558D01*
X67780Y811499D01*
Y816501D01*
X66997Y821442D01*
X65452Y826199D01*
X63181Y830656D01*
X62794Y831189D01*
X72957Y835648D01*
X146323D01*
X156323Y835648D01*
D02*
G37*
G36*
X459578Y42934D02*
X461592Y41772D01*
X461886Y41693D01*
X458116D01*
Y44396D01*
X459578Y42934D01*
D02*
G37*
G36*
X835654Y754380D02*
Y706779D01*
X835654Y696779D01*
D01*
Y696779D01*
Y426780D01*
X835654Y416780D01*
D01*
Y416780D01*
Y156780D01*
X835654Y146780D01*
D01*
Y146780D01*
Y72946D01*
X831217Y62773D01*
X830656Y63181D01*
X826199Y65452D01*
X821442Y66997D01*
X816501Y67780D01*
X811499D01*
X806558Y66997D01*
X801801Y65452D01*
X797344Y63181D01*
X793297Y60240D01*
X789760Y56703D01*
X786819Y52656D01*
X784548Y48199D01*
X783002Y43442D01*
X782220Y38501D01*
Y33499D01*
X783002Y28558D01*
X784548Y23801D01*
X786819Y19344D01*
X787227Y18782D01*
X780291Y15757D01*
X777054Y14346D01*
X700857D01*
X690857Y14346D01*
X690857D01*
D01*
X430857D01*
X420857Y14346D01*
X420857D01*
D01*
X160858D01*
Y81280D01*
X456302D01*
Y39878D01*
X711454D01*
X787400Y115824D01*
Y485140D01*
X768350Y504190D01*
X702818Y504190D01*
Y754380D01*
X835654Y754380D01*
D02*
G37*
G36*
X849803Y58551D02*
X849736Y57728D01*
X849535Y56425D01*
X847394Y46423D01*
X844868Y36000D01*
X847394Y25577D01*
X849535Y15575D01*
X849736Y14272D01*
X849803Y13449D01*
X838035Y12060D01*
Y12041D01*
X837997Y12003D01*
X837563Y12004D01*
X837503Y11997D01*
X837502Y12004D01*
X833882Y12011D01*
Y197D01*
X832684Y268D01*
X831117Y480D01*
X826880Y1330D01*
X817765Y3667D01*
X813304Y4963D01*
X803579Y2606D01*
X793576Y465D01*
X792274Y264D01*
X791450Y197D01*
X777356Y12497D01*
X789994Y18008D01*
X813976Y9476D01*
X832717Y14242D01*
X832832Y14357D01*
X840533Y36000D01*
X831990Y60007D01*
X837503Y72645D01*
X849803Y58551D01*
D02*
G37*
G36*
X18041Y60031D02*
X9461Y36000D01*
X16451Y16423D01*
X36000Y9467D01*
X60007Y18009D01*
X72644Y12497D01*
X58550Y197D01*
X57727Y264D01*
X56424Y465D01*
X46422Y2606D01*
X36000Y5132D01*
X25578Y2606D01*
X15576Y465D01*
X14273Y264D01*
X13450Y197D01*
X12066Y11965D01*
X12041D01*
X12003Y12003D01*
X12003Y12079D01*
X203Y13410D01*
X5264Y36000D01*
X203Y58590D01*
X12503Y72652D01*
X18041Y60031D01*
D02*
G37*
%LPC*%
G36*
X79192Y766288D02*
X77688D01*
X76299Y765713D01*
X75236Y764649D01*
X74660Y763260D01*
Y761756D01*
X75236Y760367D01*
X76299Y759304D01*
X77688Y758728D01*
X79192D01*
X80581Y759304D01*
X81644Y760367D01*
X82220Y761756D01*
Y763260D01*
X81644Y764649D01*
X80581Y765713D01*
X79192Y766288D01*
D02*
G37*
G36*
X99158Y766041D02*
X97654D01*
X96265Y765466D01*
X95201Y764403D01*
X94626Y763013D01*
Y761510D01*
X95201Y760120D01*
X96265Y759057D01*
X97654Y758482D01*
X99158D01*
X100547Y759057D01*
X101610Y760120D01*
X102186Y761510D01*
Y763013D01*
X101610Y764403D01*
X100547Y765466D01*
X99158Y766041D01*
D02*
G37*
G36*
X145399Y765780D02*
X143895D01*
X142506Y765204D01*
X141443Y764141D01*
X140867Y762752D01*
Y761248D01*
X141443Y759859D01*
X142506Y758795D01*
X143895Y758220D01*
X145399D01*
X146788Y758795D01*
X147852Y759859D01*
X148427Y761248D01*
Y762752D01*
X147852Y764141D01*
X146788Y765204D01*
X145399Y765780D01*
D02*
G37*
G36*
X109141Y765660D02*
X107637D01*
X106248Y765085D01*
X105184Y764022D01*
X104609Y762632D01*
Y761129D01*
X105184Y759739D01*
X106248Y758676D01*
X107637Y758101D01*
X109141D01*
X110530Y758676D01*
X111594Y759739D01*
X112169Y761129D01*
Y762632D01*
X111594Y764022D01*
X110530Y765085D01*
X109141Y765660D01*
D02*
G37*
G36*
X89175D02*
X87671D01*
X86282Y765085D01*
X85218Y764022D01*
X84643Y762632D01*
Y761129D01*
X85218Y759739D01*
X86282Y758676D01*
X87671Y758101D01*
X89175D01*
X90564Y758676D01*
X91628Y759739D01*
X92203Y761129D01*
Y762632D01*
X91628Y764022D01*
X90564Y765085D01*
X89175Y765660D01*
D02*
G37*
G36*
X135195Y761081D02*
X133691D01*
X132302Y760506D01*
X131239Y759442D01*
X130663Y758053D01*
Y756549D01*
X131239Y755160D01*
X132302Y754097D01*
X133691Y753521D01*
X135195D01*
X136585Y754097D01*
X137648Y755160D01*
X138223Y756549D01*
Y758053D01*
X137648Y759442D01*
X136585Y760506D01*
X135195Y761081D01*
D02*
G37*
G36*
X72472Y756382D02*
X70968D01*
X69579Y755807D01*
X68516Y754743D01*
X67940Y753354D01*
Y751850D01*
X68516Y750461D01*
X69579Y749398D01*
X70968Y748822D01*
X72472D01*
X73861Y749398D01*
X74925Y750461D01*
X75500Y751850D01*
Y753354D01*
X74925Y754743D01*
X73861Y755807D01*
X72472Y756382D01*
D02*
G37*
G36*
X92438Y756135D02*
X90934D01*
X89545Y755560D01*
X88481Y754497D01*
X87906Y753107D01*
Y751604D01*
X88481Y750214D01*
X89545Y749151D01*
X90934Y748576D01*
X92438D01*
X93827Y749151D01*
X94890Y750214D01*
X95466Y751604D01*
Y753107D01*
X94890Y754497D01*
X93827Y755560D01*
X92438Y756135D01*
D02*
G37*
G36*
X102421Y755754D02*
X100917D01*
X99528Y755179D01*
X98464Y754116D01*
X97889Y752726D01*
Y751223D01*
X98464Y749833D01*
X99528Y748770D01*
X100917Y748195D01*
X102421D01*
X103810Y748770D01*
X104874Y749833D01*
X105449Y751223D01*
Y752726D01*
X104874Y754116D01*
X103810Y755179D01*
X102421Y755754D01*
D02*
G37*
G36*
X82455D02*
X80951D01*
X79562Y755179D01*
X78498Y754116D01*
X77923Y752726D01*
Y751223D01*
X78498Y749833D01*
X79562Y748770D01*
X80951Y748195D01*
X82455D01*
X83844Y748770D01*
X84908Y749833D01*
X85483Y751223D01*
Y752726D01*
X84908Y754116D01*
X83844Y755179D01*
X82455Y755754D01*
D02*
G37*
G36*
X145399Y754350D02*
X143895D01*
X142506Y753774D01*
X141443Y752711D01*
X140867Y751322D01*
Y749818D01*
X141443Y748429D01*
X142506Y747365D01*
X143895Y746790D01*
X145399D01*
X146788Y747365D01*
X147852Y748429D01*
X148427Y749818D01*
Y751322D01*
X147852Y752711D01*
X146788Y753774D01*
X145399Y754350D01*
D02*
G37*
G36*
Y740733D02*
X143895D01*
X142506Y740157D01*
X141443Y739094D01*
X140867Y737704D01*
Y736201D01*
X141443Y734811D01*
X142506Y733748D01*
X143895Y733173D01*
X145399D01*
X146788Y733748D01*
X147852Y734811D01*
X148427Y736201D01*
Y737704D01*
X147852Y739094D01*
X146788Y740157D01*
X145399Y740733D01*
D02*
G37*
G36*
X135427D02*
X133923D01*
X132534Y740157D01*
X131470Y739094D01*
X130895Y737704D01*
Y736201D01*
X131470Y734811D01*
X132534Y733748D01*
X133923Y733173D01*
X135427D01*
X136816Y733748D01*
X137879Y734811D01*
X138455Y736201D01*
Y737704D01*
X137879Y739094D01*
X136816Y740157D01*
X135427Y740733D01*
D02*
G37*
G36*
X663694Y749070D02*
X661306D01*
X658999Y748452D01*
X656931Y747258D01*
X655242Y745569D01*
X654048Y743501D01*
X653430Y741194D01*
Y738806D01*
X654048Y736499D01*
X655242Y734431D01*
X656931Y732742D01*
X658999Y731548D01*
X661306Y730930D01*
X663694D01*
X666001Y731548D01*
X668069Y732742D01*
X669758Y734431D01*
X670952Y736499D01*
X671570Y738806D01*
Y741194D01*
X670952Y743501D01*
X669758Y745569D01*
X668069Y747258D01*
X666001Y748452D01*
X663694Y749070D01*
D02*
G37*
G36*
X478694D02*
X476306D01*
X473999Y748452D01*
X471931Y747258D01*
X470242Y745569D01*
X469048Y743501D01*
X468430Y741194D01*
Y738806D01*
X469048Y736499D01*
X470242Y734431D01*
X471931Y732742D01*
X473999Y731548D01*
X476306Y730930D01*
X478694D01*
X481001Y731548D01*
X483069Y732742D01*
X484758Y734431D01*
X485952Y736499D01*
X486570Y738806D01*
Y741194D01*
X485952Y743501D01*
X484758Y745569D01*
X483069Y747258D01*
X481001Y748452D01*
X478694Y749070D01*
D02*
G37*
G36*
X353694D02*
X351306D01*
X348999Y748452D01*
X346931Y747258D01*
X345242Y745569D01*
X344048Y743501D01*
X343430Y741194D01*
Y738806D01*
X344048Y736499D01*
X345242Y734431D01*
X346931Y732742D01*
X348999Y731548D01*
X351306Y730930D01*
X353694D01*
X356001Y731548D01*
X358069Y732742D01*
X359758Y734431D01*
X360952Y736499D01*
X361570Y738806D01*
Y741194D01*
X360952Y743501D01*
X359758Y745569D01*
X358069Y747258D01*
X356001Y748452D01*
X353694Y749070D01*
D02*
G37*
G36*
X168694D02*
X166306D01*
X163999Y748452D01*
X161931Y747258D01*
X160242Y745569D01*
X159048Y743501D01*
X158430Y741194D01*
Y738806D01*
X159048Y736499D01*
X160242Y734431D01*
X161931Y732742D01*
X163999Y731548D01*
X166306Y730930D01*
X168694D01*
X171001Y731548D01*
X173069Y732742D01*
X174758Y734431D01*
X175952Y736499D01*
X176570Y738806D01*
Y741194D01*
X175952Y743501D01*
X174758Y745569D01*
X173069Y747258D01*
X171001Y748452D01*
X168694Y749070D01*
D02*
G37*
G36*
X145399Y726410D02*
X143895D01*
X142506Y725835D01*
X141443Y724771D01*
X140867Y723382D01*
Y721878D01*
X141443Y720489D01*
X142506Y719426D01*
X143895Y718850D01*
X145399D01*
X146788Y719426D01*
X147852Y720489D01*
X148427Y721878D01*
Y723382D01*
X147852Y724771D01*
X146788Y725835D01*
X145399Y726410D01*
D02*
G37*
G36*
X126417Y696032D02*
X124914D01*
X123524Y695457D01*
X122461Y694394D01*
X121885Y693004D01*
Y691501D01*
X122461Y690111D01*
X123524Y689048D01*
X124914Y688473D01*
X126417D01*
X127807Y689048D01*
X128870Y690111D01*
X129445Y691501D01*
Y693004D01*
X128870Y694394D01*
X127807Y695457D01*
X126417Y696032D01*
D02*
G37*
G36*
X663694Y701570D02*
X661306D01*
X658999Y700952D01*
X656931Y699758D01*
X655242Y698069D01*
X654048Y696001D01*
X653430Y693694D01*
Y691306D01*
X654048Y688999D01*
X655242Y686931D01*
X656931Y685242D01*
X658999Y684048D01*
X661306Y683430D01*
X663694D01*
X666001Y684048D01*
X668069Y685242D01*
X669758Y686931D01*
X670952Y688999D01*
X671570Y691306D01*
Y693694D01*
X670952Y696001D01*
X669758Y698069D01*
X668069Y699758D01*
X666001Y700952D01*
X663694Y701570D01*
D02*
G37*
G36*
X478694D02*
X476306D01*
X473999Y700952D01*
X471931Y699758D01*
X470242Y698069D01*
X469048Y696001D01*
X468430Y693694D01*
Y691306D01*
X469048Y688999D01*
X470242Y686931D01*
X471931Y685242D01*
X473999Y684048D01*
X476306Y683430D01*
X478694D01*
X481001Y684048D01*
X483069Y685242D01*
X484758Y686931D01*
X485952Y688999D01*
X486570Y691306D01*
Y693694D01*
X485952Y696001D01*
X484758Y698069D01*
X483069Y699758D01*
X481001Y700952D01*
X478694Y701570D01*
D02*
G37*
G36*
X353694D02*
X351306D01*
X348999Y700952D01*
X346931Y699758D01*
X345242Y698069D01*
X344048Y696001D01*
X343430Y693694D01*
Y691306D01*
X344048Y688999D01*
X345242Y686931D01*
X346931Y685242D01*
X348999Y684048D01*
X351306Y683430D01*
X353694D01*
X356001Y684048D01*
X358069Y685242D01*
X359758Y686931D01*
X360952Y688999D01*
X361570Y691306D01*
Y693694D01*
X360952Y696001D01*
X359758Y698069D01*
X358069Y699758D01*
X356001Y700952D01*
X353694Y701570D01*
D02*
G37*
G36*
X168694D02*
X166306D01*
X163999Y700952D01*
X161931Y699758D01*
X160242Y698069D01*
X159048Y696001D01*
X158430Y693694D01*
Y691306D01*
X159048Y688999D01*
X160242Y686931D01*
X161931Y685242D01*
X163999Y684048D01*
X166306Y683430D01*
X168694D01*
X171001Y684048D01*
X173069Y685242D01*
X174758Y686931D01*
X175952Y688999D01*
X176570Y691306D01*
Y693694D01*
X175952Y696001D01*
X174758Y698069D01*
X173069Y699758D01*
X171001Y700952D01*
X168694Y701570D01*
D02*
G37*
G36*
X134978Y685821D02*
X133474D01*
X132085Y685246D01*
X131021Y684182D01*
X130446Y682793D01*
Y681289D01*
X131021Y679900D01*
X132085Y678837D01*
X133474Y678261D01*
X134978D01*
X136367Y678837D01*
X137431Y679900D01*
X138006Y681289D01*
Y682793D01*
X137431Y684182D01*
X136367Y685246D01*
X134978Y685821D01*
D02*
G37*
G36*
X640660Y682827D02*
X639156D01*
X637767Y682251D01*
X636703Y681188D01*
X636128Y679799D01*
Y678295D01*
X636703Y676906D01*
X637767Y675842D01*
X639156Y675267D01*
X640660D01*
X642049Y675842D01*
X643112Y676906D01*
X643688Y678295D01*
Y679799D01*
X643112Y681188D01*
X642049Y682251D01*
X640660Y682827D01*
D02*
G37*
G36*
X521111Y682566D02*
X519607D01*
X518218Y681991D01*
X517155Y680927D01*
X516579Y679538D01*
Y678034D01*
X517155Y676645D01*
X518218Y675582D01*
X519607Y675006D01*
X521111D01*
X522500Y675582D01*
X523564Y676645D01*
X524139Y678034D01*
Y679538D01*
X523564Y680927D01*
X522500Y681991D01*
X521111Y682566D01*
D02*
G37*
G36*
X330752Y680280D02*
X329248D01*
X327859Y679705D01*
X326796Y678641D01*
X326220Y677252D01*
Y675748D01*
X326796Y674359D01*
X327859Y673296D01*
X329248Y672720D01*
X330752D01*
X332141Y673296D01*
X333204Y674359D01*
X333780Y675748D01*
Y677252D01*
X333204Y678641D01*
X332141Y679705D01*
X330752Y680280D01*
D02*
G37*
G36*
X290752D02*
X289248D01*
X287859Y679705D01*
X286795Y678641D01*
X286220Y677252D01*
Y675748D01*
X286795Y674359D01*
X287859Y673296D01*
X289248Y672720D01*
X290752D01*
X292141Y673296D01*
X293204Y674359D01*
X293780Y675748D01*
Y677252D01*
X293204Y678641D01*
X292141Y679705D01*
X290752Y680280D01*
D02*
G37*
G36*
X250752D02*
X249248D01*
X247859Y679705D01*
X246795Y678641D01*
X246220Y677252D01*
Y675748D01*
X246795Y674359D01*
X247859Y673296D01*
X249248Y672720D01*
X250752D01*
X252141Y673296D01*
X253204Y674359D01*
X253780Y675748D01*
Y677252D01*
X253204Y678641D01*
X252141Y679705D01*
X250752Y680280D01*
D02*
G37*
G36*
X210752D02*
X209248D01*
X207859Y679705D01*
X206795Y678641D01*
X206220Y677252D01*
Y675748D01*
X206795Y674359D01*
X207859Y673296D01*
X209248Y672720D01*
X210752D01*
X212141Y673296D01*
X213204Y674359D01*
X213780Y675748D01*
Y677252D01*
X213204Y678641D01*
X212141Y679705D01*
X210752Y680280D01*
D02*
G37*
G36*
X560688Y677375D02*
X559184D01*
X557795Y676799D01*
X556732Y675736D01*
X556156Y674347D01*
Y672843D01*
X556732Y671453D01*
X557795Y670390D01*
X559184Y669815D01*
X560688D01*
X562077Y670390D01*
X563141Y671453D01*
X563716Y672843D01*
Y674347D01*
X563141Y675736D01*
X562077Y676799D01*
X560688Y677375D01*
D02*
G37*
G36*
X540752D02*
X539248D01*
X537859Y676799D01*
X536796Y675736D01*
X536220Y674347D01*
Y672843D01*
X536796Y671453D01*
X537859Y670390D01*
X539248Y669815D01*
X540752D01*
X542141Y670390D01*
X543205Y671453D01*
X543780Y672843D01*
Y674347D01*
X543205Y675736D01*
X542141Y676799D01*
X540752Y677375D01*
D02*
G37*
G36*
X600712Y677233D02*
X599209D01*
X597819Y676658D01*
X596756Y675594D01*
X596180Y674205D01*
Y672701D01*
X596756Y671312D01*
X597819Y670249D01*
X599209Y669673D01*
X600712D01*
X602102Y670249D01*
X603165Y671312D01*
X603741Y672701D01*
Y674205D01*
X603165Y675594D01*
X602102Y676658D01*
X600712Y677233D01*
D02*
G37*
G36*
X620752Y655280D02*
X619248D01*
X617859Y654705D01*
X616796Y653641D01*
X616220Y652252D01*
Y650748D01*
X616796Y649359D01*
X617859Y648296D01*
X619248Y647720D01*
X620752D01*
X622141Y648296D01*
X623204Y649359D01*
X623780Y650748D01*
Y652252D01*
X623204Y653641D01*
X622141Y654705D01*
X620752Y655280D01*
D02*
G37*
G36*
X540752D02*
X539248D01*
X537859Y654705D01*
X536796Y653641D01*
X536220Y652252D01*
Y650748D01*
X536796Y649359D01*
X537859Y648296D01*
X539248Y647720D01*
X540752D01*
X542141Y648296D01*
X543205Y649359D01*
X543780Y650748D01*
Y652252D01*
X543205Y653641D01*
X542141Y654705D01*
X540752Y655280D01*
D02*
G37*
G36*
X331206Y654030D02*
X329702D01*
X328313Y653455D01*
X327249Y652391D01*
X326674Y651002D01*
Y649498D01*
X327249Y648109D01*
X328313Y647046D01*
X329702Y646470D01*
X331206D01*
X332595Y647046D01*
X333658Y648109D01*
X334234Y649498D01*
Y651002D01*
X333658Y652391D01*
X332595Y653455D01*
X331206Y654030D01*
D02*
G37*
G36*
X290739Y653095D02*
X289235D01*
X287846Y652519D01*
X286782Y651456D01*
X286207Y650067D01*
Y648563D01*
X286782Y647173D01*
X287846Y646110D01*
X289235Y645535D01*
X290739D01*
X292128Y646110D01*
X293191Y647173D01*
X293767Y648563D01*
Y650067D01*
X293191Y651456D01*
X292128Y652519D01*
X290739Y653095D01*
D02*
G37*
G36*
X250669Y652781D02*
X249166D01*
X247776Y652205D01*
X246713Y651142D01*
X246138Y649753D01*
Y648249D01*
X246713Y646860D01*
X247776Y645796D01*
X249166Y645221D01*
X250669D01*
X252059Y645796D01*
X253122Y646860D01*
X253697Y648249D01*
Y649753D01*
X253122Y651142D01*
X252059Y652205D01*
X250669Y652781D01*
D02*
G37*
G36*
X210724Y652404D02*
X209220D01*
X207831Y651829D01*
X206768Y650766D01*
X206192Y649376D01*
Y647873D01*
X206768Y646483D01*
X207831Y645420D01*
X209220Y644845D01*
X210724D01*
X212113Y645420D01*
X213177Y646483D01*
X213752Y647873D01*
Y649376D01*
X213177Y650766D01*
X212113Y651829D01*
X210724Y652404D01*
D02*
G37*
G36*
X87424Y651410D02*
X85921D01*
X84531Y650834D01*
X83468Y649771D01*
X82893Y648382D01*
Y646878D01*
X83468Y645489D01*
X84531Y644425D01*
X85921Y643850D01*
X87424D01*
X88814Y644425D01*
X89877Y645489D01*
X90453Y646878D01*
Y648382D01*
X89877Y649771D01*
X88814Y650834D01*
X87424Y651410D01*
D02*
G37*
G36*
X70852Y650179D02*
X69349D01*
X67959Y649604D01*
X66896Y648541D01*
X66321Y647151D01*
Y645648D01*
X66896Y644258D01*
X67959Y643195D01*
X69349Y642619D01*
X70852D01*
X72242Y643195D01*
X73305Y644258D01*
X73881Y645648D01*
Y647151D01*
X73305Y648541D01*
X72242Y649604D01*
X70852Y650179D01*
D02*
G37*
G36*
X144262Y649251D02*
X142758D01*
X141369Y648675D01*
X140306Y647612D01*
X139730Y646223D01*
Y644719D01*
X140306Y643329D01*
X141369Y642266D01*
X142758Y641691D01*
X144262D01*
X145651Y642266D01*
X146714Y643329D01*
X147290Y644719D01*
Y646223D01*
X146714Y647612D01*
X145651Y648675D01*
X144262Y649251D01*
D02*
G37*
G36*
X80704Y641504D02*
X79201D01*
X77811Y640928D01*
X76748Y639865D01*
X76173Y638476D01*
Y636972D01*
X76748Y635583D01*
X77811Y634519D01*
X79201Y633944D01*
X80704D01*
X82094Y634519D01*
X83157Y635583D01*
X83733Y636972D01*
Y638476D01*
X83157Y639865D01*
X82094Y640928D01*
X80704Y641504D01*
D02*
G37*
G36*
X64132Y640273D02*
X62629D01*
X61239Y639698D01*
X60176Y638635D01*
X59601Y637245D01*
Y635742D01*
X60176Y634352D01*
X61239Y633289D01*
X62629Y632713D01*
X64132D01*
X65522Y633289D01*
X66585Y634352D01*
X67161Y635742D01*
Y637245D01*
X66585Y638635D01*
X65522Y639698D01*
X64132Y640273D01*
D02*
G37*
G36*
X554572Y637335D02*
X553068D01*
X551679Y636759D01*
X550615Y635696D01*
X550040Y634307D01*
Y632803D01*
X550615Y631413D01*
X551679Y630350D01*
X553068Y629775D01*
X554572D01*
X555961Y630350D01*
X557024Y631413D01*
X557600Y632803D01*
Y634307D01*
X557024Y635696D01*
X555961Y636759D01*
X554572Y637335D01*
D02*
G37*
G36*
X664197Y636976D02*
X662693D01*
X661304Y636400D01*
X660240Y635337D01*
X659665Y633948D01*
Y632444D01*
X660240Y631055D01*
X661304Y629991D01*
X662693Y629416D01*
X664197D01*
X665586Y629991D01*
X666649Y631055D01*
X667225Y632444D01*
Y633948D01*
X666649Y635337D01*
X665586Y636400D01*
X664197Y636976D01*
D02*
G37*
G36*
X88627Y633581D02*
X87123D01*
X85733Y633005D01*
X84670Y631942D01*
X84095Y630552D01*
Y629049D01*
X84670Y627659D01*
X85733Y626596D01*
X87123Y626021D01*
X88627D01*
X90016Y626596D01*
X91079Y627659D01*
X91655Y629049D01*
Y630552D01*
X91079Y631942D01*
X90016Y633005D01*
X88627Y633581D01*
D02*
G37*
G36*
X71644Y632310D02*
X70140D01*
X68751Y631735D01*
X67687Y630672D01*
X67112Y629282D01*
Y627779D01*
X67687Y626389D01*
X68751Y625326D01*
X70140Y624751D01*
X71644D01*
X73033Y625326D01*
X74096Y626389D01*
X74672Y627779D01*
Y629282D01*
X74096Y630672D01*
X73033Y631735D01*
X71644Y632310D01*
D02*
G37*
G36*
X81907Y623675D02*
X80403D01*
X79014Y623099D01*
X77950Y622036D01*
X77375Y620646D01*
Y619143D01*
X77950Y617753D01*
X79014Y616690D01*
X80403Y616115D01*
X81907D01*
X83296Y616690D01*
X84359Y617753D01*
X84935Y619143D01*
Y620646D01*
X84359Y622036D01*
X83296Y623099D01*
X81907Y623675D01*
D02*
G37*
G36*
X64924Y622405D02*
X63420D01*
X62031Y621829D01*
X60967Y620766D01*
X60392Y619376D01*
Y617873D01*
X60967Y616483D01*
X62031Y615420D01*
X63420Y614845D01*
X64924D01*
X66313Y615420D01*
X67376Y616483D01*
X67952Y617873D01*
Y619376D01*
X67376Y620766D01*
X66313Y621829D01*
X64924Y622405D01*
D02*
G37*
G36*
X101595Y563485D02*
X100091D01*
X98702Y562910D01*
X97639Y561846D01*
X97063Y560457D01*
Y558953D01*
X97639Y557564D01*
X98702Y556501D01*
X100091Y555925D01*
X101595D01*
X102984Y556501D01*
X104048Y557564D01*
X104623Y558953D01*
Y560457D01*
X104048Y561846D01*
X102984Y562910D01*
X101595Y563485D01*
D02*
G37*
G36*
X218430Y562834D02*
X216926D01*
X215537Y562258D01*
X214473Y561195D01*
X213898Y559806D01*
Y558302D01*
X214473Y556913D01*
X215537Y555849D01*
X216926Y555274D01*
X218430D01*
X219819Y555849D01*
X220882Y556913D01*
X221458Y558302D01*
Y559806D01*
X220882Y561195D01*
X219819Y562258D01*
X218430Y562834D01*
D02*
G37*
G36*
X335524Y562580D02*
X334020D01*
X332631Y562005D01*
X331567Y560941D01*
X330992Y559552D01*
Y558048D01*
X331567Y556659D01*
X332631Y555596D01*
X334020Y555020D01*
X335524D01*
X336913Y555596D01*
X337976Y556659D01*
X338552Y558048D01*
Y559552D01*
X337976Y560941D01*
X336913Y562005D01*
X335524Y562580D01*
D02*
G37*
G36*
X452110Y562072D02*
X450606D01*
X449217Y561497D01*
X448153Y560433D01*
X447578Y559044D01*
Y557540D01*
X448153Y556151D01*
X449217Y555088D01*
X450606Y554512D01*
X452110D01*
X453499Y555088D01*
X454562Y556151D01*
X455138Y557540D01*
Y559044D01*
X454562Y560433D01*
X453499Y561497D01*
X452110Y562072D01*
D02*
G37*
G36*
X58404Y551342D02*
X56900D01*
X55510Y550766D01*
X54447Y549703D01*
X53872Y548314D01*
Y546810D01*
X54447Y545421D01*
X55510Y544357D01*
X56900Y543782D01*
X58404D01*
X59793Y544357D01*
X60856Y545421D01*
X61432Y546810D01*
Y548314D01*
X60856Y549703D01*
X59793Y550766D01*
X58404Y551342D01*
D02*
G37*
G36*
X44705Y551229D02*
X43201D01*
X41812Y550654D01*
X40749Y549590D01*
X40173Y548201D01*
Y546697D01*
X40749Y545308D01*
X41812Y544245D01*
X43201Y543669D01*
X44705D01*
X46094Y544245D01*
X47158Y545308D01*
X47733Y546697D01*
Y548201D01*
X47158Y549590D01*
X46094Y550654D01*
X44705Y551229D01*
D02*
G37*
G36*
X154099Y550936D02*
X152596D01*
X151206Y550361D01*
X150143Y549297D01*
X149567Y547908D01*
Y546404D01*
X150143Y545015D01*
X151206Y543952D01*
X152596Y543376D01*
X154099D01*
X155489Y543952D01*
X156552Y545015D01*
X157127Y546404D01*
Y547908D01*
X156552Y549297D01*
X155489Y550361D01*
X154099Y550936D01*
D02*
G37*
G36*
X294563Y550814D02*
X293059D01*
X291670Y550238D01*
X290606Y549175D01*
X290031Y547786D01*
Y546282D01*
X290606Y544893D01*
X291670Y543829D01*
X293059Y543254D01*
X294563D01*
X295952Y543829D01*
X297015Y544893D01*
X297591Y546282D01*
Y547786D01*
X297015Y549175D01*
X295952Y550238D01*
X294563Y550814D01*
D02*
G37*
G36*
X281269Y550668D02*
X279765D01*
X278376Y550092D01*
X277313Y549029D01*
X276737Y547640D01*
Y546136D01*
X277313Y544747D01*
X278376Y543683D01*
X279765Y543108D01*
X281269D01*
X282658Y543683D01*
X283722Y544747D01*
X284297Y546136D01*
Y547640D01*
X283722Y549029D01*
X282658Y550092D01*
X281269Y550668D01*
D02*
G37*
G36*
X499405Y550642D02*
X497901D01*
X496511Y550067D01*
X495448Y549003D01*
X494873Y547614D01*
Y546110D01*
X495448Y544721D01*
X496511Y543658D01*
X497901Y543082D01*
X499405D01*
X500794Y543658D01*
X501857Y544721D01*
X502433Y546110D01*
Y547614D01*
X501857Y549003D01*
X500794Y550067D01*
X499405Y550642D01*
D02*
G37*
G36*
X489236D02*
X487733D01*
X486343Y550067D01*
X485280Y549003D01*
X484704Y547614D01*
Y546110D01*
X485280Y544721D01*
X486343Y543658D01*
X487733Y543082D01*
X489236D01*
X490626Y543658D01*
X491689Y544721D01*
X492264Y546110D01*
Y547614D01*
X491689Y549003D01*
X490626Y550067D01*
X489236Y550642D01*
D02*
G37*
G36*
X479068D02*
X477564D01*
X476175Y550067D01*
X475112Y549003D01*
X474536Y547614D01*
Y546110D01*
X475112Y544721D01*
X476175Y543658D01*
X477564Y543082D01*
X479068D01*
X480457Y543658D01*
X481521Y544721D01*
X482096Y546110D01*
Y547614D01*
X481521Y549003D01*
X480457Y550067D01*
X479068Y550642D01*
D02*
G37*
G36*
X388478D02*
X386974D01*
X385585Y550067D01*
X384522Y549003D01*
X383946Y547614D01*
Y546110D01*
X384522Y544721D01*
X385585Y543658D01*
X386974Y543082D01*
X388478D01*
X389868Y543658D01*
X390931Y544721D01*
X391506Y546110D01*
Y547614D01*
X390931Y549003D01*
X389868Y550067D01*
X388478Y550642D01*
D02*
G37*
G36*
X377929D02*
X376425D01*
X375036Y550067D01*
X373973Y549003D01*
X373397Y547614D01*
Y546110D01*
X373973Y544721D01*
X375036Y543658D01*
X376425Y543082D01*
X377929D01*
X379318Y543658D01*
X380382Y544721D01*
X380957Y546110D01*
Y547614D01*
X380382Y549003D01*
X379318Y550067D01*
X377929Y550642D01*
D02*
G37*
G36*
X367380D02*
X365876D01*
X364487Y550067D01*
X363423Y549003D01*
X362848Y547614D01*
Y546110D01*
X363423Y544721D01*
X364487Y543658D01*
X365876Y543082D01*
X367380D01*
X368769Y543658D01*
X369832Y544721D01*
X370408Y546110D01*
Y547614D01*
X369832Y549003D01*
X368769Y550067D01*
X367380Y550642D01*
D02*
G37*
G36*
X356830D02*
X355327D01*
X353937Y550067D01*
X352874Y549003D01*
X352299Y547614D01*
Y546110D01*
X352874Y544721D01*
X353937Y543658D01*
X355327Y543082D01*
X356830D01*
X358220Y543658D01*
X359283Y544721D01*
X359859Y546110D01*
Y547614D01*
X359283Y549003D01*
X358220Y550067D01*
X356830Y550642D01*
D02*
G37*
G36*
X271910D02*
X270406D01*
X269017Y550067D01*
X267953Y549003D01*
X267378Y547614D01*
Y546110D01*
X267953Y544721D01*
X269017Y543658D01*
X270406Y543082D01*
X271910D01*
X273299Y543658D01*
X274362Y544721D01*
X274938Y546110D01*
Y547614D01*
X274362Y549003D01*
X273299Y550067D01*
X271910Y550642D01*
D02*
G37*
G36*
X261360D02*
X259857D01*
X258467Y550067D01*
X257404Y549003D01*
X256829Y547614D01*
Y546110D01*
X257404Y544721D01*
X258467Y543658D01*
X259857Y543082D01*
X261360D01*
X262750Y543658D01*
X263813Y544721D01*
X264389Y546110D01*
Y547614D01*
X263813Y549003D01*
X262750Y550067D01*
X261360Y550642D01*
D02*
G37*
G36*
X250811D02*
X249307D01*
X247918Y550067D01*
X246855Y549003D01*
X246279Y547614D01*
Y546110D01*
X246855Y544721D01*
X247918Y543658D01*
X249307Y543082D01*
X250811D01*
X252201Y543658D01*
X253264Y544721D01*
X253839Y546110D01*
Y547614D01*
X253264Y549003D01*
X252201Y550067D01*
X250811Y550642D01*
D02*
G37*
G36*
X240262D02*
X238758D01*
X237369Y550067D01*
X236305Y549003D01*
X235730Y547614D01*
Y546110D01*
X236305Y544721D01*
X237369Y543658D01*
X238758Y543082D01*
X240262D01*
X241651Y543658D01*
X242715Y544721D01*
X243290Y546110D01*
Y547614D01*
X242715Y549003D01*
X241651Y550067D01*
X240262Y550642D01*
D02*
G37*
G36*
X176440D02*
X174936D01*
X173547Y550067D01*
X172484Y549003D01*
X171908Y547614D01*
Y546110D01*
X172484Y544721D01*
X173547Y543658D01*
X174936Y543082D01*
X176440D01*
X177829Y543658D01*
X178893Y544721D01*
X179468Y546110D01*
Y547614D01*
X178893Y549003D01*
X177829Y550067D01*
X176440Y550642D01*
D02*
G37*
G36*
X144792D02*
X143288D01*
X141899Y550067D01*
X140836Y549003D01*
X140260Y547614D01*
Y546110D01*
X140836Y544721D01*
X141899Y543658D01*
X143288Y543082D01*
X144792D01*
X146181Y543658D01*
X147245Y544721D01*
X147820Y546110D01*
Y547614D01*
X147245Y549003D01*
X146181Y550067D01*
X144792Y550642D01*
D02*
G37*
G36*
X134243D02*
X132739D01*
X131350Y550067D01*
X130286Y549003D01*
X129711Y547614D01*
Y546110D01*
X130286Y544721D01*
X131350Y543658D01*
X132739Y543082D01*
X134243D01*
X135632Y543658D01*
X136695Y544721D01*
X137271Y546110D01*
Y547614D01*
X136695Y549003D01*
X135632Y550067D01*
X134243Y550642D01*
D02*
G37*
G36*
X123693D02*
X122190D01*
X120800Y550067D01*
X119737Y549003D01*
X119162Y547614D01*
Y546110D01*
X119737Y544721D01*
X120800Y543658D01*
X122190Y543082D01*
X123693D01*
X125083Y543658D01*
X126146Y544721D01*
X126721Y546110D01*
Y547614D01*
X126146Y549003D01*
X125083Y550067D01*
X123693Y550642D01*
D02*
G37*
G36*
X167169Y550622D02*
X165665D01*
X164276Y550046D01*
X163213Y548983D01*
X162637Y547594D01*
Y546090D01*
X163213Y544701D01*
X164276Y543637D01*
X165665Y543062D01*
X167169D01*
X168559Y543637D01*
X169622Y544701D01*
X170197Y546090D01*
Y547594D01*
X169622Y548983D01*
X168559Y550046D01*
X167169Y550622D01*
D02*
G37*
G36*
X411405Y550483D02*
X409902D01*
X408512Y549907D01*
X407449Y548844D01*
X406874Y547454D01*
Y545951D01*
X407449Y544561D01*
X408512Y543498D01*
X409902Y542923D01*
X411405D01*
X412795Y543498D01*
X413858Y544561D01*
X414434Y545951D01*
Y547454D01*
X413858Y548844D01*
X412795Y549907D01*
X411405Y550483D01*
D02*
G37*
G36*
X397266D02*
X395762D01*
X394373Y549907D01*
X393310Y548844D01*
X392734Y547454D01*
Y545951D01*
X393310Y544561D01*
X394373Y543498D01*
X395762Y542923D01*
X397266D01*
X398655Y543498D01*
X399719Y544561D01*
X400294Y545951D01*
Y547454D01*
X399719Y548844D01*
X398655Y549907D01*
X397266Y550483D01*
D02*
G37*
G36*
X548064Y550095D02*
X546561D01*
X545171Y549520D01*
X544108Y548457D01*
X543533Y547067D01*
Y545564D01*
X544108Y544174D01*
X545171Y543111D01*
X546561Y542535D01*
X548064D01*
X549454Y543111D01*
X550517Y544174D01*
X551093Y545564D01*
Y547067D01*
X550517Y548457D01*
X549454Y549520D01*
X548064Y550095D01*
D02*
G37*
G36*
X671096Y549469D02*
X669592D01*
X668203Y548894D01*
X667140Y547830D01*
X666564Y546441D01*
Y544937D01*
X667140Y543548D01*
X668203Y542484D01*
X669592Y541909D01*
X671096D01*
X672485Y542484D01*
X673549Y543548D01*
X674124Y544937D01*
Y546441D01*
X673549Y547830D01*
X672485Y548894D01*
X671096Y549469D01*
D02*
G37*
G36*
X188082Y542075D02*
X186579D01*
X185189Y541499D01*
X184126Y540436D01*
X183550Y539047D01*
Y537543D01*
X184126Y536153D01*
X185189Y535090D01*
X186579Y534515D01*
X188082D01*
X189472Y535090D01*
X190535Y536153D01*
X191110Y537543D01*
Y539047D01*
X190535Y540436D01*
X189472Y541499D01*
X188082Y542075D01*
D02*
G37*
G36*
X51839Y541715D02*
X50335D01*
X48945Y541139D01*
X47882Y540076D01*
X47307Y538687D01*
Y537183D01*
X47882Y535793D01*
X48945Y534730D01*
X50335Y534155D01*
X51839D01*
X53228Y534730D01*
X54291Y535793D01*
X54867Y537183D01*
Y538687D01*
X54291Y540076D01*
X53228Y541139D01*
X51839Y541715D01*
D02*
G37*
G36*
X160644Y540851D02*
X159140D01*
X157750Y540275D01*
X156687Y539212D01*
X156112Y537823D01*
Y536319D01*
X156687Y534930D01*
X157750Y533866D01*
X159140Y533291D01*
X160644D01*
X162033Y533866D01*
X163096Y534930D01*
X163672Y536319D01*
Y537823D01*
X163096Y539212D01*
X162033Y540275D01*
X160644Y540851D01*
D02*
G37*
G36*
X404412Y540372D02*
X402908D01*
X401519Y539797D01*
X400455Y538734D01*
X399880Y537344D01*
Y535840D01*
X400455Y534451D01*
X401519Y533388D01*
X402908Y532812D01*
X404412D01*
X405801Y533388D01*
X406864Y534451D01*
X407440Y535840D01*
Y537344D01*
X406864Y538734D01*
X405801Y539797D01*
X404412Y540372D01*
D02*
G37*
G36*
X288116Y540044D02*
X286612D01*
X285223Y539468D01*
X284159Y538405D01*
X283584Y537016D01*
Y535512D01*
X284159Y534123D01*
X285223Y533060D01*
X286612Y532484D01*
X288116D01*
X289505Y533060D01*
X290568Y534123D01*
X291144Y535512D01*
Y537016D01*
X290568Y538405D01*
X289505Y539468D01*
X288116Y540044D01*
D02*
G37*
G36*
X196151Y537191D02*
X194648D01*
X193258Y536615D01*
X192195Y535552D01*
X191619Y534163D01*
Y532659D01*
X192195Y531269D01*
X193258Y530206D01*
X194648Y529631D01*
X196151D01*
X197541Y530206D01*
X198604Y531269D01*
X199179Y532659D01*
Y534163D01*
X198604Y535552D01*
X197541Y536615D01*
X196151Y537191D01*
D02*
G37*
G36*
X419227Y542029D02*
X417723D01*
X416334Y541453D01*
X415271Y540390D01*
X414695Y539001D01*
Y537497D01*
X415271Y536107D01*
X416334Y535044D01*
X417723Y534469D01*
X419227D01*
X420336Y534928D01*
X419988Y534089D01*
Y532585D01*
X420563Y531196D01*
X421627Y530132D01*
X423016Y529557D01*
X424520D01*
X425909Y530132D01*
X426973Y531196D01*
X427548Y532585D01*
Y534089D01*
X426973Y535478D01*
X425909Y536541D01*
X424520Y537117D01*
X423016D01*
X421908Y536658D01*
X422255Y537497D01*
Y539001D01*
X421680Y540390D01*
X420616Y541453D01*
X419227Y542029D01*
D02*
G37*
G36*
X303898Y541943D02*
X302395D01*
X301005Y541367D01*
X299942Y540304D01*
X299366Y538915D01*
Y537411D01*
X299942Y536022D01*
X301005Y534958D01*
X302395Y534383D01*
X303541D01*
X303419Y534089D01*
Y532585D01*
X303995Y531196D01*
X305058Y530132D01*
X306448Y529557D01*
X307951D01*
X309341Y530132D01*
X310404Y531196D01*
X310979Y532585D01*
Y534089D01*
X310404Y535478D01*
X309341Y536541D01*
X307951Y537117D01*
X306805D01*
X306926Y537411D01*
Y538915D01*
X306351Y540304D01*
X305288Y541367D01*
X303898Y541943D01*
D02*
G37*
G36*
X70019Y542040D02*
X68515D01*
X67126Y541465D01*
X66062Y540401D01*
X65487Y539012D01*
Y537508D01*
X66062Y536119D01*
X67126Y535056D01*
X68515Y534480D01*
X70019D01*
X70533Y534693D01*
X70283Y534089D01*
Y532585D01*
X70858Y531196D01*
X71921Y530132D01*
X73311Y529557D01*
X74814D01*
X76204Y530132D01*
X77267Y531196D01*
X77842Y532585D01*
Y534089D01*
X77267Y535478D01*
X76204Y536541D01*
X74814Y537117D01*
X73311D01*
X72797Y536904D01*
X73047Y537508D01*
Y539012D01*
X72471Y540401D01*
X71408Y541465D01*
X70019Y542040D01*
D02*
G37*
G36*
X450709Y535614D02*
X449205D01*
X447816Y535039D01*
X446752Y533976D01*
X446177Y532586D01*
Y531082D01*
X446752Y529693D01*
X447816Y528630D01*
X449205Y528054D01*
X450709D01*
X452098Y528630D01*
X453162Y529693D01*
X453737Y531082D01*
Y532586D01*
X453162Y533976D01*
X452098Y535039D01*
X450709Y535614D01*
D02*
G37*
G36*
X441209D02*
X439705D01*
X438316Y535039D01*
X437253Y533976D01*
X436677Y532586D01*
Y531082D01*
X437253Y529693D01*
X438316Y528630D01*
X439705Y528054D01*
X441209D01*
X442598Y528630D01*
X443662Y529693D01*
X444237Y531082D01*
Y532586D01*
X443662Y533976D01*
X442598Y535039D01*
X441209Y535614D01*
D02*
G37*
G36*
X334140D02*
X332637D01*
X331247Y535039D01*
X330184Y533976D01*
X329608Y532586D01*
Y531082D01*
X330184Y529693D01*
X331247Y528630D01*
X332637Y528054D01*
X334140D01*
X335530Y528630D01*
X336593Y529693D01*
X337169Y531082D01*
Y532586D01*
X336593Y533976D01*
X335530Y535039D01*
X334140Y535614D01*
D02*
G37*
G36*
X324641D02*
X323137D01*
X321748Y535039D01*
X320684Y533976D01*
X320109Y532586D01*
Y531082D01*
X320684Y529693D01*
X321748Y528630D01*
X323137Y528054D01*
X324641D01*
X326030Y528630D01*
X327093Y529693D01*
X327669Y531082D01*
Y532586D01*
X327093Y533976D01*
X326030Y535039D01*
X324641Y535614D01*
D02*
G37*
G36*
X217572D02*
X216068D01*
X214679Y535039D01*
X213615Y533976D01*
X213040Y532586D01*
Y531082D01*
X213615Y529693D01*
X214679Y528630D01*
X216068Y528054D01*
X217572D01*
X218961Y528630D01*
X220025Y529693D01*
X220600Y531082D01*
Y532586D01*
X220025Y533976D01*
X218961Y535039D01*
X217572Y535614D01*
D02*
G37*
G36*
X208072D02*
X206568D01*
X205179Y535039D01*
X204116Y533976D01*
X203540Y532586D01*
Y531082D01*
X204116Y529693D01*
X205179Y528630D01*
X206568Y528054D01*
X208072D01*
X209461Y528630D01*
X210525Y529693D01*
X211100Y531082D01*
Y532586D01*
X210525Y533976D01*
X209461Y535039D01*
X208072Y535614D01*
D02*
G37*
G36*
X101003D02*
X99500D01*
X98110Y535039D01*
X97047Y533976D01*
X96472Y532586D01*
Y531082D01*
X97047Y529693D01*
X98110Y528630D01*
X99500Y528054D01*
X101003D01*
X102393Y528630D01*
X103456Y529693D01*
X104031Y531082D01*
Y532586D01*
X103456Y533976D01*
X102393Y535039D01*
X101003Y535614D01*
D02*
G37*
G36*
X91504D02*
X90000D01*
X88610Y535039D01*
X87547Y533976D01*
X86972Y532586D01*
Y531082D01*
X87547Y529693D01*
X88610Y528630D01*
X90000Y528054D01*
X91504D01*
X92893Y528630D01*
X93956Y529693D01*
X94532Y531082D01*
Y532586D01*
X93956Y533976D01*
X92893Y535039D01*
X91504Y535614D01*
D02*
G37*
G36*
X489543Y524697D02*
X488039D01*
X486650Y524121D01*
X485587Y523058D01*
X485011Y521669D01*
Y520165D01*
X485587Y518775D01*
X486650Y517712D01*
X488039Y517137D01*
X489543D01*
X490932Y517712D01*
X491996Y518775D01*
X492571Y520165D01*
Y521669D01*
X491996Y523058D01*
X490932Y524121D01*
X489543Y524697D01*
D02*
G37*
G36*
X259872Y521233D02*
X258368D01*
X256979Y520657D01*
X255915Y519594D01*
X255340Y518205D01*
Y516701D01*
X255915Y515312D01*
X256979Y514248D01*
X258368Y513673D01*
X259872D01*
X261261Y514248D01*
X262324Y515312D01*
X262900Y516701D01*
Y518205D01*
X262324Y519594D01*
X261261Y520657D01*
X259872Y521233D01*
D02*
G37*
G36*
X326877Y519761D02*
X325373D01*
X323984Y519185D01*
X322921Y518122D01*
X322345Y516732D01*
Y515229D01*
X322921Y513839D01*
X323984Y512776D01*
X325373Y512201D01*
X326877D01*
X328266Y512776D01*
X329330Y513839D01*
X329905Y515229D01*
Y516732D01*
X329330Y518122D01*
X328266Y519185D01*
X326877Y519761D01*
D02*
G37*
G36*
X210309D02*
X208805D01*
X207416Y519185D01*
X206352Y518122D01*
X205777Y516732D01*
Y515229D01*
X206352Y513839D01*
X207416Y512776D01*
X208805Y512201D01*
X210309D01*
X211698Y512776D01*
X212761Y513839D01*
X213337Y515229D01*
Y516732D01*
X212761Y518122D01*
X211698Y519185D01*
X210309Y519761D01*
D02*
G37*
G36*
X93740D02*
X92236D01*
X90847Y519185D01*
X89784Y518122D01*
X89208Y516732D01*
Y515229D01*
X89784Y513839D01*
X90847Y512776D01*
X92236Y512201D01*
X93740D01*
X95129Y512776D01*
X96193Y513839D01*
X96768Y515229D01*
Y516732D01*
X96193Y518122D01*
X95129Y519185D01*
X93740Y519761D01*
D02*
G37*
G36*
X453832Y518629D02*
X452328D01*
X450939Y518054D01*
X449876Y516990D01*
X449300Y515601D01*
Y514097D01*
X449876Y512708D01*
X450939Y511645D01*
X452328Y511069D01*
X453832D01*
X455221Y511645D01*
X456285Y512708D01*
X456860Y514097D01*
Y515601D01*
X456285Y516990D01*
X455221Y518054D01*
X453832Y518629D01*
D02*
G37*
G36*
X380534Y517775D02*
X379030D01*
X377641Y517199D01*
X376578Y516136D01*
X376002Y514746D01*
Y513243D01*
X376578Y511853D01*
X377641Y510790D01*
X379030Y510215D01*
X380534D01*
X381923Y510790D01*
X382987Y511853D01*
X383562Y513243D01*
Y514746D01*
X382987Y516136D01*
X381923Y517199D01*
X380534Y517775D01*
D02*
G37*
G36*
X336788Y517519D02*
X335285D01*
X333895Y516944D01*
X332832Y515880D01*
X332256Y514491D01*
Y512987D01*
X332832Y511598D01*
X333895Y510535D01*
X335285Y509959D01*
X336788D01*
X338178Y510535D01*
X339241Y511598D01*
X339816Y512987D01*
Y514491D01*
X339241Y515880D01*
X338178Y516944D01*
X336788Y517519D01*
D02*
G37*
G36*
X220220D02*
X218716D01*
X217327Y516944D01*
X216263Y515880D01*
X215688Y514491D01*
Y512987D01*
X216263Y511598D01*
X217327Y510535D01*
X218716Y509959D01*
X220220D01*
X221609Y510535D01*
X222672Y511598D01*
X223248Y512987D01*
Y514491D01*
X222672Y515880D01*
X221609Y516944D01*
X220220Y517519D01*
D02*
G37*
G36*
X103651D02*
X102148D01*
X100758Y516944D01*
X99695Y515880D01*
X99119Y514491D01*
Y512987D01*
X99695Y511598D01*
X100758Y510535D01*
X102148Y509959D01*
X103651D01*
X105041Y510535D01*
X106104Y511598D01*
X106679Y512987D01*
Y514491D01*
X106104Y515880D01*
X105041Y516944D01*
X103651Y517519D01*
D02*
G37*
G36*
X147443Y517410D02*
X145939D01*
X144550Y516834D01*
X143487Y515771D01*
X142911Y514382D01*
Y512878D01*
X143487Y511489D01*
X144550Y510425D01*
X145939Y509850D01*
X147443D01*
X148833Y510425D01*
X149896Y511489D01*
X150471Y512878D01*
Y514382D01*
X149896Y515771D01*
X148833Y516834D01*
X147443Y517410D01*
D02*
G37*
G36*
X231259Y515417D02*
X229755D01*
X228366Y514842D01*
X227302Y513778D01*
X226727Y512389D01*
Y510885D01*
X227302Y509496D01*
X228366Y508433D01*
X229755Y507857D01*
X231259D01*
X232648Y508433D01*
X233711Y509496D01*
X234287Y510885D01*
Y512389D01*
X233711Y513778D01*
X232648Y514842D01*
X231259Y515417D01*
D02*
G37*
G36*
X83132Y513327D02*
X81629D01*
X80239Y512752D01*
X79176Y511689D01*
X78601Y510299D01*
Y508796D01*
X79176Y507406D01*
X80239Y506343D01*
X81629Y505768D01*
X83132D01*
X84522Y506343D01*
X85585Y507406D01*
X86161Y508796D01*
Y510299D01*
X85585Y511689D01*
X84522Y512752D01*
X83132Y513327D01*
D02*
G37*
G36*
X349297Y513047D02*
X347793D01*
X346404Y512472D01*
X345340Y511409D01*
X344765Y510019D01*
Y508516D01*
X345340Y507126D01*
X346404Y506063D01*
X347793Y505487D01*
X349297D01*
X350686Y506063D01*
X351750Y507126D01*
X352325Y508516D01*
Y510019D01*
X351750Y511409D01*
X350686Y512472D01*
X349297Y513047D01*
D02*
G37*
G36*
X117370Y512503D02*
X115866D01*
X114476Y511928D01*
X113413Y510864D01*
X112838Y509475D01*
Y507971D01*
X113413Y506582D01*
X114476Y505518D01*
X115866Y504943D01*
X117370D01*
X118759Y505518D01*
X119822Y506582D01*
X120398Y507971D01*
Y509475D01*
X119822Y510864D01*
X118759Y511928D01*
X117370Y512503D01*
D02*
G37*
G36*
X193590Y512457D02*
X192086D01*
X190697Y511882D01*
X189634Y510818D01*
X189058Y509429D01*
Y507925D01*
X189634Y506536D01*
X190697Y505473D01*
X192086Y504897D01*
X193590D01*
X194979Y505473D01*
X196043Y506536D01*
X196618Y507925D01*
Y509429D01*
X196043Y510818D01*
X194979Y511882D01*
X193590Y512457D01*
D02*
G37*
G36*
X321219Y512418D02*
X319715D01*
X318326Y511842D01*
X317262Y510779D01*
X316687Y509389D01*
Y507886D01*
X317262Y506496D01*
X318326Y505433D01*
X319715Y504858D01*
X321219D01*
X322608Y505433D01*
X323671Y506496D01*
X324247Y507886D01*
Y509389D01*
X323671Y510779D01*
X322608Y511842D01*
X321219Y512418D01*
D02*
G37*
G36*
X448467Y511218D02*
X446963D01*
X445574Y510643D01*
X444510Y509579D01*
X443935Y508190D01*
Y506686D01*
X444510Y505297D01*
X445574Y504234D01*
X446963Y503658D01*
X448467D01*
X449856Y504234D01*
X450919Y505297D01*
X451495Y506686D01*
Y508190D01*
X450919Y509579D01*
X449856Y510643D01*
X448467Y511218D01*
D02*
G37*
G36*
X432183Y507474D02*
X430679D01*
X429290Y506899D01*
X428227Y505836D01*
X427651Y504446D01*
Y502943D01*
X428227Y501553D01*
X429290Y500490D01*
X430679Y499914D01*
X432183D01*
X433572Y500490D01*
X434636Y501553D01*
X435211Y502943D01*
Y504446D01*
X434636Y505836D01*
X433572Y506899D01*
X432183Y507474D01*
D02*
G37*
G36*
X443275Y503716D02*
X441771D01*
X440382Y503141D01*
X439319Y502078D01*
X438743Y500688D01*
Y499184D01*
X439319Y497795D01*
X440382Y496732D01*
X441771Y496156D01*
X443275D01*
X444664Y496732D01*
X445728Y497795D01*
X446303Y499184D01*
Y500688D01*
X445728Y502078D01*
X444664Y503141D01*
X443275Y503716D01*
D02*
G37*
G36*
X460975Y503589D02*
X459472D01*
X458082Y503013D01*
X457019Y501950D01*
X456443Y500561D01*
Y499057D01*
X457019Y497668D01*
X458082Y496604D01*
X459472Y496029D01*
X460975D01*
X462365Y496604D01*
X463428Y497668D01*
X464003Y499057D01*
Y500561D01*
X463428Y501950D01*
X462365Y503013D01*
X460975Y503589D01*
D02*
G37*
G36*
X406371Y502213D02*
X404867D01*
X403477Y501638D01*
X402414Y500574D01*
X401839Y499185D01*
Y497681D01*
X402414Y496292D01*
X403477Y495229D01*
X404867Y494653D01*
X406371D01*
X407760Y495229D01*
X408823Y496292D01*
X409399Y497681D01*
Y499185D01*
X408823Y500574D01*
X407760Y501638D01*
X406371Y502213D01*
D02*
G37*
G36*
X311228Y500961D02*
X309724D01*
X308335Y500386D01*
X307271Y499322D01*
X306696Y497933D01*
Y496429D01*
X307271Y495040D01*
X308335Y493977D01*
X309724Y493401D01*
X311228D01*
X312617Y493977D01*
X313680Y495040D01*
X314256Y496429D01*
Y497933D01*
X313680Y499322D01*
X312617Y500386D01*
X311228Y500961D01*
D02*
G37*
G36*
X242061Y489717D02*
X240557D01*
X239168Y489142D01*
X238105Y488078D01*
X237529Y486689D01*
Y485185D01*
X238105Y483796D01*
X239168Y482733D01*
X240557Y482157D01*
X242061D01*
X243450Y482733D01*
X244514Y483796D01*
X245089Y485185D01*
Y486689D01*
X244514Y488078D01*
X243450Y489142D01*
X242061Y489717D01*
D02*
G37*
G36*
X233704Y485776D02*
X232200D01*
X230811Y485201D01*
X229748Y484137D01*
X229172Y482748D01*
Y481245D01*
X229748Y479855D01*
X230811Y478792D01*
X232200Y478216D01*
X233704D01*
X235093Y478792D01*
X236157Y479855D01*
X236732Y481245D01*
Y482748D01*
X236157Y484137D01*
X235093Y485201D01*
X233704Y485776D01*
D02*
G37*
G36*
X528727Y479442D02*
X527223D01*
X525834Y478866D01*
X524770Y477803D01*
X524195Y476413D01*
Y474910D01*
X524770Y473520D01*
X525834Y472457D01*
X527223Y471882D01*
X528727D01*
X530116Y472457D01*
X531180Y473520D01*
X531755Y474910D01*
Y476413D01*
X531180Y477803D01*
X530116Y478866D01*
X528727Y479442D01*
D02*
G37*
G36*
X671643Y477041D02*
X670139D01*
X668750Y476466D01*
X667687Y475402D01*
X667111Y474013D01*
Y472509D01*
X667687Y471120D01*
X668750Y470057D01*
X670139Y469481D01*
X671643D01*
X673032Y470057D01*
X674096Y471120D01*
X674671Y472509D01*
Y474013D01*
X674096Y475402D01*
X673032Y476466D01*
X671643Y477041D01*
D02*
G37*
G36*
X499862Y476220D02*
X498358D01*
X496969Y475644D01*
X495905Y474581D01*
X495330Y473192D01*
Y471688D01*
X495905Y470299D01*
X496969Y469235D01*
X498358Y468660D01*
X499862D01*
X501251Y469235D01*
X502314Y470299D01*
X502890Y471688D01*
Y473192D01*
X502314Y474581D01*
X501251Y475644D01*
X499862Y476220D01*
D02*
G37*
G36*
X324654Y471493D02*
X323150D01*
X321761Y470917D01*
X320698Y469854D01*
X320122Y468464D01*
Y466961D01*
X320698Y465571D01*
X321761Y464508D01*
X323150Y463932D01*
X324654D01*
X326044Y464508D01*
X327107Y465571D01*
X327682Y466961D01*
Y468464D01*
X327107Y469854D01*
X326044Y470917D01*
X324654Y471493D01*
D02*
G37*
G36*
X281807Y469100D02*
X280303D01*
X278914Y468524D01*
X277851Y467461D01*
X277275Y466071D01*
Y464568D01*
X277851Y463178D01*
X278914Y462115D01*
X280303Y461539D01*
X281807D01*
X283196Y462115D01*
X284260Y463178D01*
X284835Y464568D01*
Y466071D01*
X284260Y467461D01*
X283196Y468524D01*
X281807Y469100D01*
D02*
G37*
G36*
X561340Y465929D02*
X559836D01*
X558447Y465354D01*
X557384Y464290D01*
X556808Y462901D01*
Y461397D01*
X557384Y460008D01*
X558447Y458945D01*
X559836Y458369D01*
X561340D01*
X562729Y458945D01*
X563793Y460008D01*
X564368Y461397D01*
Y462901D01*
X563793Y464290D01*
X562729Y465354D01*
X561340Y465929D01*
D02*
G37*
G36*
X535980Y465837D02*
X534476D01*
X533087Y465262D01*
X532023Y464198D01*
X531448Y462809D01*
Y461305D01*
X532023Y459916D01*
X533087Y458853D01*
X534476Y458277D01*
X535980D01*
X537369Y458853D01*
X538432Y459916D01*
X539008Y461305D01*
Y462809D01*
X538432Y464198D01*
X537369Y465262D01*
X535980Y465837D01*
D02*
G37*
G36*
X98232Y460980D02*
X96728D01*
X95339Y460405D01*
X94276Y459341D01*
X93700Y457952D01*
Y456448D01*
X94276Y455059D01*
X95339Y453996D01*
X96728Y453420D01*
X98232D01*
X99621Y453996D01*
X100685Y455059D01*
X101260Y456448D01*
Y457952D01*
X100685Y459341D01*
X99621Y460405D01*
X98232Y460980D01*
D02*
G37*
G36*
X481153Y459677D02*
X479650D01*
X478260Y459101D01*
X477197Y458038D01*
X476622Y456648D01*
Y455145D01*
X477197Y453755D01*
X478260Y452692D01*
X479650Y452117D01*
X481153D01*
X482543Y452692D01*
X483606Y453755D01*
X484182Y455145D01*
Y456648D01*
X483606Y458038D01*
X482543Y459101D01*
X481153Y459677D01*
D02*
G37*
G36*
X548160Y459231D02*
X546656D01*
X545267Y458655D01*
X544204Y457592D01*
X543628Y456203D01*
Y454699D01*
X544204Y453310D01*
X545267Y452246D01*
X546656Y451671D01*
X548160D01*
X549549Y452246D01*
X550613Y453310D01*
X551188Y454699D01*
Y456203D01*
X550613Y457592D01*
X549549Y458655D01*
X548160Y459231D01*
D02*
G37*
G36*
X88110Y458780D02*
X86606D01*
X85217Y458204D01*
X84153Y457141D01*
X83578Y455752D01*
Y454248D01*
X84153Y452859D01*
X85217Y451796D01*
X86606Y451220D01*
X88110D01*
X89499Y451796D01*
X90562Y452859D01*
X91138Y454248D01*
Y455752D01*
X90562Y457141D01*
X89499Y458204D01*
X88110Y458780D01*
D02*
G37*
G36*
X634302Y457142D02*
X632799D01*
X631409Y456567D01*
X630346Y455504D01*
X629771Y454114D01*
Y452611D01*
X630346Y451221D01*
X631409Y450158D01*
X632799Y449582D01*
X634302D01*
X635692Y450158D01*
X636755Y451221D01*
X637331Y452611D01*
Y454114D01*
X636755Y455504D01*
X635692Y456567D01*
X634302Y457142D01*
D02*
G37*
G36*
X651288Y456610D02*
X649784D01*
X648394Y456035D01*
X647331Y454971D01*
X646756Y453582D01*
Y452078D01*
X647331Y450689D01*
X648394Y449625D01*
X649784Y449050D01*
X651288D01*
X652677Y449625D01*
X653740Y450689D01*
X654316Y452078D01*
Y453582D01*
X653740Y454971D01*
X652677Y456035D01*
X651288Y456610D01*
D02*
G37*
G36*
X450752Y456280D02*
X449248D01*
X447859Y455704D01*
X446795Y454641D01*
X446220Y453252D01*
Y451748D01*
X446795Y450359D01*
X447859Y449296D01*
X449248Y448720D01*
X450752D01*
X452141Y449296D01*
X453204Y450359D01*
X453780Y451748D01*
Y453252D01*
X453204Y454641D01*
X452141Y455704D01*
X450752Y456280D01*
D02*
G37*
G36*
X268294Y456238D02*
X266790D01*
X265401Y455663D01*
X264337Y454599D01*
X263762Y453210D01*
Y451706D01*
X264337Y450317D01*
X265401Y449254D01*
X266790Y448678D01*
X268294D01*
X269683Y449254D01*
X270746Y450317D01*
X271322Y451706D01*
Y453210D01*
X270746Y454599D01*
X269683Y455663D01*
X268294Y456238D01*
D02*
G37*
G36*
X70602Y455624D02*
X69098D01*
X67709Y455048D01*
X66645Y453985D01*
X66070Y452595D01*
Y451092D01*
X66645Y449702D01*
X67709Y448639D01*
X69098Y448064D01*
X70602D01*
X71991Y448639D01*
X73054Y449702D01*
X73630Y451092D01*
Y452595D01*
X73054Y453985D01*
X71991Y455048D01*
X70602Y455624D01*
D02*
G37*
G36*
X133195Y454960D02*
X131692D01*
X130302Y454385D01*
X129239Y453321D01*
X128664Y451932D01*
Y450428D01*
X129239Y449039D01*
X130302Y447976D01*
X131692Y447400D01*
X133195D01*
X134585Y447976D01*
X135648Y449039D01*
X136224Y450428D01*
Y451932D01*
X135648Y453321D01*
X134585Y454385D01*
X133195Y454960D01*
D02*
G37*
G36*
X324602Y454627D02*
X323098D01*
X321709Y454052D01*
X320645Y452989D01*
X320070Y451599D01*
Y450096D01*
X320645Y448706D01*
X321709Y447643D01*
X323098Y447067D01*
X324602D01*
X325991Y447643D01*
X327054Y448706D01*
X327630Y450096D01*
Y451599D01*
X327054Y452989D01*
X325991Y454052D01*
X324602Y454627D01*
D02*
G37*
G36*
X486637Y452487D02*
X485133D01*
X483744Y451912D01*
X482680Y450848D01*
X482105Y449459D01*
Y447955D01*
X482680Y446566D01*
X483744Y445503D01*
X485133Y444927D01*
X486637D01*
X488026Y445503D01*
X489089Y446566D01*
X489665Y447955D01*
Y449459D01*
X489089Y450848D01*
X488026Y451912D01*
X486637Y452487D01*
D02*
G37*
G36*
X417705Y448445D02*
X416202D01*
X414812Y447870D01*
X413749Y446806D01*
X413174Y445417D01*
Y443913D01*
X413749Y442524D01*
X414812Y441461D01*
X416202Y440885D01*
X417705D01*
X419095Y441461D01*
X420158Y442524D01*
X420734Y443913D01*
Y445417D01*
X420158Y446806D01*
X419095Y447870D01*
X417705Y448445D01*
D02*
G37*
G36*
X232383Y445042D02*
X230879D01*
X229490Y444467D01*
X228427Y443403D01*
X227851Y442014D01*
Y440510D01*
X228427Y439121D01*
X229490Y438057D01*
X230879Y437482D01*
X232383D01*
X233773Y438057D01*
X234836Y439121D01*
X235411Y440510D01*
Y442014D01*
X234836Y443403D01*
X233773Y444467D01*
X232383Y445042D01*
D02*
G37*
G36*
X44515Y444972D02*
X43011D01*
X41622Y444397D01*
X40559Y443334D01*
X39983Y441944D01*
Y440441D01*
X40559Y439051D01*
X41622Y437988D01*
X43011Y437412D01*
X44515D01*
X45904Y437988D01*
X46968Y439051D01*
X47543Y440441D01*
Y441944D01*
X46968Y443334D01*
X45904Y444397D01*
X44515Y444972D01*
D02*
G37*
G36*
X386832Y437535D02*
X385328D01*
X383939Y436959D01*
X382876Y435896D01*
X382300Y434507D01*
Y433003D01*
X382876Y431614D01*
X383939Y430550D01*
X385328Y429975D01*
X386832D01*
X388221Y430550D01*
X389285Y431614D01*
X389860Y433003D01*
Y434507D01*
X389285Y435896D01*
X388221Y436959D01*
X386832Y437535D01*
D02*
G37*
G36*
X323106Y437498D02*
X321602D01*
X320213Y436923D01*
X319149Y435860D01*
X318574Y434470D01*
Y432966D01*
X319149Y431577D01*
X320213Y430514D01*
X321602Y429938D01*
X323106D01*
X324495Y430514D01*
X325558Y431577D01*
X326134Y432966D01*
Y434470D01*
X325558Y435860D01*
X324495Y436923D01*
X323106Y437498D01*
D02*
G37*
G36*
X268294Y437493D02*
X266790D01*
X265401Y436918D01*
X264337Y435854D01*
X263762Y434465D01*
Y432961D01*
X264337Y431572D01*
X265401Y430509D01*
X266790Y429933D01*
X268294D01*
X269683Y430509D01*
X270746Y431572D01*
X271322Y432961D01*
Y434465D01*
X270746Y435854D01*
X269683Y436918D01*
X268294Y437493D01*
D02*
G37*
G36*
X120132Y437032D02*
X118628D01*
X117239Y436456D01*
X116175Y435393D01*
X115600Y434004D01*
Y432500D01*
X116175Y431110D01*
X117239Y430047D01*
X118628Y429472D01*
X120132D01*
X121521Y430047D01*
X122584Y431110D01*
X123160Y432500D01*
Y434004D01*
X122584Y435393D01*
X121521Y436456D01*
X120132Y437032D01*
D02*
G37*
G36*
X470802Y436280D02*
X469298D01*
X467909Y435704D01*
X466846Y434641D01*
X466270Y433252D01*
Y431748D01*
X466846Y430359D01*
X467909Y429296D01*
X469298Y428720D01*
X470802D01*
X472191Y429296D01*
X473255Y430359D01*
X473830Y431748D01*
Y433252D01*
X473255Y434641D01*
X472191Y435704D01*
X470802Y436280D01*
D02*
G37*
G36*
X450752D02*
X449248D01*
X447859Y435704D01*
X446795Y434641D01*
X446220Y433252D01*
Y431748D01*
X446795Y430359D01*
X447859Y429296D01*
X449248Y428720D01*
X450752D01*
X452141Y429296D01*
X453204Y430359D01*
X453780Y431748D01*
Y433252D01*
X453204Y434641D01*
X452141Y435704D01*
X450752Y436280D01*
D02*
G37*
G36*
X320919Y427962D02*
X319415D01*
X318026Y427387D01*
X316963Y426323D01*
X316387Y424934D01*
Y423430D01*
X316963Y422041D01*
X318026Y420978D01*
X319415Y420402D01*
X320919D01*
X322308Y420978D01*
X323372Y422041D01*
X323947Y423430D01*
Y424934D01*
X323372Y426323D01*
X322308Y427387D01*
X320919Y427962D01*
D02*
G37*
G36*
X130365Y426857D02*
X128861D01*
X127471Y426282D01*
X126408Y425219D01*
X125833Y423829D01*
Y422326D01*
X126408Y420936D01*
X127471Y419873D01*
X128861Y419297D01*
X130365D01*
X131754Y419873D01*
X132817Y420936D01*
X133393Y422326D01*
Y423829D01*
X132817Y425219D01*
X131754Y426282D01*
X130365Y426857D01*
D02*
G37*
G36*
X686552Y421264D02*
X685048D01*
X683659Y420688D01*
X682596Y419625D01*
X682020Y418236D01*
Y416732D01*
X682596Y415342D01*
X683659Y414279D01*
X685048Y413704D01*
X686552D01*
X687941Y414279D01*
X689005Y415342D01*
X689580Y416732D01*
Y418236D01*
X689005Y419625D01*
X687941Y420688D01*
X686552Y421264D01*
D02*
G37*
G36*
X53608Y418563D02*
X52104D01*
X50715Y417987D01*
X49651Y416924D01*
X49076Y415534D01*
Y414031D01*
X49651Y412641D01*
X50711Y411581D01*
X49745Y411982D01*
X48241D01*
X46852Y411406D01*
X45788Y410343D01*
X45213Y408954D01*
Y407450D01*
X45788Y406060D01*
X46852Y404997D01*
X48241Y404422D01*
X49745D01*
X51134Y404997D01*
X52197Y406060D01*
X52773Y407450D01*
Y408954D01*
X52197Y410343D01*
X51137Y411403D01*
X52104Y411003D01*
X53608D01*
X54997Y411578D01*
X56061Y412641D01*
X56636Y414031D01*
Y415534D01*
X56061Y416924D01*
X54997Y417987D01*
X53608Y418563D01*
D02*
G37*
G36*
X268294Y418748D02*
X266790D01*
X265401Y418173D01*
X264337Y417109D01*
X263762Y415720D01*
Y414216D01*
X264337Y412827D01*
X265401Y411764D01*
X266790Y411188D01*
X268294D01*
X269683Y411764D01*
X270746Y412827D01*
X271322Y414216D01*
Y415720D01*
X270746Y417109D01*
X269683Y418173D01*
X268294Y418748D01*
D02*
G37*
G36*
X593002Y418530D02*
X591498D01*
X590109Y417955D01*
X589045Y416891D01*
X588470Y415502D01*
Y413998D01*
X589045Y412609D01*
X590109Y411545D01*
X591498Y410970D01*
X593002D01*
X594391Y411545D01*
X595454Y412609D01*
X596030Y413998D01*
Y415502D01*
X595454Y416891D01*
X594391Y417955D01*
X593002Y418530D01*
D02*
G37*
G36*
X324602Y417137D02*
X323098D01*
X321709Y416562D01*
X320645Y415499D01*
X320070Y414109D01*
Y412606D01*
X320645Y411216D01*
X321709Y410153D01*
X323098Y409577D01*
X324602D01*
X325991Y410153D01*
X327054Y411216D01*
X327630Y412606D01*
Y414109D01*
X327054Y415499D01*
X325991Y416562D01*
X324602Y417137D01*
D02*
G37*
G36*
X202103Y412761D02*
X200599D01*
X199210Y412185D01*
X198147Y411122D01*
X197571Y409733D01*
Y408229D01*
X198147Y406840D01*
X199210Y405776D01*
X200599Y405201D01*
X202103D01*
X203493Y405776D01*
X204556Y406840D01*
X205131Y408229D01*
Y409733D01*
X204556Y411122D01*
X203493Y412185D01*
X202103Y412761D01*
D02*
G37*
G36*
X49745Y401587D02*
X48241D01*
X46852Y401012D01*
X45788Y399948D01*
X45213Y398559D01*
Y397055D01*
X45788Y395666D01*
X46852Y394603D01*
X48241Y394027D01*
X49745D01*
X51134Y394603D01*
X52197Y395666D01*
X52773Y397055D01*
Y398559D01*
X52197Y399948D01*
X51134Y401012D01*
X49745Y401587D01*
D02*
G37*
G36*
X268294Y400003D02*
X266790D01*
X265401Y399428D01*
X264337Y398364D01*
X263762Y396975D01*
Y395471D01*
X264337Y394082D01*
X265401Y393018D01*
X266790Y392443D01*
X268294D01*
X269683Y393018D01*
X270746Y394082D01*
X271322Y395471D01*
Y396975D01*
X270746Y398364D01*
X269683Y399428D01*
X268294Y400003D01*
D02*
G37*
G36*
X217051Y399961D02*
X215547D01*
X214158Y399386D01*
X213094Y398323D01*
X212519Y396933D01*
Y395429D01*
X213094Y394040D01*
X214158Y392977D01*
X215547Y392401D01*
X217051D01*
X218440Y392977D01*
X219503Y394040D01*
X220079Y395429D01*
Y396933D01*
X219503Y398323D01*
X218440Y399386D01*
X217051Y399961D01*
D02*
G37*
G36*
X530114Y396233D02*
X528610D01*
X527221Y395658D01*
X526158Y394595D01*
X525582Y393205D01*
Y391702D01*
X526158Y390312D01*
X527221Y389249D01*
X528610Y388673D01*
X530114D01*
X531503Y389249D01*
X532567Y390312D01*
X533142Y391702D01*
Y393205D01*
X532567Y394595D01*
X531503Y395658D01*
X530114Y396233D01*
D02*
G37*
G36*
X201643Y395322D02*
X200139D01*
X198750Y394746D01*
X197687Y393683D01*
X197111Y392294D01*
Y390790D01*
X197687Y389400D01*
X198750Y388337D01*
X200139Y387762D01*
X201643D01*
X203032Y388337D01*
X204096Y389400D01*
X204671Y390790D01*
Y392294D01*
X204096Y393683D01*
X203032Y394746D01*
X201643Y395322D01*
D02*
G37*
G36*
X423027Y393751D02*
X421524D01*
X420134Y393176D01*
X419071Y392112D01*
X418496Y390723D01*
Y389219D01*
X419071Y387830D01*
X420134Y386766D01*
X421524Y386191D01*
X423027D01*
X424417Y386766D01*
X425480Y387830D01*
X426056Y389219D01*
Y390723D01*
X425480Y392112D01*
X424417Y393176D01*
X423027Y393751D01*
D02*
G37*
G36*
X479680Y392424D02*
X478176D01*
X476786Y391848D01*
X475723Y390785D01*
X475148Y389396D01*
Y387892D01*
X475723Y386502D01*
X476786Y385439D01*
X478176Y384864D01*
X479680D01*
X481069Y385439D01*
X482132Y386502D01*
X482708Y387892D01*
Y389396D01*
X482132Y390785D01*
X481069Y391848D01*
X479680Y392424D01*
D02*
G37*
G36*
X177282Y390310D02*
X175778D01*
X174389Y389735D01*
X173326Y388672D01*
X172750Y387282D01*
Y385779D01*
X173326Y384389D01*
X174389Y383326D01*
X175778Y382750D01*
X177282D01*
X178671Y383326D01*
X179734Y384389D01*
X180310Y385779D01*
Y387282D01*
X179734Y388672D01*
X178671Y389735D01*
X177282Y390310D01*
D02*
G37*
G36*
X416813Y388757D02*
X415309D01*
X413919Y388182D01*
X412856Y387118D01*
X412281Y385729D01*
Y384225D01*
X412856Y382836D01*
X413919Y381772D01*
X415309Y381197D01*
X416813D01*
X418202Y381772D01*
X419265Y382836D01*
X419841Y384225D01*
Y385729D01*
X419265Y387118D01*
X418202Y388182D01*
X416813Y388757D01*
D02*
G37*
G36*
X672836Y386812D02*
X671332D01*
X669943Y386236D01*
X668879Y385173D01*
X668304Y383784D01*
Y382280D01*
X668879Y380891D01*
X669943Y379827D01*
X671332Y379252D01*
X672836D01*
X674225Y379827D01*
X675288Y380891D01*
X675864Y382280D01*
Y383784D01*
X675288Y385173D01*
X674225Y386236D01*
X672836Y386812D01*
D02*
G37*
G36*
X489858Y386096D02*
X488354D01*
X486964Y385521D01*
X485901Y384457D01*
X485326Y383068D01*
Y381564D01*
X485901Y380175D01*
X486964Y379112D01*
X488354Y378536D01*
X489858D01*
X491247Y379112D01*
X492310Y380175D01*
X492886Y381564D01*
Y383068D01*
X492310Y384457D01*
X491247Y385521D01*
X489858Y386096D01*
D02*
G37*
G36*
X422928Y383721D02*
X421425D01*
X420035Y383145D01*
X418972Y382082D01*
X418396Y380692D01*
Y379189D01*
X418972Y377799D01*
X420035Y376736D01*
X421425Y376161D01*
X422928D01*
X424318Y376736D01*
X425381Y377799D01*
X425956Y379189D01*
Y380692D01*
X425381Y382082D01*
X424318Y383145D01*
X422928Y383721D01*
D02*
G37*
G36*
X534715Y382973D02*
X533212D01*
X531822Y382397D01*
X530759Y381334D01*
X530183Y379945D01*
Y378441D01*
X530759Y377052D01*
X531822Y375988D01*
X533212Y375413D01*
X534715D01*
X536105Y375988D01*
X537168Y377052D01*
X537743Y378441D01*
Y379945D01*
X537168Y381334D01*
X536105Y382397D01*
X534715Y382973D01*
D02*
G37*
G36*
X209711Y382113D02*
X208207D01*
X206818Y381538D01*
X205755Y380474D01*
X205179Y379085D01*
Y377581D01*
X205755Y376192D01*
X206818Y375129D01*
X208207Y374553D01*
X209711D01*
X211100Y375129D01*
X212164Y376192D01*
X212739Y377581D01*
Y379085D01*
X212164Y380474D01*
X211100Y381538D01*
X209711Y382113D01*
D02*
G37*
G36*
X268294Y381258D02*
X266790D01*
X265401Y380683D01*
X264337Y379619D01*
X263762Y378230D01*
Y376726D01*
X264337Y375337D01*
X265401Y374273D01*
X266790Y373698D01*
X268294D01*
X269683Y374273D01*
X270746Y375337D01*
X271322Y376726D01*
Y378230D01*
X270746Y379619D01*
X269683Y380683D01*
X268294Y381258D01*
D02*
G37*
G36*
X472860Y381000D02*
X471356D01*
X469967Y380424D01*
X468903Y379361D01*
X468328Y377972D01*
Y376468D01*
X468903Y375079D01*
X469967Y374016D01*
X471356Y373440D01*
X472860D01*
X474249Y374016D01*
X475312Y375079D01*
X475888Y376468D01*
Y377972D01*
X475312Y379361D01*
X474249Y380424D01*
X472860Y381000D01*
D02*
G37*
G36*
X576044Y378408D02*
X574540D01*
X573151Y377833D01*
X572087Y376769D01*
X571512Y375380D01*
Y373876D01*
X572087Y372487D01*
X573151Y371424D01*
X574540Y370848D01*
X576044D01*
X577433Y371424D01*
X578496Y372487D01*
X579072Y373876D01*
Y375380D01*
X578496Y376769D01*
X577433Y377833D01*
X576044Y378408D01*
D02*
G37*
G36*
X416453Y378349D02*
X414949D01*
X413560Y377773D01*
X412497Y376710D01*
X411921Y375321D01*
Y373817D01*
X412497Y372428D01*
X413560Y371364D01*
X414949Y370789D01*
X416453D01*
X417842Y371364D01*
X418906Y372428D01*
X419481Y373817D01*
Y375321D01*
X418906Y376710D01*
X417842Y377773D01*
X416453Y378349D01*
D02*
G37*
G36*
X117255Y374976D02*
X115751D01*
X114362Y374401D01*
X113299Y373338D01*
X112723Y371948D01*
Y370444D01*
X113299Y369055D01*
X114362Y367992D01*
X115751Y367416D01*
X117255D01*
X118644Y367992D01*
X119708Y369055D01*
X120283Y370444D01*
Y371948D01*
X119708Y373338D01*
X118644Y374401D01*
X117255Y374976D01*
D02*
G37*
G36*
X105879Y374700D02*
X104375D01*
X102986Y374124D01*
X101923Y373061D01*
X101347Y371671D01*
Y370168D01*
X101923Y368778D01*
X102986Y367715D01*
X104375Y367139D01*
X105879D01*
X107269Y367715D01*
X108332Y368778D01*
X108907Y370168D01*
Y371671D01*
X108332Y373061D01*
X107269Y374124D01*
X105879Y374700D01*
D02*
G37*
G36*
X389880Y373350D02*
X388376D01*
X386987Y372775D01*
X385924Y371711D01*
X385348Y370322D01*
Y368818D01*
X385924Y367429D01*
X386987Y366366D01*
X388376Y365790D01*
X389880D01*
X391269Y366366D01*
X392332Y367429D01*
X392908Y368818D01*
Y370322D01*
X392332Y371711D01*
X391269Y372775D01*
X389880Y373350D01*
D02*
G37*
G36*
X607250Y371759D02*
X605747D01*
X604357Y371184D01*
X603294Y370120D01*
X602719Y368731D01*
Y367227D01*
X603294Y365838D01*
X604357Y364775D01*
X605747Y364199D01*
X607250D01*
X608640Y364775D01*
X609703Y365838D01*
X610279Y367227D01*
Y368731D01*
X609703Y370120D01*
X608640Y371184D01*
X607250Y371759D01*
D02*
G37*
G36*
X624412Y371558D02*
X622909D01*
X621519Y370983D01*
X620456Y369919D01*
X619881Y368530D01*
Y367026D01*
X620456Y365637D01*
X621519Y364574D01*
X622909Y363998D01*
X624412D01*
X625802Y364574D01*
X626865Y365637D01*
X627441Y367026D01*
Y368530D01*
X626865Y369919D01*
X625802Y370983D01*
X624412Y371558D01*
D02*
G37*
G36*
X528290Y369729D02*
X526786D01*
X525397Y369154D01*
X524333Y368090D01*
X523758Y366701D01*
Y365197D01*
X524333Y363808D01*
X525397Y362744D01*
X526786Y362169D01*
X528290D01*
X529679Y362744D01*
X530742Y363808D01*
X531318Y365197D01*
Y366701D01*
X530742Y368090D01*
X529679Y369154D01*
X528290Y369729D01*
D02*
G37*
G36*
X232521Y369495D02*
X231017D01*
X229628Y368919D01*
X228564Y367856D01*
X227989Y366466D01*
Y364963D01*
X228564Y363573D01*
X229628Y362510D01*
X231017Y361935D01*
X232521D01*
X233910Y362510D01*
X234973Y363573D01*
X235549Y364963D01*
Y366466D01*
X234973Y367856D01*
X233910Y368919D01*
X232521Y369495D01*
D02*
G37*
G36*
X419810Y363210D02*
X418306D01*
X416917Y362635D01*
X415854Y361572D01*
X415278Y360182D01*
Y358678D01*
X415854Y357289D01*
X416917Y356226D01*
X418306Y355650D01*
X419810D01*
X421199Y356226D01*
X422263Y357289D01*
X422838Y358678D01*
Y360182D01*
X422263Y361572D01*
X421199Y362635D01*
X419810Y363210D01*
D02*
G37*
G36*
X268294Y362513D02*
X266790D01*
X265401Y361937D01*
X264337Y360874D01*
X263762Y359485D01*
Y357981D01*
X264337Y356592D01*
X265401Y355528D01*
X266790Y354953D01*
X268294D01*
X269683Y355528D01*
X270746Y356592D01*
X271322Y357981D01*
Y359485D01*
X270746Y360874D01*
X269683Y361937D01*
X268294Y362513D01*
D02*
G37*
G36*
X116853Y359855D02*
X115349D01*
X113959Y359280D01*
X112896Y358216D01*
X112321Y356827D01*
Y355323D01*
X112896Y353934D01*
X113959Y352870D01*
X115349Y352295D01*
X116853D01*
X118242Y352870D01*
X119305Y353934D01*
X119881Y355323D01*
Y356827D01*
X119305Y358216D01*
X118242Y359280D01*
X116853Y359855D01*
D02*
G37*
G36*
X106511Y359581D02*
X105007D01*
X103618Y359006D01*
X102554Y357942D01*
X101979Y356553D01*
Y355049D01*
X102554Y353660D01*
X103618Y352597D01*
X105007Y352021D01*
X106511D01*
X107900Y352597D01*
X108963Y353660D01*
X109539Y355049D01*
Y356553D01*
X108963Y357942D01*
X107900Y359006D01*
X106511Y359581D01*
D02*
G37*
G36*
X536934Y355559D02*
X535430D01*
X534041Y354984D01*
X532977Y353920D01*
X532402Y352531D01*
Y351027D01*
X532977Y349638D01*
X534041Y348575D01*
X535430Y347999D01*
X536934D01*
X538323Y348575D01*
X539387Y349638D01*
X539962Y351027D01*
Y352531D01*
X539387Y353920D01*
X538323Y354984D01*
X536934Y355559D01*
D02*
G37*
G36*
X603719Y353087D02*
X602215D01*
X600826Y352511D01*
X599763Y351448D01*
X599187Y350059D01*
Y348555D01*
X599687Y347350D01*
X599332Y347705D01*
X597942Y348280D01*
X596438D01*
X595049Y347705D01*
X593986Y346641D01*
X593410Y345252D01*
Y343748D01*
X593986Y342359D01*
X595049Y341296D01*
X596438Y340720D01*
X597942D01*
X599332Y341296D01*
X600395Y342359D01*
X600970Y343748D01*
Y345252D01*
X600471Y346457D01*
X600826Y346102D01*
X602215Y345527D01*
X603719D01*
X605108Y346102D01*
X606172Y347165D01*
X606747Y348555D01*
Y350059D01*
X606172Y351448D01*
X605108Y352511D01*
X603719Y353087D01*
D02*
G37*
G36*
X621158Y353382D02*
X619655D01*
X618265Y352807D01*
X617202Y351743D01*
X616627Y350354D01*
Y348850D01*
X617202Y347461D01*
X618265Y346398D01*
X619655Y345822D01*
X621158D01*
X622548Y346398D01*
X623611Y347461D01*
X624187Y348850D01*
Y350354D01*
X623611Y351743D01*
X622548Y352807D01*
X621158Y353382D01*
D02*
G37*
G36*
X432958Y346280D02*
X431454D01*
X430065Y345704D01*
X429002Y344641D01*
X428426Y343252D01*
Y341748D01*
X429002Y340359D01*
X430065Y339296D01*
X431454Y338720D01*
X432958D01*
X434347Y339296D01*
X435410Y340359D01*
X435986Y341748D01*
Y343252D01*
X435410Y344641D01*
X434347Y345704D01*
X432958Y346280D01*
D02*
G37*
G36*
X475676Y346103D02*
X474172D01*
X472782Y345528D01*
X471719Y344464D01*
X471144Y343075D01*
Y341571D01*
X471719Y340182D01*
X472782Y339118D01*
X474172Y338543D01*
X475676D01*
X477065Y339118D01*
X478128Y340182D01*
X478704Y341571D01*
Y343075D01*
X478128Y344464D01*
X477065Y345528D01*
X475676Y346103D01*
D02*
G37*
G36*
X721860Y343822D02*
X720356D01*
X718966Y343247D01*
X717903Y342183D01*
X717328Y340794D01*
Y339290D01*
X717903Y337901D01*
X718966Y336838D01*
X720356Y336262D01*
X721860D01*
X723249Y336838D01*
X724312Y337901D01*
X724888Y339290D01*
Y340794D01*
X724312Y342183D01*
X723249Y343247D01*
X721860Y343822D01*
D02*
G37*
G36*
X732254Y343798D02*
X730750D01*
X729361Y343223D01*
X728297Y342159D01*
X727722Y340770D01*
Y339266D01*
X728297Y337877D01*
X729361Y336814D01*
X730750Y336238D01*
X732254D01*
X733643Y336814D01*
X734706Y337877D01*
X735282Y339266D01*
Y340770D01*
X734706Y342159D01*
X733643Y343223D01*
X732254Y343798D01*
D02*
G37*
G36*
X268294Y343768D02*
X266790D01*
X265401Y343192D01*
X264337Y342129D01*
X263762Y340740D01*
Y339236D01*
X264337Y337847D01*
X265401Y336783D01*
X266790Y336208D01*
X268294D01*
X269683Y336783D01*
X270746Y337847D01*
X271322Y339236D01*
Y340740D01*
X270746Y342129D01*
X269683Y343192D01*
X268294Y343768D01*
D02*
G37*
G36*
X499716Y340536D02*
X498212D01*
X496823Y339961D01*
X495760Y338898D01*
X495184Y337508D01*
Y336005D01*
X495760Y334615D01*
X496823Y333552D01*
X498212Y332976D01*
X499716D01*
X501105Y333552D01*
X502169Y334615D01*
X502744Y336005D01*
Y337508D01*
X502169Y338898D01*
X501105Y339961D01*
X499716Y340536D01*
D02*
G37*
G36*
X179945Y340442D02*
X178441D01*
X177052Y339866D01*
X175988Y338803D01*
X175413Y337413D01*
Y335910D01*
X175988Y334520D01*
X177052Y333457D01*
X178441Y332882D01*
X179945D01*
X181334Y333457D01*
X182397Y334520D01*
X182973Y335910D01*
Y337413D01*
X182397Y338803D01*
X181334Y339866D01*
X179945Y340442D01*
D02*
G37*
G36*
X191639Y340180D02*
X190135D01*
X188746Y339604D01*
X187682Y338541D01*
X187107Y337151D01*
Y335648D01*
X187682Y334258D01*
X188746Y333195D01*
X190135Y332620D01*
X191639D01*
X193028Y333195D01*
X194092Y334258D01*
X194667Y335648D01*
Y337151D01*
X194092Y338541D01*
X193028Y339604D01*
X191639Y340180D01*
D02*
G37*
G36*
X135261Y333348D02*
X133757D01*
X132368Y332773D01*
X131304Y331710D01*
X130729Y330320D01*
Y328816D01*
X131304Y327427D01*
X132368Y326364D01*
X133757Y325788D01*
X135261D01*
X136650Y326364D01*
X137713Y327427D01*
X138289Y328816D01*
Y330320D01*
X137713Y331710D01*
X136650Y332773D01*
X135261Y333348D01*
D02*
G37*
G36*
X475718Y328943D02*
X474214D01*
X472825Y328368D01*
X471761Y327305D01*
X471186Y325915D01*
Y324412D01*
X471761Y323022D01*
X472825Y321959D01*
X474214Y321383D01*
X475718D01*
X477107Y321959D01*
X478170Y323022D01*
X478746Y324412D01*
Y325915D01*
X478170Y327305D01*
X477107Y328368D01*
X475718Y328943D01*
D02*
G37*
G36*
X432958Y328780D02*
X431454D01*
X430065Y328205D01*
X429002Y327141D01*
X428426Y325752D01*
Y324248D01*
X429002Y322859D01*
X430065Y321796D01*
X431454Y321220D01*
X432958D01*
X434347Y321796D01*
X435410Y322859D01*
X435986Y324248D01*
Y325752D01*
X435410Y327141D01*
X434347Y328205D01*
X432958Y328780D01*
D02*
G37*
G36*
X432348Y312053D02*
X430844D01*
X429455Y311477D01*
X428391Y310414D01*
X427816Y309025D01*
Y307521D01*
X428391Y306131D01*
X429455Y305068D01*
X430844Y304493D01*
X432348D01*
X433737Y305068D01*
X434801Y306131D01*
X435376Y307521D01*
Y309025D01*
X434801Y310414D01*
X433737Y311477D01*
X432348Y312053D01*
D02*
G37*
G36*
X475682Y311670D02*
X474179D01*
X472789Y311094D01*
X471726Y310031D01*
X471151Y308641D01*
Y307138D01*
X471726Y305748D01*
X472789Y304685D01*
X474179Y304110D01*
X475682D01*
X477072Y304685D01*
X478135Y305748D01*
X478711Y307138D01*
Y308641D01*
X478135Y310031D01*
X477072Y311094D01*
X475682Y311670D01*
D02*
G37*
G36*
X276094Y306380D02*
X274590D01*
X273201Y305805D01*
X272138Y304741D01*
X271562Y303352D01*
Y301848D01*
X272138Y300459D01*
X273201Y299396D01*
X274590Y298820D01*
X276094D01*
X277484Y299396D01*
X278547Y300459D01*
X279122Y301848D01*
Y303352D01*
X278547Y304741D01*
X277484Y305805D01*
X276094Y306380D01*
D02*
G37*
G36*
X240782Y306236D02*
X239278D01*
X237889Y305661D01*
X236826Y304597D01*
X236250Y303208D01*
Y301704D01*
X236826Y300315D01*
X237889Y299251D01*
X239278Y298676D01*
X240782D01*
X242171Y299251D01*
X243235Y300315D01*
X243810Y301704D01*
Y303208D01*
X243235Y304597D01*
X242171Y305661D01*
X240782Y306236D01*
D02*
G37*
G36*
X617207Y303408D02*
X615704D01*
X614314Y302833D01*
X613251Y301769D01*
X612675Y300380D01*
Y298876D01*
X613251Y297487D01*
X614314Y296424D01*
X615704Y295848D01*
X617207D01*
X618597Y296424D01*
X619660Y297487D01*
X620235Y298876D01*
Y300380D01*
X619660Y301769D01*
X618597Y302833D01*
X617207Y303408D01*
D02*
G37*
G36*
X432885Y294991D02*
X431381D01*
X429991Y294416D01*
X428928Y293352D01*
X428353Y291963D01*
Y290459D01*
X428928Y289070D01*
X429991Y288007D01*
X431381Y287431D01*
X432885D01*
X434274Y288007D01*
X435337Y289070D01*
X435913Y290459D01*
Y291963D01*
X435337Y293352D01*
X434274Y294416D01*
X432885Y294991D01*
D02*
G37*
G36*
X475750Y294476D02*
X474246D01*
X472857Y293901D01*
X471793Y292837D01*
X471218Y291448D01*
Y289944D01*
X471793Y288555D01*
X472857Y287491D01*
X474246Y286916D01*
X475750D01*
X477139Y287491D01*
X478203Y288555D01*
X478778Y289944D01*
Y291448D01*
X478203Y292837D01*
X477139Y293901D01*
X475750Y294476D01*
D02*
G37*
G36*
X686376Y291038D02*
X684872D01*
X683483Y290462D01*
X682420Y289399D01*
X681844Y288010D01*
Y286506D01*
X682420Y285117D01*
X683483Y284053D01*
X684872Y283478D01*
X686376D01*
X687766Y284053D01*
X688829Y285117D01*
X689404Y286506D01*
Y288010D01*
X688829Y289399D01*
X687766Y290462D01*
X686376Y291038D01*
D02*
G37*
G36*
X651116Y290726D02*
X649612D01*
X648223Y290151D01*
X647159Y289087D01*
X646584Y287698D01*
Y286194D01*
X647159Y284805D01*
X648223Y283741D01*
X649612Y283166D01*
X651116D01*
X652505Y283741D01*
X653568Y284805D01*
X654144Y286194D01*
Y287698D01*
X653568Y289087D01*
X652505Y290151D01*
X651116Y290726D01*
D02*
G37*
G36*
X418825Y289006D02*
X417321D01*
X415932Y288431D01*
X414868Y287367D01*
X414293Y285978D01*
Y284474D01*
X414868Y283085D01*
X415932Y282022D01*
X417321Y281446D01*
X418825D01*
X420214Y282022D01*
X421278Y283085D01*
X421853Y284474D01*
Y285978D01*
X421278Y287367D01*
X420214Y288431D01*
X418825Y289006D01*
D02*
G37*
G36*
X125096Y299896D02*
X105536D01*
Y280336D01*
X125096D01*
Y299896D01*
D02*
G37*
G36*
X232371Y287429D02*
X230867D01*
X229478Y286854D01*
X228414Y285790D01*
X227839Y284401D01*
Y282897D01*
X228414Y281508D01*
X229478Y280445D01*
X230867Y279869D01*
X232371D01*
X233760Y280445D01*
X234823Y281508D01*
X235399Y282897D01*
Y284401D01*
X234823Y285790D01*
X233760Y286854D01*
X232371Y287429D01*
D02*
G37*
G36*
X391271Y285762D02*
X389767D01*
X388378Y285187D01*
X387315Y284123D01*
X386739Y282734D01*
Y281230D01*
X387315Y279841D01*
X388378Y278777D01*
X389767Y278202D01*
X391271D01*
X392660Y278777D01*
X393724Y279841D01*
X394299Y281230D01*
Y282734D01*
X393724Y284123D01*
X392660Y285187D01*
X391271Y285762D01*
D02*
G37*
G36*
X364831D02*
X363327D01*
X361938Y285187D01*
X360874Y284123D01*
X360299Y282734D01*
Y281230D01*
X360874Y279841D01*
X361938Y278777D01*
X363327Y278202D01*
X364831D01*
X366220Y278777D01*
X367284Y279841D01*
X367859Y281230D01*
Y282734D01*
X367284Y284123D01*
X366220Y285187D01*
X364831Y285762D01*
D02*
G37*
G36*
X426821Y285650D02*
X425317D01*
X423928Y285074D01*
X422864Y284011D01*
X422289Y282622D01*
Y281118D01*
X422864Y279729D01*
X423928Y278665D01*
X425317Y278090D01*
X426821D01*
X428210Y278665D01*
X429273Y279729D01*
X429849Y281118D01*
Y282622D01*
X429273Y284011D01*
X428210Y285074D01*
X426821Y285650D01*
D02*
G37*
G36*
X515657Y285364D02*
X514153D01*
X512764Y284788D01*
X511700Y283725D01*
X511125Y282336D01*
Y280832D01*
X511700Y279443D01*
X512764Y278379D01*
X514153Y277804D01*
X515657D01*
X517046Y278379D01*
X518109Y279443D01*
X518685Y280832D01*
Y282336D01*
X518109Y283725D01*
X517046Y284788D01*
X515657Y285364D01*
D02*
G37*
G36*
X655978Y282416D02*
X654474D01*
X653085Y281841D01*
X652021Y280777D01*
X651446Y279388D01*
Y277884D01*
X652021Y276495D01*
X653085Y275431D01*
X654474Y274856D01*
X655978D01*
X657367Y275431D01*
X658430Y276495D01*
X659006Y277884D01*
Y279388D01*
X658430Y280777D01*
X657367Y281841D01*
X655978Y282416D01*
D02*
G37*
G36*
X481420Y280592D02*
X479916D01*
X478527Y280016D01*
X477463Y278953D01*
X476888Y277563D01*
Y276060D01*
X477463Y274670D01*
X478527Y273607D01*
X479916Y273032D01*
X481420D01*
X482809Y273607D01*
X483872Y274670D01*
X484448Y276060D01*
Y277563D01*
X483872Y278953D01*
X482809Y280016D01*
X481420Y280592D01*
D02*
G37*
G36*
X508589Y280403D02*
X507085D01*
X505696Y279827D01*
X504632Y278764D01*
X504057Y277374D01*
Y275871D01*
X504632Y274481D01*
X505696Y273418D01*
X507085Y272843D01*
X508589D01*
X509978Y273418D01*
X511041Y274481D01*
X511617Y275871D01*
Y277374D01*
X511041Y278764D01*
X509978Y279827D01*
X508589Y280403D01*
D02*
G37*
G36*
X686405Y278869D02*
X684901D01*
X683512Y278294D01*
X682448Y277231D01*
X681873Y275841D01*
Y274338D01*
X682448Y272948D01*
X683512Y271885D01*
X684901Y271309D01*
X686405D01*
X687794Y271885D01*
X688857Y272948D01*
X689433Y274338D01*
Y275841D01*
X688857Y277231D01*
X687794Y278294D01*
X686405Y278869D01*
D02*
G37*
G36*
X608502Y278230D02*
X606998D01*
X605609Y277655D01*
X604546Y276591D01*
X603970Y275202D01*
Y273698D01*
X604546Y272309D01*
X605609Y271245D01*
X606998Y270670D01*
X608502D01*
X609891Y271245D01*
X610955Y272309D01*
X611530Y273698D01*
Y275202D01*
X610955Y276591D01*
X609891Y277655D01*
X608502Y278230D01*
D02*
G37*
G36*
X494346Y274980D02*
X492842D01*
X491453Y274405D01*
X490389Y273341D01*
X489814Y271952D01*
Y270448D01*
X490389Y269059D01*
X491453Y267995D01*
X492842Y267420D01*
X494346D01*
X495735Y267995D01*
X496799Y269059D01*
X497374Y270448D01*
Y271952D01*
X496799Y273341D01*
X495735Y274405D01*
X494346Y274980D01*
D02*
G37*
G36*
X645118Y274072D02*
X643614D01*
X642225Y273497D01*
X641161Y272433D01*
X640586Y271044D01*
Y269540D01*
X641161Y268151D01*
X642225Y267087D01*
X643614Y266512D01*
X645118D01*
X646507Y267087D01*
X647570Y268151D01*
X648146Y269540D01*
Y271044D01*
X647570Y272433D01*
X646507Y273497D01*
X645118Y274072D01*
D02*
G37*
G36*
X116704Y275256D02*
X116586D01*
Y265986D01*
X125856D01*
Y266104D01*
X125138Y268784D01*
X123750Y271188D01*
X121788Y273150D01*
X119384Y274538D01*
X116704Y275256D01*
D02*
G37*
G36*
X114046D02*
X113928D01*
X111248Y274538D01*
X108844Y273150D01*
X106882Y271188D01*
X105494Y268784D01*
X104776Y266104D01*
Y265986D01*
X114046D01*
Y275256D01*
D02*
G37*
G36*
X637022Y270480D02*
X635518D01*
X634129Y269904D01*
X633065Y268841D01*
X632490Y267452D01*
Y265948D01*
X633065Y264559D01*
X634129Y263496D01*
X635518Y262920D01*
X637022D01*
X638411Y263496D01*
X639474Y264559D01*
X640050Y265948D01*
Y267452D01*
X639474Y268841D01*
X638411Y269904D01*
X637022Y270480D01*
D02*
G37*
G36*
X630316Y265750D02*
X628813D01*
X627423Y265175D01*
X626360Y264111D01*
X625784Y262722D01*
Y261218D01*
X626360Y259829D01*
X627423Y258766D01*
X628813Y258190D01*
X630316D01*
X631706Y258766D01*
X632769Y259829D01*
X633344Y261218D01*
Y262722D01*
X632769Y264111D01*
X631706Y265175D01*
X630316Y265750D01*
D02*
G37*
G36*
X763836Y274830D02*
X761564D01*
X759369Y274242D01*
X757401Y273106D01*
X755794Y271499D01*
X754658Y269531D01*
X754070Y267336D01*
Y265064D01*
X754658Y262869D01*
X755794Y260901D01*
X757401Y259294D01*
X759369Y258158D01*
X761564Y257570D01*
X763836D01*
X766031Y258158D01*
X767999Y259294D01*
X769606Y260901D01*
X770742Y262869D01*
X771330Y265064D01*
Y267336D01*
X770742Y269531D01*
X769606Y271499D01*
X767999Y273106D01*
X766031Y274242D01*
X763836Y274830D01*
D02*
G37*
G36*
X738436D02*
X736164D01*
X733969Y274242D01*
X732001Y273106D01*
X730394Y271499D01*
X729258Y269531D01*
X728670Y267336D01*
Y265064D01*
X729258Y262869D01*
X730394Y260901D01*
X732001Y259294D01*
X733969Y258158D01*
X736164Y257570D01*
X738436D01*
X740631Y258158D01*
X742599Y259294D01*
X744206Y260901D01*
X745342Y262869D01*
X745930Y265064D01*
Y267336D01*
X745342Y269531D01*
X744206Y271499D01*
X742599Y273106D01*
X740631Y274242D01*
X738436Y274830D01*
D02*
G37*
G36*
X402711Y263063D02*
X401208D01*
X399818Y262487D01*
X398755Y261424D01*
X398180Y260035D01*
Y258531D01*
X398755Y257142D01*
X399818Y256078D01*
X401208Y255503D01*
X402711D01*
X404101Y256078D01*
X405164Y257142D01*
X405740Y258531D01*
Y260035D01*
X405164Y261424D01*
X404101Y262487D01*
X402711Y263063D01*
D02*
G37*
G36*
X650793Y262284D02*
X649289D01*
X647900Y261708D01*
X646836Y260645D01*
X646261Y259256D01*
Y257752D01*
X646836Y256362D01*
X647900Y255299D01*
X649289Y254724D01*
X650793D01*
X652182Y255299D01*
X653246Y256362D01*
X653821Y257752D01*
Y259256D01*
X653246Y260645D01*
X652182Y261708D01*
X650793Y262284D01*
D02*
G37*
G36*
X125856Y263446D02*
X116586D01*
Y254176D01*
X116704D01*
X119384Y254894D01*
X121788Y256282D01*
X123750Y258244D01*
X125138Y260648D01*
X125856Y263328D01*
Y263446D01*
D02*
G37*
G36*
X114046D02*
X104776D01*
Y263328D01*
X105494Y260648D01*
X106882Y258244D01*
X108844Y256282D01*
X111248Y254894D01*
X113928Y254176D01*
X114046D01*
Y263446D01*
D02*
G37*
G36*
X304282Y261590D02*
X302778D01*
X301389Y261014D01*
X300326Y259951D01*
X299750Y258562D01*
Y257058D01*
X300326Y255669D01*
X301389Y254606D01*
X302778Y254030D01*
X304282D01*
X305671Y254606D01*
X306735Y255669D01*
X307310Y257058D01*
Y258562D01*
X306735Y259951D01*
X305671Y261014D01*
X304282Y261590D01*
D02*
G37*
G36*
X338263Y260625D02*
X336760D01*
X335370Y260049D01*
X334307Y258986D01*
X333731Y257597D01*
Y256093D01*
X334307Y254704D01*
X335370Y253640D01*
X336760Y253065D01*
X338263D01*
X339653Y253640D01*
X340716Y254704D01*
X341292Y256093D01*
Y257597D01*
X340716Y258986D01*
X339653Y260049D01*
X338263Y260625D01*
D02*
G37*
G36*
X577332Y260066D02*
X575828D01*
X574439Y259491D01*
X573376Y258427D01*
X572800Y257038D01*
Y255534D01*
X573376Y254145D01*
X574439Y253081D01*
X575828Y252506D01*
X577332D01*
X578721Y253081D01*
X579785Y254145D01*
X580360Y255534D01*
Y257038D01*
X579785Y258427D01*
X578721Y259491D01*
X577332Y260066D01*
D02*
G37*
G36*
X277981Y259562D02*
X276478D01*
X275088Y258987D01*
X274025Y257923D01*
X273449Y256534D01*
Y255030D01*
X274025Y253641D01*
X275088Y252578D01*
X276478Y252002D01*
X277981D01*
X279370Y252578D01*
X280434Y253641D01*
X281009Y255030D01*
Y256534D01*
X280434Y257923D01*
X279370Y258987D01*
X277981Y259562D01*
D02*
G37*
G36*
X398125Y250809D02*
X396621D01*
X395232Y250233D01*
X394169Y249170D01*
X393593Y247781D01*
Y246277D01*
X394169Y244888D01*
X395232Y243824D01*
X396621Y243249D01*
X398125D01*
X399514Y243824D01*
X400578Y244888D01*
X401153Y246277D01*
Y247781D01*
X400578Y249170D01*
X399514Y250233D01*
X398125Y250809D01*
D02*
G37*
G36*
X377912Y248668D02*
X376408D01*
X375019Y248092D01*
X373955Y247029D01*
X373380Y245640D01*
Y244136D01*
X373955Y242747D01*
X375019Y241683D01*
X376408Y241108D01*
X377912D01*
X379301Y241683D01*
X380364Y242747D01*
X380940Y244136D01*
Y245640D01*
X380364Y247029D01*
X379301Y248092D01*
X377912Y248668D01*
D02*
G37*
G36*
X531267Y248492D02*
X529763D01*
X528374Y247916D01*
X527311Y246853D01*
X526735Y245464D01*
Y243960D01*
X527311Y242571D01*
X528374Y241507D01*
X529763Y240932D01*
X531267D01*
X532657Y241507D01*
X533720Y242571D01*
X534295Y243960D01*
Y245464D01*
X533720Y246853D01*
X532657Y247916D01*
X531267Y248492D01*
D02*
G37*
G36*
X515802Y243183D02*
X514298D01*
X512909Y242608D01*
X511846Y241544D01*
X511270Y240155D01*
Y238651D01*
X511846Y237262D01*
X512909Y236199D01*
X514298Y235623D01*
X515802D01*
X517191Y236199D01*
X518255Y237262D01*
X518830Y238651D01*
Y240155D01*
X518255Y241544D01*
X517191Y242608D01*
X515802Y243183D01*
D02*
G37*
G36*
X470598Y243122D02*
X469094D01*
X467705Y242546D01*
X466642Y241483D01*
X466066Y240094D01*
Y238590D01*
X466642Y237201D01*
X467705Y236137D01*
X469094Y235562D01*
X470598D01*
X471987Y236137D01*
X473051Y237201D01*
X473626Y238590D01*
Y240094D01*
X473051Y241483D01*
X471987Y242546D01*
X470598Y243122D01*
D02*
G37*
G36*
X667715Y247289D02*
X666212D01*
X664822Y246714D01*
X663759Y245651D01*
X663184Y244261D01*
Y242757D01*
X663673Y241575D01*
X662222D01*
X660832Y240999D01*
X659769Y239936D01*
X659193Y238547D01*
Y237043D01*
X659769Y235654D01*
X660832Y234590D01*
X662222Y234015D01*
X663725D01*
X665115Y234590D01*
X666178Y235654D01*
X666753Y237043D01*
Y238547D01*
X666264Y239729D01*
X667715D01*
X669105Y240305D01*
X670168Y241368D01*
X670743Y242757D01*
Y244261D01*
X670168Y245651D01*
X669105Y246714D01*
X667715Y247289D01*
D02*
G37*
G36*
X536491Y241053D02*
X534987D01*
X533598Y240477D01*
X532535Y239414D01*
X531959Y238024D01*
Y236521D01*
X532535Y235131D01*
X533598Y234068D01*
X534987Y233493D01*
X536491D01*
X537881Y234068D01*
X538944Y235131D01*
X539519Y236521D01*
Y238024D01*
X538944Y239414D01*
X537881Y240477D01*
X536491Y241053D01*
D02*
G37*
G36*
X524812Y240612D02*
X523308D01*
X521919Y240037D01*
X520856Y238974D01*
X520280Y237584D01*
Y236080D01*
X520856Y234691D01*
X521919Y233628D01*
X523308Y233052D01*
X524812D01*
X526202Y233628D01*
X527265Y234691D01*
X527840Y236080D01*
Y237584D01*
X527265Y238974D01*
X526202Y240037D01*
X524812Y240612D01*
D02*
G37*
G36*
X763836Y249430D02*
X761564D01*
X759369Y248842D01*
X757401Y247706D01*
X755794Y246099D01*
X754658Y244131D01*
X754070Y241936D01*
Y239664D01*
X754658Y237469D01*
X755794Y235501D01*
X757401Y233894D01*
X759369Y232758D01*
X761564Y232170D01*
X763836D01*
X766031Y232758D01*
X767999Y233894D01*
X769606Y235501D01*
X770742Y237469D01*
X771330Y239664D01*
Y241936D01*
X770742Y244131D01*
X769606Y246099D01*
X767999Y247706D01*
X766031Y248842D01*
X763836Y249430D01*
D02*
G37*
G36*
X738436D02*
X736164D01*
X733969Y248842D01*
X732001Y247706D01*
X730394Y246099D01*
X729258Y244131D01*
X728670Y241936D01*
Y239664D01*
X729258Y237469D01*
X730394Y235501D01*
X732001Y233894D01*
X733969Y232758D01*
X736164Y232170D01*
X738436D01*
X740631Y232758D01*
X742599Y233894D01*
X744206Y235501D01*
X745342Y237469D01*
X745930Y239664D01*
Y241936D01*
X745342Y244131D01*
X744206Y246099D01*
X742599Y247706D01*
X740631Y248842D01*
X738436Y249430D01*
D02*
G37*
G36*
X116604Y249096D02*
X114028D01*
X111541Y248430D01*
X109311Y247142D01*
X107490Y245321D01*
X106202Y243091D01*
X105536Y240604D01*
Y238029D01*
X106202Y235541D01*
X107490Y233311D01*
X109311Y231490D01*
X111541Y230203D01*
X114028Y229536D01*
X116604D01*
X119091Y230203D01*
X121321Y231490D01*
X123142Y233311D01*
X124430Y235541D01*
X125096Y238029D01*
Y240604D01*
X124430Y243091D01*
X123142Y245321D01*
X121321Y247142D01*
X119091Y248430D01*
X116604Y249096D01*
D02*
G37*
G36*
X655445Y235311D02*
X653941D01*
X652552Y234736D01*
X651488Y233672D01*
X650913Y232283D01*
Y230779D01*
X651488Y229390D01*
X652552Y228326D01*
X653941Y227751D01*
X655445D01*
X656834Y228326D01*
X657897Y229390D01*
X658473Y230779D01*
Y232283D01*
X657897Y233672D01*
X656834Y234736D01*
X655445Y235311D01*
D02*
G37*
G36*
X485841Y233087D02*
X484338D01*
X482948Y232512D01*
X481885Y231448D01*
X481310Y230059D01*
Y228555D01*
X481885Y227166D01*
X482948Y226103D01*
X484338Y225527D01*
X485841D01*
X487231Y226103D01*
X488294Y227166D01*
X488870Y228555D01*
Y230059D01*
X488294Y231448D01*
X487231Y232512D01*
X485841Y233087D01*
D02*
G37*
G36*
X649242Y229108D02*
X647738D01*
X646348Y228532D01*
X645285Y227469D01*
X644710Y226080D01*
Y224576D01*
X645285Y223187D01*
X646348Y222123D01*
X647738Y221548D01*
X649242D01*
X650631Y222123D01*
X651694Y223187D01*
X652270Y224576D01*
Y226080D01*
X651694Y227469D01*
X650631Y228532D01*
X649242Y229108D01*
D02*
G37*
G36*
X185801Y226368D02*
X184298D01*
X182908Y225793D01*
X181845Y224729D01*
X181269Y223340D01*
Y221836D01*
X181845Y220447D01*
X182908Y219384D01*
X184298Y218808D01*
X185801D01*
X187191Y219384D01*
X188254Y220447D01*
X188829Y221836D01*
Y223340D01*
X188254Y224729D01*
X187191Y225793D01*
X185801Y226368D01*
D02*
G37*
G36*
X451082Y236597D02*
X449578D01*
X448188Y236021D01*
X447125Y234958D01*
X446550Y233568D01*
Y232509D01*
X445491D01*
X444101Y231934D01*
X443038Y230871D01*
X442463Y229481D01*
Y228422D01*
X441404D01*
X440014Y227847D01*
X438951Y226784D01*
X438375Y225394D01*
Y224335D01*
X437316D01*
X435927Y223760D01*
X434864Y222696D01*
X434288Y221307D01*
Y219803D01*
X434864Y218414D01*
X435927Y217351D01*
X437316Y216775D01*
X438820D01*
X440210Y217351D01*
X441273Y218414D01*
X441848Y219803D01*
Y220862D01*
X442907D01*
X444297Y221438D01*
X445360Y222501D01*
X445935Y223890D01*
Y224949D01*
X446994D01*
X448384Y225525D01*
X449447Y226588D01*
X450023Y227978D01*
Y229036D01*
X451082D01*
X452471Y229612D01*
X453534Y230675D01*
X454110Y232065D01*
Y233568D01*
X453534Y234958D01*
X452471Y236021D01*
X451082Y236597D01*
D02*
G37*
G36*
X644146Y222683D02*
X642642D01*
X641253Y222108D01*
X640190Y221044D01*
X639614Y219655D01*
Y218151D01*
X640190Y216762D01*
X641253Y215699D01*
X642642Y215123D01*
X644146D01*
X645535Y215699D01*
X646599Y216762D01*
X647174Y218151D01*
Y219655D01*
X646599Y221044D01*
X645535Y222108D01*
X644146Y222683D01*
D02*
G37*
G36*
X634391Y221736D02*
X632887D01*
X631498Y221160D01*
X630435Y220097D01*
X629859Y218708D01*
Y217204D01*
X630435Y215814D01*
X631498Y214751D01*
X632887Y214176D01*
X634391D01*
X635780Y214751D01*
X636844Y215814D01*
X637419Y217204D01*
Y218708D01*
X636844Y220097D01*
X635780Y221160D01*
X634391Y221736D01*
D02*
G37*
G36*
X478258Y216312D02*
X476754D01*
X475365Y215736D01*
X474302Y214673D01*
X473726Y213283D01*
Y211780D01*
X474302Y210390D01*
X475365Y209327D01*
X476754Y208752D01*
X478258D01*
X479647Y209327D01*
X480711Y210390D01*
X481286Y211780D01*
Y213283D01*
X480711Y214673D01*
X479647Y215736D01*
X478258Y216312D01*
D02*
G37*
G36*
X429226Y216280D02*
X427723D01*
X426333Y215704D01*
X425270Y214641D01*
X424695Y213252D01*
Y211748D01*
X425270Y210359D01*
X426333Y209296D01*
X427723Y208720D01*
X429226D01*
X430616Y209296D01*
X431679Y210359D01*
X432255Y211748D01*
Y213252D01*
X431679Y214641D01*
X430616Y215704D01*
X429226Y216280D01*
D02*
G37*
G36*
X763836Y224030D02*
X761564D01*
X759369Y223442D01*
X757401Y222306D01*
X755794Y220699D01*
X754658Y218731D01*
X754070Y216536D01*
Y214264D01*
X754658Y212069D01*
X755794Y210101D01*
X757401Y208494D01*
X759369Y207358D01*
X761564Y206770D01*
X763836D01*
X766031Y207358D01*
X767999Y208494D01*
X769606Y210101D01*
X770742Y212069D01*
X771330Y214264D01*
Y216536D01*
X770742Y218731D01*
X769606Y220699D01*
X767999Y222306D01*
X766031Y223442D01*
X763836Y224030D01*
D02*
G37*
G36*
X738436D02*
X736164D01*
X733969Y223442D01*
X732001Y222306D01*
X730394Y220699D01*
X729258Y218731D01*
X728670Y216536D01*
Y214264D01*
X729258Y212069D01*
X730394Y210101D01*
X732001Y208494D01*
X733969Y207358D01*
X736164Y206770D01*
X738436D01*
X740631Y207358D01*
X742599Y208494D01*
X744206Y210101D01*
X745342Y212069D01*
X745930Y214264D01*
Y216536D01*
X745342Y218731D01*
X744206Y220699D01*
X742599Y222306D01*
X740631Y223442D01*
X738436Y224030D01*
D02*
G37*
G36*
X488293Y213554D02*
X486789D01*
X485400Y212978D01*
X484336Y211915D01*
X483761Y210526D01*
Y209022D01*
X484336Y207633D01*
X485400Y206569D01*
X486789Y205994D01*
X488293D01*
X489682Y206569D01*
X490745Y207633D01*
X491321Y209022D01*
Y210526D01*
X490745Y211915D01*
X489682Y212978D01*
X488293Y213554D01*
D02*
G37*
G36*
X116604Y223696D02*
X114028D01*
X111541Y223029D01*
X109311Y221742D01*
X107490Y219921D01*
X106202Y217691D01*
X105536Y215204D01*
Y212628D01*
X106202Y210141D01*
X107490Y207911D01*
X109311Y206090D01*
X111541Y204802D01*
X114028Y204136D01*
X116604D01*
X119091Y204802D01*
X121321Y206090D01*
X123142Y207911D01*
X124430Y210141D01*
X125096Y212628D01*
Y215204D01*
X124430Y217691D01*
X123142Y219921D01*
X121321Y221742D01*
X119091Y223029D01*
X116604Y223696D01*
D02*
G37*
G36*
X585766Y207069D02*
X584263D01*
X582873Y206493D01*
X581810Y205430D01*
X581235Y204041D01*
Y202537D01*
X581810Y201148D01*
X582873Y200084D01*
X584263Y199509D01*
X585766D01*
X587156Y200084D01*
X588219Y201148D01*
X588795Y202537D01*
Y204041D01*
X588219Y205430D01*
X587156Y206493D01*
X585766Y207069D01*
D02*
G37*
G36*
X538964Y204483D02*
X537460D01*
X536071Y203908D01*
X535008Y202845D01*
X534432Y201455D01*
Y199951D01*
X535008Y198562D01*
X536071Y197499D01*
X537460Y196923D01*
X538964D01*
X540353Y197499D01*
X541417Y198562D01*
X541992Y199951D01*
Y201455D01*
X541417Y202845D01*
X540353Y203908D01*
X538964Y204483D01*
D02*
G37*
G36*
X597793Y201437D02*
X596289D01*
X594899Y200862D01*
X593836Y199799D01*
X593261Y198409D01*
Y196905D01*
X593836Y195516D01*
X594899Y194453D01*
X596289Y193877D01*
X597793D01*
X599182Y194453D01*
X600245Y195516D01*
X600821Y196905D01*
Y198409D01*
X600245Y199799D01*
X599182Y200862D01*
X597793Y201437D01*
D02*
G37*
G36*
X654370Y197889D02*
X652866D01*
X651477Y197313D01*
X650413Y196250D01*
X649838Y194861D01*
Y193357D01*
X650413Y191968D01*
X651477Y190904D01*
X652866Y190329D01*
X654370D01*
X655759Y190904D01*
X656822Y191968D01*
X657398Y193357D01*
Y194861D01*
X656822Y196250D01*
X655759Y197313D01*
X654370Y197889D01*
D02*
G37*
G36*
X545564Y194957D02*
X544060D01*
X542671Y194382D01*
X541607Y193319D01*
X541032Y191929D01*
Y190425D01*
X541607Y189036D01*
X542671Y187973D01*
X544060Y187397D01*
X545564D01*
X546953Y187973D01*
X548016Y189036D01*
X548592Y190425D01*
Y191929D01*
X548016Y193319D01*
X546953Y194382D01*
X545564Y194957D01*
D02*
G37*
G36*
X532864D02*
X531360D01*
X529971Y194382D01*
X528907Y193319D01*
X528332Y191929D01*
Y190425D01*
X528907Y189036D01*
X529971Y187973D01*
X531360Y187397D01*
X532864D01*
X534253Y187973D01*
X535316Y189036D01*
X535892Y190425D01*
Y191929D01*
X535316Y193319D01*
X534253Y194382D01*
X532864Y194957D01*
D02*
G37*
G36*
X451082Y192238D02*
X449578D01*
X448188Y191662D01*
X447125Y190599D01*
X446550Y189209D01*
Y187706D01*
X447125Y186316D01*
X448188Y185253D01*
X449578Y184678D01*
X451082D01*
X452471Y185253D01*
X453534Y186316D01*
X454110Y187706D01*
Y189209D01*
X453534Y190599D01*
X452471Y191662D01*
X451082Y192238D01*
D02*
G37*
G36*
X252212Y191740D02*
X250708D01*
X249319Y191164D01*
X248256Y190101D01*
X247680Y188712D01*
Y187208D01*
X248256Y185819D01*
X249319Y184755D01*
X250708Y184180D01*
X252212D01*
X253601Y184755D01*
X254664Y185819D01*
X255240Y187208D01*
Y188712D01*
X254664Y190101D01*
X253601Y191164D01*
X252212Y191740D01*
D02*
G37*
G36*
X224272Y190470D02*
X222768D01*
X221379Y189895D01*
X220315Y188831D01*
X219740Y187442D01*
Y185938D01*
X220315Y184549D01*
X221379Y183486D01*
X222768Y182910D01*
X224272D01*
X225661Y183486D01*
X226724Y184549D01*
X227300Y185938D01*
Y187442D01*
X226724Y188831D01*
X225661Y189895D01*
X224272Y190470D01*
D02*
G37*
G36*
X763836Y198630D02*
X761564D01*
X759369Y198042D01*
X757401Y196906D01*
X755794Y195299D01*
X754658Y193331D01*
X754070Y191136D01*
Y188864D01*
X754658Y186669D01*
X755794Y184701D01*
X757401Y183094D01*
X759369Y181958D01*
X761564Y181370D01*
X763836D01*
X766031Y181958D01*
X767999Y183094D01*
X769606Y184701D01*
X770742Y186669D01*
X771330Y188864D01*
Y191136D01*
X770742Y193331D01*
X769606Y195299D01*
X767999Y196906D01*
X766031Y198042D01*
X763836Y198630D01*
D02*
G37*
G36*
X738436D02*
X736164D01*
X733969Y198042D01*
X732001Y196906D01*
X730394Y195299D01*
X729258Y193331D01*
X728670Y191136D01*
Y188864D01*
X729258Y186669D01*
X730394Y184701D01*
X732001Y183094D01*
X733969Y181958D01*
X736164Y181370D01*
X738436D01*
X740631Y181958D01*
X742599Y183094D01*
X744206Y184701D01*
X745342Y186669D01*
X745930Y188864D01*
Y191136D01*
X745342Y193331D01*
X744206Y195299D01*
X742599Y196906D01*
X740631Y198042D01*
X738436Y198630D01*
D02*
G37*
G36*
X262372Y186660D02*
X260868D01*
X259479Y186084D01*
X258416Y185021D01*
X257840Y183632D01*
Y182128D01*
X258416Y180739D01*
X259479Y179676D01*
X260868Y179100D01*
X262372D01*
X263761Y179676D01*
X264825Y180739D01*
X265400Y182128D01*
Y183632D01*
X264825Y185021D01*
X263761Y186084D01*
X262372Y186660D01*
D02*
G37*
G36*
X116604Y198296D02*
X114028D01*
X111541Y197630D01*
X109311Y196342D01*
X107490Y194521D01*
X106202Y192291D01*
X105536Y189804D01*
Y187229D01*
X106202Y184741D01*
X107490Y182511D01*
X109311Y180690D01*
X111541Y179403D01*
X114028Y178736D01*
X116604D01*
X119091Y179403D01*
X121321Y180690D01*
X123142Y182511D01*
X124430Y184741D01*
X125096Y187229D01*
Y189804D01*
X124430Y192291D01*
X123142Y194521D01*
X121321Y196342D01*
X119091Y197630D01*
X116604Y198296D01*
D02*
G37*
G36*
X330952Y180310D02*
X329448D01*
X328059Y179734D01*
X326996Y178671D01*
X326420Y177282D01*
Y175778D01*
X326996Y174389D01*
X328059Y173326D01*
X329448Y172750D01*
X330952D01*
X332341Y173326D01*
X333405Y174389D01*
X333980Y175778D01*
Y177282D01*
X333405Y178671D01*
X332341Y179734D01*
X330952Y180310D01*
D02*
G37*
G36*
X262372Y170150D02*
X260868D01*
X259479Y169575D01*
X258416Y168511D01*
X257840Y167122D01*
Y165618D01*
X258416Y164229D01*
X259479Y163165D01*
X260868Y162590D01*
X262372D01*
X263761Y163165D01*
X264825Y164229D01*
X265400Y165618D01*
Y167122D01*
X264825Y168511D01*
X263761Y169575D01*
X262372Y170150D01*
D02*
G37*
G36*
X564886Y168626D02*
X563382D01*
X561993Y168050D01*
X560929Y166987D01*
X560354Y165598D01*
Y164094D01*
X560929Y162705D01*
X561993Y161642D01*
X563382Y161066D01*
X564886D01*
X566275Y161642D01*
X567338Y162705D01*
X567914Y164094D01*
Y165598D01*
X567338Y166987D01*
X566275Y168050D01*
X564886Y168626D01*
D02*
G37*
G36*
X395877Y164671D02*
X394373D01*
X392984Y164095D01*
X391921Y163032D01*
X391345Y161642D01*
Y160139D01*
X391921Y158749D01*
X392984Y157686D01*
X394373Y157111D01*
X395877D01*
X397266Y157686D01*
X398330Y158749D01*
X398905Y160139D01*
Y161642D01*
X398330Y163032D01*
X397266Y164095D01*
X395877Y164671D01*
D02*
G37*
G36*
X272532Y163800D02*
X271028D01*
X269639Y163225D01*
X268575Y162161D01*
X268000Y160772D01*
Y159268D01*
X268575Y157879D01*
X269639Y156816D01*
X271028Y156240D01*
X272532D01*
X273921Y156816D01*
X274984Y157879D01*
X275560Y159268D01*
Y160772D01*
X274984Y162161D01*
X273921Y163225D01*
X272532Y163800D01*
D02*
G37*
G36*
X252212D02*
X250708D01*
X249319Y163225D01*
X248256Y162161D01*
X247680Y160772D01*
Y159268D01*
X248256Y157879D01*
X249319Y156816D01*
X250708Y156240D01*
X252212D01*
X253601Y156816D01*
X254664Y157879D01*
X255240Y159268D01*
Y160772D01*
X254664Y162161D01*
X253601Y163225D01*
X252212Y163800D01*
D02*
G37*
G36*
X763836Y173230D02*
X761564D01*
X759369Y172642D01*
X757401Y171506D01*
X755794Y169899D01*
X754658Y167931D01*
X754070Y165736D01*
Y163464D01*
X754658Y161269D01*
X755794Y159301D01*
X757401Y157694D01*
X759369Y156558D01*
X761564Y155970D01*
X763836D01*
X766031Y156558D01*
X767999Y157694D01*
X769606Y159301D01*
X770742Y161269D01*
X771330Y163464D01*
Y165736D01*
X770742Y167931D01*
X769606Y169899D01*
X767999Y171506D01*
X766031Y172642D01*
X763836Y173230D01*
D02*
G37*
G36*
X738436D02*
X736164D01*
X733969Y172642D01*
X732001Y171506D01*
X730394Y169899D01*
X729258Y167931D01*
X728670Y165736D01*
Y163464D01*
X729258Y161269D01*
X730394Y159301D01*
X732001Y157694D01*
X733969Y156558D01*
X736164Y155970D01*
X738436D01*
X740631Y156558D01*
X742599Y157694D01*
X744206Y159301D01*
X745342Y161269D01*
X745930Y163464D01*
Y165736D01*
X745342Y167931D01*
X744206Y169899D01*
X742599Y171506D01*
X740631Y172642D01*
X738436Y173230D01*
D02*
G37*
G36*
X514086Y159228D02*
X512582D01*
X511193Y158652D01*
X510130Y157589D01*
X509554Y156200D01*
Y154696D01*
X510130Y153307D01*
X511193Y152243D01*
X512582Y151668D01*
X514086D01*
X515475Y152243D01*
X516539Y153307D01*
X517114Y154696D01*
Y156200D01*
X516539Y157589D01*
X515475Y158652D01*
X514086Y159228D01*
D02*
G37*
G36*
X183536Y158970D02*
X182032D01*
X180643Y158395D01*
X179580Y157332D01*
X179004Y155942D01*
Y154439D01*
X179580Y153049D01*
X180643Y151986D01*
X182032Y151410D01*
X183536D01*
X184925Y151986D01*
X185989Y153049D01*
X186564Y154439D01*
Y155942D01*
X185989Y157332D01*
X184925Y158395D01*
X183536Y158970D01*
D02*
G37*
G36*
X125096Y170308D02*
X105536D01*
Y150748D01*
X125096D01*
Y170308D01*
D02*
G37*
G36*
X350002Y156180D02*
X348498D01*
X347109Y155604D01*
X346045Y154541D01*
X345470Y153152D01*
Y151648D01*
X346045Y150259D01*
X347109Y149195D01*
X348498Y148620D01*
X350002D01*
X351391Y149195D01*
X352454Y150259D01*
X353030Y151648D01*
Y153152D01*
X352454Y154541D01*
X351391Y155604D01*
X350002Y156180D01*
D02*
G37*
G36*
X262372Y152370D02*
X260868D01*
X259479Y151795D01*
X258416Y150731D01*
X257840Y149342D01*
Y147838D01*
X258416Y146449D01*
X259479Y145386D01*
X260868Y144810D01*
X262372D01*
X263761Y145386D01*
X264825Y146449D01*
X265400Y147838D01*
Y149342D01*
X264825Y150731D01*
X263761Y151795D01*
X262372Y152370D01*
D02*
G37*
G36*
X97840Y151398D02*
X96336D01*
X94947Y150823D01*
X93883Y149759D01*
X93308Y148370D01*
Y146866D01*
X93883Y145477D01*
X94947Y144413D01*
X96336Y143838D01*
X97840D01*
X99229Y144413D01*
X100293Y145477D01*
X100868Y146866D01*
Y148370D01*
X100293Y149759D01*
X99229Y150823D01*
X97840Y151398D01*
D02*
G37*
G36*
X442895Y145924D02*
Y143348D01*
X445471D01*
X445050Y144366D01*
X443913Y145503D01*
X442895Y145924D01*
D02*
G37*
G36*
X429895D02*
Y143348D01*
X432471D01*
X432050Y144366D01*
X430913Y145503D01*
X429895Y145924D01*
D02*
G37*
G36*
X440355D02*
X439336Y145503D01*
X438200Y144366D01*
X437778Y143348D01*
X440355D01*
Y145924D01*
D02*
G37*
G36*
X427355D02*
X426336Y145503D01*
X425200Y144366D01*
X424778Y143348D01*
X427355D01*
Y145924D01*
D02*
G37*
G36*
X416895D02*
Y143348D01*
X419471D01*
X419050Y144366D01*
X417913Y145503D01*
X416895Y145924D01*
D02*
G37*
G36*
X414355D02*
X413336Y145503D01*
X412200Y144366D01*
X411778Y143348D01*
X414355D01*
Y145924D01*
D02*
G37*
G36*
X403895D02*
Y143348D01*
X406471D01*
X406050Y144366D01*
X404913Y145503D01*
X403895Y145924D01*
D02*
G37*
G36*
X401355D02*
X400336Y145503D01*
X399200Y144366D01*
X398778Y143348D01*
X401355D01*
Y145924D01*
D02*
G37*
G36*
X653125Y149256D02*
X651621D01*
X650232Y148680D01*
X649169Y147617D01*
X648593Y146228D01*
Y144724D01*
X649169Y143335D01*
X650232Y142271D01*
X651621Y141696D01*
X653125D01*
X654515Y142271D01*
X655578Y143335D01*
X656153Y144724D01*
Y146228D01*
X655578Y147617D01*
X654515Y148680D01*
X653125Y149256D01*
D02*
G37*
G36*
X763970Y148581D02*
Y140470D01*
X772081D01*
X771450Y142824D01*
X770214Y144966D01*
X768466Y146714D01*
X766324Y147950D01*
X763970Y148581D01*
D02*
G37*
G36*
X761430Y148581D02*
X759076Y147950D01*
X756934Y146714D01*
X755186Y144966D01*
X753950Y142824D01*
X753319Y140470D01*
X761430D01*
Y148581D01*
D02*
G37*
G36*
X445471Y140808D02*
X442895D01*
Y138231D01*
X443913Y138653D01*
X445050Y139789D01*
X445471Y140808D01*
D02*
G37*
G36*
X432471D02*
X429895D01*
Y138231D01*
X430913Y138653D01*
X432050Y139789D01*
X432471Y140808D01*
D02*
G37*
G36*
X401355Y140808D02*
X398778D01*
X399200Y139789D01*
X400336Y138653D01*
X401355Y138231D01*
Y140808D01*
D02*
G37*
G36*
X419471Y140808D02*
X416895D01*
Y138231D01*
X417913Y138653D01*
X419050Y139789D01*
X419471Y140808D01*
D02*
G37*
G36*
X414355D02*
X411778D01*
X412200Y139789D01*
X413336Y138653D01*
X414355Y138231D01*
Y140808D01*
D02*
G37*
G36*
X406471Y140808D02*
X403895D01*
Y138231D01*
X404913Y138653D01*
X406050Y139789D01*
X406471Y140808D01*
D02*
G37*
G36*
X440355Y140808D02*
X437778D01*
X438200Y139789D01*
X439336Y138653D01*
X440355Y138231D01*
Y140808D01*
D02*
G37*
G36*
X427355D02*
X424778D01*
X425200Y139789D01*
X426336Y138653D01*
X427355Y138231D01*
Y140808D01*
D02*
G37*
G36*
X645768Y140784D02*
X644264D01*
X642875Y140208D01*
X641812Y139145D01*
X641236Y137755D01*
Y136252D01*
X641812Y134862D01*
X642875Y133799D01*
X644264Y133224D01*
X645768D01*
X647157Y133799D01*
X648221Y134862D01*
X648796Y136252D01*
Y137755D01*
X648221Y139145D01*
X647157Y140208D01*
X645768Y140784D01*
D02*
G37*
G36*
X660851Y140765D02*
X659348D01*
X657958Y140190D01*
X656895Y139127D01*
X656320Y137737D01*
Y136234D01*
X656895Y134844D01*
X657958Y133781D01*
X659348Y133205D01*
X660851D01*
X662241Y133781D01*
X663304Y134844D01*
X663879Y136234D01*
Y137737D01*
X663304Y139127D01*
X662241Y140190D01*
X660851Y140765D01*
D02*
G37*
G36*
X57140Y138146D02*
X55636D01*
X54247Y137570D01*
X53183Y136507D01*
X52608Y135118D01*
Y133614D01*
X53183Y132225D01*
X54247Y131161D01*
X55636Y130586D01*
X57140D01*
X58529Y131161D01*
X59592Y132225D01*
X60168Y133614D01*
Y135118D01*
X59592Y136507D01*
X58529Y137570D01*
X57140Y138146D01*
D02*
G37*
G36*
X738436Y147830D02*
X736164D01*
X733969Y147242D01*
X732001Y146106D01*
X730394Y144499D01*
X729258Y142531D01*
X728670Y140336D01*
Y138064D01*
X729258Y135869D01*
X730394Y133901D01*
X732001Y132294D01*
X733969Y131158D01*
X736164Y130570D01*
X738436D01*
X740631Y131158D01*
X742599Y132294D01*
X744206Y133901D01*
X745342Y135869D01*
X745930Y138064D01*
Y140336D01*
X745342Y142531D01*
X744206Y144499D01*
X742599Y146106D01*
X740631Y147242D01*
X738436Y147830D01*
D02*
G37*
G36*
X442895Y132924D02*
Y130348D01*
X445471D01*
X445050Y131366D01*
X443913Y132502D01*
X442895Y132924D01*
D02*
G37*
G36*
X429895D02*
Y130348D01*
X432471D01*
X432050Y131366D01*
X430913Y132502D01*
X429895Y132924D01*
D02*
G37*
G36*
X440355D02*
X439336Y132502D01*
X438200Y131366D01*
X437778Y130348D01*
X440355D01*
Y132924D01*
D02*
G37*
G36*
X427355D02*
X426336Y132502D01*
X425200Y131366D01*
X424778Y130348D01*
X427355D01*
Y132924D01*
D02*
G37*
G36*
X416895D02*
Y130348D01*
X419471D01*
X419050Y131366D01*
X417913Y132502D01*
X416895Y132924D01*
D02*
G37*
G36*
X414355D02*
X413336Y132502D01*
X412200Y131366D01*
X411778Y130348D01*
X414355D01*
Y132924D01*
D02*
G37*
G36*
X403895D02*
Y130347D01*
X406471D01*
X406050Y131366D01*
X404913Y132502D01*
X403895Y132924D01*
D02*
G37*
G36*
X401355D02*
X400336Y132502D01*
X399200Y131366D01*
X398778Y130347D01*
X401355D01*
Y132924D01*
D02*
G37*
G36*
X761430Y137930D02*
X753319D01*
X753950Y135576D01*
X755186Y133434D01*
X756934Y131686D01*
X759076Y130450D01*
X761430Y129819D01*
Y137930D01*
D02*
G37*
G36*
X772081D02*
X763970D01*
Y129819D01*
X766324Y130450D01*
X768466Y131686D01*
X770214Y133434D01*
X771450Y135576D01*
X772081Y137930D01*
D02*
G37*
G36*
X116604Y144908D02*
X114028D01*
X111541Y144242D01*
X109311Y142954D01*
X107490Y141133D01*
X106202Y138903D01*
X105536Y136416D01*
Y133840D01*
X106202Y131353D01*
X107490Y129123D01*
X109311Y127302D01*
X111541Y126014D01*
X114028Y125348D01*
X116604D01*
X119091Y126014D01*
X121321Y127302D01*
X123142Y129123D01*
X124430Y131353D01*
X125096Y133840D01*
Y136416D01*
X124430Y138903D01*
X123142Y141133D01*
X121321Y142954D01*
X119091Y144242D01*
X116604Y144908D01*
D02*
G37*
G36*
X445471Y127808D02*
X442895D01*
Y125231D01*
X443913Y125653D01*
X445050Y126789D01*
X445471Y127808D01*
D02*
G37*
G36*
X432471D02*
X429895D01*
Y125231D01*
X430913Y125653D01*
X432050Y126789D01*
X432471Y127808D01*
D02*
G37*
G36*
X401355Y127808D02*
X398778D01*
X399200Y126789D01*
X400336Y125653D01*
X401355Y125231D01*
Y127808D01*
D02*
G37*
G36*
X419471Y127808D02*
X416895D01*
Y125231D01*
X417913Y125653D01*
X419050Y126789D01*
X419471Y127808D01*
D02*
G37*
G36*
X414355D02*
X411778D01*
X412200Y126789D01*
X413336Y125653D01*
X414355Y125231D01*
Y127808D01*
D02*
G37*
G36*
X406471Y127808D02*
X403895D01*
Y125231D01*
X404913Y125653D01*
X406050Y126789D01*
X406471Y127808D01*
D02*
G37*
G36*
X440355Y127808D02*
X437778D01*
X438200Y126789D01*
X439336Y125653D01*
X440355Y125231D01*
Y127808D01*
D02*
G37*
G36*
X427355D02*
X424778D01*
X425200Y126789D01*
X426336Y125653D01*
X427355Y125231D01*
Y127808D01*
D02*
G37*
G36*
X660870Y128141D02*
X659366D01*
X657977Y127565D01*
X656913Y126502D01*
X656338Y125113D01*
Y123609D01*
X656913Y122219D01*
X657977Y121156D01*
X659366Y120581D01*
X660870D01*
X662259Y121156D01*
X663322Y122219D01*
X663898Y123609D01*
Y125113D01*
X663322Y126502D01*
X662259Y127565D01*
X660870Y128141D01*
D02*
G37*
G36*
X645786Y128123D02*
X644282D01*
X642893Y127547D01*
X641830Y126484D01*
X641254Y125094D01*
Y123591D01*
X641830Y122201D01*
X642893Y121138D01*
X644282Y120562D01*
X645786D01*
X647176Y121138D01*
X648239Y122201D01*
X648814Y123591D01*
Y125094D01*
X648239Y126484D01*
X647176Y127547D01*
X645786Y128123D01*
D02*
G37*
G36*
X772090Y123190D02*
X763970D01*
Y115070D01*
X772090D01*
Y123190D01*
D02*
G37*
G36*
X761430D02*
X753310D01*
Y115070D01*
X761430D01*
Y123190D01*
D02*
G37*
G36*
X116704Y120268D02*
X116586D01*
Y110998D01*
X125856D01*
Y111116D01*
X125138Y113796D01*
X123750Y116200D01*
X121788Y118162D01*
X119384Y119550D01*
X116704Y120268D01*
D02*
G37*
G36*
X114046D02*
X113928D01*
X111248Y119550D01*
X108844Y118162D01*
X106882Y116200D01*
X105494Y113796D01*
X104776Y111116D01*
Y110998D01*
X114046D01*
Y120268D01*
D02*
G37*
G36*
X738436Y122430D02*
X736164D01*
X733969Y121842D01*
X732001Y120706D01*
X730394Y119099D01*
X729258Y117131D01*
X728670Y114936D01*
Y112664D01*
X729258Y110469D01*
X730394Y108501D01*
X732001Y106894D01*
X733969Y105758D01*
X736164Y105170D01*
X738436D01*
X740631Y105758D01*
X742599Y106894D01*
X744206Y108501D01*
X745342Y110469D01*
X745930Y112664D01*
Y114936D01*
X745342Y117131D01*
X744206Y119099D01*
X742599Y120706D01*
X740631Y121842D01*
X738436Y122430D01*
D02*
G37*
G36*
X772090Y112530D02*
X763970D01*
Y104410D01*
X772090D01*
Y112530D01*
D02*
G37*
G36*
X761430D02*
X753310D01*
Y104410D01*
X761430D01*
Y112530D01*
D02*
G37*
G36*
X98288Y107276D02*
X96784D01*
X95395Y106701D01*
X94331Y105638D01*
X93756Y104248D01*
Y102745D01*
X94331Y101355D01*
X95395Y100292D01*
X96784Y99717D01*
X98288D01*
X99677Y100292D01*
X100740Y101355D01*
X101316Y102745D01*
Y104248D01*
X100740Y105638D01*
X99677Y106701D01*
X98288Y107276D01*
D02*
G37*
G36*
X125856Y108458D02*
X116586D01*
Y99188D01*
X116704D01*
X119384Y99906D01*
X121788Y101294D01*
X123750Y103256D01*
X125138Y105660D01*
X125856Y108340D01*
Y108458D01*
D02*
G37*
G36*
X114046D02*
X104776D01*
Y108340D01*
X105494Y105660D01*
X106882Y103256D01*
X108844Y101294D01*
X111248Y99906D01*
X113928Y99188D01*
X114046D01*
Y108458D01*
D02*
G37*
G36*
X589594Y91573D02*
X588090D01*
X586701Y90997D01*
X585638Y89934D01*
X585062Y88545D01*
Y87041D01*
X585638Y85652D01*
X586701Y84588D01*
X588090Y84013D01*
X589594D01*
X590983Y84588D01*
X592047Y85652D01*
X592622Y87041D01*
Y88545D01*
X592047Y89934D01*
X590983Y90997D01*
X589594Y91573D01*
D02*
G37*
G36*
X652841Y91410D02*
X651338D01*
X649948Y90835D01*
X648885Y89771D01*
X648309Y88382D01*
Y86878D01*
X648885Y85489D01*
X649948Y84425D01*
X651338Y83850D01*
X652841D01*
X654231Y84425D01*
X655294Y85489D01*
X655870Y86878D01*
Y88382D01*
X655294Y89771D01*
X654231Y90835D01*
X652841Y91410D01*
D02*
G37*
G36*
X520182Y89124D02*
X518678D01*
X517289Y88548D01*
X516226Y87485D01*
X515650Y86096D01*
Y84592D01*
X516226Y83203D01*
X517289Y82140D01*
X518678Y81564D01*
X520182D01*
X521571Y82140D01*
X522635Y83203D01*
X523210Y84592D01*
Y86096D01*
X522635Y87485D01*
X521571Y88548D01*
X520182Y89124D01*
D02*
G37*
G36*
X98288Y86584D02*
X96784D01*
X95395Y86009D01*
X94331Y84945D01*
X93756Y83556D01*
Y82052D01*
X94331Y80663D01*
X95395Y79600D01*
X96784Y79024D01*
X98288D01*
X99677Y79600D01*
X100740Y80663D01*
X101316Y82052D01*
Y83556D01*
X100740Y84945D01*
X99677Y86009D01*
X98288Y86584D01*
D02*
G37*
G36*
X626062Y78070D02*
X623938D01*
X621885Y77520D01*
X620045Y76458D01*
X618542Y74955D01*
X617480Y73115D01*
X616930Y71062D01*
Y68938D01*
X617480Y66885D01*
X618542Y65045D01*
X620045Y63542D01*
X621885Y62480D01*
X623938Y61930D01*
X626062D01*
X628115Y62480D01*
X629955Y63542D01*
X631458Y65045D01*
X632520Y66885D01*
X633070Y68938D01*
Y71062D01*
X632520Y73115D01*
X631458Y74955D01*
X629955Y76458D01*
X628115Y77520D01*
X626062Y78070D01*
D02*
G37*
G36*
X606062D02*
X603938D01*
X601885Y77520D01*
X600045Y76458D01*
X598542Y74955D01*
X597480Y73115D01*
X596930Y71062D01*
Y68938D01*
X597480Y66885D01*
X598542Y65045D01*
X600045Y63542D01*
X601885Y62480D01*
X603938Y61930D01*
X606062D01*
X608115Y62480D01*
X609955Y63542D01*
X611458Y65045D01*
X612520Y66885D01*
X613070Y68938D01*
Y71062D01*
X612520Y73115D01*
X611458Y74955D01*
X609955Y76458D01*
X608115Y77520D01*
X606062Y78070D01*
D02*
G37*
G36*
X586062D02*
X583938D01*
X581885Y77520D01*
X580045Y76458D01*
X578542Y74955D01*
X577480Y73115D01*
X576930Y71062D01*
Y68938D01*
X577480Y66885D01*
X578542Y65045D01*
X580045Y63542D01*
X581885Y62480D01*
X583938Y61930D01*
X586062D01*
X588115Y62480D01*
X589955Y63542D01*
X591458Y65045D01*
X592520Y66885D01*
X593070Y68938D01*
Y71062D01*
X592520Y73115D01*
X591458Y74955D01*
X589955Y76458D01*
X588115Y77520D01*
X586062Y78070D01*
D02*
G37*
G36*
X566062D02*
X563938D01*
X561885Y77520D01*
X560045Y76458D01*
X558542Y74955D01*
X557480Y73115D01*
X556930Y71062D01*
Y68938D01*
X557480Y66885D01*
X558542Y65045D01*
X560045Y63542D01*
X561885Y62480D01*
X563938Y61930D01*
X566062D01*
X568115Y62480D01*
X569955Y63542D01*
X571458Y65045D01*
X572520Y66885D01*
X573070Y68938D01*
Y71062D01*
X572520Y73115D01*
X571458Y74955D01*
X569955Y76458D01*
X568115Y77520D01*
X566062Y78070D01*
D02*
G37*
G36*
X546062D02*
X543937D01*
X541885Y77520D01*
X540045Y76458D01*
X538542Y74955D01*
X537480Y73115D01*
X536930Y71062D01*
Y68938D01*
X537480Y66885D01*
X538542Y65045D01*
X540045Y63542D01*
X541885Y62480D01*
X543937Y61930D01*
X546062D01*
X548115Y62480D01*
X549955Y63542D01*
X551458Y65045D01*
X552520Y66885D01*
X553070Y68938D01*
Y71062D01*
X552520Y73115D01*
X551458Y74955D01*
X549955Y76458D01*
X548115Y77520D01*
X546062Y78070D01*
D02*
G37*
G36*
X526062D02*
X523938D01*
X521885Y77520D01*
X520045Y76458D01*
X518542Y74955D01*
X517480Y73115D01*
X516930Y71062D01*
Y68938D01*
X517480Y66885D01*
X518542Y65045D01*
X520045Y63542D01*
X521885Y62480D01*
X523938Y61930D01*
X526062D01*
X528115Y62480D01*
X529955Y63542D01*
X531458Y65045D01*
X532520Y66885D01*
X533070Y68938D01*
Y71062D01*
X532520Y73115D01*
X531458Y74955D01*
X529955Y76458D01*
X528115Y77520D01*
X526062Y78070D01*
D02*
G37*
G36*
X506062D02*
X503937D01*
X501885Y77520D01*
X500045Y76458D01*
X498542Y74955D01*
X497480Y73115D01*
X496930Y71062D01*
Y68938D01*
X497480Y66885D01*
X498542Y65045D01*
X500045Y63542D01*
X501885Y62480D01*
X503937Y61930D01*
X506062D01*
X508115Y62480D01*
X509955Y63542D01*
X511458Y65045D01*
X512520Y66885D01*
X513070Y68938D01*
Y71062D01*
X512520Y73115D01*
X511458Y74955D01*
X509955Y76458D01*
X508115Y77520D01*
X506062Y78070D01*
D02*
G37*
G36*
X486062D02*
X483938D01*
X481885Y77520D01*
X480045Y76458D01*
X478542Y74955D01*
X477480Y73115D01*
X476930Y71062D01*
Y68938D01*
X477480Y66885D01*
X478542Y65045D01*
X480045Y63542D01*
X481885Y62480D01*
X483938Y61930D01*
X486062D01*
X488115Y62480D01*
X489955Y63542D01*
X491458Y65045D01*
X492520Y66885D01*
X493070Y68938D01*
Y71062D01*
X492520Y73115D01*
X491458Y74955D01*
X489955Y76458D01*
X488115Y77520D01*
X486062Y78070D01*
D02*
G37*
G36*
X626270Y58801D02*
Y51270D01*
X633801D01*
X633228Y53408D01*
X632066Y55422D01*
X630422Y57066D01*
X628408Y58228D01*
X626270Y58801D01*
D02*
G37*
G36*
X623730D02*
X621592Y58228D01*
X619578Y57066D01*
X617934Y55422D01*
X616772Y53408D01*
X616199Y51270D01*
X623730D01*
Y58801D01*
D02*
G37*
G36*
X606270D02*
Y51270D01*
X613801D01*
X613228Y53408D01*
X612066Y55422D01*
X610422Y57066D01*
X608408Y58228D01*
X606270Y58801D01*
D02*
G37*
G36*
X603730D02*
X601592Y58228D01*
X599578Y57066D01*
X597934Y55422D01*
X596772Y53408D01*
X596199Y51270D01*
X603730D01*
Y58801D01*
D02*
G37*
G36*
X586270D02*
Y51270D01*
X593801D01*
X593228Y53408D01*
X592066Y55422D01*
X590422Y57066D01*
X588408Y58228D01*
X586270Y58801D01*
D02*
G37*
G36*
X583730D02*
X581592Y58228D01*
X579578Y57066D01*
X577934Y55422D01*
X576772Y53408D01*
X576199Y51270D01*
X583730D01*
Y58801D01*
D02*
G37*
G36*
X466270D02*
Y51270D01*
X473801D01*
X473228Y53408D01*
X472066Y55422D01*
X470422Y57066D01*
X468408Y58228D01*
X466270Y58801D01*
D02*
G37*
G36*
X661748Y73280D02*
X658252D01*
X654874Y72375D01*
X651846Y70627D01*
X649373Y68154D01*
X647625Y65126D01*
X646720Y61748D01*
Y58252D01*
X647625Y54874D01*
X649373Y51846D01*
X651846Y49373D01*
X654874Y47625D01*
X658252Y46720D01*
X661748D01*
X665126Y47625D01*
X668154Y49373D01*
X670627Y51846D01*
X672375Y54874D01*
X673280Y58252D01*
Y61748D01*
X672375Y65126D01*
X670627Y68154D01*
X668154Y70627D01*
X665126Y72375D01*
X661748Y73280D01*
D02*
G37*
G36*
X566062Y58070D02*
X563938D01*
X561885Y57520D01*
X560045Y56458D01*
X558542Y54955D01*
X557480Y53115D01*
X556930Y51062D01*
Y48938D01*
X557480Y46885D01*
X558542Y45045D01*
X560045Y43542D01*
X561885Y42480D01*
X563938Y41930D01*
X566062D01*
X568115Y42480D01*
X569955Y43542D01*
X571458Y45045D01*
X572520Y46885D01*
X573070Y48938D01*
Y51062D01*
X572520Y53115D01*
X571458Y54955D01*
X569955Y56458D01*
X568115Y57520D01*
X566062Y58070D01*
D02*
G37*
G36*
X546062D02*
X543937D01*
X541885Y57520D01*
X540045Y56458D01*
X538542Y54955D01*
X537480Y53115D01*
X536930Y51062D01*
Y48938D01*
X537480Y46885D01*
X538542Y45045D01*
X540045Y43542D01*
X541885Y42480D01*
X543937Y41930D01*
X546062D01*
X548115Y42480D01*
X549955Y43542D01*
X551458Y45045D01*
X552520Y46885D01*
X553070Y48938D01*
Y51062D01*
X552520Y53115D01*
X551458Y54955D01*
X549955Y56458D01*
X548115Y57520D01*
X546062Y58070D01*
D02*
G37*
G36*
X526062D02*
X523938D01*
X521885Y57520D01*
X520045Y56458D01*
X518542Y54955D01*
X517480Y53115D01*
X516930Y51062D01*
Y48938D01*
X517480Y46885D01*
X518542Y45045D01*
X520045Y43542D01*
X521885Y42480D01*
X523938Y41930D01*
X526062D01*
X528115Y42480D01*
X529955Y43542D01*
X531458Y45045D01*
X532520Y46885D01*
X533070Y48938D01*
Y51062D01*
X532520Y53115D01*
X531458Y54955D01*
X529955Y56458D01*
X528115Y57520D01*
X526062Y58070D01*
D02*
G37*
G36*
X506062D02*
X503937D01*
X501885Y57520D01*
X500045Y56458D01*
X498542Y54955D01*
X497480Y53115D01*
X496930Y51062D01*
Y48938D01*
X497480Y46885D01*
X498542Y45045D01*
X500045Y43542D01*
X501885Y42480D01*
X503937Y41930D01*
X506062D01*
X508115Y42480D01*
X509955Y43542D01*
X511458Y45045D01*
X512520Y46885D01*
X513070Y48938D01*
Y51062D01*
X512520Y53115D01*
X511458Y54955D01*
X509955Y56458D01*
X508115Y57520D01*
X506062Y58070D01*
D02*
G37*
G36*
X486062D02*
X483938D01*
X481885Y57520D01*
X480045Y56458D01*
X478542Y54955D01*
X477480Y53115D01*
X476930Y51062D01*
Y48938D01*
X477480Y46885D01*
X478542Y45045D01*
X480045Y43542D01*
X481885Y42480D01*
X483938Y41930D01*
X486062D01*
X488115Y42480D01*
X489955Y43542D01*
X491458Y45045D01*
X492520Y46885D01*
X493070Y48938D01*
Y51062D01*
X492520Y53115D01*
X491458Y54955D01*
X489955Y56458D01*
X488115Y57520D01*
X486062Y58070D01*
D02*
G37*
G36*
X746862Y751190D02*
X745358D01*
X743969Y750614D01*
X742905Y749551D01*
X742330Y748162D01*
Y746658D01*
X742905Y745269D01*
X743969Y744205D01*
X745358Y743630D01*
X746862D01*
X748251Y744205D01*
X749314Y745269D01*
X749890Y746658D01*
Y748162D01*
X749314Y749551D01*
X748251Y750614D01*
X746862Y751190D01*
D02*
G37*
G36*
X764642Y742300D02*
X763138D01*
X761749Y741724D01*
X760685Y740661D01*
X760110Y739272D01*
Y737768D01*
X760685Y736379D01*
X761749Y735315D01*
X763138Y734740D01*
X764642D01*
X766031Y735315D01*
X767094Y736379D01*
X767670Y737768D01*
Y739272D01*
X767094Y740661D01*
X766031Y741724D01*
X764642Y742300D01*
D02*
G37*
G36*
X743784Y618320D02*
X742281D01*
X740891Y617744D01*
X739828Y616681D01*
X739253Y615292D01*
Y613788D01*
X739828Y612399D01*
X740577Y611650D01*
X739828Y610901D01*
X739253Y609512D01*
Y608008D01*
X739828Y606619D01*
X740891Y605555D01*
X742281Y604980D01*
X743784D01*
X745174Y605555D01*
X746237Y606619D01*
X746813Y608008D01*
Y609512D01*
X746237Y610901D01*
X745488Y611650D01*
X746237Y612399D01*
X746813Y613788D01*
Y615292D01*
X746237Y616681D01*
X745174Y617744D01*
X743784Y618320D01*
D02*
G37*
G36*
Y593594D02*
X742281D01*
X740891Y593019D01*
X739828Y591955D01*
X739253Y590566D01*
Y589062D01*
X739828Y587673D01*
X740577Y586924D01*
X739828Y586175D01*
X739253Y584786D01*
Y583282D01*
X739828Y581893D01*
X740891Y580830D01*
X742281Y580254D01*
X743784D01*
X745174Y580830D01*
X746237Y581893D01*
X746813Y583282D01*
Y584786D01*
X746237Y586175D01*
X745488Y586924D01*
X746237Y587673D01*
X746813Y589062D01*
Y590566D01*
X746237Y591955D01*
X745174Y593019D01*
X743784Y593594D01*
D02*
G37*
G36*
X743570Y568376D02*
X742066D01*
X740677Y567800D01*
X739614Y566737D01*
X739038Y565348D01*
Y563844D01*
X739614Y562455D01*
X740363Y561706D01*
X739614Y560957D01*
X739038Y559568D01*
Y558064D01*
X739614Y556675D01*
X740677Y555611D01*
X742066Y555036D01*
X743570D01*
X744959Y555611D01*
X746023Y556675D01*
X746598Y558064D01*
Y559568D01*
X746023Y560957D01*
X745274Y561706D01*
X746023Y562455D01*
X746598Y563844D01*
Y565348D01*
X746023Y566737D01*
X744959Y567800D01*
X743570Y568376D01*
D02*
G37*
G36*
X746862Y525190D02*
X745358D01*
X743969Y524614D01*
X742905Y523551D01*
X742330Y522162D01*
Y520658D01*
X742905Y519269D01*
X743969Y518205D01*
X745358Y517630D01*
X746862D01*
X748251Y518205D01*
X749314Y519269D01*
X749890Y520658D01*
Y522162D01*
X749314Y523551D01*
X748251Y524614D01*
X746862Y525190D01*
D02*
G37*
G36*
X764642Y516300D02*
X763138D01*
X761749Y515724D01*
X760685Y514661D01*
X760110Y513272D01*
Y511768D01*
X760685Y510379D01*
X761749Y509315D01*
X763138Y508740D01*
X764642D01*
X766031Y509315D01*
X767094Y510379D01*
X767670Y511768D01*
Y513272D01*
X767094Y514661D01*
X766031Y515724D01*
X764642Y516300D01*
D02*
G37*
G36*
X446270Y78801D02*
Y71270D01*
X453801D01*
X453228Y73408D01*
X452066Y75422D01*
X450422Y77066D01*
X448408Y78228D01*
X446270Y78801D01*
D02*
G37*
G36*
X443730D02*
X441592Y78228D01*
X439578Y77066D01*
X437934Y75422D01*
X436772Y73408D01*
X436199Y71270D01*
X443730D01*
Y78801D01*
D02*
G37*
G36*
X406270D02*
Y71270D01*
X413801D01*
X413228Y73408D01*
X412066Y75422D01*
X410422Y77066D01*
X408408Y78228D01*
X406270Y78801D01*
D02*
G37*
G36*
X403730D02*
X401592Y78228D01*
X399578Y77066D01*
X397934Y75422D01*
X396772Y73408D01*
X396199Y71270D01*
X403730D01*
Y78801D01*
D02*
G37*
G36*
X366270D02*
Y71270D01*
X373801D01*
X373228Y73408D01*
X372066Y75422D01*
X370422Y77066D01*
X368408Y78228D01*
X366270Y78801D01*
D02*
G37*
G36*
X363730D02*
X361592Y78228D01*
X359578Y77066D01*
X357934Y75422D01*
X356772Y73408D01*
X356199Y71270D01*
X363730D01*
Y78801D01*
D02*
G37*
G36*
X286270D02*
Y71270D01*
X293801D01*
X293228Y73408D01*
X292066Y75422D01*
X290422Y77066D01*
X288408Y78228D01*
X286270Y78801D01*
D02*
G37*
G36*
X283730D02*
X281592Y78228D01*
X279578Y77066D01*
X277934Y75422D01*
X276772Y73408D01*
X276199Y71270D01*
X283730D01*
Y78801D01*
D02*
G37*
G36*
X426062Y78070D02*
X423938D01*
X421885Y77520D01*
X420045Y76458D01*
X418542Y74955D01*
X417480Y73115D01*
X416930Y71062D01*
Y68938D01*
X417480Y66885D01*
X418542Y65045D01*
X420045Y63542D01*
X421885Y62480D01*
X423938Y61930D01*
X426062D01*
X428115Y62480D01*
X429955Y63542D01*
X431458Y65045D01*
X432520Y66885D01*
X433070Y68938D01*
Y71062D01*
X432520Y73115D01*
X431458Y74955D01*
X429955Y76458D01*
X428115Y77520D01*
X426062Y78070D01*
D02*
G37*
G36*
X386062D02*
X383938D01*
X381885Y77520D01*
X380045Y76458D01*
X378542Y74955D01*
X377480Y73115D01*
X376930Y71062D01*
Y68938D01*
X377480Y66885D01*
X378542Y65045D01*
X380045Y63542D01*
X381885Y62480D01*
X383938Y61930D01*
X386062D01*
X388115Y62480D01*
X389955Y63542D01*
X391458Y65045D01*
X392520Y66885D01*
X393070Y68938D01*
Y71062D01*
X392520Y73115D01*
X391458Y74955D01*
X389955Y76458D01*
X388115Y77520D01*
X386062Y78070D01*
D02*
G37*
G36*
X346062D02*
X343938D01*
X341885Y77520D01*
X340045Y76458D01*
X338542Y74955D01*
X337480Y73115D01*
X336930Y71062D01*
Y68938D01*
X337480Y66885D01*
X338542Y65045D01*
X340045Y63542D01*
X341885Y62480D01*
X343938Y61930D01*
X346062D01*
X348115Y62480D01*
X349955Y63542D01*
X351458Y65045D01*
X352520Y66885D01*
X353070Y68938D01*
Y71062D01*
X352520Y73115D01*
X351458Y74955D01*
X349955Y76458D01*
X348115Y77520D01*
X346062Y78070D01*
D02*
G37*
G36*
X326062D02*
X323938D01*
X321885Y77520D01*
X320045Y76458D01*
X318542Y74955D01*
X317480Y73115D01*
X316930Y71062D01*
Y68938D01*
X317480Y66885D01*
X318542Y65045D01*
X320045Y63542D01*
X321885Y62480D01*
X323938Y61930D01*
X326062D01*
X328115Y62480D01*
X329955Y63542D01*
X331458Y65045D01*
X332520Y66885D01*
X333070Y68938D01*
Y71062D01*
X332520Y73115D01*
X331458Y74955D01*
X329955Y76458D01*
X328115Y77520D01*
X326062Y78070D01*
D02*
G37*
G36*
X306062D02*
X303938D01*
X301885Y77520D01*
X300045Y76458D01*
X298542Y74955D01*
X297480Y73115D01*
X296930Y71062D01*
Y68938D01*
X297480Y66885D01*
X298542Y65045D01*
X300045Y63542D01*
X301885Y62480D01*
X303938Y61930D01*
X306062D01*
X308115Y62480D01*
X309955Y63542D01*
X311458Y65045D01*
X312520Y66885D01*
X313070Y68938D01*
Y71062D01*
X312520Y73115D01*
X311458Y74955D01*
X309955Y76458D01*
X308115Y77520D01*
X306062Y78070D01*
D02*
G37*
G36*
X266062D02*
X263937D01*
X261885Y77520D01*
X260045Y76458D01*
X258542Y74955D01*
X257480Y73115D01*
X256930Y71062D01*
Y68938D01*
X257480Y66885D01*
X258542Y65045D01*
X260045Y63542D01*
X261885Y62480D01*
X263937Y61930D01*
X266062D01*
X268115Y62480D01*
X269955Y63542D01*
X271458Y65045D01*
X272520Y66885D01*
X273070Y68938D01*
Y71062D01*
X272520Y73115D01*
X271458Y74955D01*
X269955Y76458D01*
X268115Y77520D01*
X266062Y78070D01*
D02*
G37*
G36*
X246062D02*
X243938D01*
X241885Y77520D01*
X240045Y76458D01*
X238542Y74955D01*
X237480Y73115D01*
X236930Y71062D01*
Y68938D01*
X237480Y66885D01*
X238542Y65045D01*
X240045Y63542D01*
X241885Y62480D01*
X243938Y61930D01*
X246062D01*
X248115Y62480D01*
X249955Y63542D01*
X251458Y65045D01*
X252520Y66885D01*
X253070Y68938D01*
Y71062D01*
X252520Y73115D01*
X251458Y74955D01*
X249955Y76458D01*
X248115Y77520D01*
X246062Y78070D01*
D02*
G37*
G36*
X453801Y68730D02*
X446270D01*
Y61199D01*
X448408Y61772D01*
X450422Y62934D01*
X452066Y64578D01*
X453228Y66592D01*
X453801Y68730D01*
D02*
G37*
G36*
X443730D02*
X436199D01*
X436772Y66592D01*
X437934Y64578D01*
X439578Y62934D01*
X441592Y61772D01*
X443730Y61199D01*
Y68730D01*
D02*
G37*
G36*
X413801D02*
X406270D01*
Y61199D01*
X408408Y61772D01*
X410422Y62934D01*
X412066Y64578D01*
X413228Y66592D01*
X413801Y68730D01*
D02*
G37*
G36*
X403730D02*
X396199D01*
X396772Y66592D01*
X397934Y64578D01*
X399578Y62934D01*
X401592Y61772D01*
X403730Y61199D01*
Y68730D01*
D02*
G37*
G36*
X373801D02*
X366270D01*
Y61199D01*
X368408Y61772D01*
X370422Y62934D01*
X372066Y64578D01*
X373228Y66592D01*
X373801Y68730D01*
D02*
G37*
G36*
X363730D02*
X356199D01*
X356772Y66592D01*
X357934Y64578D01*
X359578Y62934D01*
X361592Y61772D01*
X363730Y61199D01*
Y68730D01*
D02*
G37*
G36*
X293801D02*
X286270D01*
Y61199D01*
X288408Y61772D01*
X290422Y62934D01*
X292066Y64578D01*
X293228Y66592D01*
X293801Y68730D01*
D02*
G37*
G36*
X283730D02*
X276199D01*
X276772Y66592D01*
X277934Y64578D01*
X279578Y62934D01*
X281592Y61772D01*
X283730Y61199D01*
Y68730D01*
D02*
G37*
G36*
X446270Y58801D02*
Y51270D01*
X453801D01*
X453228Y53408D01*
X452066Y55422D01*
X450422Y57066D01*
X448408Y58228D01*
X446270Y58801D01*
D02*
G37*
G36*
X443730D02*
X441592Y58228D01*
X439578Y57066D01*
X437934Y55422D01*
X436772Y53408D01*
X436199Y51270D01*
X443730D01*
Y58801D01*
D02*
G37*
G36*
X406270D02*
Y51270D01*
X413801D01*
X413228Y53408D01*
X412066Y55422D01*
X410422Y57066D01*
X408408Y58228D01*
X406270Y58801D01*
D02*
G37*
G36*
X403730D02*
X401592Y58228D01*
X399578Y57066D01*
X397934Y55422D01*
X396772Y53408D01*
X396199Y51270D01*
X403730D01*
Y58801D01*
D02*
G37*
G36*
X366270D02*
Y51270D01*
X373801D01*
X373228Y53408D01*
X372066Y55422D01*
X370422Y57066D01*
X368408Y58228D01*
X366270Y58801D01*
D02*
G37*
G36*
X363730D02*
X361592Y58228D01*
X359578Y57066D01*
X357934Y55422D01*
X356772Y53408D01*
X356199Y51270D01*
X363730D01*
Y58801D01*
D02*
G37*
G36*
X286270D02*
Y51270D01*
X293801D01*
X293228Y53408D01*
X292066Y55422D01*
X290422Y57066D01*
X288408Y58228D01*
X286270Y58801D01*
D02*
G37*
G36*
X283730D02*
X281592Y58228D01*
X279578Y57066D01*
X277934Y55422D01*
X276772Y53408D01*
X276199Y51270D01*
X283730D01*
Y58801D01*
D02*
G37*
G36*
X226270D02*
Y51270D01*
X233801D01*
X233228Y53408D01*
X232066Y55422D01*
X230422Y57066D01*
X228408Y58228D01*
X226270Y58801D01*
D02*
G37*
G36*
X191748Y73280D02*
X188252D01*
X184874Y72375D01*
X181846Y70627D01*
X179373Y68154D01*
X177625Y65126D01*
X176720Y61748D01*
Y58252D01*
X177625Y54874D01*
X179373Y51846D01*
X181846Y49373D01*
X184874Y47625D01*
X188252Y46720D01*
X191748D01*
X195126Y47625D01*
X198154Y49373D01*
X200627Y51846D01*
X202375Y54874D01*
X203280Y58252D01*
Y61748D01*
X202375Y65126D01*
X200627Y68154D01*
X198154Y70627D01*
X195126Y72375D01*
X191748Y73280D01*
D02*
G37*
G36*
X426062Y58070D02*
X423938D01*
X421885Y57520D01*
X420045Y56458D01*
X418542Y54955D01*
X417480Y53115D01*
X416930Y51062D01*
Y48938D01*
X417480Y46885D01*
X418542Y45045D01*
X420045Y43542D01*
X421885Y42480D01*
X423938Y41930D01*
X426062D01*
X428115Y42480D01*
X429955Y43542D01*
X431458Y45045D01*
X432520Y46885D01*
X433070Y48938D01*
Y51062D01*
X432520Y53115D01*
X431458Y54955D01*
X429955Y56458D01*
X428115Y57520D01*
X426062Y58070D01*
D02*
G37*
G36*
X386062D02*
X383938D01*
X381885Y57520D01*
X380045Y56458D01*
X378542Y54955D01*
X377480Y53115D01*
X376930Y51062D01*
Y48938D01*
X377480Y46885D01*
X378542Y45045D01*
X380045Y43542D01*
X381885Y42480D01*
X383938Y41930D01*
X386062D01*
X388115Y42480D01*
X389955Y43542D01*
X391458Y45045D01*
X392520Y46885D01*
X393070Y48938D01*
Y51062D01*
X392520Y53115D01*
X391458Y54955D01*
X389955Y56458D01*
X388115Y57520D01*
X386062Y58070D01*
D02*
G37*
G36*
X346062D02*
X343938D01*
X341885Y57520D01*
X340045Y56458D01*
X338542Y54955D01*
X337480Y53115D01*
X336930Y51062D01*
Y48938D01*
X337480Y46885D01*
X338542Y45045D01*
X340045Y43542D01*
X341885Y42480D01*
X343938Y41930D01*
X346062D01*
X348115Y42480D01*
X349955Y43542D01*
X351458Y45045D01*
X352520Y46885D01*
X353070Y48938D01*
Y51062D01*
X352520Y53115D01*
X351458Y54955D01*
X349955Y56458D01*
X348115Y57520D01*
X346062Y58070D01*
D02*
G37*
G36*
X326062D02*
X323938D01*
X321885Y57520D01*
X320045Y56458D01*
X318542Y54955D01*
X317480Y53115D01*
X316930Y51062D01*
Y48938D01*
X317480Y46885D01*
X318542Y45045D01*
X320045Y43542D01*
X321885Y42480D01*
X323938Y41930D01*
X326062D01*
X328115Y42480D01*
X329955Y43542D01*
X331458Y45045D01*
X332520Y46885D01*
X333070Y48938D01*
Y51062D01*
X332520Y53115D01*
X331458Y54955D01*
X329955Y56458D01*
X328115Y57520D01*
X326062Y58070D01*
D02*
G37*
G36*
X306062D02*
X303938D01*
X301885Y57520D01*
X300045Y56458D01*
X298542Y54955D01*
X297480Y53115D01*
X296930Y51062D01*
Y48938D01*
X297480Y46885D01*
X298542Y45045D01*
X300045Y43542D01*
X301885Y42480D01*
X303938Y41930D01*
X306062D01*
X308115Y42480D01*
X309955Y43542D01*
X311458Y45045D01*
X312520Y46885D01*
X313070Y48938D01*
Y51062D01*
X312520Y53115D01*
X311458Y54955D01*
X309955Y56458D01*
X308115Y57520D01*
X306062Y58070D01*
D02*
G37*
G36*
X266062D02*
X263937D01*
X261885Y57520D01*
X260045Y56458D01*
X258542Y54955D01*
X257480Y53115D01*
X256930Y51062D01*
Y48938D01*
X257480Y46885D01*
X258542Y45045D01*
X260045Y43542D01*
X261885Y42480D01*
X263937Y41930D01*
X266062D01*
X268115Y42480D01*
X269955Y43542D01*
X271458Y45045D01*
X272520Y46885D01*
X273070Y48938D01*
Y51062D01*
X272520Y53115D01*
X271458Y54955D01*
X269955Y56458D01*
X268115Y57520D01*
X266062Y58070D01*
D02*
G37*
G36*
X246062D02*
X243938D01*
X241885Y57520D01*
X240045Y56458D01*
X238542Y54955D01*
X237480Y53115D01*
X236930Y51062D01*
Y48938D01*
X237480Y46885D01*
X238542Y45045D01*
X240045Y43542D01*
X241885Y42480D01*
X243938Y41930D01*
X246062D01*
X248115Y42480D01*
X249955Y43542D01*
X251458Y45045D01*
X252520Y46885D01*
X253070Y48938D01*
Y51062D01*
X252520Y53115D01*
X251458Y54955D01*
X249955Y56458D01*
X248115Y57520D01*
X246062Y58070D01*
D02*
G37*
G36*
X453801Y48730D02*
X446270D01*
Y41199D01*
X448408Y41772D01*
X450422Y42934D01*
X452066Y44578D01*
X453228Y46592D01*
X453801Y48730D01*
D02*
G37*
G36*
X443730D02*
X436199D01*
X436772Y46592D01*
X437934Y44578D01*
X439578Y42934D01*
X441592Y41772D01*
X443730Y41199D01*
Y48730D01*
D02*
G37*
G36*
X413801D02*
X406270D01*
Y41199D01*
X408408Y41772D01*
X410422Y42934D01*
X412066Y44578D01*
X413228Y46592D01*
X413801Y48730D01*
D02*
G37*
G36*
X403730D02*
X396199D01*
X396772Y46592D01*
X397934Y44578D01*
X399578Y42934D01*
X401592Y41772D01*
X403730Y41199D01*
Y48730D01*
D02*
G37*
G36*
X373801D02*
X366270D01*
Y41199D01*
X368408Y41772D01*
X370422Y42934D01*
X372066Y44578D01*
X373228Y46592D01*
X373801Y48730D01*
D02*
G37*
G36*
X363730D02*
X356199D01*
X356772Y46592D01*
X357934Y44578D01*
X359578Y42934D01*
X361592Y41772D01*
X363730Y41199D01*
Y48730D01*
D02*
G37*
G36*
X293801D02*
X286270D01*
Y41199D01*
X288408Y41772D01*
X290422Y42934D01*
X292066Y44578D01*
X293228Y46592D01*
X293801Y48730D01*
D02*
G37*
G36*
X283730D02*
X276199D01*
X276772Y46592D01*
X277934Y44578D01*
X279578Y42934D01*
X281592Y41772D01*
X283730Y41199D01*
Y48730D01*
D02*
G37*
G36*
X233801D02*
X226270D01*
Y41199D01*
X228408Y41772D01*
X230422Y42934D01*
X232066Y44578D01*
X233228Y46592D01*
X233801Y48730D01*
D02*
G37*
G36*
X786586Y723156D02*
X714566D01*
X712633Y722772D01*
X710994Y721676D01*
X710982Y721665D01*
X709887Y720026D01*
X709502Y718093D01*
X709887Y716159D01*
X710982Y714520D01*
X712621Y713425D01*
X714555Y713041D01*
X714612Y713052D01*
X784494D01*
X822023Y675522D01*
Y109866D01*
X739193Y27036D01*
X220911D01*
X218807Y29140D01*
Y43705D01*
X219578Y42934D01*
X221592Y41772D01*
X223730Y41199D01*
Y50000D01*
Y58801D01*
X221592Y58228D01*
X219578Y57066D01*
X218807Y56295D01*
Y56662D01*
X223013Y60868D01*
X223262Y61070D01*
X223620Y61330D01*
X223944Y61535D01*
X224230Y61689D01*
X224473Y61794D01*
X224669Y61856D01*
X224816Y61885D01*
X225048Y61899D01*
X225166Y61930D01*
X226062D01*
X228115Y62480D01*
X229955Y63542D01*
X231458Y65045D01*
X232520Y66885D01*
X233070Y68938D01*
Y71062D01*
X232520Y73115D01*
X231458Y74955D01*
X229955Y76458D01*
X228115Y77520D01*
X226062Y78070D01*
X223938D01*
X221885Y77520D01*
X220045Y76458D01*
X218542Y74955D01*
X217480Y73115D01*
X216930Y71062D01*
Y70166D01*
X216899Y70048D01*
X216885Y69816D01*
X216856Y69669D01*
X216794Y69473D01*
X216689Y69230D01*
X216535Y68944D01*
X216329Y68620D01*
X216083Y68279D01*
X215786Y67930D01*
X210183Y62327D01*
X209087Y60688D01*
X208703Y58755D01*
Y27047D01*
X209087Y25114D01*
X210183Y23475D01*
X215246Y18411D01*
X216885Y17316D01*
X218819Y16931D01*
X741286D01*
X743219Y17316D01*
X744858Y18411D01*
X830648Y104201D01*
X831743Y105840D01*
X832128Y107773D01*
Y677615D01*
X831807Y679228D01*
X831743Y679548D01*
X830648Y681187D01*
X790159Y721676D01*
X788520Y722772D01*
X786586Y723156D01*
D02*
G37*
%LPD*%
G36*
X747223Y749076D02*
X747776Y748523D01*
X748075Y747801D01*
Y747019D01*
X747776Y746297D01*
X747223Y745744D01*
X746501Y745445D01*
X745719D01*
X744997Y745744D01*
X744444Y746297D01*
X744145Y747019D01*
Y747801D01*
X744444Y748523D01*
X744997Y749076D01*
X745719Y749375D01*
X746501D01*
X747223Y749076D01*
D02*
G37*
G36*
X765003Y740186D02*
X765556Y739633D01*
X765855Y738911D01*
Y738129D01*
X765556Y737407D01*
X765003Y736854D01*
X764281Y736555D01*
X763499D01*
X762777Y736854D01*
X762224Y737407D01*
X761925Y738129D01*
Y738911D01*
X762224Y739633D01*
X762777Y740186D01*
X763499Y740485D01*
X764281D01*
X765003Y740186D01*
D02*
G37*
G36*
X747223Y523076D02*
X747776Y522523D01*
X748075Y521801D01*
Y521019D01*
X747776Y520297D01*
X747223Y519744D01*
X746501Y519445D01*
X745719D01*
X744997Y519744D01*
X744444Y520297D01*
X744145Y521019D01*
Y521801D01*
X744444Y522523D01*
X744997Y523076D01*
X745719Y523375D01*
X746501D01*
X747223Y523076D01*
D02*
G37*
G36*
X765003Y514186D02*
X765556Y513633D01*
X765855Y512911D01*
Y512129D01*
X765556Y511407D01*
X765003Y510854D01*
X764281Y510555D01*
X763499D01*
X762777Y510854D01*
X762224Y511407D01*
X761925Y512129D01*
Y512911D01*
X762224Y513633D01*
X762777Y514186D01*
X763499Y514485D01*
X764281D01*
X765003Y514186D01*
D02*
G37*
G36*
X224937Y63710D02*
X224586Y63689D01*
X224219Y63617D01*
X223837Y63496D01*
X223440Y63324D01*
X223027Y63103D01*
X222600Y62832D01*
X222157Y62510D01*
X221699Y62139D01*
X220737Y61247D01*
X216247Y65737D01*
X216718Y66226D01*
X217510Y67157D01*
X217832Y67600D01*
X218103Y68027D01*
X218324Y68440D01*
X218496Y68837D01*
X218617Y69219D01*
X218689Y69586D01*
X218710Y69937D01*
X224937Y63710D01*
D02*
G37*
D24*
X6353Y11997D02*
G03*
X11991Y6347I5650J0D01*
G01*
X12003Y843647D02*
G03*
X6353Y838009I0J-5650D01*
G01*
X838003Y6347D02*
G03*
X843653Y11984I0J5650D01*
G01*
X843653Y837997D02*
G03*
X838020Y843646I-5650J0D01*
G01*
X843653Y706779D02*
Y837971D01*
X843653Y696779D02*
X843653Y706779D01*
X843653Y426780D02*
Y696779D01*
X843653Y416780D02*
X843653Y426780D01*
X843653Y156780D02*
Y416780D01*
X843653Y146780D02*
X843653Y156780D01*
X843653Y11997D02*
Y146780D01*
X700857Y6347D02*
X833882D01*
X690857Y6347D02*
X700857Y6347D01*
X430857Y6347D02*
X690857D01*
X706321Y843646D02*
X838003D01*
X696321Y843646D02*
X706321Y843646D01*
X426322Y843646D02*
X696321D01*
X416322Y843647D02*
X426322Y843646D01*
X156323Y843647D02*
X416322D01*
X146323Y843647D02*
X156323Y843647D01*
X12021Y843647D02*
X146323D01*
X420857Y6347D02*
X430857Y6347D01*
X150858Y6347D02*
X420857D01*
X12003Y6347D02*
X140858D01*
X150858Y6347D01*
X6353Y705502D02*
Y837997D01*
X6353Y695502D02*
X6353Y705502D01*
X6353Y425503D02*
Y695502D01*
X6353Y415503D02*
X6353Y425503D01*
X6353Y155503D02*
Y415503D01*
X6353Y145503D02*
X6353Y155503D01*
X6353Y12022D02*
Y145503D01*
X833882Y6347D02*
X837978D01*
D136*
X428625Y142078D02*
D03*
Y129078D02*
D03*
X441625Y142078D02*
D03*
X415625D02*
D03*
Y129078D02*
D03*
X402625Y142078D02*
D03*
Y129078D02*
D03*
X441625D02*
D03*
D137*
X762700Y113800D02*
D03*
D138*
X737300D02*
D03*
X762700Y139200D02*
D03*
X737300D02*
D03*
X762700Y164600D02*
D03*
X737300D02*
D03*
Y190000D02*
D03*
Y215400D02*
D03*
X762700Y240800D02*
D03*
X737300D02*
D03*
X762700Y266200D02*
D03*
X737300D02*
D03*
X762700Y190000D02*
D03*
Y215400D02*
D03*
D139*
X352500Y692500D02*
D03*
X167500D02*
D03*
X352500Y740000D02*
D03*
X167500D02*
D03*
X662500Y692500D02*
D03*
X477500D02*
D03*
X662500Y740000D02*
D03*
X477500D02*
D03*
D140*
X625000Y50000D02*
D03*
Y70000D02*
D03*
X605000Y50000D02*
D03*
Y70000D02*
D03*
X585000Y50000D02*
D03*
Y70000D02*
D03*
X565000Y50000D02*
D03*
Y70000D02*
D03*
X545000Y50000D02*
D03*
Y70000D02*
D03*
X525000Y50000D02*
D03*
Y70000D02*
D03*
X505000Y50000D02*
D03*
Y70000D02*
D03*
X485000Y50000D02*
D03*
Y70000D02*
D03*
X465000Y50000D02*
D03*
Y70000D02*
D03*
X445000Y50000D02*
D03*
Y70000D02*
D03*
X425000Y50000D02*
D03*
Y70000D02*
D03*
X405000Y50000D02*
D03*
Y70000D02*
D03*
X385000Y50000D02*
D03*
Y70000D02*
D03*
X365000Y50000D02*
D03*
Y70000D02*
D03*
X345000Y50000D02*
D03*
Y70000D02*
D03*
X325000Y50000D02*
D03*
Y70000D02*
D03*
X305000Y50000D02*
D03*
Y70000D02*
D03*
X285000Y50000D02*
D03*
Y70000D02*
D03*
X265000Y50000D02*
D03*
Y70000D02*
D03*
X245000Y50000D02*
D03*
Y70000D02*
D03*
X225000Y50000D02*
D03*
Y70000D02*
D03*
D142*
X190000Y60000D02*
D03*
X660000D02*
D03*
D143*
X19560Y52440D02*
D03*
X52440Y19560D02*
D03*
X19560D02*
D03*
X52440Y52440D02*
D03*
X59250Y36000D02*
D03*
X36000Y13140D02*
D03*
X12750Y36000D02*
D03*
X36000Y59250D02*
D03*
X19560Y830440D02*
D03*
X52440Y797560D02*
D03*
X19560D02*
D03*
X52440Y830440D02*
D03*
X59250Y814000D02*
D03*
X36000Y791140D02*
D03*
X12750Y814000D02*
D03*
X36000Y837250D02*
D03*
X797560Y830440D02*
D03*
X830440Y797560D02*
D03*
X797560D02*
D03*
X830440Y830440D02*
D03*
X837250Y814000D02*
D03*
X814000Y791140D02*
D03*
X790750Y814000D02*
D03*
X814000Y837250D02*
D03*
X797560Y52440D02*
D03*
X830440Y19560D02*
D03*
X797560D02*
D03*
X830440Y52440D02*
D03*
X837250Y36000D02*
D03*
X814000Y13140D02*
D03*
X790750Y36000D02*
D03*
X814000Y59250D02*
D03*
D144*
X36000Y36000D02*
D03*
Y814000D02*
D03*
X814000D02*
D03*
Y36000D02*
D03*
D145*
X115316Y109728D02*
D03*
Y135128D02*
D03*
Y188516D02*
D03*
Y213916D02*
D03*
Y239316D02*
D03*
Y264716D02*
D03*
D146*
Y160528D02*
D03*
Y290116D02*
D03*
D147*
X685800Y417484D02*
D03*
X620407Y349602D02*
D03*
X616455Y299628D02*
D03*
X597041Y197657D02*
D03*
X607489Y203289D02*
D03*
X585014D02*
D03*
X825186Y775582D02*
D03*
X799786D02*
D03*
X761686Y800982D02*
D03*
X774386Y775582D02*
D03*
X761686Y496182D02*
D03*
Y445382D02*
D03*
X774386Y419982D02*
D03*
X761686Y394582D02*
D03*
X774386Y369182D02*
D03*
X761686Y343782D02*
D03*
Y292982D02*
D03*
X774386Y267582D02*
D03*
Y216782D02*
D03*
Y115182D02*
D03*
X736286Y800982D02*
D03*
X748986Y775582D02*
D03*
X736286Y496182D02*
D03*
X748986Y419982D02*
D03*
Y369182D02*
D03*
X736286Y292982D02*
D03*
X748986Y165982D02*
D03*
X710886Y800982D02*
D03*
X723586Y775582D02*
D03*
X710886Y496182D02*
D03*
X723586Y470782D02*
D03*
X710886Y445382D02*
D03*
X685486Y800982D02*
D03*
X698186Y775582D02*
D03*
X685486Y750182D02*
D03*
X698186Y724782D02*
D03*
X685486Y699382D02*
D03*
X698186Y673982D02*
D03*
Y470782D02*
D03*
X660086Y800982D02*
D03*
X672786Y775582D02*
D03*
Y724782D02*
D03*
X660086Y648582D02*
D03*
X672786Y115182D02*
D03*
X634686Y800982D02*
D03*
X647386Y775582D02*
D03*
X634686Y750182D02*
D03*
X647386Y724782D02*
D03*
X634686Y699382D02*
D03*
X609286Y800982D02*
D03*
X621986Y775582D02*
D03*
X609286Y750182D02*
D03*
X621986Y724782D02*
D03*
X609286Y699382D02*
D03*
Y648582D02*
D03*
Y546982D02*
D03*
X621986Y115182D02*
D03*
X583886Y800982D02*
D03*
X596586Y775582D02*
D03*
X583886Y750182D02*
D03*
X596586Y724782D02*
D03*
X583886Y699382D02*
D03*
Y546982D02*
D03*
X558486Y800982D02*
D03*
X571186Y775582D02*
D03*
X558486Y750182D02*
D03*
X571186Y724782D02*
D03*
X558486Y699382D02*
D03*
X533086Y800982D02*
D03*
X545786Y775582D02*
D03*
X533086Y750182D02*
D03*
X545786Y724782D02*
D03*
X533086Y699382D02*
D03*
X545786Y521582D02*
D03*
X507686Y800982D02*
D03*
X520386Y775582D02*
D03*
X507686Y750182D02*
D03*
X520386Y724782D02*
D03*
X507686Y699382D02*
D03*
X482286Y800982D02*
D03*
X494986Y775582D02*
D03*
X482286Y750182D02*
D03*
X494986Y724782D02*
D03*
X482286Y597782D02*
D03*
X456886Y800982D02*
D03*
X469586Y775582D02*
D03*
Y724782D02*
D03*
X431486Y800982D02*
D03*
X406086D02*
D03*
Y750182D02*
D03*
Y648582D02*
D03*
X380686Y800982D02*
D03*
X393386Y775582D02*
D03*
Y673982D02*
D03*
X380686Y140582D02*
D03*
X355286Y800982D02*
D03*
X367986Y775582D02*
D03*
Y673982D02*
D03*
X355286Y597782D02*
D03*
Y191382D02*
D03*
Y140582D02*
D03*
X329886Y800982D02*
D03*
X342586Y775582D02*
D03*
X329886Y750182D02*
D03*
X342586Y673982D02*
D03*
X304486Y800982D02*
D03*
X317186Y775582D02*
D03*
X304486Y750182D02*
D03*
Y699382D02*
D03*
Y292982D02*
D03*
Y191382D02*
D03*
X279086Y800982D02*
D03*
X291786Y775582D02*
D03*
X279086Y750182D02*
D03*
Y699382D02*
D03*
Y648582D02*
D03*
Y597782D02*
D03*
X253686Y800982D02*
D03*
X266386Y775582D02*
D03*
X253686Y750182D02*
D03*
X266386Y369182D02*
D03*
Y267582D02*
D03*
X228286Y800982D02*
D03*
X240986Y775582D02*
D03*
X228286Y750182D02*
D03*
X240986Y267582D02*
D03*
X202886Y800982D02*
D03*
X215586Y775582D02*
D03*
X202886Y750182D02*
D03*
Y699382D02*
D03*
Y242182D02*
D03*
Y191382D02*
D03*
X177486Y800982D02*
D03*
X190186Y775582D02*
D03*
Y724782D02*
D03*
X152086Y800982D02*
D03*
X164786Y318382D02*
D03*
X152086Y89782D02*
D03*
X126686Y800982D02*
D03*
X139386Y470782D02*
D03*
Y216782D02*
D03*
X126686Y89782D02*
D03*
X139386Y64382D02*
D03*
X101286Y800982D02*
D03*
Y496182D02*
D03*
Y89782D02*
D03*
Y38982D02*
D03*
X75886Y800982D02*
D03*
Y496182D02*
D03*
Y292982D02*
D03*
X88586Y267582D02*
D03*
X75886Y242182D02*
D03*
X88586Y216782D02*
D03*
X75886Y38982D02*
D03*
X63186Y775582D02*
D03*
Y724782D02*
D03*
Y369182D02*
D03*
X50486Y292982D02*
D03*
X63186Y267582D02*
D03*
X50486Y242182D02*
D03*
X63186Y216782D02*
D03*
Y64382D02*
D03*
X37786Y775582D02*
D03*
X25086Y750182D02*
D03*
Y699382D02*
D03*
X37786Y673982D02*
D03*
X25086Y89782D02*
D03*
X507837Y276623D02*
D03*
X493594Y271200D02*
D03*
X662973Y237795D02*
D03*
X524060Y236832D02*
D03*
X515050Y239403D02*
D03*
X485090Y229307D02*
D03*
X469846Y239342D02*
D03*
X487541Y209774D02*
D03*
X477506Y212532D02*
D03*
X685624Y287258D02*
D03*
X650364Y286946D02*
D03*
X633639Y217956D02*
D03*
X643636Y292354D02*
D03*
X655226Y278636D02*
D03*
X672084Y383032D02*
D03*
X116618Y508723D02*
D03*
X146691Y513630D02*
D03*
X566820Y243723D02*
D03*
X576580Y256286D02*
D03*
X514905Y281584D02*
D03*
X685653Y275089D02*
D03*
X607750Y274450D02*
D03*
X644366Y270292D02*
D03*
X666964Y243509D02*
D03*
X650041Y258504D02*
D03*
X654693Y231531D02*
D03*
X648490Y225328D02*
D03*
X643394Y218903D02*
D03*
X636270Y266700D02*
D03*
X629565Y261970D02*
D03*
X480668Y276812D02*
D03*
X389128Y369570D02*
D03*
X422276Y389971D02*
D03*
X415701Y374569D02*
D03*
X575292Y374628D02*
D03*
X529362Y392453D02*
D03*
X379782Y513994D02*
D03*
X322354Y433718D02*
D03*
X48993Y397807D02*
D03*
X541885Y119940D02*
D03*
X555104D02*
D03*
X524326Y113097D02*
D03*
X559914Y113515D02*
D03*
X538808Y106258D02*
D03*
X450330Y188458D02*
D03*
X501796Y297386D02*
D03*
X511742Y306137D02*
D03*
X537971Y294500D02*
D03*
Y307383D02*
D03*
X410346Y419030D02*
D03*
X567944Y403704D02*
D03*
X555148Y403050D02*
D03*
X579853Y416306D02*
D03*
X567944Y416715D02*
D03*
X555148Y416891D02*
D03*
X549549Y409617D02*
D03*
X573800Y410217D02*
D03*
X561340Y409617D02*
D03*
X582915Y386790D02*
D03*
X617657Y377889D02*
D03*
X608702Y564793D02*
D03*
X608687Y593660D02*
D03*
X604553Y508633D02*
D03*
X654938Y488950D02*
D03*
X580596Y474218D02*
D03*
X608702Y481200D02*
D03*
X364487Y518193D02*
D03*
X387726Y521196D02*
D03*
X354132Y523099D02*
D03*
X470162Y508462D02*
D03*
X499110Y503589D02*
D03*
X465000Y517458D02*
D03*
X513334Y155448D02*
D03*
X564134Y164846D02*
D03*
X527108Y85084D02*
D03*
X519430Y85344D02*
D03*
X395125Y160891D02*
D03*
X349250Y152400D02*
D03*
X535739Y237273D02*
D03*
X696525Y275782D02*
D03*
X623661Y367778D02*
D03*
X606498Y367979D02*
D03*
X536182Y351779D02*
D03*
X406654Y775716D02*
D03*
X406720Y740222D02*
D03*
Y704662D02*
D03*
X422582Y430111D02*
D03*
X410346Y433755D02*
D03*
X389657Y419030D02*
D03*
X489106Y382316D02*
D03*
X472108Y377220D02*
D03*
X48993Y408202D02*
D03*
X418073Y285226D02*
D03*
X390519Y281982D02*
D03*
X337511Y256845D02*
D03*
X277229Y255782D02*
D03*
X52856Y414782D02*
D03*
X377160Y244888D02*
D03*
X132702Y441139D02*
D03*
X167640Y444500D02*
D03*
X151152Y471180D02*
D03*
X426069Y281870D02*
D03*
X353822Y257674D02*
D03*
X372110D02*
D03*
X385416Y304412D02*
D03*
X533963Y379193D02*
D03*
X527538Y365949D02*
D03*
X597190Y344500D02*
D03*
X602967Y349307D02*
D03*
X182784Y155190D02*
D03*
X97088Y147618D02*
D03*
X275342Y302600D02*
D03*
X364079Y281982D02*
D03*
X478928Y388644D02*
D03*
X416061Y384977D02*
D03*
X422176Y379941D02*
D03*
X305922Y284480D02*
D03*
X323850Y413357D02*
D03*
X49512Y479461D02*
D03*
X489897Y290696D02*
D03*
Y309443D02*
D03*
X656546Y155327D02*
D03*
X649141Y159242D02*
D03*
X249918Y649001D02*
D03*
X289987Y649315D02*
D03*
X410653Y546703D02*
D03*
X396514D02*
D03*
X293811Y547034D02*
D03*
X280517Y546888D02*
D03*
X166417Y546842D02*
D03*
X153347Y547156D02*
D03*
X43953Y547449D02*
D03*
X57652Y547562D02*
D03*
X282934Y447180D02*
D03*
X475359Y360563D02*
D03*
X484511Y342463D02*
D03*
X487975Y325303D02*
D03*
X447595Y342505D02*
D03*
X837287Y785782D02*
D03*
X62286Y835782D02*
D03*
X79300Y60960D02*
D03*
X47276Y430788D02*
D03*
X97814Y485262D02*
D03*
X40865Y485125D02*
D03*
X58587Y393685D02*
D03*
X68312Y388681D02*
D03*
X296077Y215884D02*
D03*
X263057D02*
D03*
X279513D02*
D03*
X282702Y199390D02*
D03*
X292428Y194387D02*
D03*
X223520Y204963D02*
D03*
X207010Y204470D02*
D03*
X192606Y194387D02*
D03*
X182880Y199390D02*
D03*
X251460Y160020D02*
D03*
X271780D02*
D03*
X261620Y166370D02*
D03*
Y148590D02*
D03*
Y182880D02*
D03*
X746110Y747410D02*
D03*
X763890Y738520D02*
D03*
X746110Y521410D02*
D03*
X763890Y512520D02*
D03*
X746110Y318310D02*
D03*
X763890Y309420D02*
D03*
X764540Y459740D02*
D03*
X746760Y468630D02*
D03*
X247075Y111760D02*
D03*
Y123190D02*
D03*
X228577Y111760D02*
D03*
Y123190D02*
D03*
X455216Y237395D02*
D03*
X652089Y87630D02*
D03*
X588842Y87793D02*
D03*
X438068Y220555D02*
D03*
X442155Y224642D02*
D03*
X446242Y228729D02*
D03*
X450330Y232817D02*
D03*
X29606Y575530D02*
D03*
X40668D02*
D03*
X35137Y583984D02*
D03*
X46198D02*
D03*
X51729Y575530D02*
D03*
X397510Y188358D02*
D03*
X87875Y629800D02*
D03*
X81155Y619894D02*
D03*
X70892Y628531D02*
D03*
X64172Y618624D02*
D03*
X86673Y647630D02*
D03*
X79953Y637724D02*
D03*
X70101Y646399D02*
D03*
X63381Y636493D02*
D03*
X134675Y736953D02*
D03*
X45720Y752602D02*
D03*
X52440Y762508D02*
D03*
X71720Y752602D02*
D03*
X78440Y762508D02*
D03*
X108389Y761880D02*
D03*
X101669Y751974D02*
D03*
X98406Y762262D02*
D03*
X91686Y752355D02*
D03*
X88423Y761880D02*
D03*
X81703Y751974D02*
D03*
X419058Y359430D02*
D03*
X179193Y336661D02*
D03*
X190887Y336400D02*
D03*
X176530Y386530D02*
D03*
X134509Y329568D02*
D03*
X592250Y414750D02*
D03*
X485885Y448707D02*
D03*
X480401Y455896D02*
D03*
X223520Y186690D02*
D03*
X364490Y212500D02*
D03*
X428475D02*
D03*
X240030Y302456D02*
D03*
X303530Y257810D02*
D03*
X231631Y441262D02*
D03*
X231769Y365715D02*
D03*
X132444Y451180D02*
D03*
X69850Y451843D02*
D03*
X51087Y537935D02*
D03*
X159892Y537071D02*
D03*
X320167Y424182D02*
D03*
X386080Y433755D02*
D03*
X323902Y467713D02*
D03*
X330200Y176530D02*
D03*
X251460Y187960D02*
D03*
X401959Y259283D02*
D03*
X397373Y247029D02*
D03*
X129613Y423077D02*
D03*
X201351Y408981D02*
D03*
X200891Y391542D02*
D03*
X216299Y396181D02*
D03*
X208959Y378333D02*
D03*
X43763Y441193D02*
D03*
X97536Y82804D02*
D03*
X547408Y455451D02*
D03*
X663445Y633196D02*
D03*
X650536Y452830D02*
D03*
X560588Y462149D02*
D03*
X498964Y336757D02*
D03*
X499110Y472440D02*
D03*
X535228Y462057D02*
D03*
X281055Y465320D02*
D03*
X405619Y498433D02*
D03*
X431431Y503694D02*
D03*
X320467Y508638D02*
D03*
X310476Y497181D02*
D03*
X241309Y485937D02*
D03*
X232952Y481996D02*
D03*
X323850Y450848D02*
D03*
X714573Y543089D02*
D03*
X730250Y543114D02*
D03*
X714573Y705589D02*
D03*
X730250Y705614D02*
D03*
X730232Y718118D02*
D03*
X714555Y718093D02*
D03*
X721108Y340042D02*
D03*
X731502Y340018D02*
D03*
X538212Y200703D02*
D03*
X544812Y191177D02*
D03*
X532112D02*
D03*
X653618Y194109D02*
D03*
X652373Y145476D02*
D03*
X645016Y137004D02*
D03*
X660099Y136986D02*
D03*
X660118Y124361D02*
D03*
X645034Y124342D02*
D03*
X633550Y453362D02*
D03*
X670891Y473261D02*
D03*
X431596Y308273D02*
D03*
X474931Y307890D02*
D03*
X474998Y290696D02*
D03*
X474924Y342323D02*
D03*
X474966Y325163D02*
D03*
X431556Y360490D02*
D03*
X432133Y291211D02*
D03*
X432206Y325000D02*
D03*
Y342500D02*
D03*
X231619Y283649D02*
D03*
X185049Y222588D02*
D03*
X530515Y244712D02*
D03*
X460224Y499809D02*
D03*
X527975Y475662D02*
D03*
X416954Y444665D02*
D03*
X450000Y452500D02*
D03*
X470050Y432500D02*
D03*
X267542Y339988D02*
D03*
Y358733D02*
D03*
Y377478D02*
D03*
Y396223D02*
D03*
Y414968D02*
D03*
Y433713D02*
D03*
Y452458D02*
D03*
X450000Y432500D02*
D03*
X116101Y356075D02*
D03*
X105759Y355801D02*
D03*
X105127Y370919D02*
D03*
X116503Y371196D02*
D03*
X87358Y455000D02*
D03*
X742818Y564596D02*
D03*
Y558816D02*
D03*
X743033Y614540D02*
D03*
Y608760D02*
D03*
Y589814D02*
D03*
Y584034D02*
D03*
X97480Y428180D02*
D03*
X403660Y536592D02*
D03*
X395657Y528903D02*
D03*
X287364Y536264D02*
D03*
X279088Y528903D02*
D03*
X291126Y627286D02*
D03*
X425167Y552127D02*
D03*
X308598D02*
D03*
X192230Y555005D02*
D03*
X114102Y518835D02*
D03*
X75462Y554321D02*
D03*
X262903Y627122D02*
D03*
Y615442D02*
D03*
X192838Y508677D02*
D03*
X330426Y698754D02*
D03*
X289972D02*
D03*
X249972D02*
D03*
X209972D02*
D03*
X495384Y575009D02*
D03*
X489853Y583463D02*
D03*
X478792D02*
D03*
X484323Y575009D02*
D03*
X473261D02*
D03*
X418766Y626424D02*
D03*
X451950D02*
D03*
X446419Y634878D02*
D03*
X435358D02*
D03*
X440888Y626424D02*
D03*
X424297Y634878D02*
D03*
X429827Y626424D02*
D03*
X128323Y571528D02*
D03*
X161507D02*
D03*
X155976Y579981D02*
D03*
X144915D02*
D03*
X150446Y571528D02*
D03*
X133854Y579981D02*
D03*
X139384Y571528D02*
D03*
X244892D02*
D03*
X278075D02*
D03*
X272545Y579981D02*
D03*
X261484D02*
D03*
X267014Y571528D02*
D03*
X250422Y579981D02*
D03*
X255953Y571528D02*
D03*
X372522D02*
D03*
X366991Y579981D02*
D03*
X383583Y571528D02*
D03*
X378052Y579981D02*
D03*
X389113D02*
D03*
X394644Y571528D02*
D03*
X361460D02*
D03*
X351028Y624078D02*
D03*
X323178Y624321D02*
D03*
X336805D02*
D03*
X216918Y620360D02*
D03*
X206493D02*
D03*
X196067D02*
D03*
X147128Y621407D02*
D03*
X139717Y632884D02*
D03*
X140735Y663737D02*
D03*
X446424Y668884D02*
D03*
Y704444D02*
D03*
X454788Y740040D02*
D03*
Y775600D02*
D03*
X406720Y669102D02*
D03*
X89012Y233442D02*
D03*
X94600Y339692D02*
D03*
X52832Y608584D02*
D03*
Y618490D02*
D03*
X52308Y647528D02*
D03*
X45588Y637622D02*
D03*
X52506Y732533D02*
D03*
X45786Y722627D02*
D03*
X671576Y518922D02*
D03*
X681860Y633196D02*
D03*
X645281D02*
D03*
X572185Y633515D02*
D03*
X590381Y609470D02*
D03*
X627022Y609098D02*
D03*
X671090Y586705D02*
D03*
X562270Y496759D02*
D03*
X498653Y546862D02*
D03*
X488484D02*
D03*
X478316D02*
D03*
X356078D02*
D03*
X366628D02*
D03*
X377177D02*
D03*
X387726D02*
D03*
X239510D02*
D03*
X250059D02*
D03*
X260609D02*
D03*
X271158D02*
D03*
X122942D02*
D03*
X133491D02*
D03*
X144040D02*
D03*
X175688D02*
D03*
X209972Y648624D02*
D03*
X439699Y538718D02*
D03*
X322876Y538973D02*
D03*
X91009Y538718D02*
D03*
X100252D02*
D03*
X216820D02*
D03*
X207578D02*
D03*
X239014Y518617D02*
D03*
X125665Y692253D02*
D03*
X45778Y528903D02*
D03*
X547313Y546315D02*
D03*
X670344Y545689D02*
D03*
X620000Y651500D02*
D03*
X540000Y673595D02*
D03*
Y651500D02*
D03*
X56388Y134366D02*
D03*
X97536Y103497D02*
D03*
X355498Y513937D02*
D03*
X553820Y633555D02*
D03*
X488791Y520917D02*
D03*
X143510Y645471D02*
D03*
X330000Y676500D02*
D03*
X290000D02*
D03*
X250000D02*
D03*
X210000D02*
D03*
X144647Y722630D02*
D03*
Y736953D02*
D03*
Y750570D02*
D03*
X134443Y757301D02*
D03*
X144647Y762000D02*
D03*
X134226Y682041D02*
D03*
X520359Y678786D02*
D03*
X559936Y673595D02*
D03*
X599961Y673453D02*
D03*
X639908Y679047D02*
D03*
X119380Y433252D02*
D03*
X97480Y457200D02*
D03*
X82381Y509548D02*
D03*
X259120Y517453D02*
D03*
X230507Y511637D02*
D03*
X69267Y538260D02*
D03*
X451358Y558292D02*
D03*
X334772Y558800D02*
D03*
X217678Y559054D02*
D03*
X100843Y559705D02*
D03*
X418475Y538249D02*
D03*
X423768Y533337D02*
D03*
X303146Y538163D02*
D03*
X307199Y533337D02*
D03*
X440457Y531834D02*
D03*
X449957D02*
D03*
X323889D02*
D03*
X333388D02*
D03*
X207320D02*
D03*
X216820D02*
D03*
X195399Y533411D02*
D03*
X70500Y690302D02*
D03*
X74062Y533337D02*
D03*
X100252Y531834D02*
D03*
X90752D02*
D03*
X187330Y538295D02*
D03*
X330454Y650250D02*
D03*
X92988Y515981D02*
D03*
X102899Y513739D02*
D03*
X209557Y515981D02*
D03*
X219468Y513739D02*
D03*
X326125Y515981D02*
D03*
X348545Y509267D02*
D03*
X336036Y513739D02*
D03*
X442523Y499936D02*
D03*
X453080Y514849D02*
D03*
X447715Y507438D02*
D03*
X842125Y8881D02*
D03*
X833882Y6347D02*
D03*
X822198Y6858D02*
D03*
X6021Y795118D02*
D03*
X795220Y844373D02*
D03*
X806283Y844220D02*
D03*
X844819Y795831D02*
D03*
X844804Y806704D02*
D03*
X843620Y496780D02*
D03*
Y486780D02*
D03*
X720856Y6379D02*
D03*
X710856D02*
D03*
X130858D02*
D03*
X6386Y195503D02*
D03*
Y205503D02*
D03*
Y675502D02*
D03*
Y415503D02*
D03*
Y235503D02*
D03*
Y245503D02*
D03*
X596322Y843614D02*
D03*
X843620Y236780D02*
D03*
X6386Y475503D02*
D03*
Y215503D02*
D03*
Y375503D02*
D03*
Y115503D02*
D03*
Y655502D02*
D03*
X140858Y6379D02*
D03*
X516322Y843614D02*
D03*
X843620Y386780D02*
D03*
X220858Y6379D02*
D03*
X6386Y25503D02*
D03*
X90858Y6379D02*
D03*
X6386Y325503D02*
D03*
X756321Y843614D02*
D03*
X116323D02*
D03*
X120858Y6379D02*
D03*
X843620Y636779D02*
D03*
X810856Y6379D02*
D03*
X476322Y843614D02*
D03*
X843620Y766779D02*
D03*
Y96780D02*
D03*
X310857Y6379D02*
D03*
X226322Y843614D02*
D03*
X6386Y685502D02*
D03*
X146323Y843614D02*
D03*
X6386Y285503D02*
D03*
X843620Y136780D02*
D03*
X36323Y843614D02*
D03*
X843620Y836779D02*
D03*
Y76780D02*
D03*
X826321Y843614D02*
D03*
X843620Y676779D02*
D03*
X580857Y6379D02*
D03*
X6386Y555503D02*
D03*
X680857Y6379D02*
D03*
X843620Y716779D02*
D03*
Y656779D02*
D03*
X10860Y6560D02*
D03*
X206322Y843614D02*
D03*
X410857Y6379D02*
D03*
X843620Y696779D02*
D03*
X446322Y843614D02*
D03*
X40858Y6379D02*
D03*
X706321Y843614D02*
D03*
X800856Y6379D02*
D03*
X6386Y315503D02*
D03*
X843620Y826779D02*
D03*
X750856Y6379D02*
D03*
X520857D02*
D03*
X843620Y606779D02*
D03*
Y546779D02*
D03*
Y56780D02*
D03*
X690857Y6379D02*
D03*
X6386Y55504D02*
D03*
X300857Y6379D02*
D03*
X626322Y843614D02*
D03*
X843620Y446780D02*
D03*
Y376780D02*
D03*
Y326780D02*
D03*
Y286780D02*
D03*
X6386Y495503D02*
D03*
X843620Y256780D02*
D03*
X76323Y843614D02*
D03*
X196322D02*
D03*
X270857Y6379D02*
D03*
X6386Y65504D02*
D03*
X530857Y6379D02*
D03*
X6386Y505503D02*
D03*
X56323Y843614D02*
D03*
X766321D02*
D03*
X570857Y6379D02*
D03*
X843620Y666779D02*
D03*
X60858Y6379D02*
D03*
X843620Y536779D02*
D03*
X6386Y345503D02*
D03*
X843620Y396780D02*
D03*
X6386Y295503D02*
D03*
X666322Y843614D02*
D03*
X190858Y6379D02*
D03*
X6386Y365503D02*
D03*
X256322Y843614D02*
D03*
X406322D02*
D03*
X843620Y106780D02*
D03*
X6386Y445503D02*
D03*
X360857Y6379D02*
D03*
X843620Y26781D02*
D03*
X640857Y6379D02*
D03*
X6386Y145503D02*
D03*
Y135503D02*
D03*
X646322Y843614D02*
D03*
X6386Y75503D02*
D03*
Y805502D02*
D03*
Y515503D02*
D03*
Y725502D02*
D03*
Y395503D02*
D03*
X236322Y843614D02*
D03*
X843620Y36780D02*
D03*
X6386Y105503D02*
D03*
Y155503D02*
D03*
X180858Y6379D02*
D03*
X6386Y605502D02*
D03*
X166323Y843614D02*
D03*
X566322D02*
D03*
X843620Y516780D02*
D03*
X6386Y15504D02*
D03*
Y265503D02*
D03*
X490857Y6379D02*
D03*
X843620Y46780D02*
D03*
X466322Y843614D02*
D03*
X6386Y45504D02*
D03*
X636322Y843614D02*
D03*
X786321D02*
D03*
X843620Y596779D02*
D03*
Y816779D02*
D03*
X456322Y843614D02*
D03*
X726321D02*
D03*
X843620Y506780D02*
D03*
Y116780D02*
D03*
Y296780D02*
D03*
X620857Y6379D02*
D03*
X50858D02*
D03*
X6386Y585502D02*
D03*
X500857Y6379D02*
D03*
X200858D02*
D03*
X6386Y705502D02*
D03*
X486322Y843614D02*
D03*
X6386Y755502D02*
D03*
Y695502D02*
D03*
X336322Y843614D02*
D03*
X6386Y85503D02*
D03*
X843620Y166780D02*
D03*
X6386Y485503D02*
D03*
X843620Y336780D02*
D03*
X420857Y6379D02*
D03*
X776321Y843614D02*
D03*
X843620Y466780D02*
D03*
X350857Y6379D02*
D03*
X6386Y175503D02*
D03*
X46323Y843614D02*
D03*
X696321D02*
D03*
X80858Y6379D02*
D03*
X843620Y756779D02*
D03*
Y626779D02*
D03*
X510857Y6379D02*
D03*
X760856D02*
D03*
X296322Y843614D02*
D03*
X843620Y456780D02*
D03*
X480857Y6379D02*
D03*
X656322Y843614D02*
D03*
X843620Y436780D02*
D03*
X6386Y95503D02*
D03*
X110858Y6379D02*
D03*
X843620Y736779D02*
D03*
Y246780D02*
D03*
X340857Y6379D02*
D03*
X266322Y843614D02*
D03*
X6386Y615502D02*
D03*
X70858Y6379D02*
D03*
X176323Y843614D02*
D03*
X346322D02*
D03*
X376322D02*
D03*
X616322D02*
D03*
X843620Y746779D02*
D03*
Y346780D02*
D03*
Y226780D02*
D03*
X330857Y6379D02*
D03*
X843620Y776779D02*
D03*
Y646779D02*
D03*
X6386Y575502D02*
D03*
X106323Y843614D02*
D03*
X186322D02*
D03*
X276322D02*
D03*
X306322D02*
D03*
X676322D02*
D03*
X6386Y745502D02*
D03*
Y785502D02*
D03*
X426322Y843614D02*
D03*
X370857Y6379D02*
D03*
X843620Y196780D02*
D03*
X546322Y843614D02*
D03*
X746321D02*
D03*
X843620Y576779D02*
D03*
X550857Y6379D02*
D03*
X843620Y356780D02*
D03*
X286322Y843614D02*
D03*
X576322D02*
D03*
X436322D02*
D03*
X6386Y275503D02*
D03*
Y185503D02*
D03*
X290857Y6379D02*
D03*
X6386Y765502D02*
D03*
X86323Y843614D02*
D03*
X790856Y6379D02*
D03*
X136323Y843614D02*
D03*
X156323D02*
D03*
X6386Y565503D02*
D03*
Y825502D02*
D03*
X843620Y206780D02*
D03*
Y126780D02*
D03*
Y146780D02*
D03*
X6386Y125503D02*
D03*
X240858Y6379D02*
D03*
X6386Y225503D02*
D03*
X843620Y706779D02*
D03*
X170858Y6379D02*
D03*
X536322Y843614D02*
D03*
X540857Y6379D02*
D03*
X843620Y266780D02*
D03*
Y726779D02*
D03*
X320857Y6379D02*
D03*
X770856D02*
D03*
X6386Y435503D02*
D03*
X386322Y843614D02*
D03*
X843620Y316780D02*
D03*
X6386Y165503D02*
D03*
X506322Y843614D02*
D03*
X843620Y686779D02*
D03*
Y416780D02*
D03*
X12233Y843614D02*
D03*
X590857Y6379D02*
D03*
X380857D02*
D03*
X6386Y625502D02*
D03*
X843620Y426780D02*
D03*
X6386Y535503D02*
D03*
X843620Y16781D02*
D03*
X260857Y6379D02*
D03*
X6386Y465503D02*
D03*
X816321Y843614D02*
D03*
X216322D02*
D03*
X843620Y476780D02*
D03*
X150858Y6379D02*
D03*
X450857D02*
D03*
X210858D02*
D03*
X526322Y843614D02*
D03*
X780856Y6379D02*
D03*
X606322Y843614D02*
D03*
X843620Y566779D02*
D03*
X650857Y6379D02*
D03*
X6386Y595502D02*
D03*
X230858Y6379D02*
D03*
X20858D02*
D03*
X686321Y843614D02*
D03*
X843620Y66780D02*
D03*
Y276780D02*
D03*
X6386Y815502D02*
D03*
X670857Y6379D02*
D03*
X6386Y525503D02*
D03*
X843620Y86780D02*
D03*
X356322Y843614D02*
D03*
X610857Y6379D02*
D03*
X556322Y843614D02*
D03*
X843620Y556779D02*
D03*
Y366780D02*
D03*
X586322Y843614D02*
D03*
X716321D02*
D03*
X600857Y6379D02*
D03*
X700857D02*
D03*
X843620Y786779D02*
D03*
X6386Y355503D02*
D03*
X843620Y176780D02*
D03*
X96323Y843614D02*
D03*
X6386Y455503D02*
D03*
X126323Y843614D02*
D03*
X6386Y635502D02*
D03*
X843620Y616779D02*
D03*
X560857Y6379D02*
D03*
X470857D02*
D03*
X6386Y665502D02*
D03*
Y735502D02*
D03*
Y775502D02*
D03*
X390857Y6379D02*
D03*
X30858D02*
D03*
X6386Y305503D02*
D03*
X326322Y843614D02*
D03*
X366322D02*
D03*
X630857Y6379D02*
D03*
X396322Y843614D02*
D03*
X843620Y216780D02*
D03*
X280857Y6379D02*
D03*
X440857D02*
D03*
X6386Y545503D02*
D03*
X160858Y6379D02*
D03*
X66323Y843614D02*
D03*
X843620Y186780D02*
D03*
X736321Y843614D02*
D03*
X100858Y6379D02*
D03*
X430857D02*
D03*
X843620Y156780D02*
D03*
X6386Y835502D02*
D03*
Y255503D02*
D03*
Y385503D02*
D03*
Y715502D02*
D03*
X496322Y843614D02*
D03*
X246322D02*
D03*
X843620Y306780D02*
D03*
X400857Y6379D02*
D03*
X6386Y335503D02*
D03*
X416322Y843614D02*
D03*
X730856Y6379D02*
D03*
X26323Y843614D02*
D03*
X316322D02*
D03*
X843620Y406780D02*
D03*
X660857Y6379D02*
D03*
X460857D02*
D03*
X250858D02*
D03*
X740856D02*
D03*
X6386Y405503D02*
D03*
Y425503D02*
D03*
Y645502D02*
D03*
X843620Y586779D02*
D03*
X6386Y35503D02*
D03*
X843620Y526780D02*
D03*
X836321Y843614D02*
D03*
D148*
X714555Y718093D02*
X714566Y718104D01*
X786586D01*
X827076Y677615D01*
X741286Y21983D02*
X827076Y107773D01*
X218819Y21983D02*
X741286D01*
X213755Y27047D02*
X218819Y21983D01*
X827076Y107773D02*
Y677615D01*
X213755Y27047D02*
Y58755D01*
X225000Y70000D01*
D149*
X836210Y19065D02*
D03*
X15310Y15012D02*
D03*
X834940Y832882D02*
D03*
X20320Y829945D02*
D03*
M02*
